<?xml version="1.0" encoding="utf-8" standalone="no"?>
<!DOCTYPE svg PUBLIC "-//W3C//DTD SVG 1.1//EN"
  "http://www.w3.org/Graphics/SVG/1.1/DTD/svg11.dtd">
<svg xmlns:xlink="http://www.w3.org/1999/xlink" width="648pt" height="324pt" viewBox="0 0 648 324" xmlns="http://www.w3.org/2000/svg" version="1.1">
 <metadata>
  <rdf:RDF xmlns:dc="http://purl.org/dc/elements/1.1/" xmlns:cc="http://creativecommons.org/ns#" xmlns:rdf="http://www.w3.org/1999/02/22-rdf-syntax-ns#">
   <cc:Work>
    <dc:type rdf:resource="http://purl.org/dc/dcmitype/StillImage"/>
    <dc:date>2023-07-30T14:38:23.693803</dc:date>
    <dc:format>image/svg+xml</dc:format>
    <dc:creator>
     <cc:Agent>
      <dc:title>Matplotlib v3.5.1, https://matplotlib.org/</dc:title>
     </cc:Agent>
    </dc:creator>
   </cc:Work>
  </rdf:RDF>
 </metadata>
 <defs>
  <style type="text/css">*{stroke-linejoin: round; stroke-linecap: butt}</style>
 </defs>
 <g id="figure_1">
  <g id="patch_1">
   <path d="M 0 324 
L 648 324 
L 648 0 
L 0 0 
z
" style="fill: #ffffff"/>
  </g>
  <g id="axes_1">
   <g id="patch_2">
    <path d="M 65.99 269.08 
L 630.72 269.08 
L 630.72 34.8 
L 65.99 34.8 
z
" style="fill: #ffffff"/>
   </g>
   <g id="line2d_1">
    <path d="M 91.659545 104.661962 
L 96.845312 104.072902 
L 102.031079 103.35747 
L 107.216846 102.342533 
L 112.402612 101.058846 
L 117.588379 99.633508 
L 122.774146 97.985092 
L 127.959913 96.298655 
L 133.14568 94.59375 
L 138.331446 93.051609 
L 143.517213 91.606012 
L 148.70298 90.634126 
L 153.888747 89.996539 
L 159.074513 89.784773 
L 164.26028 90.288598 
L 169.446047 91.1099 
L 174.631814 92.655195 
L 179.81758 94.541043 
L 185.003347 96.753279 
L 190.189114 99.18734 
L 195.374881 101.641206 
L 200.560647 103.996809 
L 205.746414 106.025367 
L 210.932181 107.83476 
L 216.117948 108.921846 
L 221.303714 109.726956 
L 226.489481 109.868096 
L 231.675248 109.542691 
L 236.861015 108.892391 
L 242.046781 107.713332 
L 247.232548 106.377078 
L 252.418315 104.811933 
L 257.604082 103.16511 
L 262.789848 101.45421 
L 267.975615 99.830763 
L 273.161382 98.239961 
L 278.347149 96.772581 
L 283.532916 95.495586 
L 288.718682 94.313584 
L 293.904449 93.493097 
L 299.090216 92.844492 
L 304.275983 92.46332 
L 309.461749 92.437893 
L 314.647516 92.581043 
L 319.833283 93.125645 
L 325.01905 93.821122 
L 330.204816 94.709388 
L 335.390583 95.726757 
L 340.57635 96.766007 
L 345.762117 97.754461 
L 350.947883 98.649203 
L 356.13365 99.40958 
L 361.319417 99.846197 
L 366.505184 100.147393 
L 371.69095 100.092573 
L 376.876717 99.805527 
L 382.062484 99.314095 
L 387.248251 98.489432 
L 392.434017 97.565328 
L 397.619784 96.439219 
L 402.805551 95.227268 
L 407.991318 93.935836 
L 413.177084 92.657504 
L 418.362851 91.400013 
L 423.548618 90.238314 
L 428.734385 89.245217 
L 433.920152 88.322832 
L 439.105918 87.721427 
L 444.291685 87.21617 
L 449.477452 86.90868 
L 454.663219 86.734205 
L 459.848985 86.617626 
L 465.034752 86.523087 
L 470.220519 86.364318 
L 475.406286 86.106559 
L 480.592052 85.634669 
L 485.777819 85.05989 
L 490.963586 84.238853 
L 496.149353 83.339006 
L 501.335119 82.355891 
L 506.520886 81.476152 
L 511.706653 80.655724 
L 516.89242 80.171472 
L 522.078186 79.973467 
L 527.263953 80.07628 
L 532.44972 80.691494 
L 537.635487 81.504449 
L 542.821253 82.675967 
L 548.00702 83.878015 
L 553.192787 85.151082 
L 558.378554 86.11765 
L 563.56432 86.896355 
L 568.750087 87.146165 
L 573.935854 86.875338 
L 579.121621 86.231142 
L 584.307388 84.781294 
L 589.493154 83.090365 
L 594.678921 80.980162 
L 599.864688 78.735451 
L 605.050455 76.366806 
" clip-path="url(#p8a6cd3f838)" style="fill: none; stroke: #000000; stroke-width: 2.5; stroke-linecap: square"/>
   </g>
   <g id="PathCollection_1">
    <defs>
     <path id="m0472986b27" d="M -3.370787 -0.133427 
Q -2.799625 -0.133427 -2.509363 0.802903 
Q -1.924157 2.558521 -1.67603 2.558521 
Q -1.484082 2.558521 -1.27809 2.268258 
Q 2.832397 -4.31882 6.329588 -8.382491 
Q 7.233146 -9.435861 9.208801 -9.435861 
Q 9.676966 -9.435861 9.836142 -9.34691 
Q 10 -9.26264 10 -9.131554 
Q 10 -8.925562 9.51779 -8.326311 
Q 3.871723 -1.537921 -0.959738 6.013577 
Q -1.296816 6.537921 -2.331461 6.537921 
Q -3.384831 6.537921 -3.576779 6.44897 
Q -4.073034 6.233614 -4.747191 4.211142 
Q -5.5103 1.973315 -5.5103 1.402154 
Q -5.5103 0.788858 -4.485019 0.217697 
Q -3.852996 -0.133427 -3.370787 -0.133427 
z
" style="stroke: #ffffff; stroke-width: 0.5"/>
    </defs>
    <g clip-path="url(#p8a6cd3f838)">
     <use xlink:href="#m0472986b27" x="348.355" y="258.430909" style="fill: #1e2023; stroke: #ffffff; stroke-width: 0.5"/>
    </g>
   </g>
   <g id="PathCollection_2">
    <g clip-path="url(#p8a6cd3f838)">
     <use xlink:href="#m0472986b27" x="348.355" y="205.185455" style="fill: #1e2023; stroke: #ffffff; stroke-width: 0.5"/>
    </g>
   </g>
   <g id="PathCollection_3">
    <g clip-path="url(#p8a6cd3f838)">
     <use xlink:href="#m0472986b27" x="348.355" y="151.94" style="fill: #1e2023; stroke: #ffffff; stroke-width: 0.5"/>
    </g>
   </g>
   <g id="PathCollection_4">
    <g clip-path="url(#p8a6cd3f838)">
     <use xlink:href="#m0472986b27" x="348.355" y="98.694545" style="fill: #1e2023; stroke: #ffffff; stroke-width: 0.5"/>
    </g>
   </g>
   <g id="PathCollection_5">
    <defs>
     <path id="m3b2fa5d440" d="M -2.5 5 
L 0 2.5 
L 2.5 5 
L 5 2.5 
L 2.5 0 
L 5 -2.5 
L 2.5 -5 
L 0 -2.5 
L -2.5 -5 
L -5 -2.5 
L -2.5 0 
L -5 2.5 
z
" style="stroke: #ffffff; stroke-width: 0.5"/>
    </defs>
    <g clip-path="url(#p8a6cd3f838)">
     <use xlink:href="#m3b2fa5d440" x="348.355" y="45.449091" style="fill: #1e2023; stroke: #ffffff; stroke-width: 0.5"/>
    </g>
   </g>
   <g id="PathCollection_6">
    <g clip-path="url(#p8a6cd3f838)">
     <use xlink:href="#m3b2fa5d440" x="398.407405" y="72.071818" style="fill: #1e2023; stroke: #ffffff; stroke-width: 0.5"/>
    </g>
   </g>
   <g id="PathCollection_7">
    <g clip-path="url(#p8a6cd3f838)">
     <use xlink:href="#m0472986b27" x="398.407405" y="125.317273" style="fill: #1e2023; stroke: #ffffff; stroke-width: 0.5"/>
    </g>
   </g>
   <g id="PathCollection_8">
    <g clip-path="url(#p8a6cd3f838)">
     <use xlink:href="#m3b2fa5d440" x="433.920152" y="72.071818" style="fill: #1e2023; stroke: #ffffff; stroke-width: 0.5"/>
    </g>
   </g>
   <g id="PathCollection_9">
    <g clip-path="url(#p8a6cd3f838)">
     <use xlink:href="#m0472986b27" x="433.920152" y="125.317273" style="fill: #1e2023; stroke: #ffffff; stroke-width: 0.5"/>
    </g>
   </g>
   <g id="PathCollection_10">
    <g clip-path="url(#p8a6cd3f838)">
     <use xlink:href="#m3b2fa5d440" x="483.972557" y="72.071818" style="fill: #1e2023; stroke: #ffffff; stroke-width: 0.5"/>
    </g>
   </g>
   <g id="PathCollection_11">
    <g clip-path="url(#p8a6cd3f838)">
     <use xlink:href="#m0472986b27" x="483.972557" y="125.317273" style="fill: #1e2023; stroke: #ffffff; stroke-width: 0.5"/>
    </g>
   </g>
   <g id="PathCollection_12">
    <g clip-path="url(#p8a6cd3f838)">
     <use xlink:href="#m3b2fa5d440" x="519.485303" y="72.071818" style="fill: #1e2023; stroke: #ffffff; stroke-width: 0.5"/>
    </g>
   </g>
   <g id="PathCollection_13">
    <g clip-path="url(#p8a6cd3f838)">
     <use xlink:href="#m0472986b27" x="519.485303" y="125.317273" style="fill: #1e2023; stroke: #ffffff; stroke-width: 0.5"/>
    </g>
   </g>
   <g id="PathCollection_14">
    <g clip-path="url(#p8a6cd3f838)">
     <use xlink:href="#m3b2fa5d440" x="569.537708" y="72.071818" style="fill: #1e2023; stroke: #ffffff; stroke-width: 0.5"/>
    </g>
   </g>
   <g id="PathCollection_15">
    <g clip-path="url(#p8a6cd3f838)">
     <use xlink:href="#m0472986b27" x="569.537708" y="125.317273" style="fill: #1e2023; stroke: #ffffff; stroke-width: 0.5"/>
    </g>
   </g>
   <g id="PathCollection_16">
    <g clip-path="url(#p8a6cd3f838)">
     <use xlink:href="#m3b2fa5d440" x="605.050455" y="72.071818" style="fill: #1e2023; stroke: #ffffff; stroke-width: 0.5"/>
    </g>
   </g>
   <g id="PathCollection_17">
    <g clip-path="url(#p8a6cd3f838)">
     <use xlink:href="#m0472986b27" x="605.050455" y="98.694545" style="fill: #1e2023; stroke: #ffffff; stroke-width: 0.5"/>
    </g>
   </g>
   <g id="PathCollection_18">
    <g clip-path="url(#p8a6cd3f838)">
     <use xlink:href="#m3b2fa5d440" x="312.842253" y="72.071818" style="fill: #1e2023; stroke: #ffffff; stroke-width: 0.5"/>
    </g>
   </g>
   <g id="PathCollection_19">
    <g clip-path="url(#p8a6cd3f838)">
     <use xlink:href="#m0472986b27" x="312.842253" y="125.317273" style="fill: #1e2023; stroke: #ffffff; stroke-width: 0.5"/>
    </g>
   </g>
   <g id="PathCollection_20">
    <g clip-path="url(#p8a6cd3f838)">
     <use xlink:href="#m3b2fa5d440" x="262.789848" y="72.071818" style="fill: #1e2023; stroke: #ffffff; stroke-width: 0.5"/>
    </g>
   </g>
   <g id="PathCollection_21">
    <g clip-path="url(#p8a6cd3f838)">
     <use xlink:href="#m0472986b27" x="262.789848" y="125.317273" style="fill: #1e2023; stroke: #ffffff; stroke-width: 0.5"/>
    </g>
   </g>
   <g id="PathCollection_22">
    <g clip-path="url(#p8a6cd3f838)">
     <use xlink:href="#m3b2fa5d440" x="177.224697" y="72.071818" style="fill: #1e2023; stroke: #ffffff; stroke-width: 0.5"/>
    </g>
   </g>
   <g id="PathCollection_23">
    <g clip-path="url(#p8a6cd3f838)">
     <use xlink:href="#m0472986b27" x="177.224697" y="125.317273" style="fill: #1e2023; stroke: #ffffff; stroke-width: 0.5"/>
    </g>
   </g>
   <g id="PathCollection_24">
    <g clip-path="url(#p8a6cd3f838)">
     <use xlink:href="#m3b2fa5d440" x="91.659545" y="72.071818" style="fill: #1e2023; stroke: #ffffff; stroke-width: 0.5"/>
    </g>
   </g>
   <g id="PathCollection_25">
    <g clip-path="url(#p8a6cd3f838)">
     <use xlink:href="#m3b2fa5d440" x="91.659545" y="98.694545" style="fill: #1e2023; stroke: #ffffff; stroke-width: 0.5"/>
    </g>
   </g>
   <g id="PathCollection_26">
    <g clip-path="url(#p8a6cd3f838)">
     <use xlink:href="#m0472986b27" x="91.659545" y="125.317273" style="fill: #1e2023; stroke: #ffffff; stroke-width: 0.5"/>
    </g>
   </g>
   <g id="PathCollection_27">
    <g clip-path="url(#p8a6cd3f838)">
     <use xlink:href="#m3b2fa5d440" x="220.007273" y="96.032273" style="fill: #1e2023; stroke: #ffffff; stroke-width: 0.5"/>
    </g>
   </g>
   <g id="PathCollection_28">
    <g clip-path="url(#p8a6cd3f838)">
     <use xlink:href="#m3b2fa5d440" x="151.555152" y="104.019091" style="fill: #1e2023; stroke: #ffffff; stroke-width: 0.5"/>
    </g>
   </g>
   <g id="PathCollection_29">
    <g clip-path="url(#p8a6cd3f838)">
     <use xlink:href="#m3b2fa5d440" x="459.589697" y="98.694545" style="fill: #1e2023; stroke: #ffffff; stroke-width: 0.5"/>
    </g>
   </g>
   <g id="PathCollection_30">
    <g clip-path="url(#p8a6cd3f838)">
     <use xlink:href="#m0472986b27" x="536.598333" y="98.694545" style="fill: #1e2023; stroke: #ffffff; stroke-width: 0.5"/>
    </g>
   </g>
   <g id="PathCollection_31">
    <g clip-path="url(#p8a6cd3f838)">
     <use xlink:href="#m3b2fa5d440" x="288.459394" y="98.694545" style="fill: #1e2023; stroke: #ffffff; stroke-width: 0.5"/>
    </g>
   </g>
   <g id="PathCollection_32">
    <g clip-path="url(#p8a6cd3f838)">
     <use xlink:href="#m3b2fa5d440" x="399.694091" y="98.694545" style="fill: #1e2023; stroke: #ffffff; stroke-width: 0.5"/>
    </g>
   </g>
   <g id="PathCollection_33">
    <g clip-path="url(#p8a6cd3f838)">
     <use xlink:href="#m3b2fa5d440" x="228.563788" y="109.343636" style="fill: #1e2023; stroke: #ffffff; stroke-width: 0.5"/>
    </g>
   </g>
   <g id="PathCollection_34">
    <g clip-path="url(#p8a6cd3f838)">
     <use xlink:href="#m0472986b27" x="493.815758" y="101.356818" style="fill: #1e2023; stroke: #ffffff; stroke-width: 0.5"/>
    </g>
   </g>
   <g id="PathCollection_35">
    <g clip-path="url(#p8a6cd3f838)">
     <use xlink:href="#m0472986b27" x="117.329091" y="112.005909" style="fill: #1e2023; stroke: #ffffff; stroke-width: 0.5"/>
    </g>
   </g>
   <g id="PathCollection_36">
    <g clip-path="url(#p8a6cd3f838)">
     <use xlink:href="#m0472986b27" x="570.824394" y="90.707727" style="fill: #1e2023; stroke: #ffffff; stroke-width: 0.5"/>
    </g>
   </g>
   <g id="PathCollection_37">
    <g clip-path="url(#p8a6cd3f838)">
     <use xlink:href="#m3b2fa5d440" x="194.337727" y="114.668182" style="fill: #1e2023; stroke: #ffffff; stroke-width: 0.5"/>
    </g>
   </g>
   <g id="PathCollection_38">
    <g clip-path="url(#p8a6cd3f838)">
     <use xlink:href="#m0472986b27" x="314.128939" y="98.694545" style="fill: #1e2023; stroke: #ffffff; stroke-width: 0.5"/>
    </g>
   </g>
   <g id="PathCollection_39">
    <g clip-path="url(#p8a6cd3f838)">
     <use xlink:href="#m0472986b27" x="245.676818" y="117.330455" style="fill: #1e2023; stroke: #ffffff; stroke-width: 0.5"/>
    </g>
   </g>
   <g id="PathCollection_40">
    <g clip-path="url(#p8a6cd3f838)">
     <use xlink:href="#m0472986b27" x="605.050455" y="88.045455" style="fill: #1e2023; stroke: #ffffff; stroke-width: 0.5"/>
    </g>
   </g>
   <g id="PathCollection_41">
    <g clip-path="url(#p8a6cd3f838)">
     <use xlink:href="#m3b2fa5d440" x="365.46803" y="93.37" style="fill: #1e2023; stroke: #ffffff; stroke-width: 0.5"/>
    </g>
   </g>
   <g id="PathCollection_42">
    <g clip-path="url(#p8a6cd3f838)">
     <use xlink:href="#m0472986b27" x="425.363636" y="109.343636" style="fill: #1e2023; stroke: #ffffff; stroke-width: 0.5"/>
    </g>
   </g>
   <g id="PathCollection_43">
    <g clip-path="url(#p8a6cd3f838)">
     <use xlink:href="#m0472986b27" x="528.041818" y="88.045455" style="fill: #1e2023; stroke: #ffffff; stroke-width: 0.5"/>
    </g>
   </g>
   <g id="PathCollection_44">
    <g clip-path="url(#p8a6cd3f838)">
     <use xlink:href="#m3b2fa5d440" x="91.659545" y="106.681364" style="fill: #1e2023; stroke: #ffffff; stroke-width: 0.5"/>
    </g>
   </g>
   <g id="PathCollection_45">
    <g clip-path="url(#p8a6cd3f838)">
     <use xlink:href="#m0472986b27" x="485.259242" y="96.032273" style="fill: #1e2023; stroke: #ffffff; stroke-width: 0.5"/>
    </g>
   </g>
   <g id="PathCollection_46">
    <g clip-path="url(#p8a6cd3f838)">
     <use xlink:href="#m0472986b27" x="142.998636" y="109.343636" style="fill: #1e2023; stroke: #ffffff; stroke-width: 0.5"/>
    </g>
   </g>
   <g id="PathCollection_47">
    <g clip-path="url(#p8a6cd3f838)">
     <use xlink:href="#m3b2fa5d440" x="553.711364" y="80.058636" style="fill: #1e2023; stroke: #ffffff; stroke-width: 0.5"/>
    </g>
   </g>
   <g id="PathCollection_48">
    <g clip-path="url(#p8a6cd3f838)">
     <use xlink:href="#m0472986b27" x="605.050455" y="82.720909" style="fill: #1e2023; stroke: #ffffff; stroke-width: 0.5"/>
    </g>
   </g>
   <g id="PathCollection_49">
    <g clip-path="url(#p8a6cd3f838)">
     <use xlink:href="#m3b2fa5d440" x="271.346364" y="106.681364" style="fill: #1e2023; stroke: #ffffff; stroke-width: 0.5"/>
    </g>
   </g>
   <g id="PathCollection_50">
    <g clip-path="url(#p8a6cd3f838)">
     <use xlink:href="#m0472986b27" x="391.137576" y="104.019091" style="fill: #1e2023; stroke: #ffffff; stroke-width: 0.5"/>
    </g>
   </g>
   <g id="PathCollection_51">
    <g clip-path="url(#p8a6cd3f838)">
     <use xlink:href="#m0472986b27" x="202.894242" y="119.992727" style="fill: #1e2023; stroke: #ffffff; stroke-width: 0.5"/>
    </g>
   </g>
   <g id="PathCollection_52">
    <defs>
     <path id="m4ca0b2bdd2" d="M -3.370787 -0.133427 
Q -2.799625 -0.133427 -2.509363 0.802903 
Q -1.924157 2.558521 -1.67603 2.558521 
Q -1.484082 2.558521 -1.27809 2.268258 
Q 2.832397 -4.31882 6.329588 -8.382491 
Q 7.233146 -9.435861 9.208801 -9.435861 
Q 9.676966 -9.435861 9.836142 -9.34691 
Q 10 -9.26264 10 -9.131554 
Q 10 -8.925562 9.51779 -8.326311 
Q 3.871723 -1.537921 -0.959738 6.013577 
Q -1.296816 6.537921 -2.331461 6.537921 
Q -3.384831 6.537921 -3.576779 6.44897 
Q -4.073034 6.233614 -4.747191 4.211142 
Q -5.5103 1.973315 -5.5103 1.402154 
Q -5.5103 0.788858 -4.485019 0.217697 
Q -3.852996 -0.133427 -3.370787 -0.133427 
z
" style="stroke: #ffffff; stroke-width: 0.5"/>
    </defs>
    <g clip-path="url(#p8a6cd3f838)">
     <use xlink:href="#m4ca0b2bdd2" x="204.15318" y="118.447481" style="fill: #bb8694; stroke: #ffffff; stroke-width: 0.5"/>
    </g>
   </g>
   <g id="PathCollection_53">
    <g clip-path="url(#p8a6cd3f838)">
     <use xlink:href="#m4ca0b2bdd2" x="468.799344" y="97.605216" style="fill: #bb8694; stroke: #ffffff; stroke-width: 0.5"/>
    </g>
   </g>
   <g id="PathCollection_54">
    <defs>
     <path id="m37693236c3" d="M -2.5 5 
L 0 2.5 
L 2.5 5 
L 5 2.5 
L 2.5 0 
L 5 -2.5 
L 2.5 -5 
L 0 -2.5 
L -2.5 -5 
L -5 -2.5 
L -2.5 0 
L -5 2.5 
z
" style="stroke: #ffffff; stroke-width: 0.5"/>
    </defs>
    <g clip-path="url(#p8a6cd3f838)">
     <use xlink:href="#m37693236c3" x="577.816281" y="81.956234" style="fill: #bb8694; stroke: #ffffff; stroke-width: 0.5"/>
    </g>
   </g>
   <g id="PathCollection_55">
    <g clip-path="url(#p8a6cd3f838)">
     <use xlink:href="#m4ca0b2bdd2" x="498.42748" y="88.045455" style="fill: #bb8694; stroke: #ffffff; stroke-width: 0.5"/>
    </g>
   </g>
   <g id="PathCollection_56">
    <g clip-path="url(#p8a6cd3f838)">
     <use xlink:href="#m37693236c3" x="228.563788" y="93.37" style="fill: #bb8694; stroke: #ffffff; stroke-width: 0.5"/>
    </g>
   </g>
   <g id="PathCollection_57">
    <g clip-path="url(#p8a6cd3f838)">
     <use xlink:href="#m4ca0b2bdd2" x="94.793228" y="109.343636" style="fill: #bb8694; stroke: #ffffff; stroke-width: 0.5"/>
    </g>
   </g>
   <g id="PathCollection_58">
    <g clip-path="url(#p8a6cd3f838)">
     <use xlink:href="#m4ca0b2bdd2" x="151.555152" y="98.694545" style="fill: #bb8694; stroke: #ffffff; stroke-width: 0.5"/>
    </g>
   </g>
   <g id="PathCollection_59">
    <g clip-path="url(#p8a6cd3f838)">
     <use xlink:href="#m4ca0b2bdd2" x="482.819661" y="93.37" style="fill: #bb8694; stroke: #ffffff; stroke-width: 0.5"/>
    </g>
   </g>
   <g id="PathCollection_60">
    <g clip-path="url(#p8a6cd3f838)">
     <use xlink:href="#m4ca0b2bdd2" x="288.459394" y="96.032273" style="fill: #bb8694; stroke: #ffffff; stroke-width: 0.5"/>
    </g>
   </g>
   <g id="PathCollection_61">
    <g clip-path="url(#p8a6cd3f838)">
     <use xlink:href="#m4ca0b2bdd2" x="505.058473" y="87.041453" style="fill: #bb8694; stroke: #ffffff; stroke-width: 0.5"/>
    </g>
   </g>
   <g id="PathCollection_62">
    <g clip-path="url(#p8a6cd3f838)">
     <use xlink:href="#m37693236c3" x="399.694091" y="90.707727" style="fill: #bb8694; stroke: #ffffff; stroke-width: 0.5"/>
    </g>
   </g>
   <g id="PathCollection_63">
    <g clip-path="url(#p8a6cd3f838)">
     <use xlink:href="#m4ca0b2bdd2" x="528.758583" y="84.278043" style="fill: #bb8694; stroke: #ffffff; stroke-width: 0.5"/>
    </g>
   </g>
   <g id="PathCollection_64">
    <g clip-path="url(#p8a6cd3f838)">
     <use xlink:href="#m4ca0b2bdd2" x="185.781212" y="93.37" style="fill: #bb8694; stroke: #ffffff; stroke-width: 0.5"/>
    </g>
   </g>
   <g id="PathCollection_65">
    <g clip-path="url(#p8a6cd3f838)">
     <use xlink:href="#m4ca0b2bdd2" x="140.204086" y="106.042827" style="fill: #bb8694; stroke: #ffffff; stroke-width: 0.5"/>
    </g>
   </g>
   <g id="PathCollection_66">
    <g clip-path="url(#p8a6cd3f838)">
     <use xlink:href="#m4ca0b2bdd2" x="433.920152" y="93.37" style="fill: #bb8694; stroke: #ffffff; stroke-width: 0.5"/>
    </g>
   </g>
   <g id="PathCollection_67">
    <g clip-path="url(#p8a6cd3f838)">
     <use xlink:href="#m37693236c3" x="569.02529" y="82.981705" style="fill: #bb8694; stroke: #ffffff; stroke-width: 0.5"/>
    </g>
   </g>
   <g id="PathCollection_68">
    <g clip-path="url(#p8a6cd3f838)">
     <use xlink:href="#m4ca0b2bdd2" x="142.998636" y="88.045455" style="fill: #bb8694; stroke: #ffffff; stroke-width: 0.5"/>
    </g>
   </g>
   <g id="PathCollection_69">
    <g clip-path="url(#p8a6cd3f838)">
     <use xlink:href="#m4ca0b2bdd2" x="382.850179" y="99.457891" style="fill: #bb8694; stroke: #ffffff; stroke-width: 0.5"/>
    </g>
   </g>
   <g id="PathCollection_70">
    <g clip-path="url(#p8a6cd3f838)">
     <use xlink:href="#m37693236c3" x="331.24197" y="85.383182" style="fill: #bb8694; stroke: #ffffff; stroke-width: 0.5"/>
    </g>
   </g>
   <g id="PathCollection_71">
    <g clip-path="url(#p8a6cd3f838)">
     <use xlink:href="#m4ca0b2bdd2" x="384.687646" y="99.457891" style="fill: #bb8694; stroke: #ffffff; stroke-width: 0.5"/>
    </g>
   </g>
   <g id="PathCollection_72">
    <g clip-path="url(#p8a6cd3f838)">
     <use xlink:href="#m4ca0b2bdd2" x="262.789848" y="93.37" style="fill: #bb8694; stroke: #ffffff; stroke-width: 0.5"/>
    </g>
   </g>
   <g id="PathCollection_73">
    <g clip-path="url(#p8a6cd3f838)">
     <use xlink:href="#m4ca0b2bdd2" x="533.334644" y="84.274062" style="fill: #bb8694; stroke: #ffffff; stroke-width: 0.5"/>
    </g>
   </g>
   <g id="PathCollection_74">
    <g clip-path="url(#p8a6cd3f838)">
     <use xlink:href="#m4ca0b2bdd2" x="605.050455" y="90.707727" style="fill: #bb8694; stroke: #ffffff; stroke-width: 0.5"/>
    </g>
   </g>
   <g id="PathCollection_75">
    <g clip-path="url(#p8a6cd3f838)">
     <use xlink:href="#m4ca0b2bdd2" x="295.373102" y="101.356818" style="fill: #bb8694; stroke: #ffffff; stroke-width: 0.5"/>
    </g>
   </g>
   <g id="PathCollection_76">
    <g clip-path="url(#p8a6cd3f838)">
     <use xlink:href="#m37693236c3" x="134.442121" y="85.383182" style="fill: #bb8694; stroke: #ffffff; stroke-width: 0.5"/>
    </g>
   </g>
   <g id="PathCollection_77">
    <defs>
     <path id="m59b80f43a2" d="M -3.370787 -0.133427 
Q -2.799625 -0.133427 -2.509363 0.802903 
Q -1.924157 2.558521 -1.67603 2.558521 
Q -1.484082 2.558521 -1.27809 2.268258 
Q 2.832397 -4.31882 6.329588 -8.382491 
Q 7.233146 -9.435861 9.208801 -9.435861 
Q 9.676966 -9.435861 9.836142 -9.34691 
Q 10 -9.26264 10 -9.131554 
Q 10 -8.925562 9.51779 -8.326311 
Q 3.871723 -1.537921 -0.959738 6.013577 
Q -1.296816 6.537921 -2.331461 6.537921 
Q -3.384831 6.537921 -3.576779 6.44897 
Q -4.073034 6.233614 -4.747191 4.211142 
Q -5.5103 1.973315 -5.5103 1.402154 
Q -5.5103 0.788858 -4.485019 0.217697 
Q -3.852996 -0.133427 -3.370787 -0.133427 
z
" style="stroke: #ffffff; stroke-width: 0.5"/>
    </defs>
    <g clip-path="url(#p8a6cd3f838)">
     <use xlink:href="#m59b80f43a2" x="205.754149" y="98.663306" style="fill: #5e586a; stroke: #ffffff; stroke-width: 0.5"/>
    </g>
   </g>
   <g id="PathCollection_78">
    <g clip-path="url(#p8a6cd3f838)">
     <use xlink:href="#m59b80f43a2" x="177.224697" y="103.634161" style="fill: #5e586a; stroke: #ffffff; stroke-width: 0.5"/>
    </g>
   </g>
   <g id="PathCollection_79">
    <g clip-path="url(#p8a6cd3f838)">
     <use xlink:href="#m59b80f43a2" x="98.385808" y="98.168815" style="fill: #5e586a; stroke: #ffffff; stroke-width: 0.5"/>
    </g>
   </g>
   <g id="PathCollection_80">
    <g clip-path="url(#p8a6cd3f838)">
     <use xlink:href="#m59b80f43a2" x="455.497408" y="99.373115" style="fill: #5e586a; stroke: #ffffff; stroke-width: 0.5"/>
    </g>
   </g>
   <g id="PathCollection_81">
    <g clip-path="url(#p8a6cd3f838)">
     <use xlink:href="#m59b80f43a2" x="305.728261" y="97.208701" style="fill: #5e586a; stroke: #ffffff; stroke-width: 0.5"/>
    </g>
   </g>
   <g id="PathCollection_82">
    <defs>
     <path id="m7ea3a08500" d="M -2.5 5 
L 0 2.5 
L 2.5 5 
L 5 2.5 
L 2.5 0 
L 5 -2.5 
L 2.5 -5 
L 0 -2.5 
L -2.5 -5 
L -5 -2.5 
L -2.5 0 
L -5 2.5 
z
" style="stroke: #ffffff; stroke-width: 0.5"/>
    </defs>
    <g clip-path="url(#p8a6cd3f838)">
     <use xlink:href="#m7ea3a08500" x="405.600377" y="101.672374" style="fill: #5e586a; stroke: #ffffff; stroke-width: 0.5"/>
    </g>
   </g>
   <g id="PathCollection_83">
    <g clip-path="url(#p8a6cd3f838)">
     <use xlink:href="#m59b80f43a2" x="191.654578" y="105.938732" style="fill: #5e586a; stroke: #ffffff; stroke-width: 0.5"/>
    </g>
   </g>
   <g id="PathCollection_84">
    <g clip-path="url(#p8a6cd3f838)">
     <use xlink:href="#m59b80f43a2" x="355.664374" y="95.002992" style="fill: #5e586a; stroke: #ffffff; stroke-width: 0.5"/>
    </g>
   </g>
   <g id="PathCollection_85">
    <g clip-path="url(#p8a6cd3f838)">
     <use xlink:href="#m7ea3a08500" x="277.21973" y="100.096778" style="fill: #5e586a; stroke: #ffffff; stroke-width: 0.5"/>
    </g>
   </g>
   <g id="PathCollection_86">
    <g clip-path="url(#p8a6cd3f838)">
     <use xlink:href="#m59b80f43a2" x="408.288231" y="97.851485" style="fill: #5e586a; stroke: #ffffff; stroke-width: 0.5"/>
    </g>
   </g>
   <g id="PathCollection_87">
    <g clip-path="url(#p8a6cd3f838)">
     <use xlink:href="#m59b80f43a2" x="422.549033" y="99.501825" style="fill: #5e586a; stroke: #ffffff; stroke-width: 0.5"/>
    </g>
   </g>
   <g id="PathCollection_88">
    <g clip-path="url(#p8a6cd3f838)">
     <use xlink:href="#m59b80f43a2" x="394.052062" y="99.969065" style="fill: #5e586a; stroke: #ffffff; stroke-width: 0.5"/>
    </g>
   </g>
   <g id="PathCollection_89">
    <g clip-path="url(#p8a6cd3f838)">
     <use xlink:href="#m59b80f43a2" x="522.352686" y="92.922163" style="fill: #5e586a; stroke: #ffffff; stroke-width: 0.5"/>
    </g>
   </g>
   <g id="PathCollection_90">
    <g clip-path="url(#p8a6cd3f838)">
     <use xlink:href="#m59b80f43a2" x="493.815393" y="93.587362" style="fill: #5e586a; stroke: #ffffff; stroke-width: 0.5"/>
    </g>
   </g>
   <g id="PathCollection_91">
    <g clip-path="url(#p8a6cd3f838)">
     <use xlink:href="#m59b80f43a2" x="465.306456" y="97.191134" style="fill: #5e586a; stroke: #ffffff; stroke-width: 0.5"/>
    </g>
   </g>
   <g id="PathCollection_92">
    <g clip-path="url(#p8a6cd3f838)">
     <use xlink:href="#m7ea3a08500" x="365.500442" y="96.104413" style="fill: #5e586a; stroke: #ffffff; stroke-width: 0.5"/>
    </g>
   </g>
   <g id="PathCollection_93">
    <g clip-path="url(#p8a6cd3f838)">
     <use xlink:href="#m59b80f43a2" x="134.597958" y="106.681364" style="fill: #5e586a; stroke: #ffffff; stroke-width: 0.5"/>
    </g>
   </g>
   <g id="PathCollection_94">
    <g clip-path="url(#p8a6cd3f838)">
     <use xlink:href="#m59b80f43a2" x="291.319301" y="104.163979" style="fill: #5e586a; stroke: #ffffff; stroke-width: 0.5"/>
    </g>
   </g>
   <g id="PathCollection_95">
    <g clip-path="url(#p8a6cd3f838)">
     <use xlink:href="#m59b80f43a2" x="319.879851" y="101.870804" style="fill: #5e586a; stroke: #ffffff; stroke-width: 0.5"/>
    </g>
   </g>
   <g id="PathCollection_96">
    <g clip-path="url(#p8a6cd3f838)">
     <use xlink:href="#m59b80f43a2" x="184.417669" y="115.75113" style="fill: #5e586a; stroke: #ffffff; stroke-width: 0.5"/>
    </g>
   </g>
   <g id="PathCollection_97">
    <g clip-path="url(#p8a6cd3f838)">
     <use xlink:href="#m59b80f43a2" x="234.3147" y="111.325563" style="fill: #5e586a; stroke: #ffffff; stroke-width: 0.5"/>
    </g>
   </g>
   <g id="PathCollection_98">
    <g clip-path="url(#p8a6cd3f838)">
     <use xlink:href="#m59b80f43a2" x="262.789848" y="109.830834" style="fill: #5e586a; stroke: #ffffff; stroke-width: 0.5"/>
    </g>
   </g>
   <g id="PathCollection_99">
    <g clip-path="url(#p8a6cd3f838)">
     <use xlink:href="#m7ea3a08500" x="106.527951" y="106.78699" style="fill: #5e586a; stroke: #ffffff; stroke-width: 0.5"/>
    </g>
   </g>
   <g id="PathCollection_100">
    <g clip-path="url(#p8a6cd3f838)">
     <use xlink:href="#m59b80f43a2" x="442.502756" y="102.849587" style="fill: #5e586a; stroke: #ffffff; stroke-width: 0.5"/>
    </g>
   </g>
   <g id="PathCollection_101">
    <g clip-path="url(#p8a6cd3f838)">
     <use xlink:href="#m59b80f43a2" x="428.236284" y="102.845966" style="fill: #5e586a; stroke: #ffffff; stroke-width: 0.5"/>
    </g>
   </g>
   <g id="PathCollection_102">
    <g clip-path="url(#p8a6cd3f838)">
     <use xlink:href="#m7ea3a08500" x="335.622849" y="96.618283" style="fill: #5e586a; stroke: #ffffff; stroke-width: 0.5"/>
    </g>
   </g>
   <g id="PathCollection_103">
    <g clip-path="url(#p8a6cd3f838)">
     <use xlink:href="#m59b80f43a2" x="570.827117" y="98.694545" style="fill: #5e586a; stroke: #ffffff; stroke-width: 0.5"/>
    </g>
   </g>
   <g id="PathCollection_104">
    <g clip-path="url(#p8a6cd3f838)">
     <use xlink:href="#m59b80f43a2" x="414.00324" y="102.123052" style="fill: #5e586a; stroke: #ffffff; stroke-width: 0.5"/>
    </g>
   </g>
   <g id="PathCollection_105">
    <g clip-path="url(#p8a6cd3f838)">
     <use xlink:href="#m59b80f43a2" x="385.492644" y="99.286975" style="fill: #5e586a; stroke: #ffffff; stroke-width: 0.5"/>
    </g>
   </g>
   <g id="PathCollection_106">
    <g clip-path="url(#p8a6cd3f838)">
     <use xlink:href="#m7ea3a08500" x="556.577252" y="88.410081" style="fill: #5e586a; stroke: #ffffff; stroke-width: 0.5"/>
    </g>
   </g>
   <g id="PathCollection_107">
    <g clip-path="url(#p8a6cd3f838)">
     <use xlink:href="#m59b80f43a2" x="605.050455" y="90.707727" style="fill: #5e586a; stroke: #ffffff; stroke-width: 0.5"/>
    </g>
   </g>
   <g id="PathCollection_108">
    <g clip-path="url(#p8a6cd3f838)">
     <use xlink:href="#m7ea3a08500" x="348.355" y="91.717332" style="fill: #5e586a; stroke: #ffffff; stroke-width: 0.5"/>
    </g>
   </g>
   <g id="PathCollection_109">
    <g clip-path="url(#p8a6cd3f838)">
     <use xlink:href="#m7ea3a08500" x="376.884452" y="97.315419" style="fill: #5e586a; stroke: #ffffff; stroke-width: 0.5"/>
    </g>
   </g>
   <g id="PathCollection_110">
    <g clip-path="url(#p8a6cd3f838)">
     <use xlink:href="#m7ea3a08500" x="362.675006" y="95.864259" style="fill: #5e586a; stroke: #ffffff; stroke-width: 0.5"/>
    </g>
   </g>
   <g id="PathCollection_111">
    <g clip-path="url(#p8a6cd3f838)">
     <use xlink:href="#m59b80f43a2" x="555.12914" y="88.559555" style="fill: #5e586a; stroke: #ffffff; stroke-width: 0.5"/>
    </g>
   </g>
   <g id="PathCollection_112">
    <g clip-path="url(#p8a6cd3f838)">
     <use xlink:href="#m7ea3a08500" x="505.203836" y="89.087596" style="fill: #5e586a; stroke: #ffffff; stroke-width: 0.5"/>
    </g>
   </g>
   <g id="PathCollection_113">
    <g clip-path="url(#p8a6cd3f838)">
     <use xlink:href="#m59b80f43a2" x="171.152436" y="112.109655" style="fill: #5e586a; stroke: #ffffff; stroke-width: 0.5"/>
    </g>
   </g>
   <g id="PathCollection_114">
    <g clip-path="url(#p8a6cd3f838)">
     <use xlink:href="#m59b80f43a2" x="114.166124" y="110.404654" style="fill: #5e586a; stroke: #ffffff; stroke-width: 0.5"/>
    </g>
   </g>
   <g id="PathCollection_115">
    <g clip-path="url(#p8a6cd3f838)">
     <use xlink:href="#m59b80f43a2" x="228.260728" y="113.675222" style="fill: #5e586a; stroke: #ffffff; stroke-width: 0.5"/>
    </g>
   </g>
   <g id="PathCollection_116">
    <g clip-path="url(#p8a6cd3f838)">
     <use xlink:href="#m59b80f43a2" x="185.345826" y="112.917201" style="fill: #5e586a; stroke: #ffffff; stroke-width: 0.5"/>
    </g>
   </g>
   <g id="PathCollection_117">
    <g clip-path="url(#p8a6cd3f838)">
     <use xlink:href="#m59b80f43a2" x="100.24215" y="109.977813" style="fill: #5e586a; stroke: #ffffff; stroke-width: 0.5"/>
    </g>
   </g>
   <g id="PathCollection_118">
    <g clip-path="url(#p8a6cd3f838)">
     <use xlink:href="#m7ea3a08500" x="199.731276" y="118.316402" style="fill: #5e586a; stroke: #ffffff; stroke-width: 0.5"/>
    </g>
   </g>
   <g id="PathCollection_119">
    <g clip-path="url(#p8a6cd3f838)">
     <use xlink:href="#m7ea3a08500" x="297.061937" y="80.058636" style="fill: #5e586a; stroke: #ffffff; stroke-width: 0.5"/>
    </g>
   </g>
   <g id="PathCollection_120">
    <g clip-path="url(#p8a6cd3f838)">
     <use xlink:href="#m7ea3a08500" x="496.706847" y="83.577197" style="fill: #5e586a; stroke: #ffffff; stroke-width: 0.5"/>
    </g>
   </g>
   <g id="PathCollection_121">
    <g clip-path="url(#p8a6cd3f838)">
     <use xlink:href="#m7ea3a08500" x="133.195165" y="93.070237" style="fill: #5e586a; stroke: #ffffff; stroke-width: 0.5"/>
    </g>
   </g>
   <g id="PathCollection_122">
    <g clip-path="url(#p8a6cd3f838)">
     <use xlink:href="#m59b80f43a2" x="189.884736" y="102.803682" style="fill: #5e586a; stroke: #ffffff; stroke-width: 0.5"/>
    </g>
   </g>
   <g id="PathCollection_123">
    <g clip-path="url(#p8a6cd3f838)">
     <use xlink:href="#m7ea3a08500" x="104.764429" y="90.813695" style="fill: #5e586a; stroke: #ffffff; stroke-width: 0.5"/>
    </g>
   </g>
   <g id="PathCollection_124">
    <g clip-path="url(#p8a6cd3f838)">
     <use xlink:href="#m7ea3a08500" x="375.505171" y="95.097293" style="fill: #5e586a; stroke: #ffffff; stroke-width: 0.5"/>
    </g>
   </g>
   <g id="PathCollection_125">
    <g clip-path="url(#p8a6cd3f838)">
     <use xlink:href="#m59b80f43a2" x="453.932819" y="84.450433" style="fill: #5e586a; stroke: #ffffff; stroke-width: 0.5"/>
    </g>
   </g>
   <g id="PathCollection_126">
    <g clip-path="url(#p8a6cd3f838)">
     <use xlink:href="#m7ea3a08500" x="218.407114" y="117.501915" style="fill: #5e586a; stroke: #ffffff; stroke-width: 0.5"/>
    </g>
   </g>
   <g id="PathCollection_127">
    <g clip-path="url(#p8a6cd3f838)">
     <use xlink:href="#m7ea3a08500" x="425.425408" y="93.167353" style="fill: #5e586a; stroke: #ffffff; stroke-width: 0.5"/>
    </g>
   </g>
   <g id="PathCollection_128">
    <g clip-path="url(#p8a6cd3f838)">
     <use xlink:href="#m7ea3a08500" x="482.440609" y="81.828754" style="fill: #5e586a; stroke: #ffffff; stroke-width: 0.5"/>
    </g>
   </g>
   <g id="matplotlib.axis_1">
    <g id="xtick_1">
     <g id="line2d_2">
      <defs>
       <path id="m10b5e718c0" d="M 0 0 
L 0 3.5 
" style="stroke: #000000; stroke-width: 0.8"/>
      </defs>
      <g>
       <use xlink:href="#m10b5e718c0" x="91.659545" y="269.08" style="stroke: #000000; stroke-width: 0.8"/>
      </g>
     </g>
     <g id="text_1">
      <!-- 125 -->
      <g transform="translate(79.984858 286.076875)scale(0.14 -0.14)">
       <defs>
        <path id="HelveticaNeue-31" d="M 2278 0 
L 2278 4538 
L 1862 4538 
Q 1818 4282 1696 4115 
Q 1574 3949 1398 3853 
Q 1222 3757 1004 3721 
Q 787 3686 557 3686 
L 557 3251 
L 1734 3251 
L 1734 0 
L 2278 0 
z
" transform="scale(0.015625)"/>
        <path id="HelveticaNeue-32" d="M 282 2931 
L 826 2931 
Q 819 3136 867 3337 
Q 915 3539 1024 3699 
Q 1133 3859 1302 3958 
Q 1472 4058 1709 4058 
Q 1888 4058 2048 4000 
Q 2208 3942 2326 3833 
Q 2445 3725 2515 3574 
Q 2586 3424 2586 3238 
Q 2586 3002 2512 2822 
Q 2438 2643 2294 2489 
Q 2150 2336 1932 2185 
Q 1715 2035 1427 1856 
Q 1190 1715 972 1555 
Q 755 1395 582 1184 
Q 410 973 298 688 
Q 186 403 154 0 
L 3117 0 
L 3117 480 
L 787 480 
Q 826 691 950 854 
Q 1075 1018 1251 1158 
Q 1427 1299 1638 1424 
Q 1850 1549 2061 1677 
Q 2272 1811 2470 1958 
Q 2669 2106 2822 2288 
Q 2976 2470 3069 2700 
Q 3162 2931 3162 3232 
Q 3162 3552 3050 3795 
Q 2938 4038 2746 4201 
Q 2554 4365 2294 4451 
Q 2035 4538 1741 4538 
Q 1382 4538 1100 4416 
Q 819 4294 630 4080 
Q 442 3866 352 3571 
Q 262 3277 282 2931 
z
" transform="scale(0.015625)"/>
        <path id="HelveticaNeue-35" d="M 3008 3981 
L 3008 4461 
L 768 4461 
L 346 2106 
L 813 2080 
Q 973 2272 1181 2390 
Q 1389 2509 1658 2509 
Q 1888 2509 2077 2432 
Q 2266 2355 2400 2217 
Q 2534 2080 2608 1891 
Q 2682 1702 2682 1478 
Q 2682 1210 2605 1008 
Q 2528 806 2397 672 
Q 2266 538 2090 470 
Q 1914 403 1722 403 
Q 1517 403 1347 464 
Q 1178 525 1053 637 
Q 928 749 854 899 
Q 781 1050 768 1222 
L 224 1222 
Q 230 915 345 672 
Q 461 429 659 265 
Q 858 102 1117 16 
Q 1376 -70 1670 -70 
Q 2067 -70 2364 54 
Q 2662 179 2860 390 
Q 3059 602 3158 874 
Q 3258 1146 3258 1434 
Q 3258 1824 3142 2115 
Q 3027 2406 2828 2601 
Q 2630 2797 2361 2893 
Q 2093 2989 1792 2989 
Q 1562 2989 1328 2909 
Q 1094 2829 947 2662 
L 934 2675 
L 1178 3981 
L 3008 3981 
z
" transform="scale(0.015625)"/>
       </defs>
       <use xlink:href="#HelveticaNeue-31"/>
       <use xlink:href="#HelveticaNeue-32" x="55.599991"/>
       <use xlink:href="#HelveticaNeue-35" x="111.199982"/>
      </g>
     </g>
    </g>
    <g id="xtick_2">
     <g id="line2d_3">
      <g>
       <use xlink:href="#m10b5e718c0" x="348.355" y="269.08" style="stroke: #000000; stroke-width: 0.8"/>
      </g>
     </g>
     <g id="text_2">
      <!-- 1000 -->
      <g transform="translate(332.78875 286.076875)scale(0.14 -0.14)">
       <defs>
        <path id="HelveticaNeue-30" d="M 845 2234 
Q 845 2400 848 2601 
Q 851 2803 880 3004 
Q 909 3206 963 3398 
Q 1018 3590 1123 3734 
Q 1229 3878 1389 3968 
Q 1549 4058 1779 4058 
Q 2010 4058 2170 3968 
Q 2330 3878 2435 3734 
Q 2541 3590 2595 3398 
Q 2650 3206 2678 3004 
Q 2707 2803 2710 2601 
Q 2714 2400 2714 2234 
Q 2714 1978 2698 1661 
Q 2682 1344 2595 1065 
Q 2509 787 2317 595 
Q 2125 403 1779 403 
Q 1434 403 1242 595 
Q 1050 787 963 1065 
Q 877 1344 861 1661 
Q 845 1978 845 2234 
z
M 269 2227 
Q 269 1978 281 1709 
Q 294 1440 345 1184 
Q 397 928 493 701 
Q 589 474 755 301 
Q 922 128 1174 29 
Q 1427 -70 1779 -70 
Q 2138 -70 2387 29 
Q 2637 128 2803 301 
Q 2970 474 3066 701 
Q 3162 928 3213 1184 
Q 3264 1440 3277 1709 
Q 3290 1978 3290 2227 
Q 3290 2477 3277 2745 
Q 3264 3014 3213 3270 
Q 3162 3526 3066 3756 
Q 2970 3987 2803 4160 
Q 2637 4333 2384 4435 
Q 2131 4538 1779 4538 
Q 1427 4538 1174 4435 
Q 922 4333 755 4160 
Q 589 3987 493 3756 
Q 397 3526 345 3270 
Q 294 3014 281 2745 
Q 269 2477 269 2227 
z
" transform="scale(0.015625)"/>
       </defs>
       <use xlink:href="#HelveticaNeue-31"/>
       <use xlink:href="#HelveticaNeue-30" x="55.599991"/>
       <use xlink:href="#HelveticaNeue-30" x="111.199982"/>
       <use xlink:href="#HelveticaNeue-30" x="166.799973"/>
      </g>
     </g>
    </g>
    <g id="xtick_3">
     <g id="line2d_4">
      <g>
       <use xlink:href="#m10b5e718c0" x="605.050455" y="269.08" style="stroke: #000000; stroke-width: 0.8"/>
      </g>
     </g>
     <g id="text_3">
      <!-- 8000 -->
      <g transform="translate(589.484205 286.076875)scale(0.14 -0.14)">
       <defs>
        <path id="HelveticaNeue-38" d="M 992 3360 
Q 992 3533 1056 3661 
Q 1120 3789 1225 3878 
Q 1331 3968 1478 4013 
Q 1626 4058 1786 4058 
Q 2118 4058 2332 3882 
Q 2547 3706 2547 3360 
Q 2547 3014 2336 2822 
Q 2125 2630 1798 2630 
Q 1632 2630 1485 2675 
Q 1338 2720 1229 2809 
Q 1120 2899 1056 3036 
Q 992 3174 992 3360 
z
M 416 3379 
Q 416 3072 589 2813 
Q 762 2554 1050 2438 
Q 666 2304 461 2006 
Q 256 1709 256 1306 
Q 256 960 374 701 
Q 493 442 701 269 
Q 909 96 1190 13 
Q 1472 -70 1798 -70 
Q 2112 -70 2387 19 
Q 2662 109 2864 285 
Q 3066 461 3184 717 
Q 3302 973 3302 1306 
Q 3302 1728 3104 2019 
Q 2906 2310 2496 2438 
Q 2784 2566 2953 2819 
Q 3123 3072 3123 3379 
Q 3123 3597 3046 3805 
Q 2970 4013 2806 4176 
Q 2643 4339 2380 4438 
Q 2118 4538 1747 4538 
Q 1485 4538 1245 4461 
Q 1005 4384 819 4237 
Q 634 4090 525 3875 
Q 416 3661 416 3379 
z
M 832 1280 
Q 832 1478 905 1638 
Q 979 1798 1110 1913 
Q 1242 2029 1418 2089 
Q 1594 2150 1792 2150 
Q 1984 2150 2153 2083 
Q 2323 2016 2451 1901 
Q 2579 1786 2652 1629 
Q 2726 1472 2726 1286 
Q 2726 1094 2659 934 
Q 2592 774 2467 656 
Q 2342 538 2172 470 
Q 2003 403 1798 403 
Q 1376 403 1104 636 
Q 832 870 832 1280 
z
" transform="scale(0.015625)"/>
       </defs>
       <use xlink:href="#HelveticaNeue-38"/>
       <use xlink:href="#HelveticaNeue-30" x="55.599991"/>
       <use xlink:href="#HelveticaNeue-30" x="111.199982"/>
       <use xlink:href="#HelveticaNeue-30" x="166.799973"/>
      </g>
     </g>
    </g>
    <g id="text_4">
     <!-- Frequency (in Hz) -->
     <g transform="translate(290.158516 303.799375)scale(0.15 -0.15)">
      <defs>
       <path id="HelveticaNeue-46" d="M 499 4570 
L 499 0 
L 1107 0 
L 1107 2093 
L 3206 2093 
L 3206 2605 
L 1107 2605 
L 1107 4058 
L 3501 4058 
L 3501 4570 
L 499 4570 
z
" transform="scale(0.015625)"/>
       <path id="HelveticaNeue-72" d="M 390 3309 
L 390 0 
L 934 0 
L 934 1472 
Q 934 1792 998 2038 
Q 1062 2285 1203 2457 
Q 1344 2630 1574 2720 
Q 1805 2810 2131 2810 
L 2131 3386 
Q 1690 3398 1402 3206 
Q 1114 3014 915 2611 
L 902 2611 
L 902 3309 
L 390 3309 
z
" transform="scale(0.015625)"/>
       <path id="HelveticaNeue-65" d="M 2707 1971 
L 806 1971 
Q 819 2163 889 2332 
Q 960 2502 1081 2630 
Q 1203 2758 1372 2832 
Q 1542 2906 1754 2906 
Q 1958 2906 2128 2832 
Q 2298 2758 2422 2633 
Q 2547 2509 2620 2336 
Q 2694 2163 2707 1971 
z
M 3232 1050 
L 2694 1050 
Q 2624 723 2403 563 
Q 2182 403 1837 403 
Q 1568 403 1369 492 
Q 1171 582 1043 732 
Q 915 883 857 1078 
Q 800 1274 806 1491 
L 3283 1491 
Q 3296 1792 3229 2125 
Q 3162 2458 2986 2739 
Q 2810 3021 2518 3203 
Q 2227 3386 1786 3386 
Q 1446 3386 1161 3258 
Q 877 3130 669 2899 
Q 461 2669 345 2355 
Q 230 2042 230 1664 
Q 243 1286 342 966 
Q 442 646 640 416 
Q 838 186 1129 58 
Q 1421 -70 1818 -70 
Q 2381 -70 2752 211 
Q 3123 493 3232 1050 
z
" transform="scale(0.015625)"/>
       <path id="HelveticaNeue-71" d="M 806 1626 
Q 806 1869 857 2099 
Q 909 2330 1024 2509 
Q 1139 2688 1331 2797 
Q 1523 2906 1798 2906 
Q 2080 2906 2278 2800 
Q 2477 2694 2601 2521 
Q 2726 2349 2784 2121 
Q 2842 1894 2842 1651 
Q 2842 1421 2787 1197 
Q 2733 973 2611 797 
Q 2490 621 2298 512 
Q 2106 403 1830 403 
Q 1568 403 1373 505 
Q 1178 608 1053 781 
Q 928 954 867 1174 
Q 806 1395 806 1626 
z
M 3366 -1261 
L 3366 3309 
L 2822 3309 
L 2822 2867 
L 2810 2867 
Q 2720 3014 2589 3113 
Q 2458 3213 2310 3273 
Q 2163 3334 2016 3360 
Q 1869 3386 1741 3386 
Q 1363 3386 1078 3248 
Q 794 3110 605 2876 
Q 416 2643 323 2329 
Q 230 2016 230 1664 
Q 230 1312 326 998 
Q 422 685 611 448 
Q 800 211 1085 70 
Q 1370 -70 1754 -70 
Q 2099 -70 2387 51 
Q 2675 173 2810 448 
L 2822 448 
L 2822 -1261 
L 3366 -1261 
z
" transform="scale(0.015625)"/>
       <path id="HelveticaNeue-75" d="M 3149 0 
L 3149 3309 
L 2605 3309 
L 2605 1440 
Q 2605 1216 2544 1027 
Q 2483 838 2361 697 
Q 2240 557 2057 480 
Q 1875 403 1626 403 
Q 1312 403 1133 582 
Q 954 762 954 1069 
L 954 3309 
L 410 3309 
L 410 1133 
Q 410 864 464 643 
Q 518 422 652 262 
Q 787 102 1004 16 
Q 1222 -70 1549 -70 
Q 1914 -70 2182 74 
Q 2451 218 2624 525 
L 2637 525 
L 2637 0 
L 3149 0 
z
" transform="scale(0.015625)"/>
       <path id="HelveticaNeue-6e" d="M 410 3309 
L 410 0 
L 954 0 
L 954 1869 
Q 954 2093 1014 2281 
Q 1075 2470 1196 2611 
Q 1318 2752 1500 2829 
Q 1683 2906 1933 2906 
Q 2246 2906 2425 2726 
Q 2605 2547 2605 2240 
L 2605 0 
L 3149 0 
L 3149 2176 
Q 3149 2445 3094 2665 
Q 3040 2886 2905 3046 
Q 2771 3206 2553 3296 
Q 2336 3386 2010 3386 
Q 1274 3386 934 2784 
L 922 2784 
L 922 3309 
L 410 3309 
z
" transform="scale(0.015625)"/>
       <path id="HelveticaNeue-63" d="M 2656 2246 
L 3219 2246 
Q 3187 2541 3065 2755 
Q 2944 2970 2755 3110 
Q 2566 3251 2320 3318 
Q 2074 3386 1792 3386 
Q 1402 3386 1107 3248 
Q 813 3110 617 2870 
Q 422 2630 326 2307 
Q 230 1984 230 1613 
Q 230 1242 329 931 
Q 429 621 624 397 
Q 819 173 1110 51 
Q 1402 -70 1779 -70 
Q 2413 -70 2781 262 
Q 3149 595 3238 1210 
L 2682 1210 
Q 2630 826 2403 614 
Q 2176 403 1773 403 
Q 1517 403 1331 505 
Q 1146 608 1030 777 
Q 915 947 860 1164 
Q 806 1382 806 1613 
Q 806 1862 857 2096 
Q 909 2330 1027 2509 
Q 1146 2688 1344 2797 
Q 1542 2906 1837 2906 
Q 2182 2906 2387 2733 
Q 2592 2560 2656 2246 
z
" transform="scale(0.015625)"/>
       <path id="HelveticaNeue-79" d="M 1709 -442 
Q 1613 -685 1520 -851 
Q 1427 -1018 1315 -1123 
Q 1203 -1229 1065 -1277 
Q 928 -1325 749 -1325 
Q 653 -1325 557 -1312 
Q 461 -1299 371 -1267 
L 371 -768 
Q 442 -800 534 -822 
Q 627 -845 691 -845 
Q 858 -845 970 -765 
Q 1082 -685 1139 -538 
L 1363 19 
L 51 3309 
L 666 3309 
L 1632 602 
L 1645 602 
L 2573 3309 
L 3149 3309 
L 1709 -442 
z
" transform="scale(0.015625)"/>
       <path id="HelveticaNeue-20" transform="scale(0.015625)"/>
       <path id="HelveticaNeue-28" d="M 1306 -1261 
L 1722 -1261 
Q 1267 -525 1072 198 
Q 877 922 877 1728 
Q 877 2515 1069 3232 
Q 1261 3949 1722 4678 
L 1306 4678 
Q 806 4019 553 3251 
Q 301 2483 301 1728 
Q 301 1306 371 922 
Q 442 538 573 173 
Q 704 -192 889 -547 
Q 1075 -902 1306 -1261 
z
" transform="scale(0.015625)"/>
       <path id="HelveticaNeue-69" d="M 986 3904 
L 986 4570 
L 442 4570 
L 442 3904 
L 986 3904 
z
M 442 3309 
L 442 0 
L 986 0 
L 986 3309 
L 442 3309 
z
" transform="scale(0.015625)"/>
       <path id="HelveticaNeue-48" d="M 499 4570 
L 499 0 
L 1107 0 
L 1107 2093 
L 3514 2093 
L 3514 0 
L 4122 0 
L 4122 4570 
L 3514 4570 
L 3514 2605 
L 1107 2605 
L 1107 4570 
L 499 4570 
z
" transform="scale(0.015625)"/>
       <path id="HelveticaNeue-7a" d="M 141 416 
L 141 0 
L 2931 0 
L 2931 480 
L 819 480 
L 2842 2938 
L 2842 3309 
L 269 3309 
L 269 2829 
L 2138 2829 
L 141 416 
z
" transform="scale(0.015625)"/>
       <path id="HelveticaNeue-29" d="M -58 -1261 
L 352 -1261 
Q 851 -602 1104 163 
Q 1357 928 1357 1683 
Q 1357 2106 1286 2490 
Q 1216 2874 1085 3242 
Q 954 3610 768 3965 
Q 582 4320 352 4678 
L -58 4678 
Q 390 3942 585 3216 
Q 781 2490 781 1683 
Q 781 902 589 182 
Q 397 -538 -58 -1261 
z
" transform="scale(0.015625)"/>
      </defs>
      <use xlink:href="#HelveticaNeue-46"/>
      <use xlink:href="#HelveticaNeue-72" x="57.399994"/>
      <use xlink:href="#HelveticaNeue-65" x="88.949982"/>
      <use xlink:href="#HelveticaNeue-71" x="142.649979"/>
      <use xlink:href="#HelveticaNeue-75" x="201.949966"/>
      <use xlink:href="#HelveticaNeue-65" x="257.549957"/>
      <use xlink:href="#HelveticaNeue-6e" x="311.249954"/>
      <use xlink:href="#HelveticaNeue-63" x="366.849945"/>
      <use xlink:href="#HelveticaNeue-79" x="420.549942"/>
      <use xlink:href="#HelveticaNeue-20" x="470.549927"/>
      <use xlink:href="#HelveticaNeue-28" x="498.349915"/>
      <use xlink:href="#HelveticaNeue-69" x="524.249908"/>
      <use xlink:href="#HelveticaNeue-6e" x="546.449905"/>
      <use xlink:href="#HelveticaNeue-20" x="602.049896"/>
      <use xlink:href="#HelveticaNeue-48" x="629.849884"/>
      <use xlink:href="#HelveticaNeue-7a" x="702.049866"/>
      <use xlink:href="#HelveticaNeue-29" x="750.04985"/>
     </g>
    </g>
   </g>
   <g id="matplotlib.axis_2">
    <g id="ytick_1">
     <g id="line2d_5">
      <defs>
       <path id="m1de212e032" d="M 0 0 
L -3.5 0 
" style="stroke: #000000; stroke-width: 0.8"/>
      </defs>
      <g>
       <use xlink:href="#m1de212e032" x="65.99" y="45.449091" style="stroke: #000000; stroke-width: 0.8"/>
      </g>
     </g>
     <g id="text_5">
      <!-- −20 -->
      <g transform="translate(35.02375 50.447528)scale(0.14 -0.14)">
       <defs>
        <path id="HelveticaNeue-2212" d="M 307 1837 
L 307 1402 
L 3533 1402 
L 3533 1837 
L 307 1837 
z
" transform="scale(0.015625)"/>
       </defs>
       <use xlink:href="#HelveticaNeue-2212"/>
       <use xlink:href="#HelveticaNeue-32" x="59.999985"/>
       <use xlink:href="#HelveticaNeue-30" x="115.599976"/>
      </g>
     </g>
    </g>
    <g id="ytick_2">
     <g id="line2d_6">
      <g>
       <use xlink:href="#m1de212e032" x="65.99" y="98.694545" style="stroke: #000000; stroke-width: 0.8"/>
      </g>
     </g>
     <g id="text_6">
      <!-- 0 -->
      <g transform="translate(51.206875 103.692983)scale(0.14 -0.14)">
       <use xlink:href="#HelveticaNeue-30"/>
      </g>
     </g>
    </g>
    <g id="ytick_3">
     <g id="line2d_7">
      <g>
       <use xlink:href="#m1de212e032" x="65.99" y="151.94" style="stroke: #000000; stroke-width: 0.8"/>
      </g>
     </g>
     <g id="text_7">
      <!-- 20 -->
      <g transform="translate(43.42375 156.938437)scale(0.14 -0.14)">
       <use xlink:href="#HelveticaNeue-32"/>
       <use xlink:href="#HelveticaNeue-30" x="55.599991"/>
      </g>
     </g>
    </g>
    <g id="ytick_4">
     <g id="line2d_8">
      <g>
       <use xlink:href="#m1de212e032" x="65.99" y="205.185455" style="stroke: #000000; stroke-width: 0.8"/>
      </g>
     </g>
     <g id="text_8">
      <!-- 40 -->
      <g transform="translate(43.42375 210.183892)scale(0.14 -0.14)">
       <defs>
        <path id="HelveticaNeue-34" d="M 2170 1542 
L 646 1542 
L 2157 3763 
L 2170 3763 
L 2170 1542 
z
M 2682 1542 
L 2682 4538 
L 2246 4538 
L 179 1587 
L 179 1062 
L 2170 1062 
L 2170 0 
L 2682 0 
L 2682 1062 
L 3296 1062 
L 3296 1542 
L 2682 1542 
z
" transform="scale(0.015625)"/>
       </defs>
       <use xlink:href="#HelveticaNeue-34"/>
       <use xlink:href="#HelveticaNeue-30" x="55.599991"/>
      </g>
     </g>
    </g>
    <g id="ytick_5">
     <g id="line2d_9">
      <g>
       <use xlink:href="#m1de212e032" x="65.99" y="258.430909" style="stroke: #000000; stroke-width: 0.8"/>
      </g>
     </g>
     <g id="text_9">
      <!-- 60 -->
      <g transform="translate(43.42375 263.429347)scale(0.14 -0.14)">
       <defs>
        <path id="HelveticaNeue-36" d="M 2650 3379 
L 3194 3379 
Q 3142 3942 2809 4240 
Q 2477 4538 1914 4538 
Q 1427 4538 1107 4333 
Q 787 4128 595 3789 
Q 403 3450 323 3011 
Q 243 2573 243 2106 
Q 243 1747 297 1363 
Q 352 979 518 659 
Q 685 339 992 134 
Q 1299 -70 1805 -70 
Q 2234 -70 2525 74 
Q 2816 218 2992 438 
Q 3168 659 3245 928 
Q 3322 1197 3322 1446 
Q 3322 1760 3226 2029 
Q 3130 2298 2954 2496 
Q 2778 2694 2518 2806 
Q 2259 2918 1933 2918 
Q 1562 2918 1277 2777 
Q 992 2637 800 2323 
L 787 2336 
Q 794 2598 838 2899 
Q 883 3200 1001 3459 
Q 1120 3718 1331 3888 
Q 1542 4058 1888 4058 
Q 2214 4058 2412 3872 
Q 2611 3686 2650 3379 
z
M 1830 2438 
Q 2061 2438 2233 2355 
Q 2406 2272 2521 2134 
Q 2637 1997 2691 1808 
Q 2746 1619 2746 1408 
Q 2746 1210 2685 1027 
Q 2624 845 2509 704 
Q 2394 563 2224 483 
Q 2054 403 1830 403 
Q 1606 403 1430 483 
Q 1254 563 1136 697 
Q 1018 832 954 1017 
Q 890 1203 890 1414 
Q 890 1626 950 1814 
Q 1011 2003 1132 2140 
Q 1254 2278 1427 2358 
Q 1600 2438 1830 2438 
z
" transform="scale(0.015625)"/>
       </defs>
       <use xlink:href="#HelveticaNeue-36"/>
       <use xlink:href="#HelveticaNeue-30" x="55.599991"/>
      </g>
     </g>
    </g>
    <g id="text_10">
     <!-- Level (in dB HL) -->
     <g transform="translate(28.068281 204.724766)rotate(-90)scale(0.15 -0.15)">
      <defs>
       <path id="HelveticaNeue-4c" d="M 499 4570 
L 499 0 
L 3526 0 
L 3526 512 
L 1107 512 
L 1107 4570 
L 499 4570 
z
" transform="scale(0.015625)"/>
       <path id="HelveticaNeue-76" d="M 1901 0 
L 3110 3309 
L 2541 3309 
L 1638 550 
L 1626 550 
L 698 3309 
L 90 3309 
L 1318 0 
L 1901 0 
z
" transform="scale(0.015625)"/>
       <path id="HelveticaNeue-6c" d="M 442 4570 
L 442 0 
L 986 0 
L 986 4570 
L 442 4570 
z
" transform="scale(0.015625)"/>
       <path id="HelveticaNeue-64" d="M 806 1626 
Q 806 1869 857 2099 
Q 909 2330 1024 2509 
Q 1139 2688 1331 2797 
Q 1523 2906 1798 2906 
Q 2080 2906 2278 2800 
Q 2477 2694 2601 2521 
Q 2726 2349 2784 2121 
Q 2842 1894 2842 1651 
Q 2842 1421 2787 1197 
Q 2733 973 2611 797 
Q 2490 621 2298 512 
Q 2106 403 1830 403 
Q 1568 403 1373 505 
Q 1178 608 1053 781 
Q 928 954 867 1174 
Q 806 1395 806 1626 
z
M 3366 0 
L 3366 4570 
L 2822 4570 
L 2822 2867 
L 2810 2867 
Q 2720 3014 2589 3113 
Q 2458 3213 2310 3273 
Q 2163 3334 2016 3360 
Q 1869 3386 1741 3386 
Q 1363 3386 1078 3248 
Q 794 3110 605 2876 
Q 416 2643 323 2329 
Q 230 2016 230 1664 
Q 230 1312 326 998 
Q 422 685 611 448 
Q 800 211 1085 70 
Q 1370 -70 1754 -70 
Q 2099 -70 2387 51 
Q 2675 173 2810 448 
L 2822 448 
L 2822 0 
L 3366 0 
z
" transform="scale(0.015625)"/>
       <path id="HelveticaNeue-42" d="M 1107 2605 
L 1107 4058 
L 2323 4058 
Q 2522 4058 2698 4035 
Q 2874 4013 3008 3936 
Q 3142 3859 3219 3718 
Q 3296 3578 3296 3334 
Q 3296 2970 3069 2787 
Q 2842 2605 2323 2605 
L 1107 2605 
z
M 499 4570 
L 499 0 
L 2707 0 
Q 3046 0 3305 112 
Q 3565 224 3741 406 
Q 3917 589 4006 825 
Q 4096 1062 4096 1312 
Q 4096 1734 3872 2028 
Q 3648 2323 3226 2413 
L 3226 2426 
Q 3552 2554 3728 2819 
Q 3904 3085 3904 3450 
Q 3904 3795 3747 4032 
Q 3590 4269 3366 4403 
Q 3264 4467 3120 4499 
Q 2976 4531 2809 4547 
Q 2643 4563 2473 4566 
Q 2304 4570 2157 4570 
L 499 4570 
z
M 1107 512 
L 1107 2093 
L 2496 2093 
Q 2688 2093 2867 2057 
Q 3046 2022 3184 1936 
Q 3322 1850 3405 1702 
Q 3488 1555 3488 1331 
Q 3488 947 3261 729 
Q 3034 512 2630 512 
L 1107 512 
z
" transform="scale(0.015625)"/>
      </defs>
      <use xlink:href="#HelveticaNeue-4c"/>
      <use xlink:href="#HelveticaNeue-65" x="55.599991"/>
      <use xlink:href="#HelveticaNeue-76" x="109.299988"/>
      <use xlink:href="#HelveticaNeue-65" x="159.299973"/>
      <use xlink:href="#HelveticaNeue-6c" x="212.999969"/>
      <use xlink:href="#HelveticaNeue-20" x="235.199966"/>
      <use xlink:href="#HelveticaNeue-28" x="262.999954"/>
      <use xlink:href="#HelveticaNeue-69" x="288.899948"/>
      <use xlink:href="#HelveticaNeue-6e" x="311.099945"/>
      <use xlink:href="#HelveticaNeue-20" x="366.699936"/>
      <use xlink:href="#HelveticaNeue-64" x="394.499924"/>
      <use xlink:href="#HelveticaNeue-42" x="453.799911"/>
      <use xlink:href="#HelveticaNeue-20" x="522.299896"/>
      <use xlink:href="#HelveticaNeue-48" x="550.099884"/>
      <use xlink:href="#HelveticaNeue-4c" x="622.299866"/>
      <use xlink:href="#HelveticaNeue-29" x="677.899857"/>
     </g>
    </g>
   </g>
   <g id="patch_3">
    <path d="M 65.99 269.08 
L 65.99 34.8 
" style="fill: none; stroke: #000000; stroke-width: 0.8; stroke-linejoin: miter; stroke-linecap: square"/>
   </g>
   <g id="patch_4">
    <path d="M 630.72 269.08 
L 630.72 34.8 
" style="fill: none; stroke: #000000; stroke-width: 0.8; stroke-linejoin: miter; stroke-linecap: square"/>
   </g>
   <g id="patch_5">
    <path d="M 65.99 269.08 
L 630.72 269.08 
" style="fill: none; stroke: #000000; stroke-width: 0.8; stroke-linejoin: miter; stroke-linecap: square"/>
   </g>
   <g id="patch_6">
    <path d="M 65.99 34.8 
L 630.72 34.8 
" style="fill: none; stroke: #000000; stroke-width: 0.8; stroke-linejoin: miter; stroke-linecap: square"/>
   </g>
   <g id="text_11">
    <!-- Global random audiogram -->
    <g transform="translate(254.85 28.8)scale(0.16 -0.16)">
     <defs>
      <path id="HelveticaNeue-47" d="M 3917 570 
L 4077 0 
L 4461 0 
L 4461 2406 
L 2458 2406 
L 2458 1894 
L 3917 1894 
Q 3930 1581 3834 1309 
Q 3738 1037 3549 835 
Q 3360 634 3085 518 
Q 2810 403 2451 403 
Q 2067 403 1776 553 
Q 1485 704 1286 957 
Q 1088 1210 985 1539 
Q 883 1869 883 2227 
Q 883 2592 972 2941 
Q 1062 3290 1251 3562 
Q 1440 3834 1737 4000 
Q 2035 4166 2451 4166 
Q 2707 4166 2934 4105 
Q 3162 4045 3341 3923 
Q 3520 3802 3641 3613 
Q 3763 3424 3808 3162 
L 4416 3162 
Q 4352 3565 4176 3849 
Q 4000 4134 3741 4320 
Q 3482 4506 3152 4592 
Q 2822 4678 2451 4678 
Q 1907 4678 1500 4476 
Q 1094 4275 822 3936 
Q 550 3597 412 3145 
Q 275 2694 275 2195 
Q 275 1747 422 1331 
Q 570 915 851 595 
Q 1133 275 1536 86 
Q 1939 -102 2451 -102 
Q 2854 -102 3251 54 
Q 3648 211 3917 570 
z
" transform="scale(0.015625)"/>
      <path id="HelveticaNeue-6f" d="M 806 1651 
Q 806 1952 886 2185 
Q 966 2419 1107 2579 
Q 1248 2739 1437 2822 
Q 1626 2906 1837 2906 
Q 2048 2906 2237 2822 
Q 2426 2739 2566 2579 
Q 2707 2419 2787 2185 
Q 2867 1952 2867 1651 
Q 2867 1350 2787 1116 
Q 2707 883 2566 726 
Q 2426 570 2237 486 
Q 2048 403 1837 403 
Q 1626 403 1437 486 
Q 1248 570 1107 726 
Q 966 883 886 1116 
Q 806 1350 806 1651 
z
M 230 1651 
Q 230 1286 332 972 
Q 435 659 640 425 
Q 845 192 1145 61 
Q 1446 -70 1837 -70 
Q 2234 -70 2531 61 
Q 2829 192 3033 425 
Q 3238 659 3340 972 
Q 3443 1286 3443 1651 
Q 3443 2016 3340 2333 
Q 3238 2650 3033 2883 
Q 2829 3117 2531 3251 
Q 2234 3386 1837 3386 
Q 1446 3386 1145 3251 
Q 845 3117 640 2883 
Q 435 2650 332 2333 
Q 230 2016 230 1651 
z
" transform="scale(0.015625)"/>
      <path id="HelveticaNeue-62" d="M 429 4570 
L 429 0 
L 973 0 
L 973 442 
L 986 442 
Q 1075 294 1206 195 
Q 1338 96 1485 38 
Q 1632 -19 1782 -44 
Q 1933 -70 2054 -70 
Q 2432 -70 2717 64 
Q 3002 198 3190 432 
Q 3379 666 3472 979 
Q 3565 1293 3565 1645 
Q 3565 1997 3469 2310 
Q 3373 2624 3184 2864 
Q 2995 3104 2710 3245 
Q 2426 3386 2042 3386 
Q 1696 3386 1408 3261 
Q 1120 3136 986 2861 
L 973 2861 
L 973 4570 
L 429 4570 
z
M 2989 1683 
Q 2989 1440 2937 1209 
Q 2886 979 2771 800 
Q 2656 621 2467 512 
Q 2278 403 1997 403 
Q 1715 403 1516 508 
Q 1318 614 1193 787 
Q 1069 960 1011 1187 
Q 954 1414 954 1658 
Q 954 1888 1008 2112 
Q 1062 2336 1184 2512 
Q 1306 2688 1498 2797 
Q 1690 2906 1965 2906 
Q 2227 2906 2422 2803 
Q 2618 2701 2742 2528 
Q 2867 2355 2928 2134 
Q 2989 1914 2989 1683 
z
" transform="scale(0.015625)"/>
      <path id="HelveticaNeue-61" d="M 3341 13 
Q 3200 -70 2950 -70 
Q 2739 -70 2614 48 
Q 2490 166 2490 435 
Q 2266 166 1968 48 
Q 1670 -70 1325 -70 
Q 1101 -70 899 -19 
Q 698 32 550 141 
Q 403 250 316 426 
Q 230 602 230 851 
Q 230 1133 326 1312 
Q 422 1491 579 1603 
Q 736 1715 937 1772 
Q 1139 1830 1350 1869 
Q 1574 1914 1776 1936 
Q 1978 1958 2131 2000 
Q 2285 2042 2374 2122 
Q 2464 2202 2464 2355 
Q 2464 2534 2397 2643 
Q 2330 2752 2224 2809 
Q 2118 2867 1987 2886 
Q 1856 2906 1728 2906 
Q 1382 2906 1152 2774 
Q 922 2643 902 2278 
L 358 2278 
Q 371 2586 486 2797 
Q 602 3008 794 3139 
Q 986 3270 1232 3328 
Q 1478 3386 1760 3386 
Q 1984 3386 2205 3354 
Q 2426 3322 2605 3222 
Q 2784 3123 2893 2944 
Q 3002 2765 3002 2477 
L 3002 774 
Q 3002 582 3024 492 
Q 3046 403 3174 403 
Q 3245 403 3341 435 
L 3341 13 
z
M 2458 1709 
Q 2355 1632 2188 1597 
Q 2022 1562 1840 1539 
Q 1658 1517 1472 1488 
Q 1286 1459 1139 1395 
Q 992 1331 899 1212 
Q 806 1094 806 890 
Q 806 755 860 662 
Q 915 570 1001 512 
Q 1088 454 1203 428 
Q 1318 403 1446 403 
Q 1715 403 1907 476 
Q 2099 550 2220 662 
Q 2342 774 2400 905 
Q 2458 1037 2458 1152 
L 2458 1709 
z
" transform="scale(0.015625)"/>
      <path id="HelveticaNeue-6d" d="M 410 3309 
L 410 0 
L 954 0 
L 954 2061 
Q 954 2157 1002 2301 
Q 1050 2445 1155 2579 
Q 1261 2714 1430 2810 
Q 1600 2906 1837 2906 
Q 2022 2906 2140 2851 
Q 2259 2797 2329 2697 
Q 2400 2598 2429 2464 
Q 2458 2330 2458 2170 
L 2458 0 
L 3002 0 
L 3002 2061 
Q 3002 2445 3232 2675 
Q 3462 2906 3866 2906 
Q 4064 2906 4189 2848 
Q 4314 2790 4384 2691 
Q 4454 2592 4480 2457 
Q 4506 2323 4506 2170 
L 4506 0 
L 5050 0 
L 5050 2426 
Q 5050 2682 4970 2864 
Q 4890 3046 4746 3161 
Q 4602 3277 4400 3331 
Q 4198 3386 3949 3386 
Q 3622 3386 3350 3238 
Q 3078 3091 2912 2822 
Q 2810 3130 2560 3258 
Q 2310 3386 2003 3386 
Q 1306 3386 934 2822 
L 922 2822 
L 922 3309 
L 410 3309 
z
" transform="scale(0.015625)"/>
      <path id="HelveticaNeue-67" d="M 3264 282 
L 3264 3309 
L 2752 3309 
L 2752 2835 
L 2746 2835 
Q 2598 3110 2336 3248 
Q 2074 3386 1760 3386 
Q 1331 3386 1036 3222 
Q 742 3059 563 2806 
Q 384 2554 307 2243 
Q 230 1933 230 1638 
Q 230 1299 323 995 
Q 416 691 601 464 
Q 787 237 1062 102 
Q 1338 -32 1709 -32 
Q 2029 -32 2313 112 
Q 2598 256 2739 563 
L 2752 563 
L 2752 346 
Q 2752 70 2697 -160 
Q 2643 -390 2521 -553 
Q 2400 -717 2214 -809 
Q 2029 -902 1760 -902 
Q 1626 -902 1478 -873 
Q 1331 -845 1206 -781 
Q 1082 -717 995 -614 
Q 909 -512 902 -365 
L 358 -365 
Q 371 -634 499 -819 
Q 627 -1005 822 -1120 
Q 1018 -1235 1258 -1286 
Q 1498 -1338 1728 -1338 
Q 2522 -1338 2893 -934 
Q 3264 -531 3264 282 
z
M 1741 442 
Q 1472 442 1293 554 
Q 1114 666 1005 848 
Q 896 1030 851 1254 
Q 806 1478 806 1702 
Q 806 1939 860 2156 
Q 915 2374 1033 2540 
Q 1152 2707 1337 2806 
Q 1523 2906 1786 2906 
Q 2042 2906 2221 2803 
Q 2400 2701 2512 2531 
Q 2624 2362 2675 2150 
Q 2726 1939 2726 1722 
Q 2726 1491 2672 1260 
Q 2618 1030 2502 848 
Q 2387 666 2198 554 
Q 2010 442 1741 442 
z
" transform="scale(0.015625)"/>
     </defs>
     <use xlink:href="#HelveticaNeue-47"/>
     <use xlink:href="#HelveticaNeue-6c" x="75.899994"/>
     <use xlink:href="#HelveticaNeue-6f" x="98.099991"/>
     <use xlink:href="#HelveticaNeue-62" x="155.499985"/>
     <use xlink:href="#HelveticaNeue-61" x="214.799973"/>
     <use xlink:href="#HelveticaNeue-6c" x="268.499969"/>
     <use xlink:href="#HelveticaNeue-20" x="290.699966"/>
     <use xlink:href="#HelveticaNeue-72" x="318.499954"/>
     <use xlink:href="#HelveticaNeue-61" x="351.799942"/>
     <use xlink:href="#HelveticaNeue-6e" x="405.499939"/>
     <use xlink:href="#HelveticaNeue-64" x="461.09993"/>
     <use xlink:href="#HelveticaNeue-6f" x="520.399918"/>
     <use xlink:href="#HelveticaNeue-6d" x="577.799911"/>
     <use xlink:href="#HelveticaNeue-20" x="663.099899"/>
     <use xlink:href="#HelveticaNeue-61" x="690.899887"/>
     <use xlink:href="#HelveticaNeue-75" x="744.599884"/>
     <use xlink:href="#HelveticaNeue-64" x="800.199875"/>
     <use xlink:href="#HelveticaNeue-69" x="859.499863"/>
     <use xlink:href="#HelveticaNeue-6f" x="881.69986"/>
     <use xlink:href="#HelveticaNeue-67" x="939.099854"/>
     <use xlink:href="#HelveticaNeue-72" x="996.499847"/>
     <use xlink:href="#HelveticaNeue-61" x="1029.799835"/>
     <use xlink:href="#HelveticaNeue-6d" x="1083.499832"/>
    </g>
   </g>
   <g id="legend_1">
    <g id="patch_7">
     <path d="M 76.49 261.58 
L 252.034531 261.58 
Q 255.034531 261.58 255.034531 258.58 
L 255.034531 238.733125 
Q 255.034531 235.733125 252.034531 235.733125 
L 76.49 235.733125 
Q 73.49 235.733125 73.49 238.733125 
L 73.49 258.58 
Q 73.49 261.58 76.49 261.58 
z
" style="fill: #ffffff; opacity: 0.8; stroke: #cccccc; stroke-linejoin: miter"/>
    </g>
    <g id="line2d_10">
     <path d="M 79.49 247.194062 
L 94.49 247.194062 
L 109.49 247.194062 
" style="fill: none; stroke: #000000; stroke-width: 2.5; stroke-linecap: square"/>
    </g>
    <g id="text_12">
     <!-- random audiogram -->
     <g transform="translate(121.49 252.444062)scale(0.15 -0.15)">
      <use xlink:href="#HelveticaNeue-72"/>
      <use xlink:href="#HelveticaNeue-61" x="33.299988"/>
      <use xlink:href="#HelveticaNeue-6e" x="86.999985"/>
      <use xlink:href="#HelveticaNeue-64" x="142.599976"/>
      <use xlink:href="#HelveticaNeue-6f" x="201.899963"/>
      <use xlink:href="#HelveticaNeue-6d" x="259.299957"/>
      <use xlink:href="#HelveticaNeue-20" x="344.599945"/>
      <use xlink:href="#HelveticaNeue-61" x="372.399933"/>
      <use xlink:href="#HelveticaNeue-75" x="426.09993"/>
      <use xlink:href="#HelveticaNeue-64" x="481.699921"/>
      <use xlink:href="#HelveticaNeue-69" x="540.999908"/>
      <use xlink:href="#HelveticaNeue-6f" x="563.199905"/>
      <use xlink:href="#HelveticaNeue-67" x="620.599899"/>
      <use xlink:href="#HelveticaNeue-72" x="677.999893"/>
      <use xlink:href="#HelveticaNeue-61" x="711.299881"/>
      <use xlink:href="#HelveticaNeue-6d" x="764.999878"/>
     </g>
    </g>
   </g>
  </g>
 </g>
 <defs>
  <clipPath id="p8a6cd3f838">
   <rect x="65.99" y="34.8" width="564.73" height="234.28"/>
  </clipPath>
 </defs>
</svg>
