<?xml version="1.0" encoding="utf-8" standalone="no"?>
<!DOCTYPE svg PUBLIC "-//W3C//DTD SVG 1.1//EN"
  "http://www.w3.org/Graphics/SVG/1.1/DTD/svg11.dtd">
<svg xmlns:xlink="http://www.w3.org/1999/xlink" width="648pt" height="360pt" viewBox="0 0 648 360" xmlns="http://www.w3.org/2000/svg" version="1.1">
 <metadata>
  <rdf:RDF xmlns:dc="http://purl.org/dc/elements/1.1/" xmlns:cc="http://creativecommons.org/ns#" xmlns:rdf="http://www.w3.org/1999/02/22-rdf-syntax-ns#">
   <cc:Work>
    <dc:type rdf:resource="http://purl.org/dc/dcmitype/StillImage"/>
    <dc:date>2023-08-14T16:14:25.163095</dc:date>
    <dc:format>image/svg+xml</dc:format>
    <dc:creator>
     <cc:Agent>
      <dc:title>Matplotlib v3.5.1, https://matplotlib.org/</dc:title>
     </cc:Agent>
    </dc:creator>
   </cc:Work>
  </rdf:RDF>
 </metadata>
 <defs>
  <style type="text/css">*{stroke-linejoin: round; stroke-linecap: butt}</style>
 </defs>
 <g id="figure_1">
  <g id="patch_1">
   <path d="M 0 360 
L 648 360 
L 648 0 
L 0 0 
z
" style="fill: #ffffff"/>
  </g>
  <g id="axes_1">
   <g id="patch_2">
    <path d="M 79.94 294.28 
L 466.55 294.28 
L 466.55 42 
L 79.94 42 
z
" style="fill: #ffffff"/>
   </g>
   <g id="PathCollection_1">
    <defs>
     <path id="m07e9e17ea4" d="M -3.370787 -0.133427 
Q -2.799625 -0.133427 -2.509363 0.802903 
Q -1.924157 2.558521 -1.67603 2.558521 
Q -1.484082 2.558521 -1.27809 2.268258 
Q 2.832397 -4.31882 6.329588 -8.382491 
Q 7.233146 -9.435861 9.208801 -9.435861 
Q 9.676966 -9.435861 9.836142 -9.34691 
Q 10 -9.26264 10 -9.131554 
Q 10 -8.925562 9.51779 -8.326311 
Q 3.871723 -1.537921 -0.959738 6.013577 
Q -1.296816 6.537921 -2.331461 6.537921 
Q -3.384831 6.537921 -3.576779 6.44897 
Q -4.073034 6.233614 -4.747191 4.211142 
Q -5.5103 1.973315 -5.5103 1.402154 
Q -5.5103 0.788858 -4.485019 0.217697 
Q -3.852996 -0.133427 -3.370787 -0.133427 
z
" style="stroke: #ffffff; stroke-width: 0.5"/>
    </defs>
    <g clip-path="url(#pbd5b3ed7e5)">
     <use xlink:href="#m07e9e17ea4" x="273.245" y="540.091282" style="fill: #1e2023; stroke: #ffffff; stroke-width: 0.5"/>
    </g>
   </g>
   <g id="PathCollection_2">
    <g clip-path="url(#pbd5b3ed7e5)">
     <use xlink:href="#m07e9e17ea4" x="273.245" y="410.716923" style="fill: #1e2023; stroke: #ffffff; stroke-width: 0.5"/>
    </g>
   </g>
   <g id="PathCollection_3">
    <g clip-path="url(#pbd5b3ed7e5)">
     <use xlink:href="#m07e9e17ea4" x="273.245" y="281.342564" style="fill: #1e2023; stroke: #ffffff; stroke-width: 0.5"/>
    </g>
   </g>
   <g id="PathCollection_4">
    <defs>
     <path id="ma7c9dcd8a5" d="M -2.5 5 
L 0 2.5 
L 2.5 5 
L 5 2.5 
L 2.5 0 
L 5 -2.5 
L 2.5 -5 
L 0 -2.5 
L -2.5 -5 
L -5 -2.5 
L -2.5 0 
L -5 2.5 
z
" style="stroke: #ffffff; stroke-width: 0.5"/>
    </defs>
    <g clip-path="url(#pbd5b3ed7e5)">
     <use xlink:href="#ma7c9dcd8a5" x="273.245" y="151.968205" style="fill: #1e2023; stroke: #ffffff; stroke-width: 0.5"/>
    </g>
   </g>
   <g id="PathCollection_5">
    <g clip-path="url(#pbd5b3ed7e5)">
     <use xlink:href="#m07e9e17ea4" x="307.510508" y="216.655385" style="fill: #1e2023; stroke: #ffffff; stroke-width: 0.5"/>
    </g>
   </g>
   <g id="PathCollection_6">
    <g clip-path="url(#pbd5b3ed7e5)">
     <use xlink:href="#ma7c9dcd8a5" x="307.510508" y="87.281026" style="fill: #1e2023; stroke: #ffffff; stroke-width: 0.5"/>
    </g>
   </g>
   <g id="PathCollection_7">
    <g clip-path="url(#pbd5b3ed7e5)">
     <use xlink:href="#m07e9e17ea4" x="331.822273" y="216.655385" style="fill: #1e2023; stroke: #ffffff; stroke-width: 0.5"/>
    </g>
   </g>
   <g id="PathCollection_8">
    <g clip-path="url(#pbd5b3ed7e5)">
     <use xlink:href="#ma7c9dcd8a5" x="331.822273" y="87.281026" style="fill: #1e2023; stroke: #ffffff; stroke-width: 0.5"/>
    </g>
   </g>
   <g id="PathCollection_9">
    <g clip-path="url(#pbd5b3ed7e5)">
     <use xlink:href="#m07e9e17ea4" x="366.087781" y="216.655385" style="fill: #1e2023; stroke: #ffffff; stroke-width: 0.5"/>
    </g>
   </g>
   <g id="PathCollection_10">
    <g clip-path="url(#pbd5b3ed7e5)">
     <use xlink:href="#ma7c9dcd8a5" x="366.087781" y="87.281026" style="fill: #1e2023; stroke: #ffffff; stroke-width: 0.5"/>
    </g>
   </g>
   <g id="PathCollection_11">
    <g clip-path="url(#pbd5b3ed7e5)">
     <use xlink:href="#m07e9e17ea4" x="390.399545" y="216.655385" style="fill: #1e2023; stroke: #ffffff; stroke-width: 0.5"/>
    </g>
   </g>
   <g id="PathCollection_12">
    <g clip-path="url(#pbd5b3ed7e5)">
     <use xlink:href="#ma7c9dcd8a5" x="390.399545" y="87.281026" style="fill: #1e2023; stroke: #ffffff; stroke-width: 0.5"/>
    </g>
   </g>
   <g id="PathCollection_13">
    <g clip-path="url(#pbd5b3ed7e5)">
     <use xlink:href="#m07e9e17ea4" x="424.665053" y="216.655385" style="fill: #1e2023; stroke: #ffffff; stroke-width: 0.5"/>
    </g>
   </g>
   <g id="PathCollection_14">
    <g clip-path="url(#pbd5b3ed7e5)">
     <use xlink:href="#ma7c9dcd8a5" x="424.665053" y="87.281026" style="fill: #1e2023; stroke: #ffffff; stroke-width: 0.5"/>
    </g>
   </g>
   <g id="PathCollection_15">
    <g clip-path="url(#pbd5b3ed7e5)">
     <use xlink:href="#m07e9e17ea4" x="448.976818" y="216.655385" style="fill: #1e2023; stroke: #ffffff; stroke-width: 0.5"/>
    </g>
   </g>
   <g id="PathCollection_16">
    <g clip-path="url(#pbd5b3ed7e5)">
     <use xlink:href="#ma7c9dcd8a5" x="448.976818" y="87.281026" style="fill: #1e2023; stroke: #ffffff; stroke-width: 0.5"/>
    </g>
   </g>
   <g id="PathCollection_17">
    <g clip-path="url(#pbd5b3ed7e5)">
     <use xlink:href="#m07e9e17ea4" x="248.933235" y="216.655385" style="fill: #1e2023; stroke: #ffffff; stroke-width: 0.5"/>
    </g>
   </g>
   <g id="PathCollection_18">
    <g clip-path="url(#pbd5b3ed7e5)">
     <use xlink:href="#ma7c9dcd8a5" x="248.933235" y="87.281026" style="fill: #1e2023; stroke: #ffffff; stroke-width: 0.5"/>
    </g>
   </g>
   <g id="PathCollection_19">
    <g clip-path="url(#pbd5b3ed7e5)">
     <use xlink:href="#m07e9e17ea4" x="214.667727" y="216.655385" style="fill: #1e2023; stroke: #ffffff; stroke-width: 0.5"/>
    </g>
   </g>
   <g id="PathCollection_20">
    <g clip-path="url(#pbd5b3ed7e5)">
     <use xlink:href="#ma7c9dcd8a5" x="214.667727" y="87.281026" style="fill: #1e2023; stroke: #ffffff; stroke-width: 0.5"/>
    </g>
   </g>
   <g id="PathCollection_21">
    <g clip-path="url(#pbd5b3ed7e5)">
     <use xlink:href="#m07e9e17ea4" x="156.090455" y="216.655385" style="fill: #1e2023; stroke: #ffffff; stroke-width: 0.5"/>
    </g>
   </g>
   <g id="PathCollection_22">
    <g clip-path="url(#pbd5b3ed7e5)">
     <use xlink:href="#ma7c9dcd8a5" x="156.090455" y="87.281026" style="fill: #1e2023; stroke: #ffffff; stroke-width: 0.5"/>
    </g>
   </g>
   <g id="PathCollection_23">
    <g clip-path="url(#pbd5b3ed7e5)">
     <use xlink:href="#ma7c9dcd8a5" x="97.513182" y="216.655385" style="fill: #1e2023; stroke: #ffffff; stroke-width: 0.5"/>
    </g>
   </g>
   <g id="PathCollection_24">
    <g clip-path="url(#pbd5b3ed7e5)">
     <use xlink:href="#m07e9e17ea4" x="97.513182" y="281.342564" style="fill: #1e2023; stroke: #ffffff; stroke-width: 0.5"/>
    </g>
   </g>
   <g id="PathCollection_25">
    <g clip-path="url(#pbd5b3ed7e5)">
     <use xlink:href="#m07e9e17ea4" x="185.379091" y="164.905641" style="fill: #1e2023; stroke: #ffffff; stroke-width: 0.5"/>
    </g>
   </g>
   <g id="PathCollection_26">
    <g clip-path="url(#pbd5b3ed7e5)">
     <use xlink:href="#ma7c9dcd8a5" x="132.659545" y="190.780513" style="fill: #1e2023; stroke: #ffffff; stroke-width: 0.5"/>
    </g>
   </g>
   <g id="PathCollection_27">
    <g clip-path="url(#pbd5b3ed7e5)">
     <use xlink:href="#m07e9e17ea4" x="448.976818" y="164.905641" style="fill: #1e2023; stroke: #ffffff; stroke-width: 0.5"/>
    </g>
   </g>
   <g id="PathCollection_28">
    <g clip-path="url(#pbd5b3ed7e5)">
     <use xlink:href="#m07e9e17ea4" x="402.115" y="158.436923" style="fill: #1e2023; stroke: #ffffff; stroke-width: 0.5"/>
    </g>
   </g>
   <g id="PathCollection_29">
    <g clip-path="url(#pbd5b3ed7e5)">
     <use xlink:href="#m07e9e17ea4" x="349.395455" y="158.436923" style="fill: #1e2023; stroke: #ffffff; stroke-width: 0.5"/>
    </g>
   </g>
   <g id="PathCollection_30">
    <g clip-path="url(#pbd5b3ed7e5)">
     <use xlink:href="#ma7c9dcd8a5" x="226.383182" y="151.968205" style="fill: #1e2023; stroke: #ffffff; stroke-width: 0.5"/>
    </g>
   </g>
   <g id="PathCollection_31">
    <g clip-path="url(#pbd5b3ed7e5)">
     <use xlink:href="#ma7c9dcd8a5" x="302.533636" y="164.905641" style="fill: #1e2023; stroke: #ffffff; stroke-width: 0.5"/>
    </g>
   </g>
   <g id="PathCollection_32">
    <g clip-path="url(#pbd5b3ed7e5)">
     <use xlink:href="#ma7c9dcd8a5" x="167.805909" y="151.968205" style="fill: #1e2023; stroke: #ffffff; stroke-width: 0.5"/>
    </g>
   </g>
   <g id="PathCollection_33">
    <g clip-path="url(#pbd5b3ed7e5)">
     <use xlink:href="#m07e9e17ea4" x="273.245" y="190.780513" style="fill: #1e2023; stroke: #ffffff; stroke-width: 0.5"/>
    </g>
   </g>
   <g id="PathCollection_34">
    <g clip-path="url(#pbd5b3ed7e5)">
     <use xlink:href="#m07e9e17ea4" x="378.684091" y="132.562051" style="fill: #1e2023; stroke: #ffffff; stroke-width: 0.5"/>
    </g>
   </g>
   <g id="PathCollection_35">
    <g clip-path="url(#pbd5b3ed7e5)">
     <use xlink:href="#m07e9e17ea4" x="419.688182" y="132.562051" style="fill: #1e2023; stroke: #ffffff; stroke-width: 0.5"/>
    </g>
   </g>
   <g id="PathCollection_36">
    <g clip-path="url(#pbd5b3ed7e5)">
     <use xlink:href="#m07e9e17ea4" x="120.944091" y="229.592821" style="fill: #1e2023; stroke: #ffffff; stroke-width: 0.5"/>
    </g>
   </g>
   <g id="PathCollection_37">
    <g clip-path="url(#pbd5b3ed7e5)">
     <use xlink:href="#m07e9e17ea4" x="331.822273" y="151.968205" style="fill: #1e2023; stroke: #ffffff; stroke-width: 0.5"/>
    </g>
   </g>
   <g id="PathCollection_38">
    <g clip-path="url(#pbd5b3ed7e5)">
     <use xlink:href="#m07e9e17ea4" x="448.976818" y="132.562051" style="fill: #1e2023; stroke: #ffffff; stroke-width: 0.5"/>
    </g>
   </g>
   <g id="PathCollection_39">
    <g clip-path="url(#pbd5b3ed7e5)">
     <use xlink:href="#ma7c9dcd8a5" x="208.81" y="158.436923" style="fill: #1e2023; stroke: #ffffff; stroke-width: 0.5"/>
    </g>
   </g>
   <g id="PathCollection_40">
    <g clip-path="url(#pbd5b3ed7e5)">
     <use xlink:href="#m07e9e17ea4" x="243.956364" y="177.843077" style="fill: #1e2023; stroke: #ffffff; stroke-width: 0.5"/>
    </g>
   </g>
   <g id="PathCollection_41">
    <g clip-path="url(#pbd5b3ed7e5)">
     <use xlink:href="#m07e9e17ea4" x="97.513182" y="223.124103" style="fill: #1e2023; stroke: #ffffff; stroke-width: 0.5"/>
    </g>
   </g>
   <g id="PathCollection_42">
    <g clip-path="url(#pbd5b3ed7e5)">
     <use xlink:href="#ma7c9dcd8a5" x="349.395455" y="119.624615" style="fill: #1e2023; stroke: #ffffff; stroke-width: 0.5"/>
    </g>
   </g>
   <g id="PathCollection_43">
    <g clip-path="url(#pbd5b3ed7e5)">
     <use xlink:href="#m07e9e17ea4" x="402.115" y="113.155897" style="fill: #1e2023; stroke: #ffffff; stroke-width: 0.5"/>
    </g>
   </g>
   <g id="PathCollection_44">
    <g clip-path="url(#pbd5b3ed7e5)">
     <use xlink:href="#m07e9e17ea4" x="150.232727" y="184.311795" style="fill: #1e2023; stroke: #ffffff; stroke-width: 0.5"/>
    </g>
   </g>
   <g id="PathCollection_45">
    <g clip-path="url(#pbd5b3ed7e5)">
     <use xlink:href="#m07e9e17ea4" x="302.533636" y="177.843077" style="fill: #1e2023; stroke: #ffffff; stroke-width: 0.5"/>
    </g>
   </g>
   <g id="PathCollection_46">
    <g clip-path="url(#pbd5b3ed7e5)">
     <use xlink:href="#m07e9e17ea4" x="448.976818" y="119.624615" style="fill: #1e2023; stroke: #ffffff; stroke-width: 0.5"/>
    </g>
   </g>
   <g id="PathCollection_47">
    <g clip-path="url(#pbd5b3ed7e5)">
     <use xlink:href="#ma7c9dcd8a5" x="249.814091" y="158.436923" style="fill: #1e2023; stroke: #ffffff; stroke-width: 0.5"/>
    </g>
   </g>
   <g id="PathCollection_48">
    <g clip-path="url(#pbd5b3ed7e5)">
     <use xlink:href="#ma7c9dcd8a5" x="372.826364" y="119.624615" style="fill: #1e2023; stroke: #ffffff; stroke-width: 0.5"/>
    </g>
   </g>
   <g id="PathCollection_49">
    <g clip-path="url(#pbd5b3ed7e5)">
     <use xlink:href="#m07e9e17ea4" x="208.81" y="171.374359" style="fill: #1e2023; stroke: #ffffff; stroke-width: 0.5"/>
    </g>
   </g>
   <g id="PathCollection_50">
    <g clip-path="url(#pbd5b3ed7e5)">
     <use xlink:href="#ma7c9dcd8a5" x="419.688182" y="100.218462" style="fill: #1e2023; stroke: #ffffff; stroke-width: 0.5"/>
    </g>
   </g>
   <g id="PathCollection_51">
    <g clip-path="url(#pbd5b3ed7e5)">
     <use xlink:href="#ma7c9dcd8a5" x="97.513182" y="210.186667" style="fill: #1e2023; stroke: #ffffff; stroke-width: 0.5"/>
    </g>
   </g>
   <g id="PathCollection_52">
    <defs>
     <path id="m9b4e5cd822" d="M -2.5 5 
L 0 2.5 
L 2.5 5 
L 5 2.5 
L 2.5 0 
L 5 -2.5 
L 2.5 -5 
L 0 -2.5 
L -2.5 -5 
L -5 -2.5 
L -2.5 0 
L -5 2.5 
z
" style="stroke: #ffffff; stroke-width: 0.5"/>
    </defs>
    <g clip-path="url(#pbd5b3ed7e5)">
     <use xlink:href="#m9b4e5cd822" x="196.021067" y="113.081922" style="fill: #5e586a; stroke: #ffffff; stroke-width: 0.5"/>
    </g>
   </g>
   <g id="PathCollection_53">
    <g clip-path="url(#pbd5b3ed7e5)">
     <use xlink:href="#m9b4e5cd822" x="151.933429" y="103.57797" style="fill: #5e586a; stroke: #ffffff; stroke-width: 0.5"/>
    </g>
   </g>
   <g id="PathCollection_54">
    <defs>
     <path id="m6c2fab5e47" d="M -3.370787 -0.133427 
Q -2.799625 -0.133427 -2.509363 0.802903 
Q -1.924157 2.558521 -1.67603 2.558521 
Q -1.484082 2.558521 -1.27809 2.268258 
Q 2.832397 -4.31882 6.329588 -8.382491 
Q 7.233146 -9.435861 9.208801 -9.435861 
Q 9.676966 -9.435861 9.836142 -9.34691 
Q 10 -9.26264 10 -9.131554 
Q 10 -8.925562 9.51779 -8.326311 
Q 3.871723 -1.537921 -0.959738 6.013577 
Q -1.296816 6.537921 -2.331461 6.537921 
Q -3.384831 6.537921 -3.576779 6.44897 
Q -4.073034 6.233614 -4.747191 4.211142 
Q -5.5103 1.973315 -5.5103 1.402154 
Q -5.5103 0.788858 -4.485019 0.217697 
Q -3.852996 -0.133427 -3.370787 -0.133427 
z
" style="stroke: #ffffff; stroke-width: 0.5"/>
    </defs>
    <g clip-path="url(#pbd5b3ed7e5)">
     <use xlink:href="#m6c2fab5e47" x="215.508621" y="131.423589" style="fill: #5e586a; stroke: #ffffff; stroke-width: 0.5"/>
    </g>
   </g>
   <g id="PathCollection_55">
    <g clip-path="url(#pbd5b3ed7e5)">
     <use xlink:href="#m9b4e5cd822" x="112.92102" y="164.624977" style="fill: #5e586a; stroke: #ffffff; stroke-width: 0.5"/>
    </g>
   </g>
   <g id="PathCollection_56">
    <g clip-path="url(#pbd5b3ed7e5)">
     <use xlink:href="#m6c2fab5e47" x="259.510665" y="128.897028" style="fill: #5e586a; stroke: #ffffff; stroke-width: 0.5"/>
    </g>
   </g>
   <g id="PathCollection_57">
    <g clip-path="url(#pbd5b3ed7e5)">
     <use xlink:href="#m9b4e5cd822" x="132.452073" y="100.218462" style="fill: #5e586a; stroke: #ffffff; stroke-width: 0.5"/>
    </g>
   </g>
   <g id="PathCollection_58">
    <g clip-path="url(#pbd5b3ed7e5)">
     <use xlink:href="#m9b4e5cd822" x="361.098146" y="132.683404" style="fill: #5e586a; stroke: #ffffff; stroke-width: 0.5"/>
    </g>
   </g>
   <g id="PathCollection_59">
    <g clip-path="url(#pbd5b3ed7e5)">
     <use xlink:href="#m9b4e5cd822" x="287.874599" y="141.053065" style="fill: #5e586a; stroke: #ffffff; stroke-width: 0.5"/>
    </g>
   </g>
   <g id="PathCollection_60">
    <g clip-path="url(#pbd5b3ed7e5)">
     <use xlink:href="#m6c2fab5e47" x="370.852434" y="129.557069" style="fill: #5e586a; stroke: #ffffff; stroke-width: 0.5"/>
    </g>
   </g>
   <g id="PathCollection_61">
    <g clip-path="url(#pbd5b3ed7e5)">
     <use xlink:href="#m6c2fab5e47" x="268.374813" y="163.705144" style="fill: #5e586a; stroke: #ffffff; stroke-width: 0.5"/>
    </g>
   </g>
   <g id="PathCollection_62">
    <g clip-path="url(#pbd5b3ed7e5)">
     <use xlink:href="#m6c2fab5e47" x="448.976818" y="132.562051" style="fill: #5e586a; stroke: #ffffff; stroke-width: 0.5"/>
    </g>
   </g>
   <g id="PathCollection_63">
    <g clip-path="url(#pbd5b3ed7e5)">
     <use xlink:href="#m9b4e5cd822" x="380.622558" y="123.672063" style="fill: #5e586a; stroke: #ffffff; stroke-width: 0.5"/>
    </g>
   </g>
   <g id="PathCollection_64">
    <g clip-path="url(#pbd5b3ed7e5)">
     <use xlink:href="#m6c2fab5e47" x="326.907313" y="142.851495" style="fill: #5e586a; stroke: #ffffff; stroke-width: 0.5"/>
    </g>
   </g>
   <g id="PathCollection_65">
    <g clip-path="url(#pbd5b3ed7e5)">
     <use xlink:href="#m6c2fab5e47" x="414.801054" y="114.557268" style="fill: #5e586a; stroke: #ffffff; stroke-width: 0.5"/>
    </g>
   </g>
   <g id="PathCollection_66">
    <g clip-path="url(#pbd5b3ed7e5)">
     <use xlink:href="#m6c2fab5e47" x="448.976818" y="106.687179" style="fill: #5e586a; stroke: #ffffff; stroke-width: 0.5"/>
    </g>
   </g>
   <g id="PathCollection_67">
    <g clip-path="url(#pbd5b3ed7e5)">
     <use xlink:href="#m9b4e5cd822" x="375.765637" y="114.95801" style="fill: #5e586a; stroke: #ffffff; stroke-width: 0.5"/>
    </g>
   </g>
   <g id="PathCollection_68">
    <g clip-path="url(#pbd5b3ed7e5)">
     <use xlink:href="#m6c2fab5e47" x="366.003229" y="121.706069" style="fill: #5e586a; stroke: #ffffff; stroke-width: 0.5"/>
    </g>
   </g>
   <g id="PathCollection_69">
    <g clip-path="url(#pbd5b3ed7e5)">
     <use xlink:href="#m9b4e5cd822" x="336.706656" y="118.269491" style="fill: #5e586a; stroke: #ffffff; stroke-width: 0.5"/>
    </g>
   </g>
   <g id="PathCollection_70">
    <g clip-path="url(#pbd5b3ed7e5)">
     <use xlink:href="#m9b4e5cd822" x="346.487402" y="111.589523" style="fill: #5e586a; stroke: #ffffff; stroke-width: 0.5"/>
    </g>
   </g>
   <g id="PathCollection_71">
    <g clip-path="url(#pbd5b3ed7e5)">
     <use xlink:href="#m6c2fab5e47" x="429.456328" y="109.056964" style="fill: #5e586a; stroke: #ffffff; stroke-width: 0.5"/>
    </g>
   </g>
   <g id="PathCollection_72">
    <g clip-path="url(#pbd5b3ed7e5)">
     <use xlink:href="#m6c2fab5e47" x="409.930598" y="107.905243" style="fill: #5e586a; stroke: #ffffff; stroke-width: 0.5"/>
    </g>
   </g>
   <g id="PathCollection_73">
    <g clip-path="url(#pbd5b3ed7e5)">
     <use xlink:href="#m9b4e5cd822" x="292.776053" y="133.439743" style="fill: #5e586a; stroke: #ffffff; stroke-width: 0.5"/>
    </g>
   </g>
   <g id="PathCollection_74">
    <g clip-path="url(#pbd5b3ed7e5)">
     <use xlink:href="#m9b4e5cd822" x="107.090492" y="112.09821" style="fill: #5e586a; stroke: #ffffff; stroke-width: 0.5"/>
    </g>
   </g>
   <g id="PathCollection_75">
    <g clip-path="url(#pbd5b3ed7e5)">
     <use xlink:href="#m9b4e5cd822" x="146.431977" y="113.86252" style="fill: #5e586a; stroke: #ffffff; stroke-width: 0.5"/>
    </g>
   </g>
   <g id="PathCollection_76">
    <g clip-path="url(#pbd5b3ed7e5)">
     <use xlink:href="#m9b4e5cd822" x="185.485776" y="77.966163" style="fill: #5e586a; stroke: #ffffff; stroke-width: 0.5"/>
    </g>
   </g>
   <g id="PathCollection_77">
    <g clip-path="url(#pbd5b3ed7e5)">
     <use xlink:href="#m9b4e5cd822" x="224.546318" y="111.531622" style="fill: #5e586a; stroke: #ffffff; stroke-width: 0.5"/>
    </g>
   </g>
   <g id="PathCollection_78">
    <g clip-path="url(#pbd5b3ed7e5)">
     <use xlink:href="#m9b4e5cd822" x="97.513182" y="90.162967" style="fill: #5e586a; stroke: #ffffff; stroke-width: 0.5"/>
    </g>
   </g>
   <g id="PathCollection_79">
    <g clip-path="url(#pbd5b3ed7e5)">
     <use xlink:href="#m9b4e5cd822" x="136.809179" y="77.817113" style="fill: #5e586a; stroke: #ffffff; stroke-width: 0.5"/>
    </g>
   </g>
   <g id="PathCollection_80">
    <g clip-path="url(#pbd5b3ed7e5)">
     <use xlink:href="#m9b4e5cd822" x="205.00925" y="103.730801" style="fill: #5e586a; stroke: #ffffff; stroke-width: 0.5"/>
    </g>
   </g>
   <g id="PathCollection_81">
    <g clip-path="url(#pbd5b3ed7e5)">
     <use xlink:href="#m9b4e5cd822" x="165.969045" y="124.234901" style="fill: #5e586a; stroke: #ffffff; stroke-width: 0.5"/>
    </g>
   </g>
   <g id="PathCollection_82">
    <g clip-path="url(#pbd5b3ed7e5)">
     <use xlink:href="#m9b4e5cd822" x="126.908503" y="74.34359" style="fill: #5e586a; stroke: #ffffff; stroke-width: 0.5"/>
    </g>
   </g>
   <g id="PathCollection_83">
    <defs>
     <path id="me8bbc2a999" d="M -3.370787 -0.133427 
Q -2.799625 -0.133427 -2.509363 0.802903 
Q -1.924157 2.558521 -1.67603 2.558521 
Q -1.484082 2.558521 -1.27809 2.268258 
Q 2.832397 -4.31882 6.329588 -8.382491 
Q 7.233146 -9.435861 9.208801 -9.435861 
Q 9.676966 -9.435861 9.836142 -9.34691 
Q 10 -9.26264 10 -9.131554 
Q 10 -8.925562 9.51779 -8.326311 
Q 3.871723 -1.537921 -0.959738 6.013577 
Q -1.296816 6.537921 -2.331461 6.537921 
Q -3.384831 6.537921 -3.576779 6.44897 
Q -4.073034 6.233614 -4.747191 4.211142 
Q -5.5103 1.973315 -5.5103 1.402154 
Q -5.5103 0.788858 -4.485019 0.217697 
Q -3.852996 -0.133427 -3.370787 -0.133427 
z
" style="stroke: #ffffff; stroke-width: 0.5"/>
    </defs>
    <g clip-path="url(#pbd5b3ed7e5)">
     <use xlink:href="#me8bbc2a999" x="288.119327" y="172.458834" style="fill: #bb8694; stroke: #ffffff; stroke-width: 0.5"/>
    </g>
   </g>
   <g id="PathCollection_84">
    <g clip-path="url(#pbd5b3ed7e5)">
     <use xlink:href="#me8bbc2a999" x="271.707682" y="172.83366" style="fill: #bb8694; stroke: #ffffff; stroke-width: 0.5"/>
    </g>
   </g>
   <g id="PathCollection_85">
    <g clip-path="url(#pbd5b3ed7e5)">
     <use xlink:href="#me8bbc2a999" x="216.310514" y="165.383729" style="fill: #bb8694; stroke: #ffffff; stroke-width: 0.5"/>
    </g>
   </g>
   <g id="PathCollection_86">
    <g clip-path="url(#pbd5b3ed7e5)">
     <use xlink:href="#me8bbc2a999" x="436.49849" y="110.450047" style="fill: #bb8694; stroke: #ffffff; stroke-width: 0.5"/>
    </g>
   </g>
   <g id="PathCollection_87">
    <g clip-path="url(#pbd5b3ed7e5)">
     <use xlink:href="#me8bbc2a999" x="132.659545" y="184.311795" style="fill: #bb8694; stroke: #ffffff; stroke-width: 0.5"/>
    </g>
   </g>
   <g id="PathCollection_88">
    <g clip-path="url(#pbd5b3ed7e5)">
     <use xlink:href="#me8bbc2a999" x="427.4707" y="110.338959" style="fill: #bb8694; stroke: #ffffff; stroke-width: 0.5"/>
    </g>
   </g>
   <g id="PathCollection_89">
    <g clip-path="url(#pbd5b3ed7e5)">
     <use xlink:href="#me8bbc2a999" x="97.513182" y="203.717949" style="fill: #bb8694; stroke: #ffffff; stroke-width: 0.5"/>
    </g>
   </g>
   <g id="PathCollection_90">
    <defs>
     <path id="m73df553700" d="M -2.5 5 
L 0 2.5 
L 2.5 5 
L 5 2.5 
L 2.5 0 
L 5 -2.5 
L 2.5 -5 
L 0 -2.5 
L -2.5 -5 
L -5 -2.5 
L -2.5 0 
L -5 2.5 
z
" style="stroke: #ffffff; stroke-width: 0.5"/>
    </defs>
    <g clip-path="url(#pbd5b3ed7e5)">
     <use xlink:href="#m73df553700" x="337.655382" y="139.693792" style="fill: #bb8694; stroke: #ffffff; stroke-width: 0.5"/>
    </g>
   </g>
   <g id="PathCollection_91">
    <g clip-path="url(#pbd5b3ed7e5)">
     <use xlink:href="#me8bbc2a999" x="179.521364" y="139.030769" style="fill: #bb8694; stroke: #ffffff; stroke-width: 0.5"/>
    </g>
   </g>
   <g id="PathCollection_92">
    <g clip-path="url(#pbd5b3ed7e5)">
     <use xlink:href="#m73df553700" x="323.938342" y="145.980513" style="fill: #bb8694; stroke: #ffffff; stroke-width: 0.5"/>
    </g>
   </g>
   <g id="PathCollection_93">
    <g clip-path="url(#pbd5b3ed7e5)">
     <use xlink:href="#me8bbc2a999" x="372.826364" y="151.968205" style="fill: #bb8694; stroke: #ffffff; stroke-width: 0.5"/>
    </g>
   </g>
   <g id="PathCollection_94">
    <g clip-path="url(#pbd5b3ed7e5)">
     <use xlink:href="#me8bbc2a999" x="165.577852" y="160.251129" style="fill: #bb8694; stroke: #ffffff; stroke-width: 0.5"/>
    </g>
   </g>
   <g id="PathCollection_95">
    <g clip-path="url(#pbd5b3ed7e5)">
     <use xlink:href="#me8bbc2a999" x="238.098636" y="145.499487" style="fill: #bb8694; stroke: #ffffff; stroke-width: 0.5"/>
    </g>
   </g>
   <g id="PathCollection_96">
    <g clip-path="url(#pbd5b3ed7e5)">
     <use xlink:href="#me8bbc2a999" x="137.766383" y="190.780513" style="fill: #bb8694; stroke: #ffffff; stroke-width: 0.5"/>
    </g>
   </g>
   <g id="PathCollection_97">
    <g clip-path="url(#pbd5b3ed7e5)">
     <use xlink:href="#me8bbc2a999" x="120.944091" y="164.905641" style="fill: #bb8694; stroke: #ffffff; stroke-width: 0.5"/>
    </g>
   </g>
   <g id="PathCollection_98">
    <g clip-path="url(#pbd5b3ed7e5)">
     <use xlink:href="#me8bbc2a999" x="239.606516" y="169.507958" style="fill: #bb8694; stroke: #ffffff; stroke-width: 0.5"/>
    </g>
   </g>
   <g id="PathCollection_99">
    <g clip-path="url(#pbd5b3ed7e5)">
     <use xlink:href="#m73df553700" x="97.513182" y="158.436923" style="fill: #bb8694; stroke: #ffffff; stroke-width: 0.5"/>
    </g>
   </g>
   <g id="PathCollection_100">
    <g clip-path="url(#pbd5b3ed7e5)">
     <use xlink:href="#me8bbc2a999" x="280.228744" y="173.585657" style="fill: #bb8694; stroke: #ffffff; stroke-width: 0.5"/>
    </g>
   </g>
   <g id="PathCollection_101">
    <g clip-path="url(#pbd5b3ed7e5)">
     <use xlink:href="#m73df553700" x="197.094545" y="113.155897" style="fill: #bb8694; stroke: #ffffff; stroke-width: 0.5"/>
    </g>
   </g>
   <g id="PathCollection_102">
    <g clip-path="url(#pbd5b3ed7e5)">
     <use xlink:href="#me8bbc2a999" x="428.16471" y="110.338959" style="fill: #bb8694; stroke: #ffffff; stroke-width: 0.5"/>
    </g>
   </g>
   <g id="PathCollection_103">
    <g clip-path="url(#pbd5b3ed7e5)">
     <use xlink:href="#m73df553700" x="144.375" y="119.624615" style="fill: #bb8694; stroke: #ffffff; stroke-width: 0.5"/>
    </g>
   </g>
   <g id="PathCollection_104">
    <g clip-path="url(#pbd5b3ed7e5)">
     <use xlink:href="#me8bbc2a999" x="309.4491" y="161.378334" style="fill: #bb8694; stroke: #ffffff; stroke-width: 0.5"/>
    </g>
   </g>
   <g id="PathCollection_105">
    <g clip-path="url(#pbd5b3ed7e5)">
     <use xlink:href="#me8bbc2a999" x="396.257273" y="113.155897" style="fill: #bb8694; stroke: #ffffff; stroke-width: 0.5"/>
    </g>
   </g>
   <g id="PathCollection_106">
    <g clip-path="url(#pbd5b3ed7e5)">
     <use xlink:href="#me8bbc2a999" x="295.266346" y="169.959104" style="fill: #bb8694; stroke: #ffffff; stroke-width: 0.5"/>
    </g>
   </g>
   <g id="PathCollection_107">
    <g clip-path="url(#pbd5b3ed7e5)">
     <use xlink:href="#me8bbc2a999" x="355.253182" y="151.968205" style="fill: #bb8694; stroke: #ffffff; stroke-width: 0.5"/>
    </g>
   </g>
   <g id="PathCollection_108">
    <g clip-path="url(#pbd5b3ed7e5)">
     <use xlink:href="#m73df553700" x="386.99847" y="118.909806" style="fill: #bb8694; stroke: #ffffff; stroke-width: 0.5"/>
    </g>
   </g>
   <g id="PathCollection_109">
    <g clip-path="url(#pbd5b3ed7e5)">
     <use xlink:href="#me8bbc2a999" x="220.525455" y="126.093333" style="fill: #bb8694; stroke: #ffffff; stroke-width: 0.5"/>
    </g>
   </g>
   <g id="PathCollection_110">
    <g clip-path="url(#pbd5b3ed7e5)">
     <use xlink:href="#me8bbc2a999" x="312.408733" y="158.436923" style="fill: #bb8694; stroke: #ffffff; stroke-width: 0.5"/>
    </g>
   </g>
   <g id="PathCollection_111">
    <g clip-path="url(#pbd5b3ed7e5)">
     <use xlink:href="#m73df553700" x="249.814091" y="132.562051" style="fill: #bb8694; stroke: #ffffff; stroke-width: 0.5"/>
    </g>
   </g>
   <g id="PathCollection_112">
    <g clip-path="url(#pbd5b3ed7e5)">
     <use xlink:href="#me8bbc2a999" x="179.763591" y="155.391102" style="fill: #bb8694; stroke: #ffffff; stroke-width: 0.5"/>
    </g>
   </g>
   <g id="PathCollection_113">
    <g clip-path="url(#pbd5b3ed7e5)">
     <use xlink:href="#m73df553700" x="448.976818" y="106.687179" style="fill: #bb8694; stroke: #ffffff; stroke-width: 0.5"/>
    </g>
   </g>
   <g id="matplotlib.axis_1">
    <g id="xtick_1">
     <g id="line2d_1">
      <defs>
       <path id="mf1db085647" d="M 0 0 
L 0 3.5 
" style="stroke: #000000; stroke-width: 0.8"/>
      </defs>
      <g>
       <use xlink:href="#mf1db085647" x="97.513182" y="294.28" style="stroke: #000000; stroke-width: 0.8"/>
      </g>
     </g>
     <g id="text_1">
      <!-- 125 -->
      <g transform="translate(82.502869 314.133125)scale(0.18 -0.18)">
       <defs>
        <path id="HelveticaNeue-31" d="M 2278 0 
L 2278 4538 
L 1862 4538 
Q 1818 4282 1696 4115 
Q 1574 3949 1398 3853 
Q 1222 3757 1004 3721 
Q 787 3686 557 3686 
L 557 3251 
L 1734 3251 
L 1734 0 
L 2278 0 
z
" transform="scale(0.015625)"/>
        <path id="HelveticaNeue-32" d="M 282 2931 
L 826 2931 
Q 819 3136 867 3337 
Q 915 3539 1024 3699 
Q 1133 3859 1302 3958 
Q 1472 4058 1709 4058 
Q 1888 4058 2048 4000 
Q 2208 3942 2326 3833 
Q 2445 3725 2515 3574 
Q 2586 3424 2586 3238 
Q 2586 3002 2512 2822 
Q 2438 2643 2294 2489 
Q 2150 2336 1932 2185 
Q 1715 2035 1427 1856 
Q 1190 1715 972 1555 
Q 755 1395 582 1184 
Q 410 973 298 688 
Q 186 403 154 0 
L 3117 0 
L 3117 480 
L 787 480 
Q 826 691 950 854 
Q 1075 1018 1251 1158 
Q 1427 1299 1638 1424 
Q 1850 1549 2061 1677 
Q 2272 1811 2470 1958 
Q 2669 2106 2822 2288 
Q 2976 2470 3069 2700 
Q 3162 2931 3162 3232 
Q 3162 3552 3050 3795 
Q 2938 4038 2746 4201 
Q 2554 4365 2294 4451 
Q 2035 4538 1741 4538 
Q 1382 4538 1100 4416 
Q 819 4294 630 4080 
Q 442 3866 352 3571 
Q 262 3277 282 2931 
z
" transform="scale(0.015625)"/>
        <path id="HelveticaNeue-35" d="M 3008 3981 
L 3008 4461 
L 768 4461 
L 346 2106 
L 813 2080 
Q 973 2272 1181 2390 
Q 1389 2509 1658 2509 
Q 1888 2509 2077 2432 
Q 2266 2355 2400 2217 
Q 2534 2080 2608 1891 
Q 2682 1702 2682 1478 
Q 2682 1210 2605 1008 
Q 2528 806 2397 672 
Q 2266 538 2090 470 
Q 1914 403 1722 403 
Q 1517 403 1347 464 
Q 1178 525 1053 637 
Q 928 749 854 899 
Q 781 1050 768 1222 
L 224 1222 
Q 230 915 345 672 
Q 461 429 659 265 
Q 858 102 1117 16 
Q 1376 -70 1670 -70 
Q 2067 -70 2364 54 
Q 2662 179 2860 390 
Q 3059 602 3158 874 
Q 3258 1146 3258 1434 
Q 3258 1824 3142 2115 
Q 3027 2406 2828 2601 
Q 2630 2797 2361 2893 
Q 2093 2989 1792 2989 
Q 1562 2989 1328 2909 
Q 1094 2829 947 2662 
L 934 2675 
L 1178 3981 
L 3008 3981 
z
" transform="scale(0.015625)"/>
       </defs>
       <use xlink:href="#HelveticaNeue-31"/>
       <use xlink:href="#HelveticaNeue-32" x="55.599991"/>
       <use xlink:href="#HelveticaNeue-35" x="111.199982"/>
      </g>
     </g>
    </g>
    <g id="xtick_2">
     <g id="line2d_2">
      <g>
       <use xlink:href="#mf1db085647" x="273.245" y="294.28" style="stroke: #000000; stroke-width: 0.8"/>
      </g>
     </g>
     <g id="text_2">
      <!-- 1000 -->
      <g transform="translate(253.23125 314.133125)scale(0.18 -0.18)">
       <defs>
        <path id="HelveticaNeue-30" d="M 845 2234 
Q 845 2400 848 2601 
Q 851 2803 880 3004 
Q 909 3206 963 3398 
Q 1018 3590 1123 3734 
Q 1229 3878 1389 3968 
Q 1549 4058 1779 4058 
Q 2010 4058 2170 3968 
Q 2330 3878 2435 3734 
Q 2541 3590 2595 3398 
Q 2650 3206 2678 3004 
Q 2707 2803 2710 2601 
Q 2714 2400 2714 2234 
Q 2714 1978 2698 1661 
Q 2682 1344 2595 1065 
Q 2509 787 2317 595 
Q 2125 403 1779 403 
Q 1434 403 1242 595 
Q 1050 787 963 1065 
Q 877 1344 861 1661 
Q 845 1978 845 2234 
z
M 269 2227 
Q 269 1978 281 1709 
Q 294 1440 345 1184 
Q 397 928 493 701 
Q 589 474 755 301 
Q 922 128 1174 29 
Q 1427 -70 1779 -70 
Q 2138 -70 2387 29 
Q 2637 128 2803 301 
Q 2970 474 3066 701 
Q 3162 928 3213 1184 
Q 3264 1440 3277 1709 
Q 3290 1978 3290 2227 
Q 3290 2477 3277 2745 
Q 3264 3014 3213 3270 
Q 3162 3526 3066 3756 
Q 2970 3987 2803 4160 
Q 2637 4333 2384 4435 
Q 2131 4538 1779 4538 
Q 1427 4538 1174 4435 
Q 922 4333 755 4160 
Q 589 3987 493 3756 
Q 397 3526 345 3270 
Q 294 3014 281 2745 
Q 269 2477 269 2227 
z
" transform="scale(0.015625)"/>
       </defs>
       <use xlink:href="#HelveticaNeue-31"/>
       <use xlink:href="#HelveticaNeue-30" x="55.599991"/>
       <use xlink:href="#HelveticaNeue-30" x="111.199982"/>
       <use xlink:href="#HelveticaNeue-30" x="166.799973"/>
      </g>
     </g>
    </g>
    <g id="xtick_3">
     <g id="line2d_3">
      <g>
       <use xlink:href="#mf1db085647" x="448.976818" y="294.28" style="stroke: #000000; stroke-width: 0.8"/>
      </g>
     </g>
     <g id="text_3">
      <!-- 8000 -->
      <g transform="translate(428.963068 314.133125)scale(0.18 -0.18)">
       <defs>
        <path id="HelveticaNeue-38" d="M 992 3360 
Q 992 3533 1056 3661 
Q 1120 3789 1225 3878 
Q 1331 3968 1478 4013 
Q 1626 4058 1786 4058 
Q 2118 4058 2332 3882 
Q 2547 3706 2547 3360 
Q 2547 3014 2336 2822 
Q 2125 2630 1798 2630 
Q 1632 2630 1485 2675 
Q 1338 2720 1229 2809 
Q 1120 2899 1056 3036 
Q 992 3174 992 3360 
z
M 416 3379 
Q 416 3072 589 2813 
Q 762 2554 1050 2438 
Q 666 2304 461 2006 
Q 256 1709 256 1306 
Q 256 960 374 701 
Q 493 442 701 269 
Q 909 96 1190 13 
Q 1472 -70 1798 -70 
Q 2112 -70 2387 19 
Q 2662 109 2864 285 
Q 3066 461 3184 717 
Q 3302 973 3302 1306 
Q 3302 1728 3104 2019 
Q 2906 2310 2496 2438 
Q 2784 2566 2953 2819 
Q 3123 3072 3123 3379 
Q 3123 3597 3046 3805 
Q 2970 4013 2806 4176 
Q 2643 4339 2380 4438 
Q 2118 4538 1747 4538 
Q 1485 4538 1245 4461 
Q 1005 4384 819 4237 
Q 634 4090 525 3875 
Q 416 3661 416 3379 
z
M 832 1280 
Q 832 1478 905 1638 
Q 979 1798 1110 1913 
Q 1242 2029 1418 2089 
Q 1594 2150 1792 2150 
Q 1984 2150 2153 2083 
Q 2323 2016 2451 1901 
Q 2579 1786 2652 1629 
Q 2726 1472 2726 1286 
Q 2726 1094 2659 934 
Q 2592 774 2467 656 
Q 2342 538 2172 470 
Q 2003 403 1798 403 
Q 1376 403 1104 636 
Q 832 870 832 1280 
z
" transform="scale(0.015625)"/>
       </defs>
       <use xlink:href="#HelveticaNeue-38"/>
       <use xlink:href="#HelveticaNeue-30" x="55.599991"/>
       <use xlink:href="#HelveticaNeue-30" x="111.199982"/>
       <use xlink:href="#HelveticaNeue-30" x="166.799973"/>
      </g>
     </g>
    </g>
    <g id="text_4">
     <!-- Frequency (in Hz) -->
     <g transform="translate(203.409219 334.836563)scale(0.18 -0.18)">
      <defs>
       <path id="HelveticaNeue-46" d="M 499 4570 
L 499 0 
L 1107 0 
L 1107 2093 
L 3206 2093 
L 3206 2605 
L 1107 2605 
L 1107 4058 
L 3501 4058 
L 3501 4570 
L 499 4570 
z
" transform="scale(0.015625)"/>
       <path id="HelveticaNeue-72" d="M 390 3309 
L 390 0 
L 934 0 
L 934 1472 
Q 934 1792 998 2038 
Q 1062 2285 1203 2457 
Q 1344 2630 1574 2720 
Q 1805 2810 2131 2810 
L 2131 3386 
Q 1690 3398 1402 3206 
Q 1114 3014 915 2611 
L 902 2611 
L 902 3309 
L 390 3309 
z
" transform="scale(0.015625)"/>
       <path id="HelveticaNeue-65" d="M 2707 1971 
L 806 1971 
Q 819 2163 889 2332 
Q 960 2502 1081 2630 
Q 1203 2758 1372 2832 
Q 1542 2906 1754 2906 
Q 1958 2906 2128 2832 
Q 2298 2758 2422 2633 
Q 2547 2509 2620 2336 
Q 2694 2163 2707 1971 
z
M 3232 1050 
L 2694 1050 
Q 2624 723 2403 563 
Q 2182 403 1837 403 
Q 1568 403 1369 492 
Q 1171 582 1043 732 
Q 915 883 857 1078 
Q 800 1274 806 1491 
L 3283 1491 
Q 3296 1792 3229 2125 
Q 3162 2458 2986 2739 
Q 2810 3021 2518 3203 
Q 2227 3386 1786 3386 
Q 1446 3386 1161 3258 
Q 877 3130 669 2899 
Q 461 2669 345 2355 
Q 230 2042 230 1664 
Q 243 1286 342 966 
Q 442 646 640 416 
Q 838 186 1129 58 
Q 1421 -70 1818 -70 
Q 2381 -70 2752 211 
Q 3123 493 3232 1050 
z
" transform="scale(0.015625)"/>
       <path id="HelveticaNeue-71" d="M 806 1626 
Q 806 1869 857 2099 
Q 909 2330 1024 2509 
Q 1139 2688 1331 2797 
Q 1523 2906 1798 2906 
Q 2080 2906 2278 2800 
Q 2477 2694 2601 2521 
Q 2726 2349 2784 2121 
Q 2842 1894 2842 1651 
Q 2842 1421 2787 1197 
Q 2733 973 2611 797 
Q 2490 621 2298 512 
Q 2106 403 1830 403 
Q 1568 403 1373 505 
Q 1178 608 1053 781 
Q 928 954 867 1174 
Q 806 1395 806 1626 
z
M 3366 -1261 
L 3366 3309 
L 2822 3309 
L 2822 2867 
L 2810 2867 
Q 2720 3014 2589 3113 
Q 2458 3213 2310 3273 
Q 2163 3334 2016 3360 
Q 1869 3386 1741 3386 
Q 1363 3386 1078 3248 
Q 794 3110 605 2876 
Q 416 2643 323 2329 
Q 230 2016 230 1664 
Q 230 1312 326 998 
Q 422 685 611 448 
Q 800 211 1085 70 
Q 1370 -70 1754 -70 
Q 2099 -70 2387 51 
Q 2675 173 2810 448 
L 2822 448 
L 2822 -1261 
L 3366 -1261 
z
" transform="scale(0.015625)"/>
       <path id="HelveticaNeue-75" d="M 3149 0 
L 3149 3309 
L 2605 3309 
L 2605 1440 
Q 2605 1216 2544 1027 
Q 2483 838 2361 697 
Q 2240 557 2057 480 
Q 1875 403 1626 403 
Q 1312 403 1133 582 
Q 954 762 954 1069 
L 954 3309 
L 410 3309 
L 410 1133 
Q 410 864 464 643 
Q 518 422 652 262 
Q 787 102 1004 16 
Q 1222 -70 1549 -70 
Q 1914 -70 2182 74 
Q 2451 218 2624 525 
L 2637 525 
L 2637 0 
L 3149 0 
z
" transform="scale(0.015625)"/>
       <path id="HelveticaNeue-6e" d="M 410 3309 
L 410 0 
L 954 0 
L 954 1869 
Q 954 2093 1014 2281 
Q 1075 2470 1196 2611 
Q 1318 2752 1500 2829 
Q 1683 2906 1933 2906 
Q 2246 2906 2425 2726 
Q 2605 2547 2605 2240 
L 2605 0 
L 3149 0 
L 3149 2176 
Q 3149 2445 3094 2665 
Q 3040 2886 2905 3046 
Q 2771 3206 2553 3296 
Q 2336 3386 2010 3386 
Q 1274 3386 934 2784 
L 922 2784 
L 922 3309 
L 410 3309 
z
" transform="scale(0.015625)"/>
       <path id="HelveticaNeue-63" d="M 2656 2246 
L 3219 2246 
Q 3187 2541 3065 2755 
Q 2944 2970 2755 3110 
Q 2566 3251 2320 3318 
Q 2074 3386 1792 3386 
Q 1402 3386 1107 3248 
Q 813 3110 617 2870 
Q 422 2630 326 2307 
Q 230 1984 230 1613 
Q 230 1242 329 931 
Q 429 621 624 397 
Q 819 173 1110 51 
Q 1402 -70 1779 -70 
Q 2413 -70 2781 262 
Q 3149 595 3238 1210 
L 2682 1210 
Q 2630 826 2403 614 
Q 2176 403 1773 403 
Q 1517 403 1331 505 
Q 1146 608 1030 777 
Q 915 947 860 1164 
Q 806 1382 806 1613 
Q 806 1862 857 2096 
Q 909 2330 1027 2509 
Q 1146 2688 1344 2797 
Q 1542 2906 1837 2906 
Q 2182 2906 2387 2733 
Q 2592 2560 2656 2246 
z
" transform="scale(0.015625)"/>
       <path id="HelveticaNeue-79" d="M 1709 -442 
Q 1613 -685 1520 -851 
Q 1427 -1018 1315 -1123 
Q 1203 -1229 1065 -1277 
Q 928 -1325 749 -1325 
Q 653 -1325 557 -1312 
Q 461 -1299 371 -1267 
L 371 -768 
Q 442 -800 534 -822 
Q 627 -845 691 -845 
Q 858 -845 970 -765 
Q 1082 -685 1139 -538 
L 1363 19 
L 51 3309 
L 666 3309 
L 1632 602 
L 1645 602 
L 2573 3309 
L 3149 3309 
L 1709 -442 
z
" transform="scale(0.015625)"/>
       <path id="HelveticaNeue-20" transform="scale(0.015625)"/>
       <path id="HelveticaNeue-28" d="M 1306 -1261 
L 1722 -1261 
Q 1267 -525 1072 198 
Q 877 922 877 1728 
Q 877 2515 1069 3232 
Q 1261 3949 1722 4678 
L 1306 4678 
Q 806 4019 553 3251 
Q 301 2483 301 1728 
Q 301 1306 371 922 
Q 442 538 573 173 
Q 704 -192 889 -547 
Q 1075 -902 1306 -1261 
z
" transform="scale(0.015625)"/>
       <path id="HelveticaNeue-69" d="M 986 3904 
L 986 4570 
L 442 4570 
L 442 3904 
L 986 3904 
z
M 442 3309 
L 442 0 
L 986 0 
L 986 3309 
L 442 3309 
z
" transform="scale(0.015625)"/>
       <path id="HelveticaNeue-48" d="M 499 4570 
L 499 0 
L 1107 0 
L 1107 2093 
L 3514 2093 
L 3514 0 
L 4122 0 
L 4122 4570 
L 3514 4570 
L 3514 2605 
L 1107 2605 
L 1107 4570 
L 499 4570 
z
" transform="scale(0.015625)"/>
       <path id="HelveticaNeue-7a" d="M 141 416 
L 141 0 
L 2931 0 
L 2931 480 
L 819 480 
L 2842 2938 
L 2842 3309 
L 269 3309 
L 269 2829 
L 2138 2829 
L 141 416 
z
" transform="scale(0.015625)"/>
       <path id="HelveticaNeue-29" d="M -58 -1261 
L 352 -1261 
Q 851 -602 1104 163 
Q 1357 928 1357 1683 
Q 1357 2106 1286 2490 
Q 1216 2874 1085 3242 
Q 954 3610 768 3965 
Q 582 4320 352 4678 
L -58 4678 
Q 390 3942 585 3216 
Q 781 2490 781 1683 
Q 781 902 589 182 
Q 397 -538 -58 -1261 
z
" transform="scale(0.015625)"/>
      </defs>
      <use xlink:href="#HelveticaNeue-46"/>
      <use xlink:href="#HelveticaNeue-72" x="57.399994"/>
      <use xlink:href="#HelveticaNeue-65" x="88.949982"/>
      <use xlink:href="#HelveticaNeue-71" x="142.649979"/>
      <use xlink:href="#HelveticaNeue-75" x="201.949966"/>
      <use xlink:href="#HelveticaNeue-65" x="257.549957"/>
      <use xlink:href="#HelveticaNeue-6e" x="311.249954"/>
      <use xlink:href="#HelveticaNeue-63" x="366.849945"/>
      <use xlink:href="#HelveticaNeue-79" x="420.549942"/>
      <use xlink:href="#HelveticaNeue-20" x="470.549927"/>
      <use xlink:href="#HelveticaNeue-28" x="498.349915"/>
      <use xlink:href="#HelveticaNeue-69" x="524.249908"/>
      <use xlink:href="#HelveticaNeue-6e" x="546.449905"/>
      <use xlink:href="#HelveticaNeue-20" x="602.049896"/>
      <use xlink:href="#HelveticaNeue-48" x="629.849884"/>
      <use xlink:href="#HelveticaNeue-7a" x="702.049866"/>
      <use xlink:href="#HelveticaNeue-29" x="750.04985"/>
     </g>
    </g>
   </g>
   <g id="matplotlib.axis_2">
    <g id="ytick_1">
     <g id="line2d_4">
      <defs>
       <path id="ma7a08ab8db" d="M 0 0 
L -3.5 0 
" style="stroke: #000000; stroke-width: 0.8"/>
      </defs>
      <g>
       <use xlink:href="#ma7a08ab8db" x="79.94" y="87.281026" style="stroke: #000000; stroke-width: 0.8"/>
      </g>
     </g>
     <g id="text_5">
      <!-- −10 -->
      <g transform="translate(42.12625 93.707588)scale(0.18 -0.18)">
       <defs>
        <path id="HelveticaNeue-2212" d="M 307 1837 
L 307 1402 
L 3533 1402 
L 3533 1837 
L 307 1837 
z
" transform="scale(0.015625)"/>
       </defs>
       <use xlink:href="#HelveticaNeue-2212"/>
       <use xlink:href="#HelveticaNeue-31" x="59.999985"/>
       <use xlink:href="#HelveticaNeue-30" x="115.599976"/>
      </g>
     </g>
    </g>
    <g id="ytick_2">
     <g id="line2d_5">
      <g>
       <use xlink:href="#ma7a08ab8db" x="79.94" y="151.968205" style="stroke: #000000; stroke-width: 0.8"/>
      </g>
     </g>
     <g id="text_6">
      <!-- 0 -->
      <g transform="translate(62.933125 158.394768)scale(0.18 -0.18)">
       <use xlink:href="#HelveticaNeue-30"/>
      </g>
     </g>
    </g>
    <g id="ytick_3">
     <g id="line2d_6">
      <g>
       <use xlink:href="#ma7a08ab8db" x="79.94" y="216.655385" style="stroke: #000000; stroke-width: 0.8"/>
      </g>
     </g>
     <g id="text_7">
      <!-- 10 -->
      <g transform="translate(52.92625 223.081947)scale(0.18 -0.18)">
       <use xlink:href="#HelveticaNeue-31"/>
       <use xlink:href="#HelveticaNeue-30" x="55.599991"/>
      </g>
     </g>
    </g>
    <g id="ytick_4">
     <g id="line2d_7">
      <g>
       <use xlink:href="#ma7a08ab8db" x="79.94" y="281.342564" style="stroke: #000000; stroke-width: 0.8"/>
      </g>
     </g>
     <g id="text_8">
      <!-- 20 -->
      <g transform="translate(52.92625 287.769127)scale(0.18 -0.18)">
       <use xlink:href="#HelveticaNeue-32"/>
       <use xlink:href="#HelveticaNeue-30" x="55.599991"/>
      </g>
     </g>
    </g>
    <g id="text_9">
     <!-- Level (in dB HL) -->
     <g transform="translate(34.579688 231.481719)rotate(-90)scale(0.18 -0.18)">
      <defs>
       <path id="HelveticaNeue-4c" d="M 499 4570 
L 499 0 
L 3526 0 
L 3526 512 
L 1107 512 
L 1107 4570 
L 499 4570 
z
" transform="scale(0.015625)"/>
       <path id="HelveticaNeue-76" d="M 1901 0 
L 3110 3309 
L 2541 3309 
L 1638 550 
L 1626 550 
L 698 3309 
L 90 3309 
L 1318 0 
L 1901 0 
z
" transform="scale(0.015625)"/>
       <path id="HelveticaNeue-6c" d="M 442 4570 
L 442 0 
L 986 0 
L 986 4570 
L 442 4570 
z
" transform="scale(0.015625)"/>
       <path id="HelveticaNeue-64" d="M 806 1626 
Q 806 1869 857 2099 
Q 909 2330 1024 2509 
Q 1139 2688 1331 2797 
Q 1523 2906 1798 2906 
Q 2080 2906 2278 2800 
Q 2477 2694 2601 2521 
Q 2726 2349 2784 2121 
Q 2842 1894 2842 1651 
Q 2842 1421 2787 1197 
Q 2733 973 2611 797 
Q 2490 621 2298 512 
Q 2106 403 1830 403 
Q 1568 403 1373 505 
Q 1178 608 1053 781 
Q 928 954 867 1174 
Q 806 1395 806 1626 
z
M 3366 0 
L 3366 4570 
L 2822 4570 
L 2822 2867 
L 2810 2867 
Q 2720 3014 2589 3113 
Q 2458 3213 2310 3273 
Q 2163 3334 2016 3360 
Q 1869 3386 1741 3386 
Q 1363 3386 1078 3248 
Q 794 3110 605 2876 
Q 416 2643 323 2329 
Q 230 2016 230 1664 
Q 230 1312 326 998 
Q 422 685 611 448 
Q 800 211 1085 70 
Q 1370 -70 1754 -70 
Q 2099 -70 2387 51 
Q 2675 173 2810 448 
L 2822 448 
L 2822 0 
L 3366 0 
z
" transform="scale(0.015625)"/>
       <path id="HelveticaNeue-42" d="M 1107 2605 
L 1107 4058 
L 2323 4058 
Q 2522 4058 2698 4035 
Q 2874 4013 3008 3936 
Q 3142 3859 3219 3718 
Q 3296 3578 3296 3334 
Q 3296 2970 3069 2787 
Q 2842 2605 2323 2605 
L 1107 2605 
z
M 499 4570 
L 499 0 
L 2707 0 
Q 3046 0 3305 112 
Q 3565 224 3741 406 
Q 3917 589 4006 825 
Q 4096 1062 4096 1312 
Q 4096 1734 3872 2028 
Q 3648 2323 3226 2413 
L 3226 2426 
Q 3552 2554 3728 2819 
Q 3904 3085 3904 3450 
Q 3904 3795 3747 4032 
Q 3590 4269 3366 4403 
Q 3264 4467 3120 4499 
Q 2976 4531 2809 4547 
Q 2643 4563 2473 4566 
Q 2304 4570 2157 4570 
L 499 4570 
z
M 1107 512 
L 1107 2093 
L 2496 2093 
Q 2688 2093 2867 2057 
Q 3046 2022 3184 1936 
Q 3322 1850 3405 1702 
Q 3488 1555 3488 1331 
Q 3488 947 3261 729 
Q 3034 512 2630 512 
L 1107 512 
z
" transform="scale(0.015625)"/>
      </defs>
      <use xlink:href="#HelveticaNeue-4c"/>
      <use xlink:href="#HelveticaNeue-65" x="55.599991"/>
      <use xlink:href="#HelveticaNeue-76" x="109.299988"/>
      <use xlink:href="#HelveticaNeue-65" x="159.299973"/>
      <use xlink:href="#HelveticaNeue-6c" x="212.999969"/>
      <use xlink:href="#HelveticaNeue-20" x="235.199966"/>
      <use xlink:href="#HelveticaNeue-28" x="262.999954"/>
      <use xlink:href="#HelveticaNeue-69" x="288.899948"/>
      <use xlink:href="#HelveticaNeue-6e" x="311.099945"/>
      <use xlink:href="#HelveticaNeue-20" x="366.699936"/>
      <use xlink:href="#HelveticaNeue-64" x="394.499924"/>
      <use xlink:href="#HelveticaNeue-42" x="453.799911"/>
      <use xlink:href="#HelveticaNeue-20" x="522.299896"/>
      <use xlink:href="#HelveticaNeue-48" x="550.099884"/>
      <use xlink:href="#HelveticaNeue-4c" x="622.299866"/>
      <use xlink:href="#HelveticaNeue-29" x="677.899857"/>
     </g>
    </g>
   </g>
   <g id="PathCollection_114">
    <g clip-path="url(#pbd5b3ed7e5)">
     <use xlink:href="#m9b4e5cd822" x="253.857491" y="167.599464" style="fill: #5e586a; stroke: #ffffff; stroke-width: 0.5"/>
    </g>
   </g>
   <g id="PathCollection_115">
    <g clip-path="url(#pbd5b3ed7e5)">
     <use xlink:href="#m6c2fab5e47" x="185.485776" y="164.905641" style="fill: #5e586a; stroke: #ffffff; stroke-width: 0.5"/>
    </g>
   </g>
   <g id="PathCollection_116">
    <g clip-path="url(#pbd5b3ed7e5)">
     <use xlink:href="#m6c2fab5e47" x="156.090455" y="168.32798" style="fill: #5e586a; stroke: #ffffff; stroke-width: 0.5"/>
    </g>
   </g>
   <g id="PathCollection_117">
    <g clip-path="url(#pbd5b3ed7e5)">
     <use xlink:href="#m6c2fab5e47" x="165.969045" y="162.689282" style="fill: #5e586a; stroke: #ffffff; stroke-width: 0.5"/>
    </g>
   </g>
   <g id="PathCollection_118">
    <g clip-path="url(#pbd5b3ed7e5)">
     <use xlink:href="#m6c2fab5e47" x="175.621508" y="158.38934" style="fill: #5e586a; stroke: #ffffff; stroke-width: 0.5"/>
    </g>
   </g>
   <g id="PathCollection_119">
    <g clip-path="url(#pbd5b3ed7e5)">
     <use xlink:href="#m9b4e5cd822" x="244.063048" y="166.057085" style="fill: #5e586a; stroke: #ffffff; stroke-width: 0.5"/>
    </g>
   </g>
   <g id="PathCollection_120">
    <g clip-path="url(#pbd5b3ed7e5)">
     <use xlink:href="#m6c2fab5e47" x="205.00925" y="161.224182" style="fill: #5e586a; stroke: #ffffff; stroke-width: 0.5"/>
    </g>
   </g>
   <g id="PathCollection_121">
    <g clip-path="url(#pbd5b3ed7e5)">
     <use xlink:href="#m6c2fab5e47" x="112.355739" y="164.958874" style="fill: #5e586a; stroke: #ffffff; stroke-width: 0.5"/>
    </g>
   </g>
   <g id="PathCollection_122">
    <g clip-path="url(#pbd5b3ed7e5)">
     <use xlink:href="#m6c2fab5e47" x="121.993796" y="203.767233" style="fill: #5e586a; stroke: #ffffff; stroke-width: 0.5"/>
    </g>
   </g>
   <g id="PathCollection_123">
    <g clip-path="url(#pbd5b3ed7e5)">
     <use xlink:href="#m6c2fab5e47" x="195.17385" y="159.25955" style="fill: #5e586a; stroke: #ffffff; stroke-width: 0.5"/>
    </g>
   </g>
   <g id="PathCollection_124">
    <g clip-path="url(#pbd5b3ed7e5)">
     <use xlink:href="#m6c2fab5e47" x="214.836577" y="164.994851" style="fill: #5e586a; stroke: #ffffff; stroke-width: 0.5"/>
    </g>
   </g>
   <g id="PathCollection_125">
    <g clip-path="url(#pbd5b3ed7e5)">
     <use xlink:href="#m9b4e5cd822" x="224.546318" y="166.550315" style="fill: #5e586a; stroke: #ffffff; stroke-width: 0.5"/>
    </g>
   </g>
   <g id="PathCollection_126">
    <g clip-path="url(#pbd5b3ed7e5)">
     <use xlink:href="#m9b4e5cd822" x="97.513182" y="190.780513" style="fill: #5e586a; stroke: #ffffff; stroke-width: 0.5"/>
    </g>
   </g>
   <g id="PathCollection_127">
    <g clip-path="url(#pbd5b3ed7e5)">
     <use xlink:href="#m6c2fab5e47" x="195.17385" y="189.598029" style="fill: #5e586a; stroke: #ffffff; stroke-width: 0.5"/>
    </g>
   </g>
   <g id="PathCollection_128">
    <g clip-path="url(#pbd5b3ed7e5)">
     <use xlink:href="#m9b4e5cd822" x="141.356" y="186.97166" style="fill: #5e586a; stroke: #ffffff; stroke-width: 0.5"/>
    </g>
   </g>
   <g id="PathCollection_129">
    <g clip-path="url(#pbd5b3ed7e5)">
     <use xlink:href="#m6c2fab5e47" x="239.148342" y="186.701495" style="fill: #5e586a; stroke: #ffffff; stroke-width: 0.5"/>
    </g>
   </g>
   <g id="PathCollection_130">
    <g clip-path="url(#pbd5b3ed7e5)">
     <use xlink:href="#m9b4e5cd822" x="175.621508" y="158.856738" style="fill: #5e586a; stroke: #ffffff; stroke-width: 0.5"/>
    </g>
   </g>
   <g id="PathCollection_131">
    <g clip-path="url(#pbd5b3ed7e5)">
     <use xlink:href="#m6c2fab5e47" x="229.368372" y="183.669859" style="fill: #5e586a; stroke: #ffffff; stroke-width: 0.5"/>
    </g>
   </g>
   <g id="PathCollection_132">
    <g clip-path="url(#pbd5b3ed7e5)">
     <use xlink:href="#m9b4e5cd822" x="273.329467" y="176.475979" style="fill: #5e586a; stroke: #ffffff; stroke-width: 0.5"/>
    </g>
   </g>
   <g id="PathCollection_133">
    <g clip-path="url(#pbd5b3ed7e5)">
     <use xlink:href="#m6c2fab5e47" x="292.843097" y="175.835489" style="fill: #5e586a; stroke: #ffffff; stroke-width: 0.5"/>
    </g>
   </g>
   <g id="PathCollection_134">
    <g clip-path="url(#pbd5b3ed7e5)">
     <use xlink:href="#m9b4e5cd822" x="107.090492" y="206.145352" style="fill: #5e586a; stroke: #ffffff; stroke-width: 0.5"/>
    </g>
   </g>
   <g id="PathCollection_135">
    <g clip-path="url(#pbd5b3ed7e5)">
     <use xlink:href="#m9b4e5cd822" x="329.899099" y="147.971394" style="fill: #5e586a; stroke: #ffffff; stroke-width: 0.5"/>
    </g>
   </g>
   <g id="PathCollection_136">
    <g clip-path="url(#pbd5b3ed7e5)">
     <use xlink:href="#m6c2fab5e47" x="368.940564" y="150.300696" style="fill: #5e586a; stroke: #ffffff; stroke-width: 0.5"/>
    </g>
   </g>
   <g id="PathCollection_137">
    <g clip-path="url(#pbd5b3ed7e5)">
     <use xlink:href="#m6c2fab5e47" x="349.419859" y="137.18756" style="fill: #5e586a; stroke: #ffffff; stroke-width: 0.5"/>
    </g>
   </g>
   <g id="PathCollection_138">
    <g clip-path="url(#pbd5b3ed7e5)">
     <use xlink:href="#m9b4e5cd822" x="320.150436" y="151.733523" style="fill: #5e586a; stroke: #ffffff; stroke-width: 0.5"/>
    </g>
   </g>
   <g id="PathCollection_139">
    <g clip-path="url(#pbd5b3ed7e5)">
     <use xlink:href="#m6c2fab5e47" x="398.223333" y="132.11502" style="fill: #5e586a; stroke: #ffffff; stroke-width: 0.5"/>
    </g>
   </g>
   <g id="PathCollection_140">
    <g clip-path="url(#pbd5b3ed7e5)">
     <use xlink:href="#m6c2fab5e47" x="388.454756" y="120.960237" style="fill: #5e586a; stroke: #ffffff; stroke-width: 0.5"/>
    </g>
   </g>
   <g id="PathCollection_141">
    <g clip-path="url(#pbd5b3ed7e5)">
     <use xlink:href="#m6c2fab5e47" x="407.979975" y="151.968205" style="fill: #5e586a; stroke: #ffffff; stroke-width: 0.5"/>
    </g>
   </g>
   <g id="PathCollection_142">
    <g clip-path="url(#pbd5b3ed7e5)">
     <use xlink:href="#m9b4e5cd822" x="427.504218" y="111.203858" style="fill: #5e586a; stroke: #ffffff; stroke-width: 0.5"/>
    </g>
   </g>
   <g id="PathCollection_143">
    <g clip-path="url(#pbd5b3ed7e5)">
     <use xlink:href="#m9b4e5cd822" x="276.233847" y="160.545065" style="fill: #5e586a; stroke: #ffffff; stroke-width: 0.5"/>
    </g>
   </g>
   <g id="PathCollection_144">
    <g clip-path="url(#pbd5b3ed7e5)">
     <use xlink:href="#m9b4e5cd822" x="186.198937" y="133.693283" style="fill: #5e586a; stroke: #ffffff; stroke-width: 0.5"/>
    </g>
   </g>
   <g id="patch_3">
    <path d="M 79.94 294.28 
L 79.94 42 
" style="fill: none; stroke: #000000; stroke-width: 0.8; stroke-linejoin: miter; stroke-linecap: square"/>
   </g>
   <g id="patch_4">
    <path d="M 466.55 294.28 
L 466.55 42 
" style="fill: none; stroke: #000000; stroke-width: 0.8; stroke-linejoin: miter; stroke-linecap: square"/>
   </g>
   <g id="patch_5">
    <path d="M 79.94 294.28 
L 466.55 294.28 
" style="fill: none; stroke: #000000; stroke-width: 0.8; stroke-linejoin: miter; stroke-linecap: square"/>
   </g>
   <g id="patch_6">
    <path d="M 79.94 42 
L 466.55 42 
" style="fill: none; stroke: #000000; stroke-width: 0.8; stroke-linejoin: miter; stroke-linecap: square"/>
   </g>
   <g id="line2d_8">
    <path d="M 97.513182 210.965702 
L 101.06332 205.281706 
L 104.613457 199.63342 
L 108.163595 193.861292 
L 111.713733 188.608482 
L 115.263871 183.554449 
L 118.814008 179.777544 
L 122.364146 176.473229 
L 125.914284 173.971211 
L 129.464421 172.199559 
L 133.014559 170.704603 
L 136.564697 169.593508 
L 140.114835 168.386159 
L 143.664972 167.066371 
L 147.21511 165.257298 
L 150.765248 163.230484 
L 154.315386 160.640573 
L 157.865523 157.755642 
L 161.415661 154.650069 
L 164.965799 151.436696 
L 168.515937 148.306044 
L 172.066074 145.401607 
L 175.616212 142.89728 
L 179.16635 140.632044 
L 182.716488 139.066712 
L 186.266625 137.767216 
L 189.816763 137.047754 
L 193.366901 136.709114 
L 196.917039 136.636227 
L 200.467176 137.058122 
L 204.017314 137.64645 
L 207.567452 138.549717 
L 211.11759 139.71024 
L 214.667727 141.028659 
L 218.217865 142.669906 
L 221.768003 144.465348 
L 225.31814 146.462246 
L 228.868278 148.55664 
L 232.418416 150.759251 
L 235.968554 152.957699 
L 239.518691 155.075201 
L 243.068829 157.08627 
L 246.618967 158.817556 
L 250.169105 160.396545 
L 253.719242 161.460155 
L 257.26938 162.265344 
L 260.819518 162.725566 
L 264.369656 162.703598 
L 267.919793 162.480522 
L 271.469931 161.831057 
L 275.020069 161.013299 
L 278.570207 160.017048 
L 282.120344 158.925425 
L 285.670482 157.824998 
L 289.22062 156.819591 
L 292.770758 155.955388 
L 296.320895 155.20813 
L 299.871033 154.752017 
L 303.421171 154.373926 
L 306.971309 154.166257 
L 310.521446 153.962952 
L 314.071584 153.759961 
L 317.621722 153.315868 
L 321.17186 152.700558 
L 324.721997 151.734989 
L 328.272135 150.418297 
L 331.822273 148.859258 
L 335.37241 146.830759 
L 338.922548 144.66788 
L 342.472686 142.320065 
L 346.022824 139.93943 
L 349.572961 137.549144 
L 353.123099 135.366728 
L 356.673237 133.200984 
L 360.223375 131.172847 
L 363.773512 129.218071 
L 367.32365 127.212801 
L 370.873788 125.058389 
L 374.423926 122.74431 
L 377.974063 120.188316 
L 381.524201 117.309328 
L 385.074339 114.233776 
L 388.624477 110.95899 
L 392.174614 107.678655 
L 395.724752 104.414143 
L 399.27489 101.569006 
L 402.825028 98.910185 
L 406.375165 96.911332 
L 409.925303 95.402306 
L 413.475441 94.309463 
L 417.025579 94.004513 
L 420.575716 93.944502 
L 424.125854 94.382255 
L 427.675992 95.051525 
L 431.226129 95.89434 
L 434.776267 96.909167 
L 438.326405 97.998997 
L 441.876543 99.193163 
L 445.42668 100.528412 
L 448.976818 101.960064 
" clip-path="url(#pbd5b3ed7e5)" style="fill: none; stroke: #000000; stroke-width: 2.5; stroke-linecap: square"/>
   </g>
   <g id="text_10">
    <!-- Global random audiogram -->
    <g transform="translate(156.36375 36)scale(0.2 -0.2)">
     <defs>
      <path id="HelveticaNeue-47" d="M 3917 570 
L 4077 0 
L 4461 0 
L 4461 2406 
L 2458 2406 
L 2458 1894 
L 3917 1894 
Q 3930 1581 3834 1309 
Q 3738 1037 3549 835 
Q 3360 634 3085 518 
Q 2810 403 2451 403 
Q 2067 403 1776 553 
Q 1485 704 1286 957 
Q 1088 1210 985 1539 
Q 883 1869 883 2227 
Q 883 2592 972 2941 
Q 1062 3290 1251 3562 
Q 1440 3834 1737 4000 
Q 2035 4166 2451 4166 
Q 2707 4166 2934 4105 
Q 3162 4045 3341 3923 
Q 3520 3802 3641 3613 
Q 3763 3424 3808 3162 
L 4416 3162 
Q 4352 3565 4176 3849 
Q 4000 4134 3741 4320 
Q 3482 4506 3152 4592 
Q 2822 4678 2451 4678 
Q 1907 4678 1500 4476 
Q 1094 4275 822 3936 
Q 550 3597 412 3145 
Q 275 2694 275 2195 
Q 275 1747 422 1331 
Q 570 915 851 595 
Q 1133 275 1536 86 
Q 1939 -102 2451 -102 
Q 2854 -102 3251 54 
Q 3648 211 3917 570 
z
" transform="scale(0.015625)"/>
      <path id="HelveticaNeue-6f" d="M 806 1651 
Q 806 1952 886 2185 
Q 966 2419 1107 2579 
Q 1248 2739 1437 2822 
Q 1626 2906 1837 2906 
Q 2048 2906 2237 2822 
Q 2426 2739 2566 2579 
Q 2707 2419 2787 2185 
Q 2867 1952 2867 1651 
Q 2867 1350 2787 1116 
Q 2707 883 2566 726 
Q 2426 570 2237 486 
Q 2048 403 1837 403 
Q 1626 403 1437 486 
Q 1248 570 1107 726 
Q 966 883 886 1116 
Q 806 1350 806 1651 
z
M 230 1651 
Q 230 1286 332 972 
Q 435 659 640 425 
Q 845 192 1145 61 
Q 1446 -70 1837 -70 
Q 2234 -70 2531 61 
Q 2829 192 3033 425 
Q 3238 659 3340 972 
Q 3443 1286 3443 1651 
Q 3443 2016 3340 2333 
Q 3238 2650 3033 2883 
Q 2829 3117 2531 3251 
Q 2234 3386 1837 3386 
Q 1446 3386 1145 3251 
Q 845 3117 640 2883 
Q 435 2650 332 2333 
Q 230 2016 230 1651 
z
" transform="scale(0.015625)"/>
      <path id="HelveticaNeue-62" d="M 429 4570 
L 429 0 
L 973 0 
L 973 442 
L 986 442 
Q 1075 294 1206 195 
Q 1338 96 1485 38 
Q 1632 -19 1782 -44 
Q 1933 -70 2054 -70 
Q 2432 -70 2717 64 
Q 3002 198 3190 432 
Q 3379 666 3472 979 
Q 3565 1293 3565 1645 
Q 3565 1997 3469 2310 
Q 3373 2624 3184 2864 
Q 2995 3104 2710 3245 
Q 2426 3386 2042 3386 
Q 1696 3386 1408 3261 
Q 1120 3136 986 2861 
L 973 2861 
L 973 4570 
L 429 4570 
z
M 2989 1683 
Q 2989 1440 2937 1209 
Q 2886 979 2771 800 
Q 2656 621 2467 512 
Q 2278 403 1997 403 
Q 1715 403 1516 508 
Q 1318 614 1193 787 
Q 1069 960 1011 1187 
Q 954 1414 954 1658 
Q 954 1888 1008 2112 
Q 1062 2336 1184 2512 
Q 1306 2688 1498 2797 
Q 1690 2906 1965 2906 
Q 2227 2906 2422 2803 
Q 2618 2701 2742 2528 
Q 2867 2355 2928 2134 
Q 2989 1914 2989 1683 
z
" transform="scale(0.015625)"/>
      <path id="HelveticaNeue-61" d="M 3341 13 
Q 3200 -70 2950 -70 
Q 2739 -70 2614 48 
Q 2490 166 2490 435 
Q 2266 166 1968 48 
Q 1670 -70 1325 -70 
Q 1101 -70 899 -19 
Q 698 32 550 141 
Q 403 250 316 426 
Q 230 602 230 851 
Q 230 1133 326 1312 
Q 422 1491 579 1603 
Q 736 1715 937 1772 
Q 1139 1830 1350 1869 
Q 1574 1914 1776 1936 
Q 1978 1958 2131 2000 
Q 2285 2042 2374 2122 
Q 2464 2202 2464 2355 
Q 2464 2534 2397 2643 
Q 2330 2752 2224 2809 
Q 2118 2867 1987 2886 
Q 1856 2906 1728 2906 
Q 1382 2906 1152 2774 
Q 922 2643 902 2278 
L 358 2278 
Q 371 2586 486 2797 
Q 602 3008 794 3139 
Q 986 3270 1232 3328 
Q 1478 3386 1760 3386 
Q 1984 3386 2205 3354 
Q 2426 3322 2605 3222 
Q 2784 3123 2893 2944 
Q 3002 2765 3002 2477 
L 3002 774 
Q 3002 582 3024 492 
Q 3046 403 3174 403 
Q 3245 403 3341 435 
L 3341 13 
z
M 2458 1709 
Q 2355 1632 2188 1597 
Q 2022 1562 1840 1539 
Q 1658 1517 1472 1488 
Q 1286 1459 1139 1395 
Q 992 1331 899 1212 
Q 806 1094 806 890 
Q 806 755 860 662 
Q 915 570 1001 512 
Q 1088 454 1203 428 
Q 1318 403 1446 403 
Q 1715 403 1907 476 
Q 2099 550 2220 662 
Q 2342 774 2400 905 
Q 2458 1037 2458 1152 
L 2458 1709 
z
" transform="scale(0.015625)"/>
      <path id="HelveticaNeue-6d" d="M 410 3309 
L 410 0 
L 954 0 
L 954 2061 
Q 954 2157 1002 2301 
Q 1050 2445 1155 2579 
Q 1261 2714 1430 2810 
Q 1600 2906 1837 2906 
Q 2022 2906 2140 2851 
Q 2259 2797 2329 2697 
Q 2400 2598 2429 2464 
Q 2458 2330 2458 2170 
L 2458 0 
L 3002 0 
L 3002 2061 
Q 3002 2445 3232 2675 
Q 3462 2906 3866 2906 
Q 4064 2906 4189 2848 
Q 4314 2790 4384 2691 
Q 4454 2592 4480 2457 
Q 4506 2323 4506 2170 
L 4506 0 
L 5050 0 
L 5050 2426 
Q 5050 2682 4970 2864 
Q 4890 3046 4746 3161 
Q 4602 3277 4400 3331 
Q 4198 3386 3949 3386 
Q 3622 3386 3350 3238 
Q 3078 3091 2912 2822 
Q 2810 3130 2560 3258 
Q 2310 3386 2003 3386 
Q 1306 3386 934 2822 
L 922 2822 
L 922 3309 
L 410 3309 
z
" transform="scale(0.015625)"/>
      <path id="HelveticaNeue-67" d="M 3264 282 
L 3264 3309 
L 2752 3309 
L 2752 2835 
L 2746 2835 
Q 2598 3110 2336 3248 
Q 2074 3386 1760 3386 
Q 1331 3386 1036 3222 
Q 742 3059 563 2806 
Q 384 2554 307 2243 
Q 230 1933 230 1638 
Q 230 1299 323 995 
Q 416 691 601 464 
Q 787 237 1062 102 
Q 1338 -32 1709 -32 
Q 2029 -32 2313 112 
Q 2598 256 2739 563 
L 2752 563 
L 2752 346 
Q 2752 70 2697 -160 
Q 2643 -390 2521 -553 
Q 2400 -717 2214 -809 
Q 2029 -902 1760 -902 
Q 1626 -902 1478 -873 
Q 1331 -845 1206 -781 
Q 1082 -717 995 -614 
Q 909 -512 902 -365 
L 358 -365 
Q 371 -634 499 -819 
Q 627 -1005 822 -1120 
Q 1018 -1235 1258 -1286 
Q 1498 -1338 1728 -1338 
Q 2522 -1338 2893 -934 
Q 3264 -531 3264 282 
z
M 1741 442 
Q 1472 442 1293 554 
Q 1114 666 1005 848 
Q 896 1030 851 1254 
Q 806 1478 806 1702 
Q 806 1939 860 2156 
Q 915 2374 1033 2540 
Q 1152 2707 1337 2806 
Q 1523 2906 1786 2906 
Q 2042 2906 2221 2803 
Q 2400 2701 2512 2531 
Q 2624 2362 2675 2150 
Q 2726 1939 2726 1722 
Q 2726 1491 2672 1260 
Q 2618 1030 2502 848 
Q 2387 666 2198 554 
Q 2010 442 1741 442 
z
" transform="scale(0.015625)"/>
     </defs>
     <use xlink:href="#HelveticaNeue-47"/>
     <use xlink:href="#HelveticaNeue-6c" x="75.899994"/>
     <use xlink:href="#HelveticaNeue-6f" x="98.099991"/>
     <use xlink:href="#HelveticaNeue-62" x="155.499985"/>
     <use xlink:href="#HelveticaNeue-61" x="214.799973"/>
     <use xlink:href="#HelveticaNeue-6c" x="268.499969"/>
     <use xlink:href="#HelveticaNeue-20" x="290.699966"/>
     <use xlink:href="#HelveticaNeue-72" x="318.499954"/>
     <use xlink:href="#HelveticaNeue-61" x="351.799942"/>
     <use xlink:href="#HelveticaNeue-6e" x="405.499939"/>
     <use xlink:href="#HelveticaNeue-64" x="461.09993"/>
     <use xlink:href="#HelveticaNeue-6f" x="520.399918"/>
     <use xlink:href="#HelveticaNeue-6d" x="577.799911"/>
     <use xlink:href="#HelveticaNeue-20" x="663.099899"/>
     <use xlink:href="#HelveticaNeue-61" x="690.899887"/>
     <use xlink:href="#HelveticaNeue-75" x="744.599884"/>
     <use xlink:href="#HelveticaNeue-64" x="800.199875"/>
     <use xlink:href="#HelveticaNeue-69" x="859.499863"/>
     <use xlink:href="#HelveticaNeue-6f" x="881.69986"/>
     <use xlink:href="#HelveticaNeue-67" x="939.099854"/>
     <use xlink:href="#HelveticaNeue-72" x="996.499847"/>
     <use xlink:href="#HelveticaNeue-61" x="1029.799835"/>
     <use xlink:href="#HelveticaNeue-6d" x="1083.499832"/>
    </g>
   </g>
   <g id="legend_1">
    <g id="patch_7">
     <path d="M 477.75 325.29025 
L 624.1375 325.29025 
Q 627.3375 325.29025 627.3375 322.09025 
L 627.3375 14.18975 
Q 627.3375 10.98975 624.1375 10.98975 
L 477.75 10.98975 
Q 474.55 10.98975 474.55 14.18975 
L 474.55 322.09025 
Q 474.55 325.29025 477.75 325.29025 
z
" style="fill: #ffffff; opacity: 0.8; stroke: #cccccc; stroke-linejoin: miter"/>
    </g>
    <g id="patch_8">
     <path d="M 480.95 31.70975 
L 496.95 31.70975 
L 496.95 17.38975 
L 480.95 17.38975 
L 480.95 31.70975 
z
" style="fill: none"/>
    </g>
    <g id="text_11">
     <!-- Randomized -->
     <g transform="translate(509.75 30.02975)scale(0.16 -0.16)">
      <defs>
       <path id="HelveticaNeue-52" d="M 499 4570 
L 499 0 
L 1107 0 
L 1107 1952 
L 2592 1952 
Q 2816 1952 2950 1885 
Q 3085 1818 3168 1706 
Q 3251 1594 3289 1443 
Q 3328 1293 3354 1126 
Q 3386 960 3392 787 
Q 3398 614 3404 464 
Q 3411 314 3433 192 
Q 3456 70 3520 0 
L 4198 0 
Q 4102 115 4054 265 
Q 4006 416 3980 582 
Q 3955 749 3948 921 
Q 3942 1094 3930 1261 
Q 3910 1427 3875 1580 
Q 3840 1734 3766 1859 
Q 3693 1984 3568 2073 
Q 3443 2163 3245 2202 
L 3245 2214 
Q 3661 2330 3849 2643 
Q 4038 2957 4038 3373 
Q 4038 3930 3670 4250 
Q 3302 4570 2650 4570 
L 499 4570 
z
M 2374 2464 
L 1107 2464 
L 1107 4058 
L 2618 4058 
Q 3046 4058 3238 3840 
Q 3430 3622 3430 3277 
Q 3430 3027 3344 2870 
Q 3258 2714 3114 2621 
Q 2970 2528 2778 2496 
Q 2586 2464 2374 2464 
z
" transform="scale(0.015625)"/>
      </defs>
      <use xlink:href="#HelveticaNeue-52"/>
      <use xlink:href="#HelveticaNeue-61" x="68.499985"/>
      <use xlink:href="#HelveticaNeue-6e" x="122.199982"/>
      <use xlink:href="#HelveticaNeue-64" x="177.799973"/>
      <use xlink:href="#HelveticaNeue-6f" x="237.09996"/>
      <use xlink:href="#HelveticaNeue-6d" x="294.499954"/>
      <use xlink:href="#HelveticaNeue-69" x="379.799942"/>
      <use xlink:href="#HelveticaNeue-7a" x="401.999939"/>
      <use xlink:href="#HelveticaNeue-65" x="449.999924"/>
      <use xlink:href="#HelveticaNeue-64" x="503.699921"/>
     </g>
    </g>
    <g id="line2d_9">
     <defs>
      <path id="md3c6846094" d="M -3.033708 -0.120084 
Q -2.519663 -0.120084 -2.258427 0.722612 
Q -1.731742 2.302669 -1.508427 2.302669 
Q -1.335674 2.302669 -1.150281 2.041433 
Q 2.549157 -3.886938 5.696629 -7.544242 
Q 6.509831 -8.492275 8.287921 -8.492275 
Q 8.70927 -8.492275 8.852528 -8.412219 
Q 9 -8.336376 9 -8.218399 
Q 9 -8.033006 8.566011 -7.49368 
Q 3.484551 -1.384129 -0.863764 5.412219 
Q -1.167135 5.884129 -2.098315 5.884129 
Q -3.046348 5.884129 -3.219101 5.804073 
Q -3.66573 5.610253 -4.272472 3.790028 
Q -4.95927 1.775983 -4.95927 1.261938 
Q -4.95927 0.709972 -4.036517 0.195927 
Q -3.467697 -0.120084 -3.033708 -0.120084 
z
" style="stroke: #1e2023"/>
     </defs>
     <g>
      <use xlink:href="#md3c6846094" x="488.95" y="47.50225" style="fill: #1e2023; stroke: #1e2023"/>
     </g>
    </g>
    <g id="text_12">
     <!-- detected tone -->
     <g transform="translate(509.75 53.82225)scale(0.16 -0.16)">
      <defs>
       <path id="HelveticaNeue-74" d="M 1165 3309 
L 1165 4301 
L 621 4301 
L 621 3309 
L 58 3309 
L 58 2829 
L 621 2829 
L 621 723 
Q 621 493 665 352 
Q 710 211 803 134 
Q 896 58 1046 29 
Q 1197 0 1408 0 
L 1824 0 
L 1824 480 
L 1574 480 
Q 1446 480 1366 489 
Q 1286 499 1241 531 
Q 1197 563 1181 620 
Q 1165 678 1165 774 
L 1165 2829 
L 1824 2829 
L 1824 3309 
L 1165 3309 
z
" transform="scale(0.015625)"/>
      </defs>
      <use xlink:href="#HelveticaNeue-64"/>
      <use xlink:href="#HelveticaNeue-65" x="59.299988"/>
      <use xlink:href="#HelveticaNeue-74" x="112.999985"/>
      <use xlink:href="#HelveticaNeue-65" x="144.499969"/>
      <use xlink:href="#HelveticaNeue-63" x="198.199966"/>
      <use xlink:href="#HelveticaNeue-74" x="251.899963"/>
      <use xlink:href="#HelveticaNeue-65" x="283.399948"/>
      <use xlink:href="#HelveticaNeue-64" x="337.099945"/>
      <use xlink:href="#HelveticaNeue-20" x="396.399933"/>
      <use xlink:href="#HelveticaNeue-74" x="424.199921"/>
      <use xlink:href="#HelveticaNeue-6f" x="455.699905"/>
      <use xlink:href="#HelveticaNeue-6e" x="513.099899"/>
      <use xlink:href="#HelveticaNeue-65" x="568.69989"/>
     </g>
    </g>
    <g id="line2d_10">
     <defs>
      <path id="maef7f11902" d="M -3.75 7.5 
L 0 3.75 
L 3.75 7.5 
L 7.5 3.75 
L 3.75 0 
L 7.5 -3.75 
L 3.75 -7.5 
L 0 -3.75 
L -3.75 -7.5 
L -7.5 -3.75 
L -3.75 0 
L -7.5 3.75 
z
" style="stroke: #ffffff; stroke-linejoin: miter"/>
     </defs>
     <g>
      <use xlink:href="#maef7f11902" x="488.95" y="71.29475" style="fill: #1e2023; stroke: #ffffff; stroke-linejoin: miter"/>
     </g>
    </g>
    <g id="text_13">
     <!-- missed tone -->
     <g transform="translate(509.75 77.61475)scale(0.16 -0.16)">
      <defs>
       <path id="HelveticaNeue-73" d="M 742 1043 
L 198 1043 
Q 211 736 326 521 
Q 442 307 634 176 
Q 826 45 1075 -12 
Q 1325 -70 1600 -70 
Q 1850 -70 2102 -22 
Q 2355 26 2556 147 
Q 2758 269 2883 467 
Q 3008 666 3008 966 
Q 3008 1203 2915 1363 
Q 2822 1523 2672 1628 
Q 2522 1734 2326 1798 
Q 2131 1862 1926 1907 
Q 1734 1952 1542 1993 
Q 1350 2035 1196 2096 
Q 1043 2157 944 2249 
Q 845 2342 845 2483 
Q 845 2611 909 2691 
Q 973 2771 1075 2819 
Q 1178 2867 1302 2886 
Q 1427 2906 1549 2906 
Q 1683 2906 1814 2877 
Q 1946 2848 2054 2784 
Q 2163 2720 2233 2614 
Q 2304 2509 2317 2349 
L 2861 2349 
Q 2842 2650 2733 2851 
Q 2624 3053 2441 3171 
Q 2259 3290 2022 3338 
Q 1786 3386 1504 3386 
Q 1286 3386 1065 3331 
Q 845 3277 669 3165 
Q 493 3053 381 2873 
Q 269 2694 269 2445 
Q 269 2125 429 1945 
Q 589 1766 829 1667 
Q 1069 1568 1350 1513 
Q 1632 1459 1872 1392 
Q 2112 1325 2272 1216 
Q 2432 1107 2432 896 
Q 2432 742 2355 643 
Q 2278 544 2160 493 
Q 2042 442 1901 422 
Q 1760 403 1632 403 
Q 1466 403 1309 435 
Q 1152 467 1027 540 
Q 902 614 825 739 
Q 749 864 742 1043 
z
" transform="scale(0.015625)"/>
      </defs>
      <use xlink:href="#HelveticaNeue-6d"/>
      <use xlink:href="#HelveticaNeue-69" x="85.299988"/>
      <use xlink:href="#HelveticaNeue-73" x="107.499985"/>
      <use xlink:href="#HelveticaNeue-73" x="157.499969"/>
      <use xlink:href="#HelveticaNeue-65" x="207.499954"/>
      <use xlink:href="#HelveticaNeue-64" x="261.199951"/>
      <use xlink:href="#HelveticaNeue-20" x="320.499939"/>
      <use xlink:href="#HelveticaNeue-74" x="348.299927"/>
      <use xlink:href="#HelveticaNeue-6f" x="379.799911"/>
      <use xlink:href="#HelveticaNeue-6e" x="437.199905"/>
      <use xlink:href="#HelveticaNeue-65" x="492.799896"/>
     </g>
    </g>
    <g id="patch_9">
     <path d="M 480.95 112.04175 
L 496.95 112.04175 
L 496.95 97.72175 
L 480.95 97.72175 
L 480.95 112.04175 
z
" style="fill: none"/>
    </g>
    <g id="text_14">
     <!--  -->
     <g transform="translate(509.75 100.19225)scale(0.16 -0.16)"/>
     <!-- Continuous (R) -->
     <g transform="translate(509.75 117.37875)scale(0.16 -0.16)">
      <defs>
       <path id="HelveticaNeue-43" d="M 3712 3194 
L 4320 3194 
Q 4269 3558 4102 3836 
Q 3936 4115 3686 4300 
Q 3437 4486 3117 4582 
Q 2797 4678 2438 4678 
Q 1914 4678 1507 4489 
Q 1101 4301 829 3974 
Q 557 3648 416 3209 
Q 275 2771 275 2272 
Q 275 1773 406 1337 
Q 538 902 800 582 
Q 1062 262 1459 80 
Q 1856 -102 2387 -102 
Q 3264 -102 3769 378 
Q 4275 858 4365 1722 
L 3757 1722 
Q 3738 1440 3642 1197 
Q 3546 954 3376 778 
Q 3206 602 2972 502 
Q 2739 403 2438 403 
Q 2029 403 1734 556 
Q 1440 710 1251 969 
Q 1062 1229 972 1577 
Q 883 1926 883 2317 
Q 883 2675 972 3008 
Q 1062 3341 1251 3600 
Q 1440 3859 1731 4012 
Q 2022 4166 2432 4166 
Q 2912 4166 3261 3923 
Q 3610 3680 3712 3194 
z
" transform="scale(0.015625)"/>
      </defs>
      <use xlink:href="#HelveticaNeue-43"/>
      <use xlink:href="#HelveticaNeue-6f" x="72.199982"/>
      <use xlink:href="#HelveticaNeue-6e" x="129.599976"/>
      <use xlink:href="#HelveticaNeue-74" x="185.199966"/>
      <use xlink:href="#HelveticaNeue-69" x="216.699951"/>
      <use xlink:href="#HelveticaNeue-6e" x="238.899948"/>
      <use xlink:href="#HelveticaNeue-75" x="294.499939"/>
      <use xlink:href="#HelveticaNeue-6f" x="350.09993"/>
      <use xlink:href="#HelveticaNeue-75" x="407.499924"/>
      <use xlink:href="#HelveticaNeue-73" x="463.099915"/>
      <use xlink:href="#HelveticaNeue-20" x="513.099899"/>
      <use xlink:href="#HelveticaNeue-28" x="540.899887"/>
      <use xlink:href="#HelveticaNeue-52" x="566.799881"/>
      <use xlink:href="#HelveticaNeue-29" x="635.299866"/>
     </g>
    </g>
    <g id="line2d_11">
     <defs>
      <path id="m8098f6b571" d="M -3.033708 -0.120084 
Q -2.519663 -0.120084 -2.258427 0.722612 
Q -1.731742 2.302669 -1.508427 2.302669 
Q -1.335674 2.302669 -1.150281 2.041433 
Q 2.549157 -3.886938 5.696629 -7.544242 
Q 6.509831 -8.492275 8.287921 -8.492275 
Q 8.70927 -8.492275 8.852528 -8.412219 
Q 9 -8.336376 9 -8.218399 
Q 9 -8.033006 8.566011 -7.49368 
Q 3.484551 -1.384129 -0.863764 5.412219 
Q -1.167135 5.884129 -2.098315 5.884129 
Q -3.046348 5.884129 -3.219101 5.804073 
Q -3.66573 5.610253 -4.272472 3.790028 
Q -4.95927 1.775983 -4.95927 1.261938 
Q -4.95927 0.709972 -4.036517 0.195927 
Q -3.467697 -0.120084 -3.033708 -0.120084 
z
" style="stroke: #5e586a"/>
     </defs>
     <g>
      <use xlink:href="#m8098f6b571" x="488.95" y="134.85125" style="fill: #5e586a; stroke: #5e586a"/>
     </g>
    </g>
    <g id="text_15">
     <!-- detected tone -->
     <g transform="translate(509.75 141.17125)scale(0.16 -0.16)">
      <use xlink:href="#HelveticaNeue-64"/>
      <use xlink:href="#HelveticaNeue-65" x="59.299988"/>
      <use xlink:href="#HelveticaNeue-74" x="112.999985"/>
      <use xlink:href="#HelveticaNeue-65" x="144.499969"/>
      <use xlink:href="#HelveticaNeue-63" x="198.199966"/>
      <use xlink:href="#HelveticaNeue-74" x="251.899963"/>
      <use xlink:href="#HelveticaNeue-65" x="283.399948"/>
      <use xlink:href="#HelveticaNeue-64" x="337.099945"/>
      <use xlink:href="#HelveticaNeue-20" x="396.399933"/>
      <use xlink:href="#HelveticaNeue-74" x="424.199921"/>
      <use xlink:href="#HelveticaNeue-6f" x="455.699905"/>
      <use xlink:href="#HelveticaNeue-6e" x="513.099899"/>
      <use xlink:href="#HelveticaNeue-65" x="568.69989"/>
     </g>
    </g>
    <g id="line2d_12">
     <defs>
      <path id="mb8271adbf0" d="M -3.75 7.5 
L 0 3.75 
L 3.75 7.5 
L 7.5 3.75 
L 3.75 0 
L 7.5 -3.75 
L 3.75 -7.5 
L 0 -3.75 
L -3.75 -7.5 
L -7.5 -3.75 
L -3.75 0 
L -7.5 3.75 
z
" style="stroke: #ffffff; stroke-linejoin: miter"/>
     </defs>
     <g>
      <use xlink:href="#mb8271adbf0" x="488.95" y="158.64375" style="fill: #5e586a; stroke: #ffffff; stroke-linejoin: miter"/>
     </g>
    </g>
    <g id="text_16">
     <!-- missed tone -->
     <g transform="translate(509.75 164.96375)scale(0.16 -0.16)">
      <use xlink:href="#HelveticaNeue-6d"/>
      <use xlink:href="#HelveticaNeue-69" x="85.299988"/>
      <use xlink:href="#HelveticaNeue-73" x="107.499985"/>
      <use xlink:href="#HelveticaNeue-73" x="157.499969"/>
      <use xlink:href="#HelveticaNeue-65" x="207.499954"/>
      <use xlink:href="#HelveticaNeue-64" x="261.199951"/>
      <use xlink:href="#HelveticaNeue-20" x="320.499939"/>
      <use xlink:href="#HelveticaNeue-74" x="348.299927"/>
      <use xlink:href="#HelveticaNeue-6f" x="379.799911"/>
      <use xlink:href="#HelveticaNeue-6e" x="437.199905"/>
      <use xlink:href="#HelveticaNeue-65" x="492.799896"/>
     </g>
    </g>
    <g id="patch_10">
     <path d="M 480.95 199.39075 
L 496.95 199.39075 
L 496.95 185.07075 
L 480.95 185.07075 
L 480.95 199.39075 
z
" style="fill: none"/>
    </g>
    <g id="text_17">
     <!--  -->
     <g transform="translate(509.75 187.54125)scale(0.16 -0.16)"/>
     <!-- Cluster (R) -->
     <g transform="translate(509.75 204.72775)scale(0.16 -0.16)">
      <use xlink:href="#HelveticaNeue-43"/>
      <use xlink:href="#HelveticaNeue-6c" x="72.199982"/>
      <use xlink:href="#HelveticaNeue-75" x="94.399979"/>
      <use xlink:href="#HelveticaNeue-73" x="149.999969"/>
      <use xlink:href="#HelveticaNeue-74" x="199.999954"/>
      <use xlink:href="#HelveticaNeue-65" x="231.499939"/>
      <use xlink:href="#HelveticaNeue-72" x="285.199936"/>
      <use xlink:href="#HelveticaNeue-20" x="318.499924"/>
      <use xlink:href="#HelveticaNeue-28" x="346.299911"/>
      <use xlink:href="#HelveticaNeue-52" x="372.199905"/>
      <use xlink:href="#HelveticaNeue-29" x="440.69989"/>
     </g>
    </g>
    <g id="line2d_13">
     <defs>
      <path id="m3a6e4cfcd9" d="M -3.033708 -0.120084 
Q -2.519663 -0.120084 -2.258427 0.722612 
Q -1.731742 2.302669 -1.508427 2.302669 
Q -1.335674 2.302669 -1.150281 2.041433 
Q 2.549157 -3.886938 5.696629 -7.544242 
Q 6.509831 -8.492275 8.287921 -8.492275 
Q 8.70927 -8.492275 8.852528 -8.412219 
Q 9 -8.336376 9 -8.218399 
Q 9 -8.033006 8.566011 -7.49368 
Q 3.484551 -1.384129 -0.863764 5.412219 
Q -1.167135 5.884129 -2.098315 5.884129 
Q -3.046348 5.884129 -3.219101 5.804073 
Q -3.66573 5.610253 -4.272472 3.790028 
Q -4.95927 1.775983 -4.95927 1.261938 
Q -4.95927 0.709972 -4.036517 0.195927 
Q -3.467697 -0.120084 -3.033708 -0.120084 
z
" style="stroke: #bb8694"/>
     </defs>
     <g>
      <use xlink:href="#m3a6e4cfcd9" x="488.95" y="222.20025" style="fill: #bb8694; stroke: #bb8694"/>
     </g>
    </g>
    <g id="text_18">
     <!-- detected tone -->
     <g transform="translate(509.75 228.52025)scale(0.16 -0.16)">
      <use xlink:href="#HelveticaNeue-64"/>
      <use xlink:href="#HelveticaNeue-65" x="59.299988"/>
      <use xlink:href="#HelveticaNeue-74" x="112.999985"/>
      <use xlink:href="#HelveticaNeue-65" x="144.499969"/>
      <use xlink:href="#HelveticaNeue-63" x="198.199966"/>
      <use xlink:href="#HelveticaNeue-74" x="251.899963"/>
      <use xlink:href="#HelveticaNeue-65" x="283.399948"/>
      <use xlink:href="#HelveticaNeue-64" x="337.099945"/>
      <use xlink:href="#HelveticaNeue-20" x="396.399933"/>
      <use xlink:href="#HelveticaNeue-74" x="424.199921"/>
      <use xlink:href="#HelveticaNeue-6f" x="455.699905"/>
      <use xlink:href="#HelveticaNeue-6e" x="513.099899"/>
      <use xlink:href="#HelveticaNeue-65" x="568.69989"/>
     </g>
    </g>
    <g id="line2d_14">
     <defs>
      <path id="mb2c8ef4720" d="M -3.75 7.5 
L 0 3.75 
L 3.75 7.5 
L 7.5 3.75 
L 3.75 0 
L 7.5 -3.75 
L 3.75 -7.5 
L 0 -3.75 
L -3.75 -7.5 
L -7.5 -3.75 
L -3.75 0 
L -7.5 3.75 
z
" style="stroke: #ffffff; stroke-linejoin: miter"/>
     </defs>
     <g>
      <use xlink:href="#mb2c8ef4720" x="488.95" y="245.99275" style="fill: #bb8694; stroke: #ffffff; stroke-linejoin: miter"/>
     </g>
    </g>
    <g id="text_19">
     <!-- missed tone -->
     <g transform="translate(509.75 252.31275)scale(0.16 -0.16)">
      <use xlink:href="#HelveticaNeue-6d"/>
      <use xlink:href="#HelveticaNeue-69" x="85.299988"/>
      <use xlink:href="#HelveticaNeue-73" x="107.499985"/>
      <use xlink:href="#HelveticaNeue-73" x="157.499969"/>
      <use xlink:href="#HelveticaNeue-65" x="207.499954"/>
      <use xlink:href="#HelveticaNeue-64" x="261.199951"/>
      <use xlink:href="#HelveticaNeue-20" x="320.499939"/>
      <use xlink:href="#HelveticaNeue-74" x="348.299927"/>
      <use xlink:href="#HelveticaNeue-6f" x="379.799911"/>
      <use xlink:href="#HelveticaNeue-6e" x="437.199905"/>
      <use xlink:href="#HelveticaNeue-65" x="492.799896"/>
     </g>
    </g>
    <g id="patch_11">
     <path d="M 480.95 277.78525 
L 496.95 277.78525 
L 496.95 263.46525 
L 480.95 263.46525 
L 480.95 277.78525 
z
" style="fill: none"/>
    </g>
    <g id="text_20">
     <!--                           -->
     <g transform="translate(509.75 276.10525)scale(0.16 -0.16)">
      <use xlink:href="#HelveticaNeue-20"/>
      <use xlink:href="#HelveticaNeue-20" x="27.799988"/>
      <use xlink:href="#HelveticaNeue-20" x="55.599976"/>
      <use xlink:href="#HelveticaNeue-20" x="83.399963"/>
      <use xlink:href="#HelveticaNeue-20" x="111.199951"/>
      <use xlink:href="#HelveticaNeue-20" x="138.999939"/>
      <use xlink:href="#HelveticaNeue-20" x="166.799927"/>
      <use xlink:href="#HelveticaNeue-20" x="194.599915"/>
      <use xlink:href="#HelveticaNeue-20" x="222.399902"/>
      <use xlink:href="#HelveticaNeue-20" x="250.19989"/>
      <use xlink:href="#HelveticaNeue-20" x="277.999878"/>
      <use xlink:href="#HelveticaNeue-20" x="305.799866"/>
      <use xlink:href="#HelveticaNeue-20" x="333.599854"/>
      <use xlink:href="#HelveticaNeue-20" x="361.399841"/>
      <use xlink:href="#HelveticaNeue-20" x="389.199829"/>
      <use xlink:href="#HelveticaNeue-20" x="416.999817"/>
      <use xlink:href="#HelveticaNeue-20" x="444.799805"/>
      <use xlink:href="#HelveticaNeue-20" x="472.599792"/>
      <use xlink:href="#HelveticaNeue-20" x="500.39978"/>
      <use xlink:href="#HelveticaNeue-20" x="528.199768"/>
      <use xlink:href="#HelveticaNeue-20" x="555.999756"/>
      <use xlink:href="#HelveticaNeue-20" x="583.799744"/>
      <use xlink:href="#HelveticaNeue-20" x="611.599731"/>
      <use xlink:href="#HelveticaNeue-20" x="639.399719"/>
      <use xlink:href="#HelveticaNeue-20" x="667.199707"/>
     </g>
    </g>
    <g id="line2d_15">
     <path d="M 480.95 302.4665 
L 488.95 302.4665 
L 496.95 302.4665 
" style="fill: none; stroke: #000000; stroke-width: 2.5; stroke-linecap: square"/>
    </g>
    <g id="text_21">
     <!-- random -->
     <g transform="translate(509.75 298.68275)scale(0.16 -0.16)">
      <use xlink:href="#HelveticaNeue-72"/>
      <use xlink:href="#HelveticaNeue-61" x="33.299988"/>
      <use xlink:href="#HelveticaNeue-6e" x="86.999985"/>
      <use xlink:href="#HelveticaNeue-64" x="142.599976"/>
      <use xlink:href="#HelveticaNeue-6f" x="201.899963"/>
      <use xlink:href="#HelveticaNeue-6d" x="259.299957"/>
     </g>
     <!-- audiogram -->
     <g transform="translate(509.75 315.54525)scale(0.16 -0.16)">
      <use xlink:href="#HelveticaNeue-61"/>
      <use xlink:href="#HelveticaNeue-75" x="53.699997"/>
      <use xlink:href="#HelveticaNeue-64" x="109.299988"/>
      <use xlink:href="#HelveticaNeue-69" x="168.599976"/>
      <use xlink:href="#HelveticaNeue-6f" x="190.799973"/>
      <use xlink:href="#HelveticaNeue-67" x="248.199966"/>
      <use xlink:href="#HelveticaNeue-72" x="305.59996"/>
      <use xlink:href="#HelveticaNeue-61" x="338.899948"/>
      <use xlink:href="#HelveticaNeue-6d" x="392.599945"/>
     </g>
    </g>
   </g>
  </g>
 </g>
 <defs>
  <clipPath id="pbd5b3ed7e5">
   <rect x="79.94" y="42" width="386.61" height="252.28"/>
  </clipPath>
 </defs>
</svg>
