<?xml version="1.0" encoding="utf-8" standalone="no"?>
<!DOCTYPE svg PUBLIC "-//W3C//DTD SVG 1.1//EN"
  "http://www.w3.org/Graphics/SVG/1.1/DTD/svg11.dtd">
<svg xmlns:xlink="http://www.w3.org/1999/xlink" width="648pt" height="360pt" viewBox="0 0 648 360" xmlns="http://www.w3.org/2000/svg" version="1.1">
 <metadata>
  <rdf:RDF xmlns:dc="http://purl.org/dc/elements/1.1/" xmlns:cc="http://creativecommons.org/ns#" xmlns:rdf="http://www.w3.org/1999/02/22-rdf-syntax-ns#">
   <cc:Work>
    <dc:type rdf:resource="http://purl.org/dc/dcmitype/StillImage"/>
    <dc:date>2023-08-14T16:14:27.108602</dc:date>
    <dc:format>image/svg+xml</dc:format>
    <dc:creator>
     <cc:Agent>
      <dc:title>Matplotlib v3.5.1, https://matplotlib.org/</dc:title>
     </cc:Agent>
    </dc:creator>
   </cc:Work>
  </rdf:RDF>
 </metadata>
 <defs>
  <style type="text/css">*{stroke-linejoin: round; stroke-linecap: butt}</style>
 </defs>
 <g id="figure_1">
  <g id="patch_1">
   <path d="M 0 360 
L 648 360 
L 648 0 
L 0 0 
z
" style="fill: #ffffff"/>
  </g>
  <g id="axes_1">
   <g id="patch_2">
    <path d="M 74.18 294.28 
L 461.35 294.28 
L 461.35 42 
L 74.18 42 
z
" style="fill: #ffffff"/>
   </g>
   <g id="LineCollection_1">
    <path d="M 241.604865 282.812727 
L 241.604865 53.467273 
" clip-path="url(#pd5ec77b251)" style="fill: none; stroke-dasharray: 1.5,2.475; stroke-dashoffset: 0; stroke: #b2b2b2; stroke-width: 1.5"/>
   </g>
   <g id="LineCollection_2">
    <path d="M 208.075248 282.812727 
L 208.075248 53.467273 
" clip-path="url(#pd5ec77b251)" style="fill: none; stroke: #b2b2b2; stroke-width: 2"/>
   </g>
   <g id="LineCollection_3">
    <path d="M -1 168.14 
L 649 168.14 
" clip-path="url(#pd5ec77b251)" style="fill: none; stroke-dasharray: 1.5,2.475; stroke-dashoffset: 0; stroke: #b2b2b2; stroke-width: 1.5"/>
   </g>
   <g id="matplotlib.axis_1">
    <g id="xtick_1">
     <g id="line2d_1">
      <defs>
       <path id="m97120c9998" d="M 0 0 
L 0 3.5 
" style="stroke: #000000; stroke-width: 0.8"/>
      </defs>
      <g>
       <use xlink:href="#m97120c9998" x="84.644054" y="294.28" style="stroke: #000000; stroke-width: 0.8"/>
      </g>
     </g>
     <g id="text_1">
      <!-- −15 -->
      <g transform="translate(69.237179 314.133125)scale(0.18 -0.18)">
       <defs>
        <path id="HelveticaNeue-2212" d="M 307 1837 
L 307 1402 
L 3533 1402 
L 3533 1837 
L 307 1837 
z
" transform="scale(0.015625)"/>
        <path id="HelveticaNeue-31" d="M 2278 0 
L 2278 4538 
L 1862 4538 
Q 1818 4282 1696 4115 
Q 1574 3949 1398 3853 
Q 1222 3757 1004 3721 
Q 787 3686 557 3686 
L 557 3251 
L 1734 3251 
L 1734 0 
L 2278 0 
z
" transform="scale(0.015625)"/>
        <path id="HelveticaNeue-35" d="M 3008 3981 
L 3008 4461 
L 768 4461 
L 346 2106 
L 813 2080 
Q 973 2272 1181 2390 
Q 1389 2509 1658 2509 
Q 1888 2509 2077 2432 
Q 2266 2355 2400 2217 
Q 2534 2080 2608 1891 
Q 2682 1702 2682 1478 
Q 2682 1210 2605 1008 
Q 2528 806 2397 672 
Q 2266 538 2090 470 
Q 1914 403 1722 403 
Q 1517 403 1347 464 
Q 1178 525 1053 637 
Q 928 749 854 899 
Q 781 1050 768 1222 
L 224 1222 
Q 230 915 345 672 
Q 461 429 659 265 
Q 858 102 1117 16 
Q 1376 -70 1670 -70 
Q 2067 -70 2364 54 
Q 2662 179 2860 390 
Q 3059 602 3158 874 
Q 3258 1146 3258 1434 
Q 3258 1824 3142 2115 
Q 3027 2406 2828 2601 
Q 2630 2797 2361 2893 
Q 2093 2989 1792 2989 
Q 1562 2989 1328 2909 
Q 1094 2829 947 2662 
L 934 2675 
L 1178 3981 
L 3008 3981 
z
" transform="scale(0.015625)"/>
       </defs>
       <use xlink:href="#HelveticaNeue-2212"/>
       <use xlink:href="#HelveticaNeue-31" x="59.999985"/>
       <use xlink:href="#HelveticaNeue-35" x="115.599976"/>
      </g>
     </g>
    </g>
    <g id="xtick_2">
     <g id="line2d_2">
      <g>
       <use xlink:href="#m97120c9998" x="136.964324" y="294.28" style="stroke: #000000; stroke-width: 0.8"/>
      </g>
     </g>
     <g id="text_2">
      <!-- −10 -->
      <g transform="translate(121.557449 314.133125)scale(0.18 -0.18)">
       <defs>
        <path id="HelveticaNeue-30" d="M 845 2234 
Q 845 2400 848 2601 
Q 851 2803 880 3004 
Q 909 3206 963 3398 
Q 1018 3590 1123 3734 
Q 1229 3878 1389 3968 
Q 1549 4058 1779 4058 
Q 2010 4058 2170 3968 
Q 2330 3878 2435 3734 
Q 2541 3590 2595 3398 
Q 2650 3206 2678 3004 
Q 2707 2803 2710 2601 
Q 2714 2400 2714 2234 
Q 2714 1978 2698 1661 
Q 2682 1344 2595 1065 
Q 2509 787 2317 595 
Q 2125 403 1779 403 
Q 1434 403 1242 595 
Q 1050 787 963 1065 
Q 877 1344 861 1661 
Q 845 1978 845 2234 
z
M 269 2227 
Q 269 1978 281 1709 
Q 294 1440 345 1184 
Q 397 928 493 701 
Q 589 474 755 301 
Q 922 128 1174 29 
Q 1427 -70 1779 -70 
Q 2138 -70 2387 29 
Q 2637 128 2803 301 
Q 2970 474 3066 701 
Q 3162 928 3213 1184 
Q 3264 1440 3277 1709 
Q 3290 1978 3290 2227 
Q 3290 2477 3277 2745 
Q 3264 3014 3213 3270 
Q 3162 3526 3066 3756 
Q 2970 3987 2803 4160 
Q 2637 4333 2384 4435 
Q 2131 4538 1779 4538 
Q 1427 4538 1174 4435 
Q 922 4333 755 4160 
Q 589 3987 493 3756 
Q 397 3526 345 3270 
Q 294 3014 281 2745 
Q 269 2477 269 2227 
z
" transform="scale(0.015625)"/>
       </defs>
       <use xlink:href="#HelveticaNeue-2212"/>
       <use xlink:href="#HelveticaNeue-31" x="59.999985"/>
       <use xlink:href="#HelveticaNeue-30" x="115.599976"/>
      </g>
     </g>
    </g>
    <g id="xtick_3">
     <g id="line2d_3">
      <g>
       <use xlink:href="#m97120c9998" x="189.284595" y="294.28" style="stroke: #000000; stroke-width: 0.8"/>
      </g>
     </g>
     <g id="text_3">
      <!-- −5 -->
      <g transform="translate(178.881157 314.133125)scale(0.18 -0.18)">
       <use xlink:href="#HelveticaNeue-2212"/>
       <use xlink:href="#HelveticaNeue-35" x="59.999985"/>
      </g>
     </g>
    </g>
    <g id="xtick_4">
     <g id="line2d_4">
      <g>
       <use xlink:href="#m97120c9998" x="241.604865" y="294.28" style="stroke: #000000; stroke-width: 0.8"/>
      </g>
     </g>
     <g id="text_4">
      <!-- 0 -->
      <g transform="translate(236.601427 314.133125)scale(0.18 -0.18)">
       <use xlink:href="#HelveticaNeue-30"/>
      </g>
     </g>
    </g>
    <g id="xtick_5">
     <g id="line2d_5">
      <g>
       <use xlink:href="#m97120c9998" x="293.925135" y="294.28" style="stroke: #000000; stroke-width: 0.8"/>
      </g>
     </g>
     <g id="text_5">
      <!-- 5 -->
      <g transform="translate(288.921698 314.133125)scale(0.18 -0.18)">
       <use xlink:href="#HelveticaNeue-35"/>
      </g>
     </g>
    </g>
    <g id="xtick_6">
     <g id="line2d_6">
      <g>
       <use xlink:href="#m97120c9998" x="346.245405" y="294.28" style="stroke: #000000; stroke-width: 0.8"/>
      </g>
     </g>
     <g id="text_6">
      <!-- 10 -->
      <g transform="translate(336.23853 314.133125)scale(0.18 -0.18)">
       <use xlink:href="#HelveticaNeue-31"/>
       <use xlink:href="#HelveticaNeue-30" x="55.599991"/>
      </g>
     </g>
    </g>
    <g id="xtick_7">
     <g id="line2d_7">
      <g>
       <use xlink:href="#m97120c9998" x="398.565676" y="294.28" style="stroke: #000000; stroke-width: 0.8"/>
      </g>
     </g>
     <g id="text_7">
      <!-- 15 -->
      <g transform="translate(388.558801 314.133125)scale(0.18 -0.18)">
       <use xlink:href="#HelveticaNeue-31"/>
       <use xlink:href="#HelveticaNeue-35" x="55.599991"/>
      </g>
     </g>
    </g>
    <g id="xtick_8">
     <g id="line2d_8">
      <g>
       <use xlink:href="#m97120c9998" x="450.885946" y="294.28" style="stroke: #000000; stroke-width: 0.8"/>
      </g>
     </g>
     <g id="text_8">
      <!-- 20 -->
      <g transform="translate(440.879071 314.133125)scale(0.18 -0.18)">
       <defs>
        <path id="HelveticaNeue-32" d="M 282 2931 
L 826 2931 
Q 819 3136 867 3337 
Q 915 3539 1024 3699 
Q 1133 3859 1302 3958 
Q 1472 4058 1709 4058 
Q 1888 4058 2048 4000 
Q 2208 3942 2326 3833 
Q 2445 3725 2515 3574 
Q 2586 3424 2586 3238 
Q 2586 3002 2512 2822 
Q 2438 2643 2294 2489 
Q 2150 2336 1932 2185 
Q 1715 2035 1427 1856 
Q 1190 1715 972 1555 
Q 755 1395 582 1184 
Q 410 973 298 688 
Q 186 403 154 0 
L 3117 0 
L 3117 480 
L 787 480 
Q 826 691 950 854 
Q 1075 1018 1251 1158 
Q 1427 1299 1638 1424 
Q 1850 1549 2061 1677 
Q 2272 1811 2470 1958 
Q 2669 2106 2822 2288 
Q 2976 2470 3069 2700 
Q 3162 2931 3162 3232 
Q 3162 3552 3050 3795 
Q 2938 4038 2746 4201 
Q 2554 4365 2294 4451 
Q 2035 4538 1741 4538 
Q 1382 4538 1100 4416 
Q 819 4294 630 4080 
Q 442 3866 352 3571 
Q 262 3277 282 2931 
z
" transform="scale(0.015625)"/>
       </defs>
       <use xlink:href="#HelveticaNeue-32"/>
       <use xlink:href="#HelveticaNeue-30" x="55.599991"/>
      </g>
     </g>
    </g>
    <g id="text_9">
     <!-- Distance from random threshold (dB HL) -->
     <g transform="translate(105.541406 334.836563)scale(0.18 -0.18)">
      <defs>
       <path id="HelveticaNeue-44" d="M 1107 512 
L 1107 4058 
L 2131 4058 
Q 2554 4058 2842 3939 
Q 3130 3821 3312 3593 
Q 3494 3366 3574 3043 
Q 3654 2720 3654 2310 
Q 3654 1888 3568 1590 
Q 3482 1293 3347 1094 
Q 3213 896 3043 781 
Q 2874 666 2701 605 
Q 2528 544 2374 528 
Q 2221 512 2118 512 
L 1107 512 
z
M 499 4570 
L 499 0 
L 2067 0 
Q 2637 0 3053 160 
Q 3469 320 3737 624 
Q 4006 928 4134 1373 
Q 4262 1818 4262 2394 
Q 4262 3494 3692 4032 
Q 3123 4570 2067 4570 
L 499 4570 
z
" transform="scale(0.015625)"/>
       <path id="HelveticaNeue-69" d="M 986 3904 
L 986 4570 
L 442 4570 
L 442 3904 
L 986 3904 
z
M 442 3309 
L 442 0 
L 986 0 
L 986 3309 
L 442 3309 
z
" transform="scale(0.015625)"/>
       <path id="HelveticaNeue-73" d="M 742 1043 
L 198 1043 
Q 211 736 326 521 
Q 442 307 634 176 
Q 826 45 1075 -12 
Q 1325 -70 1600 -70 
Q 1850 -70 2102 -22 
Q 2355 26 2556 147 
Q 2758 269 2883 467 
Q 3008 666 3008 966 
Q 3008 1203 2915 1363 
Q 2822 1523 2672 1628 
Q 2522 1734 2326 1798 
Q 2131 1862 1926 1907 
Q 1734 1952 1542 1993 
Q 1350 2035 1196 2096 
Q 1043 2157 944 2249 
Q 845 2342 845 2483 
Q 845 2611 909 2691 
Q 973 2771 1075 2819 
Q 1178 2867 1302 2886 
Q 1427 2906 1549 2906 
Q 1683 2906 1814 2877 
Q 1946 2848 2054 2784 
Q 2163 2720 2233 2614 
Q 2304 2509 2317 2349 
L 2861 2349 
Q 2842 2650 2733 2851 
Q 2624 3053 2441 3171 
Q 2259 3290 2022 3338 
Q 1786 3386 1504 3386 
Q 1286 3386 1065 3331 
Q 845 3277 669 3165 
Q 493 3053 381 2873 
Q 269 2694 269 2445 
Q 269 2125 429 1945 
Q 589 1766 829 1667 
Q 1069 1568 1350 1513 
Q 1632 1459 1872 1392 
Q 2112 1325 2272 1216 
Q 2432 1107 2432 896 
Q 2432 742 2355 643 
Q 2278 544 2160 493 
Q 2042 442 1901 422 
Q 1760 403 1632 403 
Q 1466 403 1309 435 
Q 1152 467 1027 540 
Q 902 614 825 739 
Q 749 864 742 1043 
z
" transform="scale(0.015625)"/>
       <path id="HelveticaNeue-74" d="M 1165 3309 
L 1165 4301 
L 621 4301 
L 621 3309 
L 58 3309 
L 58 2829 
L 621 2829 
L 621 723 
Q 621 493 665 352 
Q 710 211 803 134 
Q 896 58 1046 29 
Q 1197 0 1408 0 
L 1824 0 
L 1824 480 
L 1574 480 
Q 1446 480 1366 489 
Q 1286 499 1241 531 
Q 1197 563 1181 620 
Q 1165 678 1165 774 
L 1165 2829 
L 1824 2829 
L 1824 3309 
L 1165 3309 
z
" transform="scale(0.015625)"/>
       <path id="HelveticaNeue-61" d="M 3341 13 
Q 3200 -70 2950 -70 
Q 2739 -70 2614 48 
Q 2490 166 2490 435 
Q 2266 166 1968 48 
Q 1670 -70 1325 -70 
Q 1101 -70 899 -19 
Q 698 32 550 141 
Q 403 250 316 426 
Q 230 602 230 851 
Q 230 1133 326 1312 
Q 422 1491 579 1603 
Q 736 1715 937 1772 
Q 1139 1830 1350 1869 
Q 1574 1914 1776 1936 
Q 1978 1958 2131 2000 
Q 2285 2042 2374 2122 
Q 2464 2202 2464 2355 
Q 2464 2534 2397 2643 
Q 2330 2752 2224 2809 
Q 2118 2867 1987 2886 
Q 1856 2906 1728 2906 
Q 1382 2906 1152 2774 
Q 922 2643 902 2278 
L 358 2278 
Q 371 2586 486 2797 
Q 602 3008 794 3139 
Q 986 3270 1232 3328 
Q 1478 3386 1760 3386 
Q 1984 3386 2205 3354 
Q 2426 3322 2605 3222 
Q 2784 3123 2893 2944 
Q 3002 2765 3002 2477 
L 3002 774 
Q 3002 582 3024 492 
Q 3046 403 3174 403 
Q 3245 403 3341 435 
L 3341 13 
z
M 2458 1709 
Q 2355 1632 2188 1597 
Q 2022 1562 1840 1539 
Q 1658 1517 1472 1488 
Q 1286 1459 1139 1395 
Q 992 1331 899 1212 
Q 806 1094 806 890 
Q 806 755 860 662 
Q 915 570 1001 512 
Q 1088 454 1203 428 
Q 1318 403 1446 403 
Q 1715 403 1907 476 
Q 2099 550 2220 662 
Q 2342 774 2400 905 
Q 2458 1037 2458 1152 
L 2458 1709 
z
" transform="scale(0.015625)"/>
       <path id="HelveticaNeue-6e" d="M 410 3309 
L 410 0 
L 954 0 
L 954 1869 
Q 954 2093 1014 2281 
Q 1075 2470 1196 2611 
Q 1318 2752 1500 2829 
Q 1683 2906 1933 2906 
Q 2246 2906 2425 2726 
Q 2605 2547 2605 2240 
L 2605 0 
L 3149 0 
L 3149 2176 
Q 3149 2445 3094 2665 
Q 3040 2886 2905 3046 
Q 2771 3206 2553 3296 
Q 2336 3386 2010 3386 
Q 1274 3386 934 2784 
L 922 2784 
L 922 3309 
L 410 3309 
z
" transform="scale(0.015625)"/>
       <path id="HelveticaNeue-63" d="M 2656 2246 
L 3219 2246 
Q 3187 2541 3065 2755 
Q 2944 2970 2755 3110 
Q 2566 3251 2320 3318 
Q 2074 3386 1792 3386 
Q 1402 3386 1107 3248 
Q 813 3110 617 2870 
Q 422 2630 326 2307 
Q 230 1984 230 1613 
Q 230 1242 329 931 
Q 429 621 624 397 
Q 819 173 1110 51 
Q 1402 -70 1779 -70 
Q 2413 -70 2781 262 
Q 3149 595 3238 1210 
L 2682 1210 
Q 2630 826 2403 614 
Q 2176 403 1773 403 
Q 1517 403 1331 505 
Q 1146 608 1030 777 
Q 915 947 860 1164 
Q 806 1382 806 1613 
Q 806 1862 857 2096 
Q 909 2330 1027 2509 
Q 1146 2688 1344 2797 
Q 1542 2906 1837 2906 
Q 2182 2906 2387 2733 
Q 2592 2560 2656 2246 
z
" transform="scale(0.015625)"/>
       <path id="HelveticaNeue-65" d="M 2707 1971 
L 806 1971 
Q 819 2163 889 2332 
Q 960 2502 1081 2630 
Q 1203 2758 1372 2832 
Q 1542 2906 1754 2906 
Q 1958 2906 2128 2832 
Q 2298 2758 2422 2633 
Q 2547 2509 2620 2336 
Q 2694 2163 2707 1971 
z
M 3232 1050 
L 2694 1050 
Q 2624 723 2403 563 
Q 2182 403 1837 403 
Q 1568 403 1369 492 
Q 1171 582 1043 732 
Q 915 883 857 1078 
Q 800 1274 806 1491 
L 3283 1491 
Q 3296 1792 3229 2125 
Q 3162 2458 2986 2739 
Q 2810 3021 2518 3203 
Q 2227 3386 1786 3386 
Q 1446 3386 1161 3258 
Q 877 3130 669 2899 
Q 461 2669 345 2355 
Q 230 2042 230 1664 
Q 243 1286 342 966 
Q 442 646 640 416 
Q 838 186 1129 58 
Q 1421 -70 1818 -70 
Q 2381 -70 2752 211 
Q 3123 493 3232 1050 
z
" transform="scale(0.015625)"/>
       <path id="HelveticaNeue-20" transform="scale(0.015625)"/>
       <path id="HelveticaNeue-66" d="M 634 2829 
L 634 0 
L 1178 0 
L 1178 2829 
L 1818 2829 
L 1818 3309 
L 1178 3309 
L 1178 3770 
Q 1178 3987 1286 4064 
Q 1395 4141 1594 4141 
Q 1664 4141 1747 4131 
Q 1830 4122 1901 4096 
L 1901 4570 
Q 1824 4595 1725 4608 
Q 1626 4621 1549 4621 
Q 1101 4621 867 4413 
Q 634 4205 634 3802 
L 634 3309 
L 77 3309 
L 77 2829 
L 634 2829 
z
" transform="scale(0.015625)"/>
       <path id="HelveticaNeue-72" d="M 390 3309 
L 390 0 
L 934 0 
L 934 1472 
Q 934 1792 998 2038 
Q 1062 2285 1203 2457 
Q 1344 2630 1574 2720 
Q 1805 2810 2131 2810 
L 2131 3386 
Q 1690 3398 1402 3206 
Q 1114 3014 915 2611 
L 902 2611 
L 902 3309 
L 390 3309 
z
" transform="scale(0.015625)"/>
       <path id="HelveticaNeue-6f" d="M 806 1651 
Q 806 1952 886 2185 
Q 966 2419 1107 2579 
Q 1248 2739 1437 2822 
Q 1626 2906 1837 2906 
Q 2048 2906 2237 2822 
Q 2426 2739 2566 2579 
Q 2707 2419 2787 2185 
Q 2867 1952 2867 1651 
Q 2867 1350 2787 1116 
Q 2707 883 2566 726 
Q 2426 570 2237 486 
Q 2048 403 1837 403 
Q 1626 403 1437 486 
Q 1248 570 1107 726 
Q 966 883 886 1116 
Q 806 1350 806 1651 
z
M 230 1651 
Q 230 1286 332 972 
Q 435 659 640 425 
Q 845 192 1145 61 
Q 1446 -70 1837 -70 
Q 2234 -70 2531 61 
Q 2829 192 3033 425 
Q 3238 659 3340 972 
Q 3443 1286 3443 1651 
Q 3443 2016 3340 2333 
Q 3238 2650 3033 2883 
Q 2829 3117 2531 3251 
Q 2234 3386 1837 3386 
Q 1446 3386 1145 3251 
Q 845 3117 640 2883 
Q 435 2650 332 2333 
Q 230 2016 230 1651 
z
" transform="scale(0.015625)"/>
       <path id="HelveticaNeue-6d" d="M 410 3309 
L 410 0 
L 954 0 
L 954 2061 
Q 954 2157 1002 2301 
Q 1050 2445 1155 2579 
Q 1261 2714 1430 2810 
Q 1600 2906 1837 2906 
Q 2022 2906 2140 2851 
Q 2259 2797 2329 2697 
Q 2400 2598 2429 2464 
Q 2458 2330 2458 2170 
L 2458 0 
L 3002 0 
L 3002 2061 
Q 3002 2445 3232 2675 
Q 3462 2906 3866 2906 
Q 4064 2906 4189 2848 
Q 4314 2790 4384 2691 
Q 4454 2592 4480 2457 
Q 4506 2323 4506 2170 
L 4506 0 
L 5050 0 
L 5050 2426 
Q 5050 2682 4970 2864 
Q 4890 3046 4746 3161 
Q 4602 3277 4400 3331 
Q 4198 3386 3949 3386 
Q 3622 3386 3350 3238 
Q 3078 3091 2912 2822 
Q 2810 3130 2560 3258 
Q 2310 3386 2003 3386 
Q 1306 3386 934 2822 
L 922 2822 
L 922 3309 
L 410 3309 
z
" transform="scale(0.015625)"/>
       <path id="HelveticaNeue-64" d="M 806 1626 
Q 806 1869 857 2099 
Q 909 2330 1024 2509 
Q 1139 2688 1331 2797 
Q 1523 2906 1798 2906 
Q 2080 2906 2278 2800 
Q 2477 2694 2601 2521 
Q 2726 2349 2784 2121 
Q 2842 1894 2842 1651 
Q 2842 1421 2787 1197 
Q 2733 973 2611 797 
Q 2490 621 2298 512 
Q 2106 403 1830 403 
Q 1568 403 1373 505 
Q 1178 608 1053 781 
Q 928 954 867 1174 
Q 806 1395 806 1626 
z
M 3366 0 
L 3366 4570 
L 2822 4570 
L 2822 2867 
L 2810 2867 
Q 2720 3014 2589 3113 
Q 2458 3213 2310 3273 
Q 2163 3334 2016 3360 
Q 1869 3386 1741 3386 
Q 1363 3386 1078 3248 
Q 794 3110 605 2876 
Q 416 2643 323 2329 
Q 230 2016 230 1664 
Q 230 1312 326 998 
Q 422 685 611 448 
Q 800 211 1085 70 
Q 1370 -70 1754 -70 
Q 2099 -70 2387 51 
Q 2675 173 2810 448 
L 2822 448 
L 2822 0 
L 3366 0 
z
" transform="scale(0.015625)"/>
       <path id="HelveticaNeue-68" d="M 410 4570 
L 410 0 
L 954 0 
L 954 1869 
Q 954 2093 1014 2281 
Q 1075 2470 1196 2611 
Q 1318 2752 1500 2829 
Q 1683 2906 1933 2906 
Q 2246 2906 2425 2726 
Q 2605 2547 2605 2240 
L 2605 0 
L 3149 0 
L 3149 2176 
Q 3149 2445 3094 2665 
Q 3040 2886 2905 3046 
Q 2771 3206 2553 3296 
Q 2336 3386 2010 3386 
Q 1862 3386 1705 3354 
Q 1549 3322 1405 3254 
Q 1261 3187 1145 3081 
Q 1030 2976 966 2822 
L 954 2822 
L 954 4570 
L 410 4570 
z
" transform="scale(0.015625)"/>
       <path id="HelveticaNeue-6c" d="M 442 4570 
L 442 0 
L 986 0 
L 986 4570 
L 442 4570 
z
" transform="scale(0.015625)"/>
       <path id="HelveticaNeue-28" d="M 1306 -1261 
L 1722 -1261 
Q 1267 -525 1072 198 
Q 877 922 877 1728 
Q 877 2515 1069 3232 
Q 1261 3949 1722 4678 
L 1306 4678 
Q 806 4019 553 3251 
Q 301 2483 301 1728 
Q 301 1306 371 922 
Q 442 538 573 173 
Q 704 -192 889 -547 
Q 1075 -902 1306 -1261 
z
" transform="scale(0.015625)"/>
       <path id="HelveticaNeue-42" d="M 1107 2605 
L 1107 4058 
L 2323 4058 
Q 2522 4058 2698 4035 
Q 2874 4013 3008 3936 
Q 3142 3859 3219 3718 
Q 3296 3578 3296 3334 
Q 3296 2970 3069 2787 
Q 2842 2605 2323 2605 
L 1107 2605 
z
M 499 4570 
L 499 0 
L 2707 0 
Q 3046 0 3305 112 
Q 3565 224 3741 406 
Q 3917 589 4006 825 
Q 4096 1062 4096 1312 
Q 4096 1734 3872 2028 
Q 3648 2323 3226 2413 
L 3226 2426 
Q 3552 2554 3728 2819 
Q 3904 3085 3904 3450 
Q 3904 3795 3747 4032 
Q 3590 4269 3366 4403 
Q 3264 4467 3120 4499 
Q 2976 4531 2809 4547 
Q 2643 4563 2473 4566 
Q 2304 4570 2157 4570 
L 499 4570 
z
M 1107 512 
L 1107 2093 
L 2496 2093 
Q 2688 2093 2867 2057 
Q 3046 2022 3184 1936 
Q 3322 1850 3405 1702 
Q 3488 1555 3488 1331 
Q 3488 947 3261 729 
Q 3034 512 2630 512 
L 1107 512 
z
" transform="scale(0.015625)"/>
       <path id="HelveticaNeue-48" d="M 499 4570 
L 499 0 
L 1107 0 
L 1107 2093 
L 3514 2093 
L 3514 0 
L 4122 0 
L 4122 4570 
L 3514 4570 
L 3514 2605 
L 1107 2605 
L 1107 4570 
L 499 4570 
z
" transform="scale(0.015625)"/>
       <path id="HelveticaNeue-4c" d="M 499 4570 
L 499 0 
L 3526 0 
L 3526 512 
L 1107 512 
L 1107 4570 
L 499 4570 
z
" transform="scale(0.015625)"/>
       <path id="HelveticaNeue-29" d="M -58 -1261 
L 352 -1261 
Q 851 -602 1104 163 
Q 1357 928 1357 1683 
Q 1357 2106 1286 2490 
Q 1216 2874 1085 3242 
Q 954 3610 768 3965 
Q 582 4320 352 4678 
L -58 4678 
Q 390 3942 585 3216 
Q 781 2490 781 1683 
Q 781 902 589 182 
Q 397 -538 -58 -1261 
z
" transform="scale(0.015625)"/>
      </defs>
      <use xlink:href="#HelveticaNeue-44"/>
      <use xlink:href="#HelveticaNeue-69" x="70.399994"/>
      <use xlink:href="#HelveticaNeue-73" x="92.599991"/>
      <use xlink:href="#HelveticaNeue-74" x="142.599976"/>
      <use xlink:href="#HelveticaNeue-61" x="174.09996"/>
      <use xlink:href="#HelveticaNeue-6e" x="227.799957"/>
      <use xlink:href="#HelveticaNeue-63" x="283.399948"/>
      <use xlink:href="#HelveticaNeue-65" x="337.099945"/>
      <use xlink:href="#HelveticaNeue-20" x="390.799942"/>
      <use xlink:href="#HelveticaNeue-66" x="418.59993"/>
      <use xlink:href="#HelveticaNeue-72" x="448.199921"/>
      <use xlink:href="#HelveticaNeue-6f" x="479.749908"/>
      <use xlink:href="#HelveticaNeue-6d" x="537.149902"/>
      <use xlink:href="#HelveticaNeue-20" x="622.44989"/>
      <use xlink:href="#HelveticaNeue-72" x="650.249878"/>
      <use xlink:href="#HelveticaNeue-61" x="683.549866"/>
      <use xlink:href="#HelveticaNeue-6e" x="737.249863"/>
      <use xlink:href="#HelveticaNeue-64" x="792.849854"/>
      <use xlink:href="#HelveticaNeue-6f" x="852.149841"/>
      <use xlink:href="#HelveticaNeue-6d" x="909.549835"/>
      <use xlink:href="#HelveticaNeue-20" x="994.849823"/>
      <use xlink:href="#HelveticaNeue-74" x="1022.649811"/>
      <use xlink:href="#HelveticaNeue-68" x="1054.149796"/>
      <use xlink:href="#HelveticaNeue-72" x="1109.749786"/>
      <use xlink:href="#HelveticaNeue-65" x="1141.299774"/>
      <use xlink:href="#HelveticaNeue-73" x="1194.999771"/>
      <use xlink:href="#HelveticaNeue-68" x="1244.999756"/>
      <use xlink:href="#HelveticaNeue-6f" x="1300.599747"/>
      <use xlink:href="#HelveticaNeue-6c" x="1357.999741"/>
      <use xlink:href="#HelveticaNeue-64" x="1380.199738"/>
      <use xlink:href="#HelveticaNeue-20" x="1439.499725"/>
      <use xlink:href="#HelveticaNeue-28" x="1467.299713"/>
      <use xlink:href="#HelveticaNeue-64" x="1493.199707"/>
      <use xlink:href="#HelveticaNeue-42" x="1552.499695"/>
      <use xlink:href="#HelveticaNeue-20" x="1620.99968"/>
      <use xlink:href="#HelveticaNeue-48" x="1648.799667"/>
      <use xlink:href="#HelveticaNeue-4c" x="1720.999649"/>
      <use xlink:href="#HelveticaNeue-29" x="1776.59964"/>
     </g>
    </g>
   </g>
   <g id="matplotlib.axis_2">
    <g id="ytick_1">
     <g id="line2d_9">
      <defs>
       <path id="m91622e3721" d="M 0 0 
L -3.5 0 
" style="stroke: #000000; stroke-width: 0.8"/>
      </defs>
      <g>
       <use xlink:href="#m91622e3721" x="74.18" y="282.812727" style="stroke: #000000; stroke-width: 0.8"/>
      </g>
     </g>
     <g id="text_10">
      <!-- 0 -->
      <g transform="translate(57.173125 289.23929)scale(0.18 -0.18)">
       <use xlink:href="#HelveticaNeue-30"/>
      </g>
     </g>
    </g>
    <g id="ytick_2">
     <g id="line2d_10">
      <g>
       <use xlink:href="#m91622e3721" x="74.18" y="168.14" style="stroke: #000000; stroke-width: 0.8"/>
      </g>
     </g>
     <g id="text_11">
      <!-- 0.5 -->
      <g transform="translate(42.162813 174.566562)scale(0.18 -0.18)">
       <defs>
        <path id="HelveticaNeue-2e" d="M 531 710 
L 531 0 
L 1242 0 
L 1242 710 
L 531 710 
z
" transform="scale(0.015625)"/>
       </defs>
       <use xlink:href="#HelveticaNeue-30"/>
       <use xlink:href="#HelveticaNeue-2e" x="55.599991"/>
       <use xlink:href="#HelveticaNeue-35" x="83.399979"/>
      </g>
     </g>
    </g>
    <g id="ytick_3">
     <g id="line2d_11">
      <g>
       <use xlink:href="#m91622e3721" x="74.18" y="53.467273" style="stroke: #000000; stroke-width: 0.8"/>
      </g>
     </g>
     <g id="text_12">
      <!-- 1 -->
      <g transform="translate(57.173125 59.893835)scale(0.18 -0.18)">
       <use xlink:href="#HelveticaNeue-31"/>
      </g>
     </g>
    </g>
    <g id="text_13">
     <!-- Proportion detected -->
     <g transform="translate(34.61625 248.659063)rotate(-90)scale(0.18 -0.18)">
      <defs>
       <path id="HelveticaNeue-50" d="M 1107 2381 
L 1107 4058 
L 2298 4058 
Q 2816 4058 3056 3843 
Q 3296 3629 3296 3219 
Q 3296 2810 3056 2592 
Q 2816 2374 2298 2381 
L 1107 2381 
z
M 499 4570 
L 499 0 
L 1107 0 
L 1107 1869 
L 2502 1869 
Q 3194 1862 3549 2220 
Q 3904 2579 3904 3219 
Q 3904 3859 3549 4214 
Q 3194 4570 2502 4570 
L 499 4570 
z
" transform="scale(0.015625)"/>
       <path id="HelveticaNeue-70" d="M 429 3309 
L 429 -1261 
L 973 -1261 
L 973 442 
L 986 442 
Q 1075 294 1206 195 
Q 1338 96 1485 38 
Q 1632 -19 1782 -44 
Q 1933 -70 2054 -70 
Q 2432 -70 2717 64 
Q 3002 198 3190 432 
Q 3379 666 3472 979 
Q 3565 1293 3565 1645 
Q 3565 1997 3469 2310 
Q 3373 2624 3184 2864 
Q 2995 3104 2710 3245 
Q 2426 3386 2042 3386 
Q 1696 3386 1408 3261 
Q 1120 3136 986 2861 
L 973 2861 
L 973 3309 
L 429 3309 
z
M 2989 1683 
Q 2989 1440 2937 1209 
Q 2886 979 2771 800 
Q 2656 621 2467 512 
Q 2278 403 1997 403 
Q 1715 403 1516 508 
Q 1318 614 1193 787 
Q 1069 960 1011 1187 
Q 954 1414 954 1658 
Q 954 1888 1008 2112 
Q 1062 2336 1184 2512 
Q 1306 2688 1498 2797 
Q 1690 2906 1965 2906 
Q 2227 2906 2422 2803 
Q 2618 2701 2742 2528 
Q 2867 2355 2928 2134 
Q 2989 1914 2989 1683 
z
" transform="scale(0.015625)"/>
      </defs>
      <use xlink:href="#HelveticaNeue-50"/>
      <use xlink:href="#HelveticaNeue-72" x="64.799988"/>
      <use xlink:href="#HelveticaNeue-6f" x="96.349976"/>
      <use xlink:href="#HelveticaNeue-70" x="153.749969"/>
      <use xlink:href="#HelveticaNeue-6f" x="213.049957"/>
      <use xlink:href="#HelveticaNeue-72" x="270.449951"/>
      <use xlink:href="#HelveticaNeue-74" x="303.749939"/>
      <use xlink:href="#HelveticaNeue-69" x="335.249924"/>
      <use xlink:href="#HelveticaNeue-6f" x="357.449921"/>
      <use xlink:href="#HelveticaNeue-6e" x="414.849915"/>
      <use xlink:href="#HelveticaNeue-20" x="470.449905"/>
      <use xlink:href="#HelveticaNeue-64" x="498.249893"/>
      <use xlink:href="#HelveticaNeue-65" x="557.549881"/>
      <use xlink:href="#HelveticaNeue-74" x="611.249878"/>
      <use xlink:href="#HelveticaNeue-65" x="642.749863"/>
      <use xlink:href="#HelveticaNeue-63" x="696.44986"/>
      <use xlink:href="#HelveticaNeue-74" x="750.149857"/>
      <use xlink:href="#HelveticaNeue-65" x="781.649841"/>
      <use xlink:href="#HelveticaNeue-64" x="835.349838"/>
     </g>
    </g>
   </g>
   <g id="patch_3">
    <path d="M 74.18 294.28 
L 74.18 42 
" style="fill: none; stroke: #000000; stroke-width: 0.8; stroke-linejoin: miter; stroke-linecap: square"/>
   </g>
   <g id="patch_4">
    <path d="M 461.35 294.28 
L 461.35 42 
" style="fill: none; stroke: #000000; stroke-width: 0.8; stroke-linejoin: miter; stroke-linecap: square"/>
   </g>
   <g id="patch_5">
    <path d="M 74.18 294.28 
L 461.35 294.28 
" style="fill: none; stroke: #000000; stroke-width: 0.8; stroke-linejoin: miter; stroke-linecap: square"/>
   </g>
   <g id="patch_6">
    <path d="M 74.18 42 
L 461.35 42 
" style="fill: none; stroke: #000000; stroke-width: 0.8; stroke-linejoin: miter; stroke-linecap: square"/>
   </g>
   <g id="line2d_12">
    <path d="M -1 282.401789 
L 2.660412 282.358249 
L 12.450596 282.201785 
L 22.240781 281.991647 
L 32.030965 281.70958 
L 41.821149 281.331242 
L 51.611334 280.824279 
L 61.401518 280.145864 
L 71.191702 279.239626 
L 80.981886 278.03193 
L 90.772071 276.427582 
L 100.562255 274.30524 
L 110.352439 271.51321 
L 120.142624 267.866891 
L 129.932808 263.150024 
L 139.722992 257.122896 
L 149.513177 249.541444 
L 159.303361 240.190844 
L 169.093545 228.93445 
L 178.88373 215.772591 
L 188.673914 200.896488 
L 198.464098 184.714532 
L 208.254283 167.829076 
L 218.044467 150.957093 
L 227.834651 134.813293 
L 237.624835 119.994015 
L 247.41502 106.899768 
L 257.205204 95.714084 
L 266.995388 86.431243 
L 276.785573 78.91073 
L 286.575757 72.935879 
L 296.365941 68.262288 
L 306.156126 64.650845 
L 315.94631 61.886358 
L 325.736494 59.785439 
L 335.526679 58.197563 
L 345.316863 57.002425 
L 355.107047 56.1057 
L 364.897231 55.434456 
L 374.687416 54.932879 
L 384.4776 54.558577 
L 394.267784 54.279527 
L 404.057969 54.071642 
L 413.848153 53.916858 
L 423.638337 53.801657 
L 433.428522 53.715943 
L 443.218706 53.652183 
L 453.00889 53.604761 
L 462.799075 53.569496 
L 472.589259 53.543273 
L 482.379443 53.523775 
L 492.169628 53.509279 
L 501.959812 53.498501 
L 511.749996 53.490488 
L 521.54018 53.484531 
L 531.330365 53.480103 
L 541.120549 53.476811 
L 550.910733 53.474363 
L 560.700918 53.472544 
L 570.491102 53.471191 
L 580.281286 53.470186 
L 590.071471 53.469438 
L 599.861655 53.468882 
L 609.651839 53.468469 
L 619.442024 53.468162 
L 629.232208 53.467934 
L 639.022392 53.467764 
L 648.812576 53.467638 
L 649 53.467636 
" clip-path="url(#pd5ec77b251)" style="fill: none; stroke: #000000; stroke-width: 1.5; stroke-linecap: square"/>
   </g>
   <g id="patch_7">
    <path d="M 239.603402 168.14 
Q 224.83805 168.14 213.4268 168.14 
" style="fill: none; stroke: #000000; stroke-width: 3; stroke-linecap: round"/>
    <path d="M 221.4268 172.14 
L 213.4268 168.14 
L 221.4268 164.14 
" style="fill: none; stroke: #000000; stroke-width: 3; stroke-linecap: round"/>
   </g>
   <g id="text_14">
    <!-- p50 -->
    <g transform="translate(250.716563 36)scale(0.2 -0.2)">
     <use xlink:href="#HelveticaNeue-70"/>
     <use xlink:href="#HelveticaNeue-35" x="59.299988"/>
     <use xlink:href="#HelveticaNeue-30" x="114.899979"/>
    </g>
   </g>
   <g id="PathCollection_1">
    <defs>
     <path id="m458ad6b8f8" d="M 0 3.535534 
C 0.937635 3.535534 1.836992 3.163008 2.5 2.5 
C 3.163008 1.836992 3.535534 0.937635 3.535534 0 
C 3.535534 -0.937635 3.163008 -1.836992 2.5 -2.5 
C 1.836992 -3.163008 0.937635 -3.535534 0 -3.535534 
C -0.937635 -3.535534 -1.836992 -3.163008 -2.5 -2.5 
C -3.163008 -1.836992 -3.535534 -0.937635 -3.535534 0 
C -3.535534 0.937635 -3.163008 1.836992 -2.5 2.5 
C -1.836992 3.163008 -0.937635 3.535534 0 3.535534 
z
" style="stroke: #000000"/>
    </defs>
    <g clip-path="url(#pd5ec77b251)">
     <use xlink:href="#m458ad6b8f8" x="208.075248" y="168.14" style="stroke: #000000"/>
    </g>
   </g>
   <g id="PathCollection_2">
    <defs>
     <path id="m00466fa0da" d="M -3.153082 -0.124809 
Q -2.61881 -0.124809 -2.347294 0.751047 
Q -1.799884 2.393277 -1.567782 2.393277 
Q -1.388232 2.393277 -1.195544 2.121761 
Q 2.649465 -4.039886 5.920787 -7.841102 
Q 6.765989 -8.82644 8.614045 -8.82644 
Q 9.051973 -8.82644 9.200869 -8.743234 
Q 9.354143 -8.664407 9.354143 -8.541787 
Q 9.354143 -8.349099 8.903078 -7.788551 
Q 3.621665 -1.438594 -0.897753 5.625186 
Q -1.213061 6.115665 -2.180882 6.115665 
Q -3.16622 6.115665 -3.34577 6.032459 
Q -3.809974 5.831012 -4.440591 3.939163 
Q -5.154413 1.845867 -5.154413 1.311595 
Q -5.154413 0.737909 -4.195351 0.203637 
Q -3.604148 -0.124809 -3.153082 -0.124809 
z
" style="stroke: #ffffff; stroke-width: 0.75"/>
    </defs>
    <g clip-path="url(#pd5ec77b251)">
     <use xlink:href="#m00466fa0da" x="266.39167" y="53.467273" style="fill: #008000; stroke: #ffffff; stroke-width: 0.75"/>
    </g>
   </g>
   <g id="PathCollection_3">
    <g clip-path="url(#pd5ec77b251)">
     <use xlink:href="#m00466fa0da" x="284.971218" y="53.467273" style="fill: #008000; stroke: #ffffff; stroke-width: 0.75"/>
    </g>
   </g>
   <g id="PathCollection_4">
    <g clip-path="url(#pd5ec77b251)">
     <use xlink:href="#m00466fa0da" x="281.206061" y="53.467273" style="fill: #008000; stroke: #ffffff; stroke-width: 0.75"/>
    </g>
   </g>
   <g id="PathCollection_5">
    <g clip-path="url(#pd5ec77b251)">
     <use xlink:href="#m00466fa0da" x="273.834023" y="53.467273" style="fill: #008000; stroke: #ffffff; stroke-width: 0.75"/>
    </g>
   </g>
   <g id="PathCollection_6">
    <g clip-path="url(#pd5ec77b251)">
     <use xlink:href="#m00466fa0da" x="261.970868" y="53.467273" style="fill: #008000; stroke: #ffffff; stroke-width: 0.75"/>
    </g>
   </g>
   <g id="PathCollection_7">
    <g clip-path="url(#pd5ec77b251)">
     <use xlink:href="#m00466fa0da" x="240.344666" y="53.467273" style="fill: #008000; stroke: #ffffff; stroke-width: 0.75"/>
    </g>
   </g>
   <g id="PathCollection_8">
    <g clip-path="url(#pd5ec77b251)">
     <use xlink:href="#m00466fa0da" x="262.449586" y="53.467273" style="fill: #008000; stroke: #ffffff; stroke-width: 0.75"/>
    </g>
   </g>
   <g id="PathCollection_9">
    <defs>
     <path id="mde87aee0f5" d="M -2.5 5 
L 0 2.5 
L 2.5 5 
L 5 2.5 
L 2.5 0 
L 5 -2.5 
L 2.5 -5 
L 0 -2.5 
L -2.5 -5 
L -5 -2.5 
L -2.5 0 
L -5 2.5 
z
" style="stroke: #ffffff; stroke-width: 0.75"/>
    </defs>
    <g clip-path="url(#pd5ec77b251)">
     <use xlink:href="#mde87aee0f5" x="264.732495" y="282.812727" style="fill: #ff0000; stroke: #ffffff; stroke-width: 0.75"/>
    </g>
   </g>
   <g id="PathCollection_10">
    <g clip-path="url(#pd5ec77b251)">
     <use xlink:href="#m00466fa0da" x="260.024999" y="53.467273" style="fill: #008000; stroke: #ffffff; stroke-width: 0.75"/>
    </g>
   </g>
   <g id="PathCollection_11">
    <g clip-path="url(#pd5ec77b251)">
     <use xlink:href="#m00466fa0da" x="300.104276" y="53.467273" style="fill: #008000; stroke: #ffffff; stroke-width: 0.75"/>
    </g>
   </g>
   <g id="PathCollection_12">
    <g clip-path="url(#pd5ec77b251)">
     <use xlink:href="#m00466fa0da" x="272.431874" y="53.467273" style="fill: #008000; stroke: #ffffff; stroke-width: 0.75"/>
    </g>
   </g>
   <g id="PathCollection_13">
    <g clip-path="url(#pd5ec77b251)">
     <use xlink:href="#m00466fa0da" x="206.640273" y="53.467273" style="fill: #008000; stroke: #ffffff; stroke-width: 0.75"/>
    </g>
   </g>
   <g id="PathCollection_14">
    <g clip-path="url(#pd5ec77b251)">
     <use xlink:href="#m00466fa0da" x="231.057833" y="53.467273" style="fill: #008000; stroke: #ffffff; stroke-width: 0.75"/>
    </g>
   </g>
   <g id="PathCollection_15">
    <g clip-path="url(#pd5ec77b251)">
     <use xlink:href="#m00466fa0da" x="231.191672" y="53.467273" style="fill: #008000; stroke: #ffffff; stroke-width: 0.75"/>
    </g>
   </g>
   <g id="PathCollection_16">
    <g clip-path="url(#pd5ec77b251)">
     <use xlink:href="#m00466fa0da" x="267.6497" y="53.467273" style="fill: #008000; stroke: #ffffff; stroke-width: 0.75"/>
    </g>
   </g>
   <g id="PathCollection_17">
    <g clip-path="url(#pd5ec77b251)">
     <use xlink:href="#mde87aee0f5" x="203.172814" y="282.812727" style="fill: #ff0000; stroke: #ffffff; stroke-width: 0.75"/>
    </g>
   </g>
   <g id="PathCollection_18">
    <g clip-path="url(#pd5ec77b251)">
     <use xlink:href="#m00466fa0da" x="244.483175" y="53.467273" style="fill: #008000; stroke: #ffffff; stroke-width: 0.75"/>
    </g>
   </g>
   <g id="PathCollection_19">
    <g clip-path="url(#pd5ec77b251)">
     <use xlink:href="#mde87aee0f5" x="135.704125" y="282.812727" style="fill: #ff0000; stroke: #ffffff; stroke-width: 0.75"/>
    </g>
   </g>
   <g id="PathCollection_20">
    <g clip-path="url(#pd5ec77b251)">
     <use xlink:href="#m00466fa0da" x="255.673988" y="53.467273" style="fill: #008000; stroke: #ffffff; stroke-width: 0.75"/>
    </g>
   </g>
   <g id="PathCollection_21">
    <g clip-path="url(#pd5ec77b251)">
     <use xlink:href="#m00466fa0da" x="207.349495" y="53.467273" style="fill: #008000; stroke: #ffffff; stroke-width: 0.75"/>
    </g>
   </g>
   <g id="PathCollection_22">
    <g clip-path="url(#pd5ec77b251)">
     <use xlink:href="#m00466fa0da" x="251.824657" y="53.467273" style="fill: #008000; stroke: #ffffff; stroke-width: 0.75"/>
    </g>
   </g>
   <g id="PathCollection_23">
    <g clip-path="url(#pd5ec77b251)">
     <use xlink:href="#m00466fa0da" x="207.653816" y="53.467273" style="fill: #008000; stroke: #ffffff; stroke-width: 0.75"/>
    </g>
   </g>
   <g id="PathCollection_24">
    <g clip-path="url(#pd5ec77b251)">
     <use xlink:href="#mde87aee0f5" x="274.940662" y="282.812727" style="fill: #ff0000; stroke: #ffffff; stroke-width: 0.75"/>
    </g>
   </g>
   <g id="PathCollection_25">
    <g clip-path="url(#pd5ec77b251)">
     <use xlink:href="#m00466fa0da" x="219.416558" y="53.467273" style="fill: #008000; stroke: #ffffff; stroke-width: 0.75"/>
    </g>
   </g>
   <g id="PathCollection_26">
    <g clip-path="url(#pd5ec77b251)">
     <use xlink:href="#m00466fa0da" x="239.382508" y="53.467273" style="fill: #008000; stroke: #ffffff; stroke-width: 0.75"/>
    </g>
   </g>
   <g id="PathCollection_27">
    <g clip-path="url(#pd5ec77b251)">
     <use xlink:href="#m00466fa0da" x="208.956876" y="53.467273" style="fill: #008000; stroke: #ffffff; stroke-width: 0.75"/>
    </g>
   </g>
   <g id="PathCollection_28">
    <g clip-path="url(#pd5ec77b251)">
     <use xlink:href="#m00466fa0da" x="267.21904" y="53.467273" style="fill: #008000; stroke: #ffffff; stroke-width: 0.75"/>
    </g>
   </g>
   <g id="PathCollection_29">
    <g clip-path="url(#pd5ec77b251)">
     <use xlink:href="#m00466fa0da" x="238.109321" y="53.467273" style="fill: #008000; stroke: #ffffff; stroke-width: 0.75"/>
    </g>
   </g>
   <g id="PathCollection_30">
    <g clip-path="url(#pd5ec77b251)">
     <use xlink:href="#mde87aee0f5" x="261.96453" y="282.812727" style="fill: #ff0000; stroke: #ffffff; stroke-width: 0.75"/>
    </g>
   </g>
   <g id="PathCollection_31">
    <g clip-path="url(#pd5ec77b251)">
     <use xlink:href="#mde87aee0f5" x="249.251634" y="282.812727" style="fill: #ff0000; stroke: #ffffff; stroke-width: 0.75"/>
    </g>
   </g>
   <g id="PathCollection_32">
    <g clip-path="url(#pd5ec77b251)">
     <use xlink:href="#m00466fa0da" x="261.668518" y="53.467273" style="fill: #008000; stroke: #ffffff; stroke-width: 0.75"/>
    </g>
   </g>
   <g id="PathCollection_33">
    <g clip-path="url(#pd5ec77b251)">
     <use xlink:href="#m00466fa0da" x="231.768658" y="53.467273" style="fill: #008000; stroke: #ffffff; stroke-width: 0.75"/>
    </g>
   </g>
   <g id="PathCollection_34">
    <g clip-path="url(#pd5ec77b251)">
     <use xlink:href="#m00466fa0da" x="267.736642" y="53.467273" style="fill: #008000; stroke: #ffffff; stroke-width: 0.75"/>
    </g>
   </g>
   <g id="PathCollection_35">
    <g clip-path="url(#pd5ec77b251)">
     <use xlink:href="#m00466fa0da" x="180.316252" y="53.467273" style="fill: #008000; stroke: #ffffff; stroke-width: 0.75"/>
    </g>
   </g>
   <g id="PathCollection_36">
    <g clip-path="url(#pd5ec77b251)">
     <use xlink:href="#m00466fa0da" x="274.952855" y="53.467273" style="fill: #008000; stroke: #ffffff; stroke-width: 0.75"/>
    </g>
   </g>
   <g id="PathCollection_37">
    <g clip-path="url(#pd5ec77b251)">
     <use xlink:href="#mde87aee0f5" x="171.05979" y="282.812727" style="fill: #ff0000; stroke: #ffffff; stroke-width: 0.75"/>
    </g>
   </g>
   <g id="PathCollection_38">
    <g clip-path="url(#pd5ec77b251)">
     <use xlink:href="#m00466fa0da" x="260.79693" y="53.467273" style="fill: #008000; stroke: #ffffff; stroke-width: 0.75"/>
    </g>
   </g>
   <g id="PathCollection_39">
    <g clip-path="url(#pd5ec77b251)">
     <use xlink:href="#m00466fa0da" x="203.616517" y="53.467273" style="fill: #008000; stroke: #ffffff; stroke-width: 0.75"/>
    </g>
   </g>
   <g id="PathCollection_40">
    <g clip-path="url(#pd5ec77b251)">
     <use xlink:href="#m00466fa0da" x="267.435966" y="53.467273" style="fill: #008000; stroke: #ffffff; stroke-width: 0.75"/>
    </g>
   </g>
   <g id="PathCollection_41">
    <g clip-path="url(#pd5ec77b251)">
     <use xlink:href="#mde87aee0f5" x="173.651906" y="282.812727" style="fill: #ff0000; stroke: #ffffff; stroke-width: 0.75"/>
    </g>
   </g>
   <g id="PathCollection_42">
    <g clip-path="url(#pd5ec77b251)">
     <use xlink:href="#m00466fa0da" x="263.784257" y="53.467273" style="fill: #008000; stroke: #ffffff; stroke-width: 0.75"/>
    </g>
   </g>
   <g id="PathCollection_43">
    <g clip-path="url(#pd5ec77b251)">
     <use xlink:href="#m00466fa0da" x="245.318398" y="53.467273" style="fill: #008000; stroke: #ffffff; stroke-width: 0.75"/>
    </g>
   </g>
   <g id="PathCollection_44">
    <g clip-path="url(#pd5ec77b251)">
     <use xlink:href="#m00466fa0da" x="252.247805" y="53.467273" style="fill: #008000; stroke: #ffffff; stroke-width: 0.75"/>
    </g>
   </g>
   <g id="PathCollection_45">
    <g clip-path="url(#pd5ec77b251)">
     <use xlink:href="#m00466fa0da" x="206.184188" y="53.467273" style="fill: #008000; stroke: #ffffff; stroke-width: 0.75"/>
    </g>
   </g>
   <g id="PathCollection_46">
    <g clip-path="url(#pd5ec77b251)">
     <use xlink:href="#m00466fa0da" x="255.530012" y="53.467273" style="fill: #008000; stroke: #ffffff; stroke-width: 0.75"/>
    </g>
   </g>
   <g id="PathCollection_47">
    <g clip-path="url(#pd5ec77b251)">
     <use xlink:href="#mde87aee0f5" x="210.316624" y="282.812727" style="fill: #ff0000; stroke: #ffffff; stroke-width: 0.75"/>
    </g>
   </g>
   <g id="PathCollection_48">
    <g clip-path="url(#pd5ec77b251)">
     <use xlink:href="#m00466fa0da" x="280.660244" y="53.467273" style="fill: #008000; stroke: #ffffff; stroke-width: 0.75"/>
    </g>
   </g>
   <g id="PathCollection_49">
    <g clip-path="url(#pd5ec77b251)">
     <use xlink:href="#mde87aee0f5" x="198.48845" y="282.812727" style="fill: #ff0000; stroke: #ffffff; stroke-width: 0.75"/>
    </g>
   </g>
   <g id="PathCollection_50">
    <g clip-path="url(#pd5ec77b251)">
     <use xlink:href="#mde87aee0f5" x="252.196653" y="282.812727" style="fill: #ff0000; stroke: #ffffff; stroke-width: 0.75"/>
    </g>
   </g>
   <g id="PathCollection_51">
    <g clip-path="url(#pd5ec77b251)">
     <use xlink:href="#mde87aee0f5" x="270.179742" y="282.812727" style="fill: #ff0000; stroke: #ffffff; stroke-width: 0.75"/>
    </g>
   </g>
   <g id="PathCollection_52">
    <g clip-path="url(#pd5ec77b251)">
     <use xlink:href="#m00466fa0da" x="237.055119" y="53.467273" style="fill: #008000; stroke: #ffffff; stroke-width: 0.75"/>
    </g>
   </g>
   <g id="PathCollection_53">
    <g clip-path="url(#pd5ec77b251)">
     <use xlink:href="#mde87aee0f5" x="162.756384" y="282.812727" style="fill: #ff0000; stroke: #ffffff; stroke-width: 0.75"/>
    </g>
   </g>
   <g id="PathCollection_54">
    <g clip-path="url(#pd5ec77b251)">
     <use xlink:href="#m00466fa0da" x="231.299663" y="53.467273" style="fill: #008000; stroke: #ffffff; stroke-width: 0.75"/>
    </g>
   </g>
   <g id="PathCollection_55">
    <g clip-path="url(#pd5ec77b251)">
     <use xlink:href="#m00466fa0da" x="214.157499" y="53.467273" style="fill: #008000; stroke: #ffffff; stroke-width: 0.75"/>
    </g>
   </g>
   <g id="PathCollection_56">
    <g clip-path="url(#pd5ec77b251)">
     <use xlink:href="#m00466fa0da" x="267.370701" y="53.467273" style="fill: #008000; stroke: #ffffff; stroke-width: 0.75"/>
    </g>
   </g>
   <g id="PathCollection_57">
    <g clip-path="url(#pd5ec77b251)">
     <use xlink:href="#mde87aee0f5" x="177.963519" y="282.812727" style="fill: #ff0000; stroke: #ffffff; stroke-width: 0.75"/>
    </g>
   </g>
   <g id="PathCollection_58">
    <g clip-path="url(#pd5ec77b251)">
     <use xlink:href="#mde87aee0f5" x="261.713394" y="282.812727" style="fill: #ff0000; stroke: #ffffff; stroke-width: 0.75"/>
    </g>
   </g>
   <g id="PathCollection_59">
    <g clip-path="url(#pd5ec77b251)">
     <use xlink:href="#m00466fa0da" x="210.263564" y="53.467273" style="fill: #008000; stroke: #ffffff; stroke-width: 0.75"/>
    </g>
   </g>
   <g id="PathCollection_60">
    <g clip-path="url(#pd5ec77b251)">
     <use xlink:href="#m00466fa0da" x="272.346953" y="53.467273" style="fill: #008000; stroke: #ffffff; stroke-width: 0.75"/>
    </g>
   </g>
   <g id="PathCollection_61">
    <g clip-path="url(#pd5ec77b251)">
     <use xlink:href="#m00466fa0da" x="175.324996" y="53.467273" style="fill: #008000; stroke: #ffffff; stroke-width: 0.75"/>
    </g>
   </g>
   <g id="PathCollection_62">
    <g clip-path="url(#pd5ec77b251)">
     <use xlink:href="#m00466fa0da" x="255.625243" y="53.467273" style="fill: #008000; stroke: #ffffff; stroke-width: 0.75"/>
    </g>
   </g>
   <g id="PathCollection_63">
    <g clip-path="url(#pd5ec77b251)">
     <use xlink:href="#mde87aee0f5" x="148.265374" y="282.812727" style="fill: #ff0000; stroke: #ffffff; stroke-width: 0.75"/>
    </g>
   </g>
   <g id="PathCollection_64">
    <g clip-path="url(#pd5ec77b251)">
     <use xlink:href="#m00466fa0da" x="254.923739" y="53.467273" style="fill: #008000; stroke: #ffffff; stroke-width: 0.75"/>
    </g>
   </g>
   <g id="PathCollection_65">
    <g clip-path="url(#pd5ec77b251)">
     <use xlink:href="#mde87aee0f5" x="185.237684" y="282.812727" style="fill: #ff0000; stroke: #ffffff; stroke-width: 0.75"/>
    </g>
   </g>
   <g id="legend_1">
    <g id="patch_8">
     <path d="M 472.55 215.695 
L 623.335 215.695 
Q 626.535 215.695 626.535 212.495 
L 626.535 123.785 
Q 626.535 120.585 623.335 120.585 
L 472.55 120.585 
Q 469.35 120.585 469.35 123.785 
L 469.35 212.495 
Q 469.35 215.695 472.55 215.695 
z
" style="fill: #ffffff; opacity: 0.8; stroke: #cccccc; stroke-linejoin: miter"/>
    </g>
    <g id="line2d_13">
     <defs>
      <path id="m59c9b59466" d="M -2.52809 -0.10007 
Q -2.099719 -0.10007 -1.882022 0.602177 
Q -1.443118 1.91889 -1.257022 1.91889 
Q -1.113062 1.91889 -0.958567 1.701194 
Q 2.124298 -3.239115 4.747191 -6.286868 
Q 5.42486 -7.076896 6.906601 -7.076896 
Q 7.257725 -7.076896 7.377107 -7.010183 
Q 7.5 -6.94698 7.5 -6.848666 
Q 7.5 -6.694171 7.138343 -6.244733 
Q 2.903792 -1.153441 -0.719803 4.510183 
Q -0.972612 4.903441 -1.748596 4.903441 
Q -2.538624 4.903441 -2.682584 4.836728 
Q -3.054775 4.675211 -3.560393 3.158357 
Q -4.132725 1.479986 -4.132725 1.051615 
Q -4.132725 0.591643 -3.363764 0.163272 
Q -2.889747 -0.10007 -2.52809 -0.10007 
z
" style="stroke: #008000"/>
     </defs>
     <g>
      <use xlink:href="#m59c9b59466" x="491.75" y="132.81" style="fill: #008000; stroke: #008000"/>
     </g>
    </g>
    <g id="text_15">
     <!-- detected tone -->
     <g transform="translate(520.55 138.41)scale(0.16 -0.16)">
      <use xlink:href="#HelveticaNeue-64"/>
      <use xlink:href="#HelveticaNeue-65" x="59.299988"/>
      <use xlink:href="#HelveticaNeue-74" x="112.999985"/>
      <use xlink:href="#HelveticaNeue-65" x="144.499969"/>
      <use xlink:href="#HelveticaNeue-63" x="198.199966"/>
      <use xlink:href="#HelveticaNeue-74" x="251.899963"/>
      <use xlink:href="#HelveticaNeue-65" x="283.399948"/>
      <use xlink:href="#HelveticaNeue-64" x="337.099945"/>
      <use xlink:href="#HelveticaNeue-20" x="396.399933"/>
      <use xlink:href="#HelveticaNeue-74" x="424.199921"/>
      <use xlink:href="#HelveticaNeue-6f" x="455.699905"/>
      <use xlink:href="#HelveticaNeue-6e" x="513.099899"/>
      <use xlink:href="#HelveticaNeue-65" x="568.69989"/>
     </g>
    </g>
    <g id="line2d_14">
     <defs>
      <path id="m0d535667f0" d="M -2.75 5.5 
L 0 2.75 
L 2.75 5.5 
L 5.5 2.75 
L 2.75 0 
L 5.5 -2.75 
L 2.75 -5.5 
L 0 -2.75 
L -2.75 -5.5 
L -5.5 -2.75 
L -2.75 0 
L -5.5 2.75 
z
" style="stroke: #ffffff; stroke-linejoin: miter"/>
     </defs>
     <g>
      <use xlink:href="#m0d535667f0" x="491.75" y="155.3875" style="fill: #ff0000; stroke: #ffffff; stroke-linejoin: miter"/>
     </g>
    </g>
    <g id="text_16">
     <!-- missed tone -->
     <g transform="translate(520.55 160.9875)scale(0.16 -0.16)">
      <use xlink:href="#HelveticaNeue-6d"/>
      <use xlink:href="#HelveticaNeue-69" x="85.299988"/>
      <use xlink:href="#HelveticaNeue-73" x="107.499985"/>
      <use xlink:href="#HelveticaNeue-73" x="157.499969"/>
      <use xlink:href="#HelveticaNeue-65" x="207.499954"/>
      <use xlink:href="#HelveticaNeue-64" x="261.199951"/>
      <use xlink:href="#HelveticaNeue-20" x="320.499939"/>
      <use xlink:href="#HelveticaNeue-74" x="348.299927"/>
      <use xlink:href="#HelveticaNeue-6f" x="379.799911"/>
      <use xlink:href="#HelveticaNeue-6e" x="437.199905"/>
      <use xlink:href="#HelveticaNeue-65" x="492.799896"/>
     </g>
    </g>
    <g id="patch_9">
     <path d="M 475.75 183.565 
L 507.75 183.565 
L 507.75 172.365 
L 475.75 172.365 
L 475.75 183.565 
z
" style="fill: none"/>
    </g>
    <g id="text_17">
     <!--                -->
     <g transform="translate(520.55 183.565)scale(0.16 -0.16)">
      <use xlink:href="#HelveticaNeue-20"/>
      <use xlink:href="#HelveticaNeue-20" x="27.799988"/>
      <use xlink:href="#HelveticaNeue-20" x="55.599976"/>
      <use xlink:href="#HelveticaNeue-20" x="83.399963"/>
      <use xlink:href="#HelveticaNeue-20" x="111.199951"/>
      <use xlink:href="#HelveticaNeue-20" x="138.999939"/>
      <use xlink:href="#HelveticaNeue-20" x="166.799927"/>
      <use xlink:href="#HelveticaNeue-20" x="194.599915"/>
      <use xlink:href="#HelveticaNeue-20" x="222.399902"/>
      <use xlink:href="#HelveticaNeue-20" x="250.19989"/>
      <use xlink:href="#HelveticaNeue-20" x="277.999878"/>
      <use xlink:href="#HelveticaNeue-20" x="305.799866"/>
      <use xlink:href="#HelveticaNeue-20" x="333.599854"/>
      <use xlink:href="#HelveticaNeue-20" x="361.399841"/>
     </g>
    </g>
    <g id="line2d_15">
     <defs>
      <path id="m317de90a5c" d="M 0 3.5 
C 0.928211 3.5 1.81853 3.131218 2.474874 2.474874 
C 3.131218 1.81853 3.5 0.928211 3.5 0 
C 3.5 -0.928211 3.131218 -1.81853 2.474874 -2.474874 
C 1.81853 -3.131218 0.928211 -3.5 0 -3.5 
C -0.928211 -3.5 -1.81853 -3.131218 -2.474874 -2.474874 
C -3.131218 -1.81853 -3.5 -0.928211 -3.5 0 
C -3.5 0.928211 -3.131218 1.81853 -2.474874 2.474874 
C -1.81853 3.131218 -0.928211 3.5 0 3.5 
z
" style="stroke: #000000"/>
     </defs>
     <g>
      <use xlink:href="#m317de90a5c" x="491.75" y="200.5425" style="stroke: #000000"/>
     </g>
    </g>
    <g id="text_18">
     <!-- p50 -->
     <g transform="translate(520.55 206.1425)scale(0.16 -0.16)">
      <use xlink:href="#HelveticaNeue-70"/>
      <use xlink:href="#HelveticaNeue-35" x="59.299988"/>
      <use xlink:href="#HelveticaNeue-30" x="114.899979"/>
     </g>
    </g>
   </g>
  </g>
 </g>
 <defs>
  <clipPath id="pd5ec77b251">
   <rect x="74.18" y="42" width="387.17" height="252.28"/>
  </clipPath>
 </defs>
</svg>
