<?xml version="1.0" encoding="utf-8" standalone="no"?>
<!DOCTYPE svg PUBLIC "-//W3C//DTD SVG 1.1//EN"
  "http://www.w3.org/Graphics/SVG/1.1/DTD/svg11.dtd">
<svg xmlns:xlink="http://www.w3.org/1999/xlink" width="648pt" height="360pt" viewBox="0 0 648 360" xmlns="http://www.w3.org/2000/svg" version="1.1">
 <metadata>
  <rdf:RDF xmlns:dc="http://purl.org/dc/elements/1.1/" xmlns:cc="http://creativecommons.org/ns#" xmlns:rdf="http://www.w3.org/1999/02/22-rdf-syntax-ns#">
   <cc:Work>
    <dc:type rdf:resource="http://purl.org/dc/dcmitype/StillImage"/>
    <dc:date>2023-07-30T14:38:24.641374</dc:date>
    <dc:format>image/svg+xml</dc:format>
    <dc:creator>
     <cc:Agent>
      <dc:title>Matplotlib v3.5.1, https://matplotlib.org/</dc:title>
     </cc:Agent>
    </dc:creator>
   </cc:Work>
  </rdf:RDF>
 </metadata>
 <defs>
  <style type="text/css">*{stroke-linejoin: round; stroke-linecap: butt}</style>
 </defs>
 <g id="figure_1">
  <g id="patch_1">
   <path d="M 0 360 
L 648 360 
L 648 0 
L 0 0 
z
" style="fill: #ffffff"/>
  </g>
  <g id="axes_1">
   <g id="patch_2">
    <path d="M 65.99 305.08 
L 630.72 305.08 
L 630.72 34.8 
L 65.99 34.8 
z
" style="fill: #ffffff"/>
   </g>
   <g id="LineCollection_1">
    <path d="M 234.3147 204.148798 
L 234.3147 196.641806 
" clip-path="url(#p09a7a83073)" style="fill: none; stroke: #808080; stroke-opacity: 0.7; stroke-width: 1.5"/>
   </g>
   <g id="LineCollection_2">
    <path d="M 220.16311 163.183 
L 220.16311 197.484046 
" clip-path="url(#p09a7a83073)" style="fill: none; stroke: #808080; stroke-opacity: 0.7; stroke-width: 1.5"/>
   </g>
   <g id="LineCollection_3">
    <path d="M 277.21973 179.530388 
L 277.21973 165.884993 
" clip-path="url(#p09a7a83073)" style="fill: none; stroke: #808080; stroke-opacity: 0.7; stroke-width: 1.5"/>
   </g>
   <g id="LineCollection_4">
    <path d="M 170.110705 180.011439 
L 170.110705 151.183268 
" clip-path="url(#p09a7a83073)" style="fill: none; stroke: #808080; stroke-opacity: 0.7; stroke-width: 1.5"/>
   </g>
   <g id="LineCollection_5">
    <path d="M 248.681491 170.897208 
L 248.681491 188.345526 
" clip-path="url(#p09a7a83073)" style="fill: none; stroke: #808080; stroke-opacity: 0.7; stroke-width: 1.5"/>
   </g>
   <g id="LineCollection_6">
    <path d="M 509.493842 159.63067 
L 509.493842 125.055685 
" clip-path="url(#p09a7a83073)" style="fill: none; stroke: #808080; stroke-opacity: 0.7; stroke-width: 1.5"/>
   </g>
   <g id="LineCollection_7">
    <path d="M 288.344593 175.033048 
L 288.344593 159.041525 
" clip-path="url(#p09a7a83073)" style="fill: none; stroke: #808080; stroke-opacity: 0.7; stroke-width: 1.5"/>
   </g>
   <g id="LineCollection_8">
    <path d="M 573.665045 156.484309 
L 573.665045 139.978793 
" clip-path="url(#p09a7a83073)" style="fill: none; stroke: #808080; stroke-opacity: 0.7; stroke-width: 1.5"/>
   </g>
   <g id="LineCollection_9">
    <path d="M 402.534742 174.726044 
L 402.534742 161.303703 
" clip-path="url(#p09a7a83073)" style="fill: none; stroke: #808080; stroke-opacity: 0.7; stroke-width: 1.5"/>
   </g>
   <g id="LineCollection_10">
    <path d="M 388.293186 172.26026 
L 388.293186 168.954698 
" clip-path="url(#p09a7a83073)" style="fill: none; stroke: #808080; stroke-opacity: 0.7; stroke-width: 1.5"/>
   </g>
   <g id="LineCollection_11">
    <path d="M 238.292188 204.359264 
L 238.292188 195.009355 
" clip-path="url(#p09a7a83073)" style="fill: none; stroke: #808080; stroke-opacity: 0.7; stroke-width: 1.5"/>
   </g>
   <g id="LineCollection_12">
    <path d="M 459.575216 169.94 
L 459.575216 139.304023 
" clip-path="url(#p09a7a83073)" style="fill: none; stroke: #808080; stroke-opacity: 0.7; stroke-width: 1.5"/>
   </g>
   <g id="LineCollection_13">
    <path d="M 559.401156 137.790615 
L 559.401156 138.402313 
" clip-path="url(#p09a7a83073)" style="fill: none; stroke: #808080; stroke-opacity: 0.7; stroke-width: 1.5"/>
   </g>
   <g id="LineCollection_14">
    <path d="M 338.330072 163.079121 
L 338.330072 163.889103 
" clip-path="url(#p09a7a83073)" style="fill: none; stroke: #808080; stroke-opacity: 0.7; stroke-width: 1.5"/>
   </g>
   <g id="LineCollection_15">
    <path d="M 341.241008 159.237466 
L 341.241008 165.360947 
" clip-path="url(#p09a7a83073)" style="fill: none; stroke: #808080; stroke-opacity: 0.7; stroke-width: 1.5"/>
   </g>
   <g id="LineCollection_16">
    <path d="M 426.871526 172.628578 
L 426.871526 146.874716 
" clip-path="url(#p09a7a83073)" style="fill: none; stroke: #808080; stroke-opacity: 0.7; stroke-width: 1.5"/>
   </g>
   <g id="LineCollection_17">
    <path d="M 184.417669 170.347661 
L 184.417669 164.366944 
" clip-path="url(#p09a7a83073)" style="fill: none; stroke: #808080; stroke-opacity: 0.7; stroke-width: 1.5"/>
   </g>
   <g id="LineCollection_18">
    <path d="M 291.319301 177.350344 
L 291.319301 157.787477 
" clip-path="url(#p09a7a83073)" style="fill: none; stroke: #808080; stroke-opacity: 0.7; stroke-width: 1.5"/>
   </g>
   <g id="LineCollection_19">
    <path d="M 476.771355 160.219082 
L 476.771355 137.680563 
" clip-path="url(#p09a7a83073)" style="fill: none; stroke: #808080; stroke-opacity: 0.7; stroke-width: 1.5"/>
   </g>
   <g id="LineCollection_20">
    <path d="M 355.547972 162.858877 
L 355.547972 171.532756 
" clip-path="url(#p09a7a83073)" style="fill: none; stroke: #808080; stroke-opacity: 0.7; stroke-width: 1.5"/>
   </g>
   <g id="LineCollection_21">
    <path d="M 583.747742 159.794621 
L 583.747742 135.031978 
" clip-path="url(#p09a7a83073)" style="fill: none; stroke: #808080; stroke-opacity: 0.7; stroke-width: 1.5"/>
   </g>
   <g id="LineCollection_22">
    <path d="M 555.22159 140.134157 
L 555.22159 136.51342 
" clip-path="url(#p09a7a83073)" style="fill: none; stroke: #808080; stroke-opacity: 0.7; stroke-width: 1.5"/>
   </g>
   <g id="LineCollection_23">
    <path d="M 262.789848 188.336929 
L 262.789848 176.944186 
" clip-path="url(#p09a7a83073)" style="fill: none; stroke: #808080; stroke-opacity: 0.7; stroke-width: 1.5"/>
   </g>
   <g id="LineCollection_24">
    <path d="M 120.580264 178.696798 
L 120.580264 169.930819 
" clip-path="url(#p09a7a83073)" style="fill: none; stroke: #808080; stroke-opacity: 0.7; stroke-width: 1.5"/>
   </g>
   <g id="LineCollection_25">
    <path d="M 369.828565 164.954329 
L 369.828565 173.538916 
" clip-path="url(#p09a7a83073)" style="fill: none; stroke: #808080; stroke-opacity: 0.7; stroke-width: 1.5"/>
   </g>
   <g id="LineCollection_26">
    <path d="M 134.597958 163.183 
L 134.597958 158.452342 
" clip-path="url(#p09a7a83073)" style="fill: none; stroke: #808080; stroke-opacity: 0.7; stroke-width: 1.5"/>
   </g>
   <g id="LineCollection_27">
    <path d="M 100.24215 144.206709 
L 100.24215 182.409803 
" clip-path="url(#p09a7a83073)" style="fill: none; stroke: #808080; stroke-opacity: 0.7; stroke-width: 1.5"/>
   </g>
   <g id="LineCollection_28">
    <path d="M 285.501997 180.370659 
L 285.501997 160.696552 
" clip-path="url(#p09a7a83073)" style="fill: none; stroke: #808080; stroke-opacity: 0.7; stroke-width: 1.5"/>
   </g>
   <g id="LineCollection_29">
    <path d="M 114.166124 119.34452 
L 114.166124 174.727519 
" clip-path="url(#p09a7a83073)" style="fill: none; stroke: #808080; stroke-opacity: 0.7; stroke-width: 1.5"/>
   </g>
   <g id="LineCollection_30">
    <path d="M 385.218221 163.841837 
L 385.218221 170.249245 
" clip-path="url(#p09a7a83073)" style="fill: none; stroke: #808080; stroke-opacity: 0.7; stroke-width: 1.5"/>
   </g>
   <g id="LineCollection_31">
    <path d="M 335.348832 128.324611 
L 335.348832 162.386359 
" clip-path="url(#p09a7a83073)" style="fill: none; stroke: #808080; stroke-opacity: 0.7; stroke-width: 1.5"/>
   </g>
   <g id="LineCollection_32">
    <path d="M 142.695577 115.884 
L 142.695577 152.540543 
" clip-path="url(#p09a7a83073)" style="fill: none; stroke: #808080; stroke-opacity: 0.7; stroke-width: 1.5"/>
   </g>
   <g id="LineCollection_33">
    <path d="M 365.500442 168.52653 
L 365.500442 173.476777 
" clip-path="url(#p09a7a83073)" style="fill: none; stroke: #808080; stroke-opacity: 0.7; stroke-width: 1.5"/>
   </g>
   <g id="LineCollection_34">
    <path d="M 336.983882 168.172343 
L 336.983882 163.206235 
" clip-path="url(#p09a7a83073)" style="fill: none; stroke: #808080; stroke-opacity: 0.7; stroke-width: 1.5"/>
   </g>
   <g id="LineCollection_35">
    <path d="M 593.662416 140.159981 
L 593.662416 126.047528 
" clip-path="url(#p09a7a83073)" style="fill: none; stroke: #808080; stroke-opacity: 0.7; stroke-width: 1.5"/>
   </g>
   <g id="LineCollection_36">
    <path d="M 579.399541 158.669365 
L 579.399541 138.113856 
" clip-path="url(#p09a7a83073)" style="fill: none; stroke: #808080; stroke-opacity: 0.7; stroke-width: 1.5"/>
   </g>
   <g id="LineCollection_37">
    <path d="M 550.871608 157.088192 
L 550.871608 134.102858 
" clip-path="url(#p09a7a83073)" style="fill: none; stroke: #808080; stroke-opacity: 0.7; stroke-width: 1.5"/>
   </g>
   <g id="LineCollection_38">
    <path d="M 508.080341 162.0246 
L 508.080341 125.621724 
" clip-path="url(#p09a7a83073)" style="fill: none; stroke: #808080; stroke-opacity: 0.7; stroke-width: 1.5"/>
   </g>
   <g id="LineCollection_39">
    <path d="M 536.603883 183.454 
L 536.603883 125.893163 
" clip-path="url(#p09a7a83073)" style="fill: none; stroke: #808080; stroke-opacity: 0.7; stroke-width: 1.5"/>
   </g>
   <g id="LineCollection_40">
    <path d="M 379.789161 179.791178 
L 379.789161 172.065688 
" clip-path="url(#p09a7a83073)" style="fill: none; stroke: #808080; stroke-opacity: 0.7; stroke-width: 1.5"/>
   </g>
   <g id="LineCollection_41">
    <path d="M 408.288231 182.751572 
L 408.288231 157.680016 
" clip-path="url(#p09a7a83073)" style="fill: none; stroke: #808080; stroke-opacity: 0.7; stroke-width: 1.5"/>
   </g>
   <g id="LineCollection_42">
    <path d="M 522.352686 154.344472 
L 522.352686 122.438375 
" clip-path="url(#p09a7a83073)" style="fill: none; stroke: #808080; stroke-opacity: 0.7; stroke-width: 1.5"/>
   </g>
   <g id="LineCollection_43">
    <path d="M 297.993598 189.44643 
L 297.993598 155.446135 
" clip-path="url(#p09a7a83073)" style="fill: none; stroke: #808080; stroke-opacity: 0.7; stroke-width: 1.5"/>
   </g>
   <g id="LineCollection_44">
    <path d="M 148.438213 191.794872 
L 148.438213 149.610664 
" clip-path="url(#p09a7a83073)" style="fill: none; stroke: #808080; stroke-opacity: 0.7; stroke-width: 1.5"/>
   </g>
   <g id="LineCollection_45">
    <path d="M 483.353786 171.161134 
L 483.353786 136.024009 
" clip-path="url(#p09a7a83073)" style="fill: none; stroke: #808080; stroke-opacity: 0.7; stroke-width: 1.5"/>
   </g>
   <g id="LineCollection_46">
    <path d="M 105.649339 192.250913 
L 105.649339 179.988884 
" clip-path="url(#p09a7a83073)" style="fill: none; stroke: #808080; stroke-opacity: 0.7; stroke-width: 1.5"/>
   </g>
   <g id="LineCollection_47">
    <path d="M 404.899649 183.369514 
L 404.899649 159.832803 
" clip-path="url(#p09a7a83073)" style="fill: none; stroke: #808080; stroke-opacity: 0.7; stroke-width: 1.5"/>
   </g>
   <g id="LineCollection_48">
    <path d="M 133.898554 190.722138 
L 133.898554 158.973856 
" clip-path="url(#p09a7a83073)" style="fill: none; stroke: #808080; stroke-opacity: 0.7; stroke-width: 1.5"/>
   </g>
   <g id="LineCollection_49">
    <path d="M 91.659545 196.968 
L 91.659545 185.085645 
" clip-path="url(#p09a7a83073)" style="fill: none; stroke: #808080; stroke-opacity: 0.7; stroke-width: 1.5"/>
   </g>
   <g id="LineCollection_50">
    <path d="M 234.003364 212.822592 
L 234.003364 196.740802 
" clip-path="url(#p09a7a83073)" style="fill: none; stroke: #808080; stroke-opacity: 0.7; stroke-width: 1.5"/>
   </g>
   <g id="LineCollection_51">
    <path d="M 176.729929 202.392533 
L 176.729929 156.52413 
" clip-path="url(#p09a7a83073)" style="fill: none; stroke: #808080; stroke-opacity: 0.7; stroke-width: 1.5"/>
   </g>
   <g id="LineCollection_52">
    <path d="M 433.425384 190.765004 
L 433.425384 143.843625 
" clip-path="url(#p09a7a83073)" style="fill: none; stroke: #808080; stroke-opacity: 0.7; stroke-width: 1.5"/>
   </g>
   <g id="LineCollection_53">
    <path d="M 205.361639 217.351466 
L 205.361639 188.156554 
" clip-path="url(#p09a7a83073)" style="fill: none; stroke: #808080; stroke-opacity: 0.7; stroke-width: 1.5"/>
   </g>
   <g id="PathCollection_1">
    <defs>
     <path id="m92cc8bc5af" d="M -3.370787 -0.133427 
Q -2.799625 -0.133427 -2.509363 0.802903 
Q -1.924157 2.558521 -1.67603 2.558521 
Q -1.484082 2.558521 -1.27809 2.268258 
Q 2.832397 -4.31882 6.329588 -8.382491 
Q 7.233146 -9.435861 9.208801 -9.435861 
Q 9.676966 -9.435861 9.836142 -9.34691 
Q 10 -9.26264 10 -9.131554 
Q 10 -8.925562 9.51779 -8.326311 
Q 3.871723 -1.537921 -0.959738 6.013577 
Q -1.296816 6.537921 -2.331461 6.537921 
Q -3.384831 6.537921 -3.576779 6.44897 
Q -4.073034 6.233614 -4.747191 4.211142 
Q -5.5103 1.973315 -5.5103 1.402154 
Q -5.5103 0.788858 -4.485019 0.217697 
Q -3.852996 -0.133427 -3.370787 -0.133427 
z
" style="stroke: #ffffff; stroke-width: 0.5"/>
    </defs>
    <g clip-path="url(#p09a7a83073)">
     <use xlink:href="#m92cc8bc5af" x="234.3147" y="204.148798" style="fill: #008000; stroke: #ffffff; stroke-width: 0.5"/>
    </g>
   </g>
   <g id="PathCollection_2">
    <defs>
     <path id="macc5078f1b" d="M -2.5 5 
L 0 2.5 
L 2.5 5 
L 5 2.5 
L 2.5 0 
L 5 -2.5 
L 2.5 -5 
L 0 -2.5 
L -2.5 -5 
L -5 -2.5 
L -2.5 0 
L -5 2.5 
z
" style="stroke: #ffffff; stroke-width: 0.5"/>
    </defs>
    <g clip-path="url(#p09a7a83073)">
     <use xlink:href="#macc5078f1b" x="220.16311" y="163.183" style="fill: #ff0000; stroke: #ffffff; stroke-width: 0.5"/>
    </g>
   </g>
   <g id="PathCollection_3">
    <g clip-path="url(#p09a7a83073)">
     <use xlink:href="#m92cc8bc5af" x="277.21973" y="179.530388" style="fill: #008000; stroke: #ffffff; stroke-width: 0.5"/>
    </g>
   </g>
   <g id="PathCollection_4">
    <g clip-path="url(#p09a7a83073)">
     <use xlink:href="#m92cc8bc5af" x="170.110705" y="180.011439" style="fill: #008000; stroke: #ffffff; stroke-width: 0.5"/>
    </g>
   </g>
   <g id="PathCollection_5">
    <g clip-path="url(#p09a7a83073)">
     <use xlink:href="#macc5078f1b" x="248.681491" y="170.897208" style="fill: #ff0000; stroke: #ffffff; stroke-width: 0.5"/>
    </g>
   </g>
   <g id="PathCollection_6">
    <g clip-path="url(#p09a7a83073)">
     <use xlink:href="#m92cc8bc5af" x="509.493842" y="159.63067" style="fill: #008000; stroke: #ffffff; stroke-width: 0.5"/>
    </g>
   </g>
   <g id="PathCollection_7">
    <g clip-path="url(#p09a7a83073)">
     <use xlink:href="#macc5078f1b" x="288.344593" y="175.033048" style="fill: #ff0000; stroke: #ffffff; stroke-width: 0.5"/>
    </g>
   </g>
   <g id="PathCollection_8">
    <g clip-path="url(#p09a7a83073)">
     <use xlink:href="#m92cc8bc5af" x="573.665045" y="156.484309" style="fill: #008000; stroke: #ffffff; stroke-width: 0.5"/>
    </g>
   </g>
   <g id="PathCollection_9">
    <g clip-path="url(#p09a7a83073)">
     <use xlink:href="#macc5078f1b" x="402.534742" y="174.726044" style="fill: #ff0000; stroke: #ffffff; stroke-width: 0.5"/>
    </g>
   </g>
   <g id="PathCollection_10">
    <g clip-path="url(#p09a7a83073)">
     <use xlink:href="#macc5078f1b" x="388.293186" y="172.26026" style="fill: #ff0000; stroke: #ffffff; stroke-width: 0.5"/>
    </g>
   </g>
   <g id="PathCollection_11">
    <g clip-path="url(#p09a7a83073)">
     <use xlink:href="#m92cc8bc5af" x="238.292188" y="204.359264" style="fill: #008000; stroke: #ffffff; stroke-width: 0.5"/>
    </g>
   </g>
   <g id="PathCollection_12">
    <g clip-path="url(#p09a7a83073)">
     <use xlink:href="#m92cc8bc5af" x="459.575216" y="169.94" style="fill: #008000; stroke: #ffffff; stroke-width: 0.5"/>
    </g>
   </g>
   <g id="PathCollection_13">
    <g clip-path="url(#p09a7a83073)">
     <use xlink:href="#m92cc8bc5af" x="559.401156" y="137.790615" style="fill: #008000; stroke: #ffffff; stroke-width: 0.5"/>
    </g>
   </g>
   <g id="PathCollection_14">
    <g clip-path="url(#p09a7a83073)">
     <use xlink:href="#macc5078f1b" x="338.330072" y="163.079121" style="fill: #ff0000; stroke: #ffffff; stroke-width: 0.5"/>
    </g>
   </g>
   <g id="PathCollection_15">
    <g clip-path="url(#p09a7a83073)">
     <use xlink:href="#macc5078f1b" x="341.241008" y="159.237466" style="fill: #ff0000; stroke: #ffffff; stroke-width: 0.5"/>
    </g>
   </g>
   <g id="PathCollection_16">
    <g clip-path="url(#p09a7a83073)">
     <use xlink:href="#m92cc8bc5af" x="426.871526" y="172.628578" style="fill: #008000; stroke: #ffffff; stroke-width: 0.5"/>
    </g>
   </g>
   <g id="PathCollection_17">
    <g clip-path="url(#p09a7a83073)">
     <use xlink:href="#m92cc8bc5af" x="184.417669" y="170.347661" style="fill: #008000; stroke: #ffffff; stroke-width: 0.5"/>
    </g>
   </g>
   <g id="PathCollection_18">
    <g clip-path="url(#p09a7a83073)">
     <use xlink:href="#m92cc8bc5af" x="291.319301" y="177.350344" style="fill: #008000; stroke: #ffffff; stroke-width: 0.5"/>
    </g>
   </g>
   <g id="PathCollection_19">
    <g clip-path="url(#p09a7a83073)">
     <use xlink:href="#m92cc8bc5af" x="476.771355" y="160.219082" style="fill: #008000; stroke: #ffffff; stroke-width: 0.5"/>
    </g>
   </g>
   <g id="PathCollection_20">
    <g clip-path="url(#p09a7a83073)">
     <use xlink:href="#m92cc8bc5af" x="355.547972" y="162.858877" style="fill: #008000; stroke: #ffffff; stroke-width: 0.5"/>
    </g>
   </g>
   <g id="PathCollection_21">
    <g clip-path="url(#p09a7a83073)">
     <use xlink:href="#macc5078f1b" x="583.747742" y="159.794621" style="fill: #ff0000; stroke: #ffffff; stroke-width: 0.5"/>
    </g>
   </g>
   <g id="PathCollection_22">
    <g clip-path="url(#p09a7a83073)">
     <use xlink:href="#m92cc8bc5af" x="555.22159" y="140.134157" style="fill: #008000; stroke: #ffffff; stroke-width: 0.5"/>
    </g>
   </g>
   <g id="PathCollection_23">
    <g clip-path="url(#p09a7a83073)">
     <use xlink:href="#m92cc8bc5af" x="262.789848" y="188.336929" style="fill: #008000; stroke: #ffffff; stroke-width: 0.5"/>
    </g>
   </g>
   <g id="PathCollection_24">
    <g clip-path="url(#p09a7a83073)">
     <use xlink:href="#m92cc8bc5af" x="120.580264" y="178.696798" style="fill: #008000; stroke: #ffffff; stroke-width: 0.5"/>
    </g>
   </g>
   <g id="PathCollection_25">
    <g clip-path="url(#p09a7a83073)">
     <use xlink:href="#m92cc8bc5af" x="369.828565" y="164.954329" style="fill: #008000; stroke: #ffffff; stroke-width: 0.5"/>
    </g>
   </g>
   <g id="PathCollection_26">
    <g clip-path="url(#p09a7a83073)">
     <use xlink:href="#macc5078f1b" x="134.597958" y="163.183" style="fill: #ff0000; stroke: #ffffff; stroke-width: 0.5"/>
    </g>
   </g>
   <g id="PathCollection_27">
    <g clip-path="url(#p09a7a83073)">
     <use xlink:href="#macc5078f1b" x="100.24215" y="144.206709" style="fill: #ff0000; stroke: #ffffff; stroke-width: 0.5"/>
    </g>
   </g>
   <g id="PathCollection_28">
    <g clip-path="url(#p09a7a83073)">
     <use xlink:href="#macc5078f1b" x="285.501997" y="180.370659" style="fill: #ff0000; stroke: #ffffff; stroke-width: 0.5"/>
    </g>
   </g>
   <g id="PathCollection_29">
    <g clip-path="url(#p09a7a83073)">
     <use xlink:href="#macc5078f1b" x="114.166124" y="119.34452" style="fill: #ff0000; stroke: #ffffff; stroke-width: 0.5"/>
    </g>
   </g>
   <g id="PathCollection_30">
    <g clip-path="url(#p09a7a83073)">
     <use xlink:href="#m92cc8bc5af" x="385.218221" y="163.841837" style="fill: #008000; stroke: #ffffff; stroke-width: 0.5"/>
    </g>
   </g>
   <g id="PathCollection_31">
    <g clip-path="url(#p09a7a83073)">
     <use xlink:href="#macc5078f1b" x="335.348832" y="128.324611" style="fill: #ff0000; stroke: #ffffff; stroke-width: 0.5"/>
    </g>
   </g>
   <g id="PathCollection_32">
    <g clip-path="url(#p09a7a83073)">
     <use xlink:href="#macc5078f1b" x="142.695577" y="115.884" style="fill: #ff0000; stroke: #ffffff; stroke-width: 0.5"/>
    </g>
   </g>
   <g id="PathCollection_33">
    <g clip-path="url(#p09a7a83073)">
     <use xlink:href="#m92cc8bc5af" x="365.500442" y="168.52653" style="fill: #008000; stroke: #ffffff; stroke-width: 0.5"/>
    </g>
   </g>
   <g id="PathCollection_34">
    <g clip-path="url(#p09a7a83073)">
     <use xlink:href="#m92cc8bc5af" x="336.983882" y="168.172343" style="fill: #008000; stroke: #ffffff; stroke-width: 0.5"/>
    </g>
   </g>
   <g id="PathCollection_35">
    <g clip-path="url(#p09a7a83073)">
     <use xlink:href="#macc5078f1b" x="593.662416" y="140.159981" style="fill: #ff0000; stroke: #ffffff; stroke-width: 0.5"/>
    </g>
   </g>
   <g id="PathCollection_36">
    <g clip-path="url(#p09a7a83073)">
     <use xlink:href="#macc5078f1b" x="579.399541" y="158.669365" style="fill: #ff0000; stroke: #ffffff; stroke-width: 0.5"/>
    </g>
   </g>
   <g id="PathCollection_37">
    <g clip-path="url(#p09a7a83073)">
     <use xlink:href="#m92cc8bc5af" x="550.871608" y="157.088192" style="fill: #008000; stroke: #ffffff; stroke-width: 0.5"/>
    </g>
   </g>
   <g id="PathCollection_38">
    <g clip-path="url(#p09a7a83073)">
     <use xlink:href="#m92cc8bc5af" x="508.080341" y="162.0246" style="fill: #008000; stroke: #ffffff; stroke-width: 0.5"/>
    </g>
   </g>
   <g id="PathCollection_39">
    <g clip-path="url(#p09a7a83073)">
     <use xlink:href="#m92cc8bc5af" x="536.603883" y="183.454" style="fill: #008000; stroke: #ffffff; stroke-width: 0.5"/>
    </g>
   </g>
   <g id="PathCollection_40">
    <g clip-path="url(#p09a7a83073)">
     <use xlink:href="#m92cc8bc5af" x="379.789161" y="179.791178" style="fill: #008000; stroke: #ffffff; stroke-width: 0.5"/>
    </g>
   </g>
   <g id="PathCollection_41">
    <g clip-path="url(#p09a7a83073)">
     <use xlink:href="#macc5078f1b" x="408.288231" y="182.751572" style="fill: #ff0000; stroke: #ffffff; stroke-width: 0.5"/>
    </g>
   </g>
   <g id="PathCollection_42">
    <g clip-path="url(#p09a7a83073)">
     <use xlink:href="#macc5078f1b" x="522.352686" y="154.344472" style="fill: #ff0000; stroke: #ffffff; stroke-width: 0.5"/>
    </g>
   </g>
   <g id="PathCollection_43">
    <g clip-path="url(#p09a7a83073)">
     <use xlink:href="#m92cc8bc5af" x="297.993598" y="189.44643" style="fill: #008000; stroke: #ffffff; stroke-width: 0.5"/>
    </g>
   </g>
   <g id="PathCollection_44">
    <g clip-path="url(#p09a7a83073)">
     <use xlink:href="#m92cc8bc5af" x="148.438213" y="191.794872" style="fill: #008000; stroke: #ffffff; stroke-width: 0.5"/>
    </g>
   </g>
   <g id="PathCollection_45">
    <g clip-path="url(#p09a7a83073)">
     <use xlink:href="#m92cc8bc5af" x="483.353786" y="171.161134" style="fill: #008000; stroke: #ffffff; stroke-width: 0.5"/>
    </g>
   </g>
   <g id="PathCollection_46">
    <g clip-path="url(#p09a7a83073)">
     <use xlink:href="#m92cc8bc5af" x="105.649339" y="192.250913" style="fill: #008000; stroke: #ffffff; stroke-width: 0.5"/>
    </g>
   </g>
   <g id="PathCollection_47">
    <g clip-path="url(#p09a7a83073)">
     <use xlink:href="#macc5078f1b" x="404.899649" y="183.369514" style="fill: #ff0000; stroke: #ffffff; stroke-width: 0.5"/>
    </g>
   </g>
   <g id="PathCollection_48">
    <g clip-path="url(#p09a7a83073)">
     <use xlink:href="#m92cc8bc5af" x="133.898554" y="190.722138" style="fill: #008000; stroke: #ffffff; stroke-width: 0.5"/>
    </g>
   </g>
   <g id="PathCollection_49">
    <g clip-path="url(#p09a7a83073)">
     <use xlink:href="#m92cc8bc5af" x="91.659545" y="196.968" style="fill: #008000; stroke: #ffffff; stroke-width: 0.5"/>
    </g>
   </g>
   <g id="PathCollection_50">
    <g clip-path="url(#p09a7a83073)">
     <use xlink:href="#m92cc8bc5af" x="234.003364" y="212.822592" style="fill: #008000; stroke: #ffffff; stroke-width: 0.5"/>
    </g>
   </g>
   <g id="PathCollection_51">
    <g clip-path="url(#p09a7a83073)">
     <use xlink:href="#m92cc8bc5af" x="176.729929" y="202.392533" style="fill: #008000; stroke: #ffffff; stroke-width: 0.5"/>
    </g>
   </g>
   <g id="PathCollection_52">
    <g clip-path="url(#p09a7a83073)">
     <use xlink:href="#m92cc8bc5af" x="433.425384" y="190.765004" style="fill: #008000; stroke: #ffffff; stroke-width: 0.5"/>
    </g>
   </g>
   <g id="PathCollection_53">
    <g clip-path="url(#p09a7a83073)">
     <use xlink:href="#m92cc8bc5af" x="205.361639" y="217.351466" style="fill: #008000; stroke: #ffffff; stroke-width: 0.5"/>
    </g>
   </g>
   <g id="matplotlib.axis_1">
    <g id="xtick_1">
     <g id="line2d_1">
      <defs>
       <path id="mbd3d358177" d="M 0 0 
L 0 3.5 
" style="stroke: #000000; stroke-width: 0.8"/>
      </defs>
      <g>
       <use xlink:href="#mbd3d358177" x="91.659545" y="305.08" style="stroke: #000000; stroke-width: 0.8"/>
      </g>
     </g>
     <g id="text_1">
      <!-- 125 -->
      <g transform="translate(79.984858 322.076875)scale(0.14 -0.14)">
       <defs>
        <path id="HelveticaNeue-31" d="M 2278 0 
L 2278 4538 
L 1862 4538 
Q 1818 4282 1696 4115 
Q 1574 3949 1398 3853 
Q 1222 3757 1004 3721 
Q 787 3686 557 3686 
L 557 3251 
L 1734 3251 
L 1734 0 
L 2278 0 
z
" transform="scale(0.015625)"/>
        <path id="HelveticaNeue-32" d="M 282 2931 
L 826 2931 
Q 819 3136 867 3337 
Q 915 3539 1024 3699 
Q 1133 3859 1302 3958 
Q 1472 4058 1709 4058 
Q 1888 4058 2048 4000 
Q 2208 3942 2326 3833 
Q 2445 3725 2515 3574 
Q 2586 3424 2586 3238 
Q 2586 3002 2512 2822 
Q 2438 2643 2294 2489 
Q 2150 2336 1932 2185 
Q 1715 2035 1427 1856 
Q 1190 1715 972 1555 
Q 755 1395 582 1184 
Q 410 973 298 688 
Q 186 403 154 0 
L 3117 0 
L 3117 480 
L 787 480 
Q 826 691 950 854 
Q 1075 1018 1251 1158 
Q 1427 1299 1638 1424 
Q 1850 1549 2061 1677 
Q 2272 1811 2470 1958 
Q 2669 2106 2822 2288 
Q 2976 2470 3069 2700 
Q 3162 2931 3162 3232 
Q 3162 3552 3050 3795 
Q 2938 4038 2746 4201 
Q 2554 4365 2294 4451 
Q 2035 4538 1741 4538 
Q 1382 4538 1100 4416 
Q 819 4294 630 4080 
Q 442 3866 352 3571 
Q 262 3277 282 2931 
z
" transform="scale(0.015625)"/>
        <path id="HelveticaNeue-35" d="M 3008 3981 
L 3008 4461 
L 768 4461 
L 346 2106 
L 813 2080 
Q 973 2272 1181 2390 
Q 1389 2509 1658 2509 
Q 1888 2509 2077 2432 
Q 2266 2355 2400 2217 
Q 2534 2080 2608 1891 
Q 2682 1702 2682 1478 
Q 2682 1210 2605 1008 
Q 2528 806 2397 672 
Q 2266 538 2090 470 
Q 1914 403 1722 403 
Q 1517 403 1347 464 
Q 1178 525 1053 637 
Q 928 749 854 899 
Q 781 1050 768 1222 
L 224 1222 
Q 230 915 345 672 
Q 461 429 659 265 
Q 858 102 1117 16 
Q 1376 -70 1670 -70 
Q 2067 -70 2364 54 
Q 2662 179 2860 390 
Q 3059 602 3158 874 
Q 3258 1146 3258 1434 
Q 3258 1824 3142 2115 
Q 3027 2406 2828 2601 
Q 2630 2797 2361 2893 
Q 2093 2989 1792 2989 
Q 1562 2989 1328 2909 
Q 1094 2829 947 2662 
L 934 2675 
L 1178 3981 
L 3008 3981 
z
" transform="scale(0.015625)"/>
       </defs>
       <use xlink:href="#HelveticaNeue-31"/>
       <use xlink:href="#HelveticaNeue-32" x="55.599991"/>
       <use xlink:href="#HelveticaNeue-35" x="111.199982"/>
      </g>
     </g>
    </g>
    <g id="xtick_2">
     <g id="line2d_2">
      <g>
       <use xlink:href="#mbd3d358177" x="348.355" y="305.08" style="stroke: #000000; stroke-width: 0.8"/>
      </g>
     </g>
     <g id="text_2">
      <!-- 1000 -->
      <g transform="translate(332.78875 322.076875)scale(0.14 -0.14)">
       <defs>
        <path id="HelveticaNeue-30" d="M 845 2234 
Q 845 2400 848 2601 
Q 851 2803 880 3004 
Q 909 3206 963 3398 
Q 1018 3590 1123 3734 
Q 1229 3878 1389 3968 
Q 1549 4058 1779 4058 
Q 2010 4058 2170 3968 
Q 2330 3878 2435 3734 
Q 2541 3590 2595 3398 
Q 2650 3206 2678 3004 
Q 2707 2803 2710 2601 
Q 2714 2400 2714 2234 
Q 2714 1978 2698 1661 
Q 2682 1344 2595 1065 
Q 2509 787 2317 595 
Q 2125 403 1779 403 
Q 1434 403 1242 595 
Q 1050 787 963 1065 
Q 877 1344 861 1661 
Q 845 1978 845 2234 
z
M 269 2227 
Q 269 1978 281 1709 
Q 294 1440 345 1184 
Q 397 928 493 701 
Q 589 474 755 301 
Q 922 128 1174 29 
Q 1427 -70 1779 -70 
Q 2138 -70 2387 29 
Q 2637 128 2803 301 
Q 2970 474 3066 701 
Q 3162 928 3213 1184 
Q 3264 1440 3277 1709 
Q 3290 1978 3290 2227 
Q 3290 2477 3277 2745 
Q 3264 3014 3213 3270 
Q 3162 3526 3066 3756 
Q 2970 3987 2803 4160 
Q 2637 4333 2384 4435 
Q 2131 4538 1779 4538 
Q 1427 4538 1174 4435 
Q 922 4333 755 4160 
Q 589 3987 493 3756 
Q 397 3526 345 3270 
Q 294 3014 281 2745 
Q 269 2477 269 2227 
z
" transform="scale(0.015625)"/>
       </defs>
       <use xlink:href="#HelveticaNeue-31"/>
       <use xlink:href="#HelveticaNeue-30" x="55.599991"/>
       <use xlink:href="#HelveticaNeue-30" x="111.199982"/>
       <use xlink:href="#HelveticaNeue-30" x="166.799973"/>
      </g>
     </g>
    </g>
    <g id="xtick_3">
     <g id="line2d_3">
      <g>
       <use xlink:href="#mbd3d358177" x="605.050455" y="305.08" style="stroke: #000000; stroke-width: 0.8"/>
      </g>
     </g>
     <g id="text_3">
      <!-- 8000 -->
      <g transform="translate(589.484205 322.076875)scale(0.14 -0.14)">
       <defs>
        <path id="HelveticaNeue-38" d="M 992 3360 
Q 992 3533 1056 3661 
Q 1120 3789 1225 3878 
Q 1331 3968 1478 4013 
Q 1626 4058 1786 4058 
Q 2118 4058 2332 3882 
Q 2547 3706 2547 3360 
Q 2547 3014 2336 2822 
Q 2125 2630 1798 2630 
Q 1632 2630 1485 2675 
Q 1338 2720 1229 2809 
Q 1120 2899 1056 3036 
Q 992 3174 992 3360 
z
M 416 3379 
Q 416 3072 589 2813 
Q 762 2554 1050 2438 
Q 666 2304 461 2006 
Q 256 1709 256 1306 
Q 256 960 374 701 
Q 493 442 701 269 
Q 909 96 1190 13 
Q 1472 -70 1798 -70 
Q 2112 -70 2387 19 
Q 2662 109 2864 285 
Q 3066 461 3184 717 
Q 3302 973 3302 1306 
Q 3302 1728 3104 2019 
Q 2906 2310 2496 2438 
Q 2784 2566 2953 2819 
Q 3123 3072 3123 3379 
Q 3123 3597 3046 3805 
Q 2970 4013 2806 4176 
Q 2643 4339 2380 4438 
Q 2118 4538 1747 4538 
Q 1485 4538 1245 4461 
Q 1005 4384 819 4237 
Q 634 4090 525 3875 
Q 416 3661 416 3379 
z
M 832 1280 
Q 832 1478 905 1638 
Q 979 1798 1110 1913 
Q 1242 2029 1418 2089 
Q 1594 2150 1792 2150 
Q 1984 2150 2153 2083 
Q 2323 2016 2451 1901 
Q 2579 1786 2652 1629 
Q 2726 1472 2726 1286 
Q 2726 1094 2659 934 
Q 2592 774 2467 656 
Q 2342 538 2172 470 
Q 2003 403 1798 403 
Q 1376 403 1104 636 
Q 832 870 832 1280 
z
" transform="scale(0.015625)"/>
       </defs>
       <use xlink:href="#HelveticaNeue-38"/>
       <use xlink:href="#HelveticaNeue-30" x="55.599991"/>
       <use xlink:href="#HelveticaNeue-30" x="111.199982"/>
       <use xlink:href="#HelveticaNeue-30" x="166.799973"/>
      </g>
     </g>
    </g>
    <g id="text_4">
     <!-- Frequency (in Hz) -->
     <g transform="translate(290.158516 339.799375)scale(0.15 -0.15)">
      <defs>
       <path id="HelveticaNeue-46" d="M 499 4570 
L 499 0 
L 1107 0 
L 1107 2093 
L 3206 2093 
L 3206 2605 
L 1107 2605 
L 1107 4058 
L 3501 4058 
L 3501 4570 
L 499 4570 
z
" transform="scale(0.015625)"/>
       <path id="HelveticaNeue-72" d="M 390 3309 
L 390 0 
L 934 0 
L 934 1472 
Q 934 1792 998 2038 
Q 1062 2285 1203 2457 
Q 1344 2630 1574 2720 
Q 1805 2810 2131 2810 
L 2131 3386 
Q 1690 3398 1402 3206 
Q 1114 3014 915 2611 
L 902 2611 
L 902 3309 
L 390 3309 
z
" transform="scale(0.015625)"/>
       <path id="HelveticaNeue-65" d="M 2707 1971 
L 806 1971 
Q 819 2163 889 2332 
Q 960 2502 1081 2630 
Q 1203 2758 1372 2832 
Q 1542 2906 1754 2906 
Q 1958 2906 2128 2832 
Q 2298 2758 2422 2633 
Q 2547 2509 2620 2336 
Q 2694 2163 2707 1971 
z
M 3232 1050 
L 2694 1050 
Q 2624 723 2403 563 
Q 2182 403 1837 403 
Q 1568 403 1369 492 
Q 1171 582 1043 732 
Q 915 883 857 1078 
Q 800 1274 806 1491 
L 3283 1491 
Q 3296 1792 3229 2125 
Q 3162 2458 2986 2739 
Q 2810 3021 2518 3203 
Q 2227 3386 1786 3386 
Q 1446 3386 1161 3258 
Q 877 3130 669 2899 
Q 461 2669 345 2355 
Q 230 2042 230 1664 
Q 243 1286 342 966 
Q 442 646 640 416 
Q 838 186 1129 58 
Q 1421 -70 1818 -70 
Q 2381 -70 2752 211 
Q 3123 493 3232 1050 
z
" transform="scale(0.015625)"/>
       <path id="HelveticaNeue-71" d="M 806 1626 
Q 806 1869 857 2099 
Q 909 2330 1024 2509 
Q 1139 2688 1331 2797 
Q 1523 2906 1798 2906 
Q 2080 2906 2278 2800 
Q 2477 2694 2601 2521 
Q 2726 2349 2784 2121 
Q 2842 1894 2842 1651 
Q 2842 1421 2787 1197 
Q 2733 973 2611 797 
Q 2490 621 2298 512 
Q 2106 403 1830 403 
Q 1568 403 1373 505 
Q 1178 608 1053 781 
Q 928 954 867 1174 
Q 806 1395 806 1626 
z
M 3366 -1261 
L 3366 3309 
L 2822 3309 
L 2822 2867 
L 2810 2867 
Q 2720 3014 2589 3113 
Q 2458 3213 2310 3273 
Q 2163 3334 2016 3360 
Q 1869 3386 1741 3386 
Q 1363 3386 1078 3248 
Q 794 3110 605 2876 
Q 416 2643 323 2329 
Q 230 2016 230 1664 
Q 230 1312 326 998 
Q 422 685 611 448 
Q 800 211 1085 70 
Q 1370 -70 1754 -70 
Q 2099 -70 2387 51 
Q 2675 173 2810 448 
L 2822 448 
L 2822 -1261 
L 3366 -1261 
z
" transform="scale(0.015625)"/>
       <path id="HelveticaNeue-75" d="M 3149 0 
L 3149 3309 
L 2605 3309 
L 2605 1440 
Q 2605 1216 2544 1027 
Q 2483 838 2361 697 
Q 2240 557 2057 480 
Q 1875 403 1626 403 
Q 1312 403 1133 582 
Q 954 762 954 1069 
L 954 3309 
L 410 3309 
L 410 1133 
Q 410 864 464 643 
Q 518 422 652 262 
Q 787 102 1004 16 
Q 1222 -70 1549 -70 
Q 1914 -70 2182 74 
Q 2451 218 2624 525 
L 2637 525 
L 2637 0 
L 3149 0 
z
" transform="scale(0.015625)"/>
       <path id="HelveticaNeue-6e" d="M 410 3309 
L 410 0 
L 954 0 
L 954 1869 
Q 954 2093 1014 2281 
Q 1075 2470 1196 2611 
Q 1318 2752 1500 2829 
Q 1683 2906 1933 2906 
Q 2246 2906 2425 2726 
Q 2605 2547 2605 2240 
L 2605 0 
L 3149 0 
L 3149 2176 
Q 3149 2445 3094 2665 
Q 3040 2886 2905 3046 
Q 2771 3206 2553 3296 
Q 2336 3386 2010 3386 
Q 1274 3386 934 2784 
L 922 2784 
L 922 3309 
L 410 3309 
z
" transform="scale(0.015625)"/>
       <path id="HelveticaNeue-63" d="M 2656 2246 
L 3219 2246 
Q 3187 2541 3065 2755 
Q 2944 2970 2755 3110 
Q 2566 3251 2320 3318 
Q 2074 3386 1792 3386 
Q 1402 3386 1107 3248 
Q 813 3110 617 2870 
Q 422 2630 326 2307 
Q 230 1984 230 1613 
Q 230 1242 329 931 
Q 429 621 624 397 
Q 819 173 1110 51 
Q 1402 -70 1779 -70 
Q 2413 -70 2781 262 
Q 3149 595 3238 1210 
L 2682 1210 
Q 2630 826 2403 614 
Q 2176 403 1773 403 
Q 1517 403 1331 505 
Q 1146 608 1030 777 
Q 915 947 860 1164 
Q 806 1382 806 1613 
Q 806 1862 857 2096 
Q 909 2330 1027 2509 
Q 1146 2688 1344 2797 
Q 1542 2906 1837 2906 
Q 2182 2906 2387 2733 
Q 2592 2560 2656 2246 
z
" transform="scale(0.015625)"/>
       <path id="HelveticaNeue-79" d="M 1709 -442 
Q 1613 -685 1520 -851 
Q 1427 -1018 1315 -1123 
Q 1203 -1229 1065 -1277 
Q 928 -1325 749 -1325 
Q 653 -1325 557 -1312 
Q 461 -1299 371 -1267 
L 371 -768 
Q 442 -800 534 -822 
Q 627 -845 691 -845 
Q 858 -845 970 -765 
Q 1082 -685 1139 -538 
L 1363 19 
L 51 3309 
L 666 3309 
L 1632 602 
L 1645 602 
L 2573 3309 
L 3149 3309 
L 1709 -442 
z
" transform="scale(0.015625)"/>
       <path id="HelveticaNeue-20" transform="scale(0.015625)"/>
       <path id="HelveticaNeue-28" d="M 1306 -1261 
L 1722 -1261 
Q 1267 -525 1072 198 
Q 877 922 877 1728 
Q 877 2515 1069 3232 
Q 1261 3949 1722 4678 
L 1306 4678 
Q 806 4019 553 3251 
Q 301 2483 301 1728 
Q 301 1306 371 922 
Q 442 538 573 173 
Q 704 -192 889 -547 
Q 1075 -902 1306 -1261 
z
" transform="scale(0.015625)"/>
       <path id="HelveticaNeue-69" d="M 986 3904 
L 986 4570 
L 442 4570 
L 442 3904 
L 986 3904 
z
M 442 3309 
L 442 0 
L 986 0 
L 986 3309 
L 442 3309 
z
" transform="scale(0.015625)"/>
       <path id="HelveticaNeue-48" d="M 499 4570 
L 499 0 
L 1107 0 
L 1107 2093 
L 3514 2093 
L 3514 0 
L 4122 0 
L 4122 4570 
L 3514 4570 
L 3514 2605 
L 1107 2605 
L 1107 4570 
L 499 4570 
z
" transform="scale(0.015625)"/>
       <path id="HelveticaNeue-7a" d="M 141 416 
L 141 0 
L 2931 0 
L 2931 480 
L 819 480 
L 2842 2938 
L 2842 3309 
L 269 3309 
L 269 2829 
L 2138 2829 
L 141 416 
z
" transform="scale(0.015625)"/>
       <path id="HelveticaNeue-29" d="M -58 -1261 
L 352 -1261 
Q 851 -602 1104 163 
Q 1357 928 1357 1683 
Q 1357 2106 1286 2490 
Q 1216 2874 1085 3242 
Q 954 3610 768 3965 
Q 582 4320 352 4678 
L -58 4678 
Q 390 3942 585 3216 
Q 781 2490 781 1683 
Q 781 902 589 182 
Q 397 -538 -58 -1261 
z
" transform="scale(0.015625)"/>
      </defs>
      <use xlink:href="#HelveticaNeue-46"/>
      <use xlink:href="#HelveticaNeue-72" x="57.399994"/>
      <use xlink:href="#HelveticaNeue-65" x="88.949982"/>
      <use xlink:href="#HelveticaNeue-71" x="142.649979"/>
      <use xlink:href="#HelveticaNeue-75" x="201.949966"/>
      <use xlink:href="#HelveticaNeue-65" x="257.549957"/>
      <use xlink:href="#HelveticaNeue-6e" x="311.249954"/>
      <use xlink:href="#HelveticaNeue-63" x="366.849945"/>
      <use xlink:href="#HelveticaNeue-79" x="420.549942"/>
      <use xlink:href="#HelveticaNeue-20" x="470.549927"/>
      <use xlink:href="#HelveticaNeue-28" x="498.349915"/>
      <use xlink:href="#HelveticaNeue-69" x="524.249908"/>
      <use xlink:href="#HelveticaNeue-6e" x="546.449905"/>
      <use xlink:href="#HelveticaNeue-20" x="602.049896"/>
      <use xlink:href="#HelveticaNeue-48" x="629.849884"/>
      <use xlink:href="#HelveticaNeue-7a" x="702.049866"/>
      <use xlink:href="#HelveticaNeue-29" x="750.04985"/>
     </g>
    </g>
   </g>
   <g id="matplotlib.axis_2">
    <g id="ytick_1">
     <g id="line2d_4">
      <defs>
       <path id="m3b1ae364a3" d="M 0 0 
L -3.5 0 
" style="stroke: #000000; stroke-width: 0.8"/>
      </defs>
      <g>
       <use xlink:href="#m3b1ae364a3" x="65.99" y="34.8" style="stroke: #000000; stroke-width: 0.8"/>
      </g>
     </g>
     <g id="text_5">
      <!-- −20 -->
      <g transform="translate(35.02375 39.798438)scale(0.14 -0.14)">
       <defs>
        <path id="HelveticaNeue-2212" d="M 307 1837 
L 307 1402 
L 3533 1402 
L 3533 1837 
L 307 1837 
z
" transform="scale(0.015625)"/>
       </defs>
       <use xlink:href="#HelveticaNeue-2212"/>
       <use xlink:href="#HelveticaNeue-32" x="59.999985"/>
       <use xlink:href="#HelveticaNeue-30" x="115.599976"/>
      </g>
     </g>
    </g>
    <g id="ytick_2">
     <g id="line2d_5">
      <g>
       <use xlink:href="#m3b1ae364a3" x="65.99" y="68.585" style="stroke: #000000; stroke-width: 0.8"/>
      </g>
     </g>
     <g id="text_6">
      <!-- −15 -->
      <g transform="translate(35.02375 73.583438)scale(0.14 -0.14)">
       <use xlink:href="#HelveticaNeue-2212"/>
       <use xlink:href="#HelveticaNeue-31" x="59.999985"/>
       <use xlink:href="#HelveticaNeue-35" x="115.599976"/>
      </g>
     </g>
    </g>
    <g id="ytick_3">
     <g id="line2d_6">
      <g>
       <use xlink:href="#m3b1ae364a3" x="65.99" y="102.37" style="stroke: #000000; stroke-width: 0.8"/>
      </g>
     </g>
     <g id="text_7">
      <!-- −10 -->
      <g transform="translate(35.02375 107.368437)scale(0.14 -0.14)">
       <use xlink:href="#HelveticaNeue-2212"/>
       <use xlink:href="#HelveticaNeue-31" x="59.999985"/>
       <use xlink:href="#HelveticaNeue-30" x="115.599976"/>
      </g>
     </g>
    </g>
    <g id="ytick_4">
     <g id="line2d_7">
      <g>
       <use xlink:href="#m3b1ae364a3" x="65.99" y="136.155" style="stroke: #000000; stroke-width: 0.8"/>
      </g>
     </g>
     <g id="text_8">
      <!-- −5 -->
      <g transform="translate(42.806875 141.153437)scale(0.14 -0.14)">
       <use xlink:href="#HelveticaNeue-2212"/>
       <use xlink:href="#HelveticaNeue-35" x="59.999985"/>
      </g>
     </g>
    </g>
    <g id="ytick_5">
     <g id="line2d_8">
      <g>
       <use xlink:href="#m3b1ae364a3" x="65.99" y="169.94" style="stroke: #000000; stroke-width: 0.8"/>
      </g>
     </g>
     <g id="text_9">
      <!-- 0 -->
      <g transform="translate(51.206875 174.938437)scale(0.14 -0.14)">
       <use xlink:href="#HelveticaNeue-30"/>
      </g>
     </g>
    </g>
    <g id="ytick_6">
     <g id="line2d_9">
      <g>
       <use xlink:href="#m3b1ae364a3" x="65.99" y="203.725" style="stroke: #000000; stroke-width: 0.8"/>
      </g>
     </g>
     <g id="text_10">
      <!-- 5 -->
      <g transform="translate(51.206875 208.723437)scale(0.14 -0.14)">
       <use xlink:href="#HelveticaNeue-35"/>
      </g>
     </g>
    </g>
    <g id="ytick_7">
     <g id="line2d_10">
      <g>
       <use xlink:href="#m3b1ae364a3" x="65.99" y="237.51" style="stroke: #000000; stroke-width: 0.8"/>
      </g>
     </g>
     <g id="text_11">
      <!-- 10 -->
      <g transform="translate(43.42375 242.508437)scale(0.14 -0.14)">
       <use xlink:href="#HelveticaNeue-31"/>
       <use xlink:href="#HelveticaNeue-30" x="55.599991"/>
      </g>
     </g>
    </g>
    <g id="ytick_8">
     <g id="line2d_11">
      <g>
       <use xlink:href="#m3b1ae364a3" x="65.99" y="271.295" style="stroke: #000000; stroke-width: 0.8"/>
      </g>
     </g>
     <g id="text_12">
      <!-- 15 -->
      <g transform="translate(43.42375 276.293437)scale(0.14 -0.14)">
       <use xlink:href="#HelveticaNeue-31"/>
       <use xlink:href="#HelveticaNeue-35" x="55.599991"/>
      </g>
     </g>
    </g>
    <g id="ytick_9">
     <g id="line2d_12">
      <g>
       <use xlink:href="#m3b1ae364a3" x="65.99" y="305.08" style="stroke: #000000; stroke-width: 0.8"/>
      </g>
     </g>
     <g id="text_13">
      <!-- 20 -->
      <g transform="translate(43.42375 310.078438)scale(0.14 -0.14)">
       <use xlink:href="#HelveticaNeue-32"/>
       <use xlink:href="#HelveticaNeue-30" x="55.599991"/>
      </g>
     </g>
    </g>
    <g id="text_14">
     <!-- Level (in dB HL) -->
     <g transform="translate(28.068281 222.724766)rotate(-90)scale(0.15 -0.15)">
      <defs>
       <path id="HelveticaNeue-4c" d="M 499 4570 
L 499 0 
L 3526 0 
L 3526 512 
L 1107 512 
L 1107 4570 
L 499 4570 
z
" transform="scale(0.015625)"/>
       <path id="HelveticaNeue-76" d="M 1901 0 
L 3110 3309 
L 2541 3309 
L 1638 550 
L 1626 550 
L 698 3309 
L 90 3309 
L 1318 0 
L 1901 0 
z
" transform="scale(0.015625)"/>
       <path id="HelveticaNeue-6c" d="M 442 4570 
L 442 0 
L 986 0 
L 986 4570 
L 442 4570 
z
" transform="scale(0.015625)"/>
       <path id="HelveticaNeue-64" d="M 806 1626 
Q 806 1869 857 2099 
Q 909 2330 1024 2509 
Q 1139 2688 1331 2797 
Q 1523 2906 1798 2906 
Q 2080 2906 2278 2800 
Q 2477 2694 2601 2521 
Q 2726 2349 2784 2121 
Q 2842 1894 2842 1651 
Q 2842 1421 2787 1197 
Q 2733 973 2611 797 
Q 2490 621 2298 512 
Q 2106 403 1830 403 
Q 1568 403 1373 505 
Q 1178 608 1053 781 
Q 928 954 867 1174 
Q 806 1395 806 1626 
z
M 3366 0 
L 3366 4570 
L 2822 4570 
L 2822 2867 
L 2810 2867 
Q 2720 3014 2589 3113 
Q 2458 3213 2310 3273 
Q 2163 3334 2016 3360 
Q 1869 3386 1741 3386 
Q 1363 3386 1078 3248 
Q 794 3110 605 2876 
Q 416 2643 323 2329 
Q 230 2016 230 1664 
Q 230 1312 326 998 
Q 422 685 611 448 
Q 800 211 1085 70 
Q 1370 -70 1754 -70 
Q 2099 -70 2387 51 
Q 2675 173 2810 448 
L 2822 448 
L 2822 0 
L 3366 0 
z
" transform="scale(0.015625)"/>
       <path id="HelveticaNeue-42" d="M 1107 2605 
L 1107 4058 
L 2323 4058 
Q 2522 4058 2698 4035 
Q 2874 4013 3008 3936 
Q 3142 3859 3219 3718 
Q 3296 3578 3296 3334 
Q 3296 2970 3069 2787 
Q 2842 2605 2323 2605 
L 1107 2605 
z
M 499 4570 
L 499 0 
L 2707 0 
Q 3046 0 3305 112 
Q 3565 224 3741 406 
Q 3917 589 4006 825 
Q 4096 1062 4096 1312 
Q 4096 1734 3872 2028 
Q 3648 2323 3226 2413 
L 3226 2426 
Q 3552 2554 3728 2819 
Q 3904 3085 3904 3450 
Q 3904 3795 3747 4032 
Q 3590 4269 3366 4403 
Q 3264 4467 3120 4499 
Q 2976 4531 2809 4547 
Q 2643 4563 2473 4566 
Q 2304 4570 2157 4570 
L 499 4570 
z
M 1107 512 
L 1107 2093 
L 2496 2093 
Q 2688 2093 2867 2057 
Q 3046 2022 3184 1936 
Q 3322 1850 3405 1702 
Q 3488 1555 3488 1331 
Q 3488 947 3261 729 
Q 3034 512 2630 512 
L 1107 512 
z
" transform="scale(0.015625)"/>
      </defs>
      <use xlink:href="#HelveticaNeue-4c"/>
      <use xlink:href="#HelveticaNeue-65" x="55.599991"/>
      <use xlink:href="#HelveticaNeue-76" x="109.299988"/>
      <use xlink:href="#HelveticaNeue-65" x="159.299973"/>
      <use xlink:href="#HelveticaNeue-6c" x="212.999969"/>
      <use xlink:href="#HelveticaNeue-20" x="235.199966"/>
      <use xlink:href="#HelveticaNeue-28" x="262.999954"/>
      <use xlink:href="#HelveticaNeue-69" x="288.899948"/>
      <use xlink:href="#HelveticaNeue-6e" x="311.099945"/>
      <use xlink:href="#HelveticaNeue-20" x="366.699936"/>
      <use xlink:href="#HelveticaNeue-64" x="394.499924"/>
      <use xlink:href="#HelveticaNeue-42" x="453.799911"/>
      <use xlink:href="#HelveticaNeue-20" x="522.299896"/>
      <use xlink:href="#HelveticaNeue-48" x="550.099884"/>
      <use xlink:href="#HelveticaNeue-4c" x="622.299866"/>
      <use xlink:href="#HelveticaNeue-29" x="677.899857"/>
     </g>
    </g>
   </g>
   <g id="patch_3">
    <path d="M 65.99 305.08 
L 65.99 34.8 
" style="fill: none; stroke: #000000; stroke-width: 0.8; stroke-linejoin: miter; stroke-linecap: square"/>
   </g>
   <g id="patch_4">
    <path d="M 630.72 305.08 
L 630.72 34.8 
" style="fill: none; stroke: #000000; stroke-width: 0.8; stroke-linejoin: miter; stroke-linecap: square"/>
   </g>
   <g id="patch_5">
    <path d="M 65.99 305.08 
L 630.72 305.08 
" style="fill: none; stroke: #000000; stroke-width: 0.8; stroke-linejoin: miter; stroke-linecap: square"/>
   </g>
   <g id="patch_6">
    <path d="M 65.99 34.8 
L 630.72 34.8 
" style="fill: none; stroke: #000000; stroke-width: 0.8; stroke-linejoin: miter; stroke-linecap: square"/>
   </g>
   <g id="text_15">
    <!-- Tone distance from threshold (example data from Continuous/T) -->
    <g transform="translate(120.73 28.8)scale(0.16 -0.16)">
     <defs>
      <path id="HelveticaNeue-54" d="M 1536 4058 
L 1536 0 
L 2144 0 
L 2144 4058 
L 3667 4058 
L 3667 4570 
L 13 4570 
L 13 4058 
L 1536 4058 
z
" transform="scale(0.015625)"/>
      <path id="HelveticaNeue-6f" d="M 806 1651 
Q 806 1952 886 2185 
Q 966 2419 1107 2579 
Q 1248 2739 1437 2822 
Q 1626 2906 1837 2906 
Q 2048 2906 2237 2822 
Q 2426 2739 2566 2579 
Q 2707 2419 2787 2185 
Q 2867 1952 2867 1651 
Q 2867 1350 2787 1116 
Q 2707 883 2566 726 
Q 2426 570 2237 486 
Q 2048 403 1837 403 
Q 1626 403 1437 486 
Q 1248 570 1107 726 
Q 966 883 886 1116 
Q 806 1350 806 1651 
z
M 230 1651 
Q 230 1286 332 972 
Q 435 659 640 425 
Q 845 192 1145 61 
Q 1446 -70 1837 -70 
Q 2234 -70 2531 61 
Q 2829 192 3033 425 
Q 3238 659 3340 972 
Q 3443 1286 3443 1651 
Q 3443 2016 3340 2333 
Q 3238 2650 3033 2883 
Q 2829 3117 2531 3251 
Q 2234 3386 1837 3386 
Q 1446 3386 1145 3251 
Q 845 3117 640 2883 
Q 435 2650 332 2333 
Q 230 2016 230 1651 
z
" transform="scale(0.015625)"/>
      <path id="HelveticaNeue-73" d="M 742 1043 
L 198 1043 
Q 211 736 326 521 
Q 442 307 634 176 
Q 826 45 1075 -12 
Q 1325 -70 1600 -70 
Q 1850 -70 2102 -22 
Q 2355 26 2556 147 
Q 2758 269 2883 467 
Q 3008 666 3008 966 
Q 3008 1203 2915 1363 
Q 2822 1523 2672 1628 
Q 2522 1734 2326 1798 
Q 2131 1862 1926 1907 
Q 1734 1952 1542 1993 
Q 1350 2035 1196 2096 
Q 1043 2157 944 2249 
Q 845 2342 845 2483 
Q 845 2611 909 2691 
Q 973 2771 1075 2819 
Q 1178 2867 1302 2886 
Q 1427 2906 1549 2906 
Q 1683 2906 1814 2877 
Q 1946 2848 2054 2784 
Q 2163 2720 2233 2614 
Q 2304 2509 2317 2349 
L 2861 2349 
Q 2842 2650 2733 2851 
Q 2624 3053 2441 3171 
Q 2259 3290 2022 3338 
Q 1786 3386 1504 3386 
Q 1286 3386 1065 3331 
Q 845 3277 669 3165 
Q 493 3053 381 2873 
Q 269 2694 269 2445 
Q 269 2125 429 1945 
Q 589 1766 829 1667 
Q 1069 1568 1350 1513 
Q 1632 1459 1872 1392 
Q 2112 1325 2272 1216 
Q 2432 1107 2432 896 
Q 2432 742 2355 643 
Q 2278 544 2160 493 
Q 2042 442 1901 422 
Q 1760 403 1632 403 
Q 1466 403 1309 435 
Q 1152 467 1027 540 
Q 902 614 825 739 
Q 749 864 742 1043 
z
" transform="scale(0.015625)"/>
      <path id="HelveticaNeue-74" d="M 1165 3309 
L 1165 4301 
L 621 4301 
L 621 3309 
L 58 3309 
L 58 2829 
L 621 2829 
L 621 723 
Q 621 493 665 352 
Q 710 211 803 134 
Q 896 58 1046 29 
Q 1197 0 1408 0 
L 1824 0 
L 1824 480 
L 1574 480 
Q 1446 480 1366 489 
Q 1286 499 1241 531 
Q 1197 563 1181 620 
Q 1165 678 1165 774 
L 1165 2829 
L 1824 2829 
L 1824 3309 
L 1165 3309 
z
" transform="scale(0.015625)"/>
      <path id="HelveticaNeue-61" d="M 3341 13 
Q 3200 -70 2950 -70 
Q 2739 -70 2614 48 
Q 2490 166 2490 435 
Q 2266 166 1968 48 
Q 1670 -70 1325 -70 
Q 1101 -70 899 -19 
Q 698 32 550 141 
Q 403 250 316 426 
Q 230 602 230 851 
Q 230 1133 326 1312 
Q 422 1491 579 1603 
Q 736 1715 937 1772 
Q 1139 1830 1350 1869 
Q 1574 1914 1776 1936 
Q 1978 1958 2131 2000 
Q 2285 2042 2374 2122 
Q 2464 2202 2464 2355 
Q 2464 2534 2397 2643 
Q 2330 2752 2224 2809 
Q 2118 2867 1987 2886 
Q 1856 2906 1728 2906 
Q 1382 2906 1152 2774 
Q 922 2643 902 2278 
L 358 2278 
Q 371 2586 486 2797 
Q 602 3008 794 3139 
Q 986 3270 1232 3328 
Q 1478 3386 1760 3386 
Q 1984 3386 2205 3354 
Q 2426 3322 2605 3222 
Q 2784 3123 2893 2944 
Q 3002 2765 3002 2477 
L 3002 774 
Q 3002 582 3024 492 
Q 3046 403 3174 403 
Q 3245 403 3341 435 
L 3341 13 
z
M 2458 1709 
Q 2355 1632 2188 1597 
Q 2022 1562 1840 1539 
Q 1658 1517 1472 1488 
Q 1286 1459 1139 1395 
Q 992 1331 899 1212 
Q 806 1094 806 890 
Q 806 755 860 662 
Q 915 570 1001 512 
Q 1088 454 1203 428 
Q 1318 403 1446 403 
Q 1715 403 1907 476 
Q 2099 550 2220 662 
Q 2342 774 2400 905 
Q 2458 1037 2458 1152 
L 2458 1709 
z
" transform="scale(0.015625)"/>
      <path id="HelveticaNeue-66" d="M 634 2829 
L 634 0 
L 1178 0 
L 1178 2829 
L 1818 2829 
L 1818 3309 
L 1178 3309 
L 1178 3770 
Q 1178 3987 1286 4064 
Q 1395 4141 1594 4141 
Q 1664 4141 1747 4131 
Q 1830 4122 1901 4096 
L 1901 4570 
Q 1824 4595 1725 4608 
Q 1626 4621 1549 4621 
Q 1101 4621 867 4413 
Q 634 4205 634 3802 
L 634 3309 
L 77 3309 
L 77 2829 
L 634 2829 
z
" transform="scale(0.015625)"/>
      <path id="HelveticaNeue-6d" d="M 410 3309 
L 410 0 
L 954 0 
L 954 2061 
Q 954 2157 1002 2301 
Q 1050 2445 1155 2579 
Q 1261 2714 1430 2810 
Q 1600 2906 1837 2906 
Q 2022 2906 2140 2851 
Q 2259 2797 2329 2697 
Q 2400 2598 2429 2464 
Q 2458 2330 2458 2170 
L 2458 0 
L 3002 0 
L 3002 2061 
Q 3002 2445 3232 2675 
Q 3462 2906 3866 2906 
Q 4064 2906 4189 2848 
Q 4314 2790 4384 2691 
Q 4454 2592 4480 2457 
Q 4506 2323 4506 2170 
L 4506 0 
L 5050 0 
L 5050 2426 
Q 5050 2682 4970 2864 
Q 4890 3046 4746 3161 
Q 4602 3277 4400 3331 
Q 4198 3386 3949 3386 
Q 3622 3386 3350 3238 
Q 3078 3091 2912 2822 
Q 2810 3130 2560 3258 
Q 2310 3386 2003 3386 
Q 1306 3386 934 2822 
L 922 2822 
L 922 3309 
L 410 3309 
z
" transform="scale(0.015625)"/>
      <path id="HelveticaNeue-68" d="M 410 4570 
L 410 0 
L 954 0 
L 954 1869 
Q 954 2093 1014 2281 
Q 1075 2470 1196 2611 
Q 1318 2752 1500 2829 
Q 1683 2906 1933 2906 
Q 2246 2906 2425 2726 
Q 2605 2547 2605 2240 
L 2605 0 
L 3149 0 
L 3149 2176 
Q 3149 2445 3094 2665 
Q 3040 2886 2905 3046 
Q 2771 3206 2553 3296 
Q 2336 3386 2010 3386 
Q 1862 3386 1705 3354 
Q 1549 3322 1405 3254 
Q 1261 3187 1145 3081 
Q 1030 2976 966 2822 
L 954 2822 
L 954 4570 
L 410 4570 
z
" transform="scale(0.015625)"/>
      <path id="HelveticaNeue-78" d="M 1299 1741 
L 58 0 
L 717 0 
L 1638 1370 
L 2560 0 
L 3258 0 
L 1978 1786 
L 3117 3309 
L 2464 3309 
L 1638 2150 
L 845 3309 
L 147 3309 
L 1299 1741 
z
" transform="scale(0.015625)"/>
      <path id="HelveticaNeue-70" d="M 429 3309 
L 429 -1261 
L 973 -1261 
L 973 442 
L 986 442 
Q 1075 294 1206 195 
Q 1338 96 1485 38 
Q 1632 -19 1782 -44 
Q 1933 -70 2054 -70 
Q 2432 -70 2717 64 
Q 3002 198 3190 432 
Q 3379 666 3472 979 
Q 3565 1293 3565 1645 
Q 3565 1997 3469 2310 
Q 3373 2624 3184 2864 
Q 2995 3104 2710 3245 
Q 2426 3386 2042 3386 
Q 1696 3386 1408 3261 
Q 1120 3136 986 2861 
L 973 2861 
L 973 3309 
L 429 3309 
z
M 2989 1683 
Q 2989 1440 2937 1209 
Q 2886 979 2771 800 
Q 2656 621 2467 512 
Q 2278 403 1997 403 
Q 1715 403 1516 508 
Q 1318 614 1193 787 
Q 1069 960 1011 1187 
Q 954 1414 954 1658 
Q 954 1888 1008 2112 
Q 1062 2336 1184 2512 
Q 1306 2688 1498 2797 
Q 1690 2906 1965 2906 
Q 2227 2906 2422 2803 
Q 2618 2701 2742 2528 
Q 2867 2355 2928 2134 
Q 2989 1914 2989 1683 
z
" transform="scale(0.015625)"/>
      <path id="HelveticaNeue-43" d="M 3712 3194 
L 4320 3194 
Q 4269 3558 4102 3836 
Q 3936 4115 3686 4300 
Q 3437 4486 3117 4582 
Q 2797 4678 2438 4678 
Q 1914 4678 1507 4489 
Q 1101 4301 829 3974 
Q 557 3648 416 3209 
Q 275 2771 275 2272 
Q 275 1773 406 1337 
Q 538 902 800 582 
Q 1062 262 1459 80 
Q 1856 -102 2387 -102 
Q 3264 -102 3769 378 
Q 4275 858 4365 1722 
L 3757 1722 
Q 3738 1440 3642 1197 
Q 3546 954 3376 778 
Q 3206 602 2972 502 
Q 2739 403 2438 403 
Q 2029 403 1734 556 
Q 1440 710 1251 969 
Q 1062 1229 972 1577 
Q 883 1926 883 2317 
Q 883 2675 972 3008 
Q 1062 3341 1251 3600 
Q 1440 3859 1731 4012 
Q 2022 4166 2432 4166 
Q 2912 4166 3261 3923 
Q 3610 3680 3712 3194 
z
" transform="scale(0.015625)"/>
      <path id="HelveticaNeue-2f" d="M 1779 4678 
L -109 -102 
L 352 -102 
L 2246 4678 
L 1779 4678 
z
" transform="scale(0.015625)"/>
     </defs>
     <use xlink:href="#HelveticaNeue-54"/>
     <use xlink:href="#HelveticaNeue-6f" x="46.274994"/>
     <use xlink:href="#HelveticaNeue-6e" x="103.674988"/>
     <use xlink:href="#HelveticaNeue-65" x="159.274979"/>
     <use xlink:href="#HelveticaNeue-20" x="212.974976"/>
     <use xlink:href="#HelveticaNeue-64" x="240.774963"/>
     <use xlink:href="#HelveticaNeue-69" x="300.074951"/>
     <use xlink:href="#HelveticaNeue-73" x="322.274948"/>
     <use xlink:href="#HelveticaNeue-74" x="372.274933"/>
     <use xlink:href="#HelveticaNeue-61" x="403.774918"/>
     <use xlink:href="#HelveticaNeue-6e" x="457.474915"/>
     <use xlink:href="#HelveticaNeue-63" x="513.074905"/>
     <use xlink:href="#HelveticaNeue-65" x="566.774902"/>
     <use xlink:href="#HelveticaNeue-20" x="620.474899"/>
     <use xlink:href="#HelveticaNeue-66" x="648.274887"/>
     <use xlink:href="#HelveticaNeue-72" x="677.874878"/>
     <use xlink:href="#HelveticaNeue-6f" x="709.424866"/>
     <use xlink:href="#HelveticaNeue-6d" x="766.82486"/>
     <use xlink:href="#HelveticaNeue-20" x="852.124847"/>
     <use xlink:href="#HelveticaNeue-74" x="879.924835"/>
     <use xlink:href="#HelveticaNeue-68" x="911.42482"/>
     <use xlink:href="#HelveticaNeue-72" x="967.024811"/>
     <use xlink:href="#HelveticaNeue-65" x="998.574799"/>
     <use xlink:href="#HelveticaNeue-73" x="1052.274796"/>
     <use xlink:href="#HelveticaNeue-68" x="1102.27478"/>
     <use xlink:href="#HelveticaNeue-6f" x="1157.874771"/>
     <use xlink:href="#HelveticaNeue-6c" x="1215.274765"/>
     <use xlink:href="#HelveticaNeue-64" x="1237.474762"/>
     <use xlink:href="#HelveticaNeue-20" x="1296.77475"/>
     <use xlink:href="#HelveticaNeue-28" x="1324.574738"/>
     <use xlink:href="#HelveticaNeue-65" x="1350.474731"/>
     <use xlink:href="#HelveticaNeue-78" x="1404.174728"/>
     <use xlink:href="#HelveticaNeue-61" x="1455.974716"/>
     <use xlink:href="#HelveticaNeue-6d" x="1509.674713"/>
     <use xlink:href="#HelveticaNeue-70" x="1594.974701"/>
     <use xlink:href="#HelveticaNeue-6c" x="1654.274689"/>
     <use xlink:href="#HelveticaNeue-65" x="1676.474686"/>
     <use xlink:href="#HelveticaNeue-20" x="1730.174683"/>
     <use xlink:href="#HelveticaNeue-64" x="1757.97467"/>
     <use xlink:href="#HelveticaNeue-61" x="1817.274658"/>
     <use xlink:href="#HelveticaNeue-74" x="1870.974655"/>
     <use xlink:href="#HelveticaNeue-61" x="1902.47464"/>
     <use xlink:href="#HelveticaNeue-20" x="1956.174637"/>
     <use xlink:href="#HelveticaNeue-66" x="1983.974625"/>
     <use xlink:href="#HelveticaNeue-72" x="2013.574615"/>
     <use xlink:href="#HelveticaNeue-6f" x="2045.124603"/>
     <use xlink:href="#HelveticaNeue-6d" x="2102.524597"/>
     <use xlink:href="#HelveticaNeue-20" x="2187.824585"/>
     <use xlink:href="#HelveticaNeue-43" x="2215.624573"/>
     <use xlink:href="#HelveticaNeue-6f" x="2287.824554"/>
     <use xlink:href="#HelveticaNeue-6e" x="2345.224548"/>
     <use xlink:href="#HelveticaNeue-74" x="2400.824539"/>
     <use xlink:href="#HelveticaNeue-69" x="2432.324524"/>
     <use xlink:href="#HelveticaNeue-6e" x="2454.524521"/>
     <use xlink:href="#HelveticaNeue-75" x="2510.124512"/>
     <use xlink:href="#HelveticaNeue-6f" x="2565.724503"/>
     <use xlink:href="#HelveticaNeue-75" x="2623.124496"/>
     <use xlink:href="#HelveticaNeue-73" x="2678.724487"/>
     <use xlink:href="#HelveticaNeue-2f" x="2728.724472"/>
     <use xlink:href="#HelveticaNeue-54" x="2762.02446"/>
     <use xlink:href="#HelveticaNeue-29" x="2819.424454"/>
    </g>
   </g>
   <g id="line2d_13">
    <path d="M 91.659545 185.085645 
L 96.845312 183.590576 
L 102.031079 181.77477 
L 107.216846 179.198801 
L 112.402612 175.940731 
L 117.588379 172.323141 
L 122.774146 168.139366 
L 127.959913 163.859092 
L 133.14568 159.531948 
L 138.331446 155.617906 
L 143.517213 151.948898 
L 148.70298 149.482197 
L 153.888747 147.863964 
L 159.074513 147.326489 
L 164.26028 148.605227 
L 169.446047 150.689738 
L 174.631814 154.611784 
L 179.81758 159.398174 
L 185.003347 165.012954 
L 190.189114 171.19074 
L 195.374881 177.418792 
L 200.560647 183.397448 
L 205.746414 188.546044 
L 210.932181 193.138387 
L 216.117948 195.897471 
L 221.303714 197.940886 
L 226.489481 198.29911 
L 231.675248 197.473212 
L 236.861015 195.822713 
L 242.046781 192.830194 
L 247.232548 189.438705 
L 252.418315 185.46628 
L 257.604082 181.286547 
L 262.789848 176.944186 
L 267.975615 172.823786 
L 273.161382 168.78624 
L 278.347149 165.061945 
L 283.532916 161.820858 
L 288.718682 158.820869 
L 293.904449 156.738427 
L 299.090216 155.09223 
L 304.275983 154.124796 
L 309.461749 154.060259 
L 314.647516 154.423581 
L 319.833283 155.805812 
L 325.01905 157.570972 
L 330.204816 159.825444 
L 335.390583 162.407584 
L 340.57635 165.045259 
L 345.762117 167.554013 
L 350.947883 169.824917 
L 356.13365 171.754799 
L 361.319417 172.862956 
L 366.505184 173.627409 
L 371.69095 173.488273 
L 376.876717 172.759734 
L 382.062484 171.512452 
L 387.248251 169.41941 
L 392.434017 167.073981 
L 397.619784 164.215854 
L 402.805551 161.139851 
L 407.991318 157.862124 
L 413.177084 154.617643 
L 418.362851 151.426061 
L 423.548618 148.477602 
L 428.734385 145.957065 
L 433.920152 143.615999 
L 439.105918 142.089599 
L 444.291685 140.807228 
L 449.477452 140.026801 
L 454.663219 139.583973 
L 459.848985 139.28809 
L 465.034752 139.048144 
L 470.220519 138.645179 
L 475.406286 137.990972 
L 480.592052 136.793288 
L 485.777819 135.334466 
L 490.963586 133.250628 
L 496.149353 130.966766 
L 501.335119 128.471564 
L 506.520886 126.238737 
L 511.706653 124.156443 
L 516.89242 122.927384 
L 522.078186 122.424836 
L 527.263953 122.68578 
L 532.44972 124.247228 
L 537.635487 126.310556 
L 542.821253 129.283934 
L 548.00702 132.3348 
L 553.192787 135.565917 
L 558.378554 138.019123 
L 563.56432 139.995519 
L 568.750087 140.629551 
L 573.935854 139.942178 
L 579.121621 138.307171 
L 584.307388 134.627374 
L 589.493154 130.3357 
L 594.678921 124.979886 
L 599.864688 119.28268 
L 605.050455 113.270925 
" clip-path="url(#p09a7a83073)" style="fill: none; stroke: #000000; stroke-width: 2.5; stroke-linecap: square"/>
   </g>
   <g id="legend_1">
    <g id="patch_7">
     <path d="M 76.49 297.58 
L 252.034531 297.58 
Q 255.034531 297.58 255.034531 294.58 
L 255.034531 274.733125 
Q 255.034531 271.733125 252.034531 271.733125 
L 76.49 271.733125 
Q 73.49 271.733125 73.49 274.733125 
L 73.49 294.58 
Q 73.49 297.58 76.49 297.58 
z
" style="fill: #ffffff; opacity: 0.8; stroke: #cccccc; stroke-linejoin: miter"/>
    </g>
    <g id="line2d_14">
     <path d="M 79.49 283.194062 
L 94.49 283.194062 
L 109.49 283.194062 
" style="fill: none; stroke: #000000; stroke-width: 2.5; stroke-linecap: square"/>
    </g>
    <g id="text_16">
     <!-- random audiogram -->
     <g transform="translate(121.49 288.444062)scale(0.15 -0.15)">
      <defs>
       <path id="HelveticaNeue-67" d="M 3264 282 
L 3264 3309 
L 2752 3309 
L 2752 2835 
L 2746 2835 
Q 2598 3110 2336 3248 
Q 2074 3386 1760 3386 
Q 1331 3386 1036 3222 
Q 742 3059 563 2806 
Q 384 2554 307 2243 
Q 230 1933 230 1638 
Q 230 1299 323 995 
Q 416 691 601 464 
Q 787 237 1062 102 
Q 1338 -32 1709 -32 
Q 2029 -32 2313 112 
Q 2598 256 2739 563 
L 2752 563 
L 2752 346 
Q 2752 70 2697 -160 
Q 2643 -390 2521 -553 
Q 2400 -717 2214 -809 
Q 2029 -902 1760 -902 
Q 1626 -902 1478 -873 
Q 1331 -845 1206 -781 
Q 1082 -717 995 -614 
Q 909 -512 902 -365 
L 358 -365 
Q 371 -634 499 -819 
Q 627 -1005 822 -1120 
Q 1018 -1235 1258 -1286 
Q 1498 -1338 1728 -1338 
Q 2522 -1338 2893 -934 
Q 3264 -531 3264 282 
z
M 1741 442 
Q 1472 442 1293 554 
Q 1114 666 1005 848 
Q 896 1030 851 1254 
Q 806 1478 806 1702 
Q 806 1939 860 2156 
Q 915 2374 1033 2540 
Q 1152 2707 1337 2806 
Q 1523 2906 1786 2906 
Q 2042 2906 2221 2803 
Q 2400 2701 2512 2531 
Q 2624 2362 2675 2150 
Q 2726 1939 2726 1722 
Q 2726 1491 2672 1260 
Q 2618 1030 2502 848 
Q 2387 666 2198 554 
Q 2010 442 1741 442 
z
" transform="scale(0.015625)"/>
      </defs>
      <use xlink:href="#HelveticaNeue-72"/>
      <use xlink:href="#HelveticaNeue-61" x="33.299988"/>
      <use xlink:href="#HelveticaNeue-6e" x="86.999985"/>
      <use xlink:href="#HelveticaNeue-64" x="142.599976"/>
      <use xlink:href="#HelveticaNeue-6f" x="201.899963"/>
      <use xlink:href="#HelveticaNeue-6d" x="259.299957"/>
      <use xlink:href="#HelveticaNeue-20" x="344.599945"/>
      <use xlink:href="#HelveticaNeue-61" x="372.399933"/>
      <use xlink:href="#HelveticaNeue-75" x="426.09993"/>
      <use xlink:href="#HelveticaNeue-64" x="481.699921"/>
      <use xlink:href="#HelveticaNeue-69" x="540.999908"/>
      <use xlink:href="#HelveticaNeue-6f" x="563.199905"/>
      <use xlink:href="#HelveticaNeue-67" x="620.599899"/>
      <use xlink:href="#HelveticaNeue-72" x="677.999893"/>
      <use xlink:href="#HelveticaNeue-61" x="711.299881"/>
      <use xlink:href="#HelveticaNeue-6d" x="764.999878"/>
     </g>
    </g>
   </g>
  </g>
 </g>
 <defs>
  <clipPath id="p09a7a83073">
   <rect x="65.99" y="34.8" width="564.73" height="270.28"/>
  </clipPath>
 </defs>
</svg>
