<?xml version="1.0" encoding="utf-8" standalone="no"?>
<!DOCTYPE svg PUBLIC "-//W3C//DTD SVG 1.1//EN"
  "http://www.w3.org/Graphics/SVG/1.1/DTD/svg11.dtd">
<svg xmlns:xlink="http://www.w3.org/1999/xlink" width="720pt" height="504pt" viewBox="0 0 720 504" xmlns="http://www.w3.org/2000/svg" version="1.1">
 <metadata>
  <rdf:RDF xmlns:dc="http://purl.org/dc/elements/1.1/" xmlns:cc="http://creativecommons.org/ns#" xmlns:rdf="http://www.w3.org/1999/02/22-rdf-syntax-ns#">
   <cc:Work>
    <dc:type rdf:resource="http://purl.org/dc/dcmitype/StillImage"/>
    <dc:date>2023-07-28T03:46:33.396770</dc:date>
    <dc:format>image/svg+xml</dc:format>
    <dc:creator>
     <cc:Agent>
      <dc:title>Matplotlib v3.5.1, https://matplotlib.org/</dc:title>
     </cc:Agent>
    </dc:creator>
   </cc:Work>
  </rdf:RDF>
 </metadata>
 <defs>
  <style type="text/css">*{stroke-linejoin: round; stroke-linecap: butt}</style>
 </defs>
 <g id="figure_1">
  <g id="patch_1">
   <path d="M 0 504 
L 720 504 
L 720 0 
L 0 0 
z
" style="fill: #ffffff"/>
  </g>
  <g id="axes_1">
   <g id="patch_2">
    <path d="M 90 448.56 
L 648 448.56 
L 648 60.48 
L 90 60.48 
z
" style="fill: #ffffff"/>
   </g>
   <g id="matplotlib.axis_1">
    <g id="xtick_1">
     <g id="line2d_1">
      <defs>
       <path id="m2eee3e71e0" d="M 0 0 
L 0 3.5 
" style="stroke: #000000; stroke-width: 0.8"/>
      </defs>
      <g>
       <use xlink:href="#m2eee3e71e0" x="648" y="448.56" style="stroke: #000000; stroke-width: 0.8"/>
      </g>
     </g>
     <g id="text_1">
      <!-- 0.0 -->
      <g transform="translate(638.271094 465.556875)scale(0.14 -0.14)">
       <defs>
        <path id="HelveticaNeue-30" d="M 845 2234 
Q 845 2400 848 2601 
Q 851 2803 880 3004 
Q 909 3206 963 3398 
Q 1018 3590 1123 3734 
Q 1229 3878 1389 3968 
Q 1549 4058 1779 4058 
Q 2010 4058 2170 3968 
Q 2330 3878 2435 3734 
Q 2541 3590 2595 3398 
Q 2650 3206 2678 3004 
Q 2707 2803 2710 2601 
Q 2714 2400 2714 2234 
Q 2714 1978 2698 1661 
Q 2682 1344 2595 1065 
Q 2509 787 2317 595 
Q 2125 403 1779 403 
Q 1434 403 1242 595 
Q 1050 787 963 1065 
Q 877 1344 861 1661 
Q 845 1978 845 2234 
z
M 269 2227 
Q 269 1978 281 1709 
Q 294 1440 345 1184 
Q 397 928 493 701 
Q 589 474 755 301 
Q 922 128 1174 29 
Q 1427 -70 1779 -70 
Q 2138 -70 2387 29 
Q 2637 128 2803 301 
Q 2970 474 3066 701 
Q 3162 928 3213 1184 
Q 3264 1440 3277 1709 
Q 3290 1978 3290 2227 
Q 3290 2477 3277 2745 
Q 3264 3014 3213 3270 
Q 3162 3526 3066 3756 
Q 2970 3987 2803 4160 
Q 2637 4333 2384 4435 
Q 2131 4538 1779 4538 
Q 1427 4538 1174 4435 
Q 922 4333 755 4160 
Q 589 3987 493 3756 
Q 397 3526 345 3270 
Q 294 3014 281 2745 
Q 269 2477 269 2227 
z
" transform="scale(0.015625)"/>
        <path id="HelveticaNeue-2e" d="M 531 710 
L 531 0 
L 1242 0 
L 1242 710 
L 531 710 
z
" transform="scale(0.015625)"/>
       </defs>
       <use xlink:href="#HelveticaNeue-30"/>
       <use xlink:href="#HelveticaNeue-2e" x="55.599991"/>
       <use xlink:href="#HelveticaNeue-30" x="83.399979"/>
      </g>
     </g>
    </g>
    <g id="xtick_2">
     <g id="line2d_2">
      <g>
       <use xlink:href="#m2eee3e71e0" x="569.47407" y="448.56" style="stroke: #000000; stroke-width: 0.8"/>
      </g>
     </g>
     <g id="text_2">
      <!-- 0.2 -->
      <g transform="translate(559.745163 465.556875)scale(0.14 -0.14)">
       <defs>
        <path id="HelveticaNeue-32" d="M 282 2931 
L 826 2931 
Q 819 3136 867 3337 
Q 915 3539 1024 3699 
Q 1133 3859 1302 3958 
Q 1472 4058 1709 4058 
Q 1888 4058 2048 4000 
Q 2208 3942 2326 3833 
Q 2445 3725 2515 3574 
Q 2586 3424 2586 3238 
Q 2586 3002 2512 2822 
Q 2438 2643 2294 2489 
Q 2150 2336 1932 2185 
Q 1715 2035 1427 1856 
Q 1190 1715 972 1555 
Q 755 1395 582 1184 
Q 410 973 298 688 
Q 186 403 154 0 
L 3117 0 
L 3117 480 
L 787 480 
Q 826 691 950 854 
Q 1075 1018 1251 1158 
Q 1427 1299 1638 1424 
Q 1850 1549 2061 1677 
Q 2272 1811 2470 1958 
Q 2669 2106 2822 2288 
Q 2976 2470 3069 2700 
Q 3162 2931 3162 3232 
Q 3162 3552 3050 3795 
Q 2938 4038 2746 4201 
Q 2554 4365 2294 4451 
Q 2035 4538 1741 4538 
Q 1382 4538 1100 4416 
Q 819 4294 630 4080 
Q 442 3866 352 3571 
Q 262 3277 282 2931 
z
" transform="scale(0.015625)"/>
       </defs>
       <use xlink:href="#HelveticaNeue-30"/>
       <use xlink:href="#HelveticaNeue-2e" x="55.599991"/>
       <use xlink:href="#HelveticaNeue-32" x="83.399979"/>
      </g>
     </g>
    </g>
    <g id="xtick_3">
     <g id="line2d_3">
      <g>
       <use xlink:href="#m2eee3e71e0" x="490.948139" y="448.56" style="stroke: #000000; stroke-width: 0.8"/>
      </g>
     </g>
     <g id="text_3">
      <!-- 0.4 -->
      <g transform="translate(481.219233 465.556875)scale(0.14 -0.14)">
       <defs>
        <path id="HelveticaNeue-34" d="M 2170 1542 
L 646 1542 
L 2157 3763 
L 2170 3763 
L 2170 1542 
z
M 2682 1542 
L 2682 4538 
L 2246 4538 
L 179 1587 
L 179 1062 
L 2170 1062 
L 2170 0 
L 2682 0 
L 2682 1062 
L 3296 1062 
L 3296 1542 
L 2682 1542 
z
" transform="scale(0.015625)"/>
       </defs>
       <use xlink:href="#HelveticaNeue-30"/>
       <use xlink:href="#HelveticaNeue-2e" x="55.599991"/>
       <use xlink:href="#HelveticaNeue-34" x="83.399979"/>
      </g>
     </g>
    </g>
    <g id="xtick_4">
     <g id="line2d_4">
      <g>
       <use xlink:href="#m2eee3e71e0" x="412.422209" y="448.56" style="stroke: #000000; stroke-width: 0.8"/>
      </g>
     </g>
     <g id="text_4">
      <!-- 0.6 -->
      <g transform="translate(402.693303 465.556875)scale(0.14 -0.14)">
       <defs>
        <path id="HelveticaNeue-36" d="M 2650 3379 
L 3194 3379 
Q 3142 3942 2809 4240 
Q 2477 4538 1914 4538 
Q 1427 4538 1107 4333 
Q 787 4128 595 3789 
Q 403 3450 323 3011 
Q 243 2573 243 2106 
Q 243 1747 297 1363 
Q 352 979 518 659 
Q 685 339 992 134 
Q 1299 -70 1805 -70 
Q 2234 -70 2525 74 
Q 2816 218 2992 438 
Q 3168 659 3245 928 
Q 3322 1197 3322 1446 
Q 3322 1760 3226 2029 
Q 3130 2298 2954 2496 
Q 2778 2694 2518 2806 
Q 2259 2918 1933 2918 
Q 1562 2918 1277 2777 
Q 992 2637 800 2323 
L 787 2336 
Q 794 2598 838 2899 
Q 883 3200 1001 3459 
Q 1120 3718 1331 3888 
Q 1542 4058 1888 4058 
Q 2214 4058 2412 3872 
Q 2611 3686 2650 3379 
z
M 1830 2438 
Q 2061 2438 2233 2355 
Q 2406 2272 2521 2134 
Q 2637 1997 2691 1808 
Q 2746 1619 2746 1408 
Q 2746 1210 2685 1027 
Q 2624 845 2509 704 
Q 2394 563 2224 483 
Q 2054 403 1830 403 
Q 1606 403 1430 483 
Q 1254 563 1136 697 
Q 1018 832 954 1017 
Q 890 1203 890 1414 
Q 890 1626 950 1814 
Q 1011 2003 1132 2140 
Q 1254 2278 1427 2358 
Q 1600 2438 1830 2438 
z
" transform="scale(0.015625)"/>
       </defs>
       <use xlink:href="#HelveticaNeue-30"/>
       <use xlink:href="#HelveticaNeue-2e" x="55.599991"/>
       <use xlink:href="#HelveticaNeue-36" x="83.399979"/>
      </g>
     </g>
    </g>
    <g id="xtick_5">
     <g id="line2d_5">
      <g>
       <use xlink:href="#m2eee3e71e0" x="333.896279" y="448.56" style="stroke: #000000; stroke-width: 0.8"/>
      </g>
     </g>
     <g id="text_5">
      <!-- 0.8 -->
      <g transform="translate(324.167372 465.556875)scale(0.14 -0.14)">
       <defs>
        <path id="HelveticaNeue-38" d="M 992 3360 
Q 992 3533 1056 3661 
Q 1120 3789 1225 3878 
Q 1331 3968 1478 4013 
Q 1626 4058 1786 4058 
Q 2118 4058 2332 3882 
Q 2547 3706 2547 3360 
Q 2547 3014 2336 2822 
Q 2125 2630 1798 2630 
Q 1632 2630 1485 2675 
Q 1338 2720 1229 2809 
Q 1120 2899 1056 3036 
Q 992 3174 992 3360 
z
M 416 3379 
Q 416 3072 589 2813 
Q 762 2554 1050 2438 
Q 666 2304 461 2006 
Q 256 1709 256 1306 
Q 256 960 374 701 
Q 493 442 701 269 
Q 909 96 1190 13 
Q 1472 -70 1798 -70 
Q 2112 -70 2387 19 
Q 2662 109 2864 285 
Q 3066 461 3184 717 
Q 3302 973 3302 1306 
Q 3302 1728 3104 2019 
Q 2906 2310 2496 2438 
Q 2784 2566 2953 2819 
Q 3123 3072 3123 3379 
Q 3123 3597 3046 3805 
Q 2970 4013 2806 4176 
Q 2643 4339 2380 4438 
Q 2118 4538 1747 4538 
Q 1485 4538 1245 4461 
Q 1005 4384 819 4237 
Q 634 4090 525 3875 
Q 416 3661 416 3379 
z
M 832 1280 
Q 832 1478 905 1638 
Q 979 1798 1110 1913 
Q 1242 2029 1418 2089 
Q 1594 2150 1792 2150 
Q 1984 2150 2153 2083 
Q 2323 2016 2451 1901 
Q 2579 1786 2652 1629 
Q 2726 1472 2726 1286 
Q 2726 1094 2659 934 
Q 2592 774 2467 656 
Q 2342 538 2172 470 
Q 2003 403 1798 403 
Q 1376 403 1104 636 
Q 832 870 832 1280 
z
" transform="scale(0.015625)"/>
       </defs>
       <use xlink:href="#HelveticaNeue-30"/>
       <use xlink:href="#HelveticaNeue-2e" x="55.599991"/>
       <use xlink:href="#HelveticaNeue-38" x="83.399979"/>
      </g>
     </g>
    </g>
    <g id="xtick_6">
     <g id="line2d_6">
      <g>
       <use xlink:href="#m2eee3e71e0" x="255.370348" y="448.56" style="stroke: #000000; stroke-width: 0.8"/>
      </g>
     </g>
     <g id="text_6">
      <!-- 1.0 -->
      <g transform="translate(245.641442 465.556875)scale(0.14 -0.14)">
       <defs>
        <path id="HelveticaNeue-31" d="M 2278 0 
L 2278 4538 
L 1862 4538 
Q 1818 4282 1696 4115 
Q 1574 3949 1398 3853 
Q 1222 3757 1004 3721 
Q 787 3686 557 3686 
L 557 3251 
L 1734 3251 
L 1734 0 
L 2278 0 
z
" transform="scale(0.015625)"/>
       </defs>
       <use xlink:href="#HelveticaNeue-31"/>
       <use xlink:href="#HelveticaNeue-2e" x="55.599991"/>
       <use xlink:href="#HelveticaNeue-30" x="83.399979"/>
      </g>
     </g>
    </g>
    <g id="xtick_7">
     <g id="line2d_7">
      <g>
       <use xlink:href="#m2eee3e71e0" x="176.844418" y="448.56" style="stroke: #000000; stroke-width: 0.8"/>
      </g>
     </g>
     <g id="text_7">
      <!-- 1.2 -->
      <g transform="translate(167.115512 465.556875)scale(0.14 -0.14)">
       <use xlink:href="#HelveticaNeue-31"/>
       <use xlink:href="#HelveticaNeue-2e" x="55.599991"/>
       <use xlink:href="#HelveticaNeue-32" x="83.399979"/>
      </g>
     </g>
    </g>
    <g id="xtick_8">
     <g id="line2d_8">
      <g>
       <use xlink:href="#m2eee3e71e0" x="98.318488" y="448.56" style="stroke: #000000; stroke-width: 0.8"/>
      </g>
     </g>
     <g id="text_8">
      <!-- 1.4 -->
      <g transform="translate(88.589581 465.556875)scale(0.14 -0.14)">
       <use xlink:href="#HelveticaNeue-31"/>
       <use xlink:href="#HelveticaNeue-2e" x="55.599991"/>
       <use xlink:href="#HelveticaNeue-34" x="83.399979"/>
      </g>
     </g>
    </g>
    <g id="text_9">
     <!-- Cosine distance -->
     <g transform="translate(315.104297 483.02625)scale(0.15 -0.15)">
      <defs>
       <path id="HelveticaNeue-43" d="M 3712 3194 
L 4320 3194 
Q 4269 3558 4102 3836 
Q 3936 4115 3686 4300 
Q 3437 4486 3117 4582 
Q 2797 4678 2438 4678 
Q 1914 4678 1507 4489 
Q 1101 4301 829 3974 
Q 557 3648 416 3209 
Q 275 2771 275 2272 
Q 275 1773 406 1337 
Q 538 902 800 582 
Q 1062 262 1459 80 
Q 1856 -102 2387 -102 
Q 3264 -102 3769 378 
Q 4275 858 4365 1722 
L 3757 1722 
Q 3738 1440 3642 1197 
Q 3546 954 3376 778 
Q 3206 602 2972 502 
Q 2739 403 2438 403 
Q 2029 403 1734 556 
Q 1440 710 1251 969 
Q 1062 1229 972 1577 
Q 883 1926 883 2317 
Q 883 2675 972 3008 
Q 1062 3341 1251 3600 
Q 1440 3859 1731 4012 
Q 2022 4166 2432 4166 
Q 2912 4166 3261 3923 
Q 3610 3680 3712 3194 
z
" transform="scale(0.015625)"/>
       <path id="HelveticaNeue-6f" d="M 806 1651 
Q 806 1952 886 2185 
Q 966 2419 1107 2579 
Q 1248 2739 1437 2822 
Q 1626 2906 1837 2906 
Q 2048 2906 2237 2822 
Q 2426 2739 2566 2579 
Q 2707 2419 2787 2185 
Q 2867 1952 2867 1651 
Q 2867 1350 2787 1116 
Q 2707 883 2566 726 
Q 2426 570 2237 486 
Q 2048 403 1837 403 
Q 1626 403 1437 486 
Q 1248 570 1107 726 
Q 966 883 886 1116 
Q 806 1350 806 1651 
z
M 230 1651 
Q 230 1286 332 972 
Q 435 659 640 425 
Q 845 192 1145 61 
Q 1446 -70 1837 -70 
Q 2234 -70 2531 61 
Q 2829 192 3033 425 
Q 3238 659 3340 972 
Q 3443 1286 3443 1651 
Q 3443 2016 3340 2333 
Q 3238 2650 3033 2883 
Q 2829 3117 2531 3251 
Q 2234 3386 1837 3386 
Q 1446 3386 1145 3251 
Q 845 3117 640 2883 
Q 435 2650 332 2333 
Q 230 2016 230 1651 
z
" transform="scale(0.015625)"/>
       <path id="HelveticaNeue-73" d="M 742 1043 
L 198 1043 
Q 211 736 326 521 
Q 442 307 634 176 
Q 826 45 1075 -12 
Q 1325 -70 1600 -70 
Q 1850 -70 2102 -22 
Q 2355 26 2556 147 
Q 2758 269 2883 467 
Q 3008 666 3008 966 
Q 3008 1203 2915 1363 
Q 2822 1523 2672 1628 
Q 2522 1734 2326 1798 
Q 2131 1862 1926 1907 
Q 1734 1952 1542 1993 
Q 1350 2035 1196 2096 
Q 1043 2157 944 2249 
Q 845 2342 845 2483 
Q 845 2611 909 2691 
Q 973 2771 1075 2819 
Q 1178 2867 1302 2886 
Q 1427 2906 1549 2906 
Q 1683 2906 1814 2877 
Q 1946 2848 2054 2784 
Q 2163 2720 2233 2614 
Q 2304 2509 2317 2349 
L 2861 2349 
Q 2842 2650 2733 2851 
Q 2624 3053 2441 3171 
Q 2259 3290 2022 3338 
Q 1786 3386 1504 3386 
Q 1286 3386 1065 3331 
Q 845 3277 669 3165 
Q 493 3053 381 2873 
Q 269 2694 269 2445 
Q 269 2125 429 1945 
Q 589 1766 829 1667 
Q 1069 1568 1350 1513 
Q 1632 1459 1872 1392 
Q 2112 1325 2272 1216 
Q 2432 1107 2432 896 
Q 2432 742 2355 643 
Q 2278 544 2160 493 
Q 2042 442 1901 422 
Q 1760 403 1632 403 
Q 1466 403 1309 435 
Q 1152 467 1027 540 
Q 902 614 825 739 
Q 749 864 742 1043 
z
" transform="scale(0.015625)"/>
       <path id="HelveticaNeue-69" d="M 986 3904 
L 986 4570 
L 442 4570 
L 442 3904 
L 986 3904 
z
M 442 3309 
L 442 0 
L 986 0 
L 986 3309 
L 442 3309 
z
" transform="scale(0.015625)"/>
       <path id="HelveticaNeue-6e" d="M 410 3309 
L 410 0 
L 954 0 
L 954 1869 
Q 954 2093 1014 2281 
Q 1075 2470 1196 2611 
Q 1318 2752 1500 2829 
Q 1683 2906 1933 2906 
Q 2246 2906 2425 2726 
Q 2605 2547 2605 2240 
L 2605 0 
L 3149 0 
L 3149 2176 
Q 3149 2445 3094 2665 
Q 3040 2886 2905 3046 
Q 2771 3206 2553 3296 
Q 2336 3386 2010 3386 
Q 1274 3386 934 2784 
L 922 2784 
L 922 3309 
L 410 3309 
z
" transform="scale(0.015625)"/>
       <path id="HelveticaNeue-65" d="M 2707 1971 
L 806 1971 
Q 819 2163 889 2332 
Q 960 2502 1081 2630 
Q 1203 2758 1372 2832 
Q 1542 2906 1754 2906 
Q 1958 2906 2128 2832 
Q 2298 2758 2422 2633 
Q 2547 2509 2620 2336 
Q 2694 2163 2707 1971 
z
M 3232 1050 
L 2694 1050 
Q 2624 723 2403 563 
Q 2182 403 1837 403 
Q 1568 403 1369 492 
Q 1171 582 1043 732 
Q 915 883 857 1078 
Q 800 1274 806 1491 
L 3283 1491 
Q 3296 1792 3229 2125 
Q 3162 2458 2986 2739 
Q 2810 3021 2518 3203 
Q 2227 3386 1786 3386 
Q 1446 3386 1161 3258 
Q 877 3130 669 2899 
Q 461 2669 345 2355 
Q 230 2042 230 1664 
Q 243 1286 342 966 
Q 442 646 640 416 
Q 838 186 1129 58 
Q 1421 -70 1818 -70 
Q 2381 -70 2752 211 
Q 3123 493 3232 1050 
z
" transform="scale(0.015625)"/>
       <path id="HelveticaNeue-20" transform="scale(0.015625)"/>
       <path id="HelveticaNeue-64" d="M 806 1626 
Q 806 1869 857 2099 
Q 909 2330 1024 2509 
Q 1139 2688 1331 2797 
Q 1523 2906 1798 2906 
Q 2080 2906 2278 2800 
Q 2477 2694 2601 2521 
Q 2726 2349 2784 2121 
Q 2842 1894 2842 1651 
Q 2842 1421 2787 1197 
Q 2733 973 2611 797 
Q 2490 621 2298 512 
Q 2106 403 1830 403 
Q 1568 403 1373 505 
Q 1178 608 1053 781 
Q 928 954 867 1174 
Q 806 1395 806 1626 
z
M 3366 0 
L 3366 4570 
L 2822 4570 
L 2822 2867 
L 2810 2867 
Q 2720 3014 2589 3113 
Q 2458 3213 2310 3273 
Q 2163 3334 2016 3360 
Q 1869 3386 1741 3386 
Q 1363 3386 1078 3248 
Q 794 3110 605 2876 
Q 416 2643 323 2329 
Q 230 2016 230 1664 
Q 230 1312 326 998 
Q 422 685 611 448 
Q 800 211 1085 70 
Q 1370 -70 1754 -70 
Q 2099 -70 2387 51 
Q 2675 173 2810 448 
L 2822 448 
L 2822 0 
L 3366 0 
z
" transform="scale(0.015625)"/>
       <path id="HelveticaNeue-74" d="M 1165 3309 
L 1165 4301 
L 621 4301 
L 621 3309 
L 58 3309 
L 58 2829 
L 621 2829 
L 621 723 
Q 621 493 665 352 
Q 710 211 803 134 
Q 896 58 1046 29 
Q 1197 0 1408 0 
L 1824 0 
L 1824 480 
L 1574 480 
Q 1446 480 1366 489 
Q 1286 499 1241 531 
Q 1197 563 1181 620 
Q 1165 678 1165 774 
L 1165 2829 
L 1824 2829 
L 1824 3309 
L 1165 3309 
z
" transform="scale(0.015625)"/>
       <path id="HelveticaNeue-61" d="M 3341 13 
Q 3200 -70 2950 -70 
Q 2739 -70 2614 48 
Q 2490 166 2490 435 
Q 2266 166 1968 48 
Q 1670 -70 1325 -70 
Q 1101 -70 899 -19 
Q 698 32 550 141 
Q 403 250 316 426 
Q 230 602 230 851 
Q 230 1133 326 1312 
Q 422 1491 579 1603 
Q 736 1715 937 1772 
Q 1139 1830 1350 1869 
Q 1574 1914 1776 1936 
Q 1978 1958 2131 2000 
Q 2285 2042 2374 2122 
Q 2464 2202 2464 2355 
Q 2464 2534 2397 2643 
Q 2330 2752 2224 2809 
Q 2118 2867 1987 2886 
Q 1856 2906 1728 2906 
Q 1382 2906 1152 2774 
Q 922 2643 902 2278 
L 358 2278 
Q 371 2586 486 2797 
Q 602 3008 794 3139 
Q 986 3270 1232 3328 
Q 1478 3386 1760 3386 
Q 1984 3386 2205 3354 
Q 2426 3322 2605 3222 
Q 2784 3123 2893 2944 
Q 3002 2765 3002 2477 
L 3002 774 
Q 3002 582 3024 492 
Q 3046 403 3174 403 
Q 3245 403 3341 435 
L 3341 13 
z
M 2458 1709 
Q 2355 1632 2188 1597 
Q 2022 1562 1840 1539 
Q 1658 1517 1472 1488 
Q 1286 1459 1139 1395 
Q 992 1331 899 1212 
Q 806 1094 806 890 
Q 806 755 860 662 
Q 915 570 1001 512 
Q 1088 454 1203 428 
Q 1318 403 1446 403 
Q 1715 403 1907 476 
Q 2099 550 2220 662 
Q 2342 774 2400 905 
Q 2458 1037 2458 1152 
L 2458 1709 
z
" transform="scale(0.015625)"/>
       <path id="HelveticaNeue-63" d="M 2656 2246 
L 3219 2246 
Q 3187 2541 3065 2755 
Q 2944 2970 2755 3110 
Q 2566 3251 2320 3318 
Q 2074 3386 1792 3386 
Q 1402 3386 1107 3248 
Q 813 3110 617 2870 
Q 422 2630 326 2307 
Q 230 1984 230 1613 
Q 230 1242 329 931 
Q 429 621 624 397 
Q 819 173 1110 51 
Q 1402 -70 1779 -70 
Q 2413 -70 2781 262 
Q 3149 595 3238 1210 
L 2682 1210 
Q 2630 826 2403 614 
Q 2176 403 1773 403 
Q 1517 403 1331 505 
Q 1146 608 1030 777 
Q 915 947 860 1164 
Q 806 1382 806 1613 
Q 806 1862 857 2096 
Q 909 2330 1027 2509 
Q 1146 2688 1344 2797 
Q 1542 2906 1837 2906 
Q 2182 2906 2387 2733 
Q 2592 2560 2656 2246 
z
" transform="scale(0.015625)"/>
      </defs>
      <use xlink:href="#HelveticaNeue-43"/>
      <use xlink:href="#HelveticaNeue-6f" x="72.199982"/>
      <use xlink:href="#HelveticaNeue-73" x="129.599976"/>
      <use xlink:href="#HelveticaNeue-69" x="179.59996"/>
      <use xlink:href="#HelveticaNeue-6e" x="201.799957"/>
      <use xlink:href="#HelveticaNeue-65" x="257.399948"/>
      <use xlink:href="#HelveticaNeue-20" x="311.099945"/>
      <use xlink:href="#HelveticaNeue-64" x="338.899933"/>
      <use xlink:href="#HelveticaNeue-69" x="398.199921"/>
      <use xlink:href="#HelveticaNeue-73" x="420.399918"/>
      <use xlink:href="#HelveticaNeue-74" x="470.399902"/>
      <use xlink:href="#HelveticaNeue-61" x="501.899887"/>
      <use xlink:href="#HelveticaNeue-6e" x="555.599884"/>
      <use xlink:href="#HelveticaNeue-63" x="611.199875"/>
      <use xlink:href="#HelveticaNeue-65" x="664.899872"/>
     </g>
    </g>
   </g>
   <g id="matplotlib.axis_2">
    <g id="ytick_1">
     <g id="line2d_9"/>
     <g id="text_10">
      <!--    3AFC -->
      <g transform="translate(651.5 435.918437)scale(0.14 -0.14)">
       <defs>
        <path id="HelveticaNeue-33" d="M 1395 2592 
L 1395 2131 
Q 1549 2150 1722 2150 
Q 1926 2150 2102 2096 
Q 2278 2042 2406 1930 
Q 2534 1818 2611 1654 
Q 2688 1491 2688 1280 
Q 2688 1075 2608 912 
Q 2528 749 2393 637 
Q 2259 525 2080 464 
Q 1901 403 1702 403 
Q 1235 403 992 681 
Q 749 960 736 1402 
L 192 1402 
Q 186 1050 291 774 
Q 397 499 595 310 
Q 794 122 1075 26 
Q 1357 -70 1702 -70 
Q 2022 -70 2307 16 
Q 2592 102 2803 275 
Q 3014 448 3139 707 
Q 3264 966 3264 1306 
Q 3264 1715 3062 2016 
Q 2861 2317 2445 2406 
L 2445 2419 
Q 2714 2541 2893 2777 
Q 3072 3014 3072 3322 
Q 3072 3635 2966 3865 
Q 2861 4096 2675 4243 
Q 2490 4390 2237 4464 
Q 1984 4538 1690 4538 
Q 1350 4538 1091 4429 
Q 832 4320 659 4128 
Q 486 3936 393 3667 
Q 301 3398 288 3072 
L 832 3072 
Q 832 3270 883 3449 
Q 934 3629 1040 3763 
Q 1146 3898 1309 3978 
Q 1472 4058 1690 4058 
Q 2035 4058 2265 3875 
Q 2496 3693 2496 3328 
Q 2496 3149 2425 3008 
Q 2355 2867 2236 2774 
Q 2118 2682 1961 2634 
Q 1805 2586 1632 2586 
L 1517 2586 
Q 1485 2586 1453 2586 
Q 1427 2586 1395 2592 
z
" transform="scale(0.015625)"/>
        <path id="HelveticaNeue-41" d="M 1286 1888 
L 2061 4019 
L 2074 4019 
L 2835 1888 
L 1286 1888 
z
M 1741 4570 
L -38 0 
L 582 0 
L 1094 1376 
L 3027 1376 
L 3526 0 
L 4198 0 
L 2413 4570 
L 1741 4570 
z
" transform="scale(0.015625)"/>
        <path id="HelveticaNeue-46" d="M 499 4570 
L 499 0 
L 1107 0 
L 1107 2093 
L 3206 2093 
L 3206 2605 
L 1107 2605 
L 1107 4058 
L 3501 4058 
L 3501 4570 
L 499 4570 
z
" transform="scale(0.015625)"/>
       </defs>
       <use xlink:href="#HelveticaNeue-20"/>
       <use xlink:href="#HelveticaNeue-20" x="27.799988"/>
       <use xlink:href="#HelveticaNeue-20" x="55.599976"/>
       <use xlink:href="#HelveticaNeue-33" x="83.399963"/>
       <use xlink:href="#HelveticaNeue-41" x="138.999954"/>
       <use xlink:href="#HelveticaNeue-46" x="203.799942"/>
       <use xlink:href="#HelveticaNeue-43" x="261.199936"/>
      </g>
     </g>
    </g>
    <g id="ytick_2">
     <g id="line2d_10"/>
     <g id="text_11">
      <!--    F    |   Cluster -->
      <g transform="translate(651.5 397.221563)scale(0.14 -0.14)">
       <defs>
        <path id="HelveticaNeue-7c" d="M 493 5030 
L 493 -1363 
L 928 -1363 
L 928 5030 
L 493 5030 
z
" transform="scale(0.015625)"/>
        <path id="HelveticaNeue-6c" d="M 442 4570 
L 442 0 
L 986 0 
L 986 4570 
L 442 4570 
z
" transform="scale(0.015625)"/>
        <path id="HelveticaNeue-75" d="M 3149 0 
L 3149 3309 
L 2605 3309 
L 2605 1440 
Q 2605 1216 2544 1027 
Q 2483 838 2361 697 
Q 2240 557 2057 480 
Q 1875 403 1626 403 
Q 1312 403 1133 582 
Q 954 762 954 1069 
L 954 3309 
L 410 3309 
L 410 1133 
Q 410 864 464 643 
Q 518 422 652 262 
Q 787 102 1004 16 
Q 1222 -70 1549 -70 
Q 1914 -70 2182 74 
Q 2451 218 2624 525 
L 2637 525 
L 2637 0 
L 3149 0 
z
" transform="scale(0.015625)"/>
        <path id="HelveticaNeue-72" d="M 390 3309 
L 390 0 
L 934 0 
L 934 1472 
Q 934 1792 998 2038 
Q 1062 2285 1203 2457 
Q 1344 2630 1574 2720 
Q 1805 2810 2131 2810 
L 2131 3386 
Q 1690 3398 1402 3206 
Q 1114 3014 915 2611 
L 902 2611 
L 902 3309 
L 390 3309 
z
" transform="scale(0.015625)"/>
       </defs>
       <use xlink:href="#HelveticaNeue-20"/>
       <use xlink:href="#HelveticaNeue-20" x="27.799988"/>
       <use xlink:href="#HelveticaNeue-20" x="55.599976"/>
       <use xlink:href="#HelveticaNeue-46" x="83.399963"/>
       <use xlink:href="#HelveticaNeue-20" x="140.799957"/>
       <use xlink:href="#HelveticaNeue-20" x="168.599945"/>
       <use xlink:href="#HelveticaNeue-20" x="196.399933"/>
       <use xlink:href="#HelveticaNeue-20" x="224.199921"/>
       <use xlink:href="#HelveticaNeue-7c" x="251.999908"/>
       <use xlink:href="#HelveticaNeue-20" x="274.199905"/>
       <use xlink:href="#HelveticaNeue-20" x="301.999893"/>
       <use xlink:href="#HelveticaNeue-20" x="329.799881"/>
       <use xlink:href="#HelveticaNeue-43" x="357.599869"/>
       <use xlink:href="#HelveticaNeue-6c" x="429.79985"/>
       <use xlink:href="#HelveticaNeue-75" x="451.999847"/>
       <use xlink:href="#HelveticaNeue-73" x="507.599838"/>
       <use xlink:href="#HelveticaNeue-74" x="557.599823"/>
       <use xlink:href="#HelveticaNeue-65" x="589.099808"/>
       <use xlink:href="#HelveticaNeue-72" x="642.799805"/>
      </g>
     </g>
    </g>
    <g id="ytick_3">
     <g id="line2d_11"/>
     <g id="text_12">
      <!--    FT   |   Cluster -->
      <g transform="translate(651.5 358.021562)scale(0.14 -0.14)">
       <defs>
        <path id="HelveticaNeue-54" d="M 1536 4058 
L 1536 0 
L 2144 0 
L 2144 4058 
L 3667 4058 
L 3667 4570 
L 13 4570 
L 13 4058 
L 1536 4058 
z
" transform="scale(0.015625)"/>
       </defs>
       <use xlink:href="#HelveticaNeue-20"/>
       <use xlink:href="#HelveticaNeue-20" x="27.799988"/>
       <use xlink:href="#HelveticaNeue-20" x="55.599976"/>
       <use xlink:href="#HelveticaNeue-46" x="83.399963"/>
       <use xlink:href="#HelveticaNeue-54" x="140.799957"/>
       <use xlink:href="#HelveticaNeue-20" x="198.199951"/>
       <use xlink:href="#HelveticaNeue-20" x="225.999939"/>
       <use xlink:href="#HelveticaNeue-20" x="253.799927"/>
       <use xlink:href="#HelveticaNeue-7c" x="281.599915"/>
       <use xlink:href="#HelveticaNeue-20" x="303.799911"/>
       <use xlink:href="#HelveticaNeue-20" x="331.599899"/>
       <use xlink:href="#HelveticaNeue-20" x="359.399887"/>
       <use xlink:href="#HelveticaNeue-43" x="387.199875"/>
       <use xlink:href="#HelveticaNeue-6c" x="459.399857"/>
       <use xlink:href="#HelveticaNeue-75" x="481.599854"/>
       <use xlink:href="#HelveticaNeue-73" x="537.199844"/>
       <use xlink:href="#HelveticaNeue-74" x="587.199829"/>
       <use xlink:href="#HelveticaNeue-65" x="618.699814"/>
       <use xlink:href="#HelveticaNeue-72" x="672.399811"/>
      </g>
     </g>
    </g>
    <g id="ytick_4">
     <g id="line2d_12"/>
     <g id="text_13">
      <!--    T    |   Cluster -->
      <g transform="translate(651.5 318.821563)scale(0.14 -0.14)">
       <use xlink:href="#HelveticaNeue-20"/>
       <use xlink:href="#HelveticaNeue-20" x="27.799988"/>
       <use xlink:href="#HelveticaNeue-20" x="55.599976"/>
       <use xlink:href="#HelveticaNeue-54" x="83.399963"/>
       <use xlink:href="#HelveticaNeue-20" x="140.799957"/>
       <use xlink:href="#HelveticaNeue-20" x="168.599945"/>
       <use xlink:href="#HelveticaNeue-20" x="196.399933"/>
       <use xlink:href="#HelveticaNeue-20" x="224.199921"/>
       <use xlink:href="#HelveticaNeue-7c" x="251.999908"/>
       <use xlink:href="#HelveticaNeue-20" x="274.199905"/>
       <use xlink:href="#HelveticaNeue-20" x="301.999893"/>
       <use xlink:href="#HelveticaNeue-20" x="329.799881"/>
       <use xlink:href="#HelveticaNeue-43" x="357.599869"/>
       <use xlink:href="#HelveticaNeue-6c" x="429.79985"/>
       <use xlink:href="#HelveticaNeue-75" x="451.999847"/>
       <use xlink:href="#HelveticaNeue-73" x="507.599838"/>
       <use xlink:href="#HelveticaNeue-74" x="557.599823"/>
       <use xlink:href="#HelveticaNeue-65" x="589.099808"/>
       <use xlink:href="#HelveticaNeue-72" x="642.799805"/>
      </g>
     </g>
    </g>
    <g id="ytick_5">
     <g id="line2d_13"/>
     <g id="text_14">
      <!--    FT   |   Continuous -->
      <g transform="translate(651.5 279.621562)scale(0.14 -0.14)">
       <use xlink:href="#HelveticaNeue-20"/>
       <use xlink:href="#HelveticaNeue-20" x="27.799988"/>
       <use xlink:href="#HelveticaNeue-20" x="55.599976"/>
       <use xlink:href="#HelveticaNeue-46" x="83.399963"/>
       <use xlink:href="#HelveticaNeue-54" x="140.799957"/>
       <use xlink:href="#HelveticaNeue-20" x="198.199951"/>
       <use xlink:href="#HelveticaNeue-20" x="225.999939"/>
       <use xlink:href="#HelveticaNeue-20" x="253.799927"/>
       <use xlink:href="#HelveticaNeue-7c" x="281.599915"/>
       <use xlink:href="#HelveticaNeue-20" x="303.799911"/>
       <use xlink:href="#HelveticaNeue-20" x="331.599899"/>
       <use xlink:href="#HelveticaNeue-20" x="359.399887"/>
       <use xlink:href="#HelveticaNeue-43" x="387.199875"/>
       <use xlink:href="#HelveticaNeue-6f" x="459.399857"/>
       <use xlink:href="#HelveticaNeue-6e" x="516.79985"/>
       <use xlink:href="#HelveticaNeue-74" x="572.399841"/>
       <use xlink:href="#HelveticaNeue-69" x="603.899826"/>
       <use xlink:href="#HelveticaNeue-6e" x="626.099823"/>
       <use xlink:href="#HelveticaNeue-75" x="681.699814"/>
       <use xlink:href="#HelveticaNeue-6f" x="737.299805"/>
       <use xlink:href="#HelveticaNeue-75" x="794.699799"/>
       <use xlink:href="#HelveticaNeue-73" x="850.299789"/>
      </g>
     </g>
    </g>
    <g id="ytick_6">
     <g id="line2d_14"/>
     <g id="text_15">
      <!--    T    |   Continuous -->
      <g transform="translate(651.5 240.421562)scale(0.14 -0.14)">
       <use xlink:href="#HelveticaNeue-20"/>
       <use xlink:href="#HelveticaNeue-20" x="27.799988"/>
       <use xlink:href="#HelveticaNeue-20" x="55.599976"/>
       <use xlink:href="#HelveticaNeue-54" x="83.399963"/>
       <use xlink:href="#HelveticaNeue-20" x="140.799957"/>
       <use xlink:href="#HelveticaNeue-20" x="168.599945"/>
       <use xlink:href="#HelveticaNeue-20" x="196.399933"/>
       <use xlink:href="#HelveticaNeue-20" x="224.199921"/>
       <use xlink:href="#HelveticaNeue-7c" x="251.999908"/>
       <use xlink:href="#HelveticaNeue-20" x="274.199905"/>
       <use xlink:href="#HelveticaNeue-20" x="301.999893"/>
       <use xlink:href="#HelveticaNeue-20" x="329.799881"/>
       <use xlink:href="#HelveticaNeue-43" x="357.599869"/>
       <use xlink:href="#HelveticaNeue-6f" x="429.79985"/>
       <use xlink:href="#HelveticaNeue-6e" x="487.199844"/>
       <use xlink:href="#HelveticaNeue-74" x="542.799835"/>
       <use xlink:href="#HelveticaNeue-69" x="574.29982"/>
       <use xlink:href="#HelveticaNeue-6e" x="596.499817"/>
       <use xlink:href="#HelveticaNeue-75" x="652.099808"/>
       <use xlink:href="#HelveticaNeue-6f" x="707.699799"/>
       <use xlink:href="#HelveticaNeue-75" x="765.099792"/>
       <use xlink:href="#HelveticaNeue-73" x="820.699783"/>
      </g>
     </g>
    </g>
    <g id="ytick_7">
     <g id="line2d_15"/>
     <g id="text_16">
      <!--    R    |   Cluster -->
      <g transform="translate(651.5 201.221563)scale(0.14 -0.14)">
       <defs>
        <path id="HelveticaNeue-52" d="M 499 4570 
L 499 0 
L 1107 0 
L 1107 1952 
L 2592 1952 
Q 2816 1952 2950 1885 
Q 3085 1818 3168 1706 
Q 3251 1594 3289 1443 
Q 3328 1293 3354 1126 
Q 3386 960 3392 787 
Q 3398 614 3404 464 
Q 3411 314 3433 192 
Q 3456 70 3520 0 
L 4198 0 
Q 4102 115 4054 265 
Q 4006 416 3980 582 
Q 3955 749 3948 921 
Q 3942 1094 3930 1261 
Q 3910 1427 3875 1580 
Q 3840 1734 3766 1859 
Q 3693 1984 3568 2073 
Q 3443 2163 3245 2202 
L 3245 2214 
Q 3661 2330 3849 2643 
Q 4038 2957 4038 3373 
Q 4038 3930 3670 4250 
Q 3302 4570 2650 4570 
L 499 4570 
z
M 2374 2464 
L 1107 2464 
L 1107 4058 
L 2618 4058 
Q 3046 4058 3238 3840 
Q 3430 3622 3430 3277 
Q 3430 3027 3344 2870 
Q 3258 2714 3114 2621 
Q 2970 2528 2778 2496 
Q 2586 2464 2374 2464 
z
" transform="scale(0.015625)"/>
       </defs>
       <use xlink:href="#HelveticaNeue-20"/>
       <use xlink:href="#HelveticaNeue-20" x="27.799988"/>
       <use xlink:href="#HelveticaNeue-20" x="55.599976"/>
       <use xlink:href="#HelveticaNeue-52" x="83.399963"/>
       <use xlink:href="#HelveticaNeue-20" x="151.899948"/>
       <use xlink:href="#HelveticaNeue-20" x="179.699936"/>
       <use xlink:href="#HelveticaNeue-20" x="207.499924"/>
       <use xlink:href="#HelveticaNeue-20" x="235.299911"/>
       <use xlink:href="#HelveticaNeue-7c" x="263.099899"/>
       <use xlink:href="#HelveticaNeue-20" x="285.299896"/>
       <use xlink:href="#HelveticaNeue-20" x="313.099884"/>
       <use xlink:href="#HelveticaNeue-20" x="340.899872"/>
       <use xlink:href="#HelveticaNeue-43" x="368.69986"/>
       <use xlink:href="#HelveticaNeue-6c" x="440.899841"/>
       <use xlink:href="#HelveticaNeue-75" x="463.099838"/>
       <use xlink:href="#HelveticaNeue-73" x="518.699829"/>
       <use xlink:href="#HelveticaNeue-74" x="568.699814"/>
       <use xlink:href="#HelveticaNeue-65" x="600.199799"/>
       <use xlink:href="#HelveticaNeue-72" x="653.899796"/>
      </g>
     </g>
    </g>
    <g id="ytick_8">
     <g id="line2d_16"/>
     <g id="text_17">
      <!--    R    |   Continuous -->
      <g transform="translate(651.5 162.021562)scale(0.14 -0.14)">
       <use xlink:href="#HelveticaNeue-20"/>
       <use xlink:href="#HelveticaNeue-20" x="27.799988"/>
       <use xlink:href="#HelveticaNeue-20" x="55.599976"/>
       <use xlink:href="#HelveticaNeue-52" x="83.399963"/>
       <use xlink:href="#HelveticaNeue-20" x="151.899948"/>
       <use xlink:href="#HelveticaNeue-20" x="179.699936"/>
       <use xlink:href="#HelveticaNeue-20" x="207.499924"/>
       <use xlink:href="#HelveticaNeue-20" x="235.299911"/>
       <use xlink:href="#HelveticaNeue-7c" x="263.099899"/>
       <use xlink:href="#HelveticaNeue-20" x="285.299896"/>
       <use xlink:href="#HelveticaNeue-20" x="313.099884"/>
       <use xlink:href="#HelveticaNeue-20" x="340.899872"/>
       <use xlink:href="#HelveticaNeue-43" x="368.69986"/>
       <use xlink:href="#HelveticaNeue-6f" x="440.899841"/>
       <use xlink:href="#HelveticaNeue-6e" x="498.299835"/>
       <use xlink:href="#HelveticaNeue-74" x="553.899826"/>
       <use xlink:href="#HelveticaNeue-69" x="585.399811"/>
       <use xlink:href="#HelveticaNeue-6e" x="607.599808"/>
       <use xlink:href="#HelveticaNeue-75" x="663.199799"/>
       <use xlink:href="#HelveticaNeue-6f" x="718.799789"/>
       <use xlink:href="#HelveticaNeue-75" x="776.199783"/>
       <use xlink:href="#HelveticaNeue-73" x="831.799774"/>
      </g>
     </g>
    </g>
    <g id="ytick_9">
     <g id="line2d_17"/>
     <g id="text_18">
      <!--    F    |   Continuous -->
      <g transform="translate(651.5 122.821562)scale(0.14 -0.14)">
       <use xlink:href="#HelveticaNeue-20"/>
       <use xlink:href="#HelveticaNeue-20" x="27.799988"/>
       <use xlink:href="#HelveticaNeue-20" x="55.599976"/>
       <use xlink:href="#HelveticaNeue-46" x="83.399963"/>
       <use xlink:href="#HelveticaNeue-20" x="140.799957"/>
       <use xlink:href="#HelveticaNeue-20" x="168.599945"/>
       <use xlink:href="#HelveticaNeue-20" x="196.399933"/>
       <use xlink:href="#HelveticaNeue-20" x="224.199921"/>
       <use xlink:href="#HelveticaNeue-7c" x="251.999908"/>
       <use xlink:href="#HelveticaNeue-20" x="274.199905"/>
       <use xlink:href="#HelveticaNeue-20" x="301.999893"/>
       <use xlink:href="#HelveticaNeue-20" x="329.799881"/>
       <use xlink:href="#HelveticaNeue-43" x="357.599869"/>
       <use xlink:href="#HelveticaNeue-6f" x="429.79985"/>
       <use xlink:href="#HelveticaNeue-6e" x="487.199844"/>
       <use xlink:href="#HelveticaNeue-74" x="542.799835"/>
       <use xlink:href="#HelveticaNeue-69" x="574.29982"/>
       <use xlink:href="#HelveticaNeue-6e" x="596.499817"/>
       <use xlink:href="#HelveticaNeue-75" x="652.099808"/>
       <use xlink:href="#HelveticaNeue-6f" x="707.699799"/>
       <use xlink:href="#HelveticaNeue-75" x="765.099792"/>
       <use xlink:href="#HelveticaNeue-73" x="820.699783"/>
      </g>
     </g>
    </g>
    <g id="ytick_10">
     <g id="line2d_18"/>
     <g id="text_19">
      <!--    Randomized -->
      <g transform="translate(651.5 83.118438)scale(0.14 -0.14)">
       <defs>
        <path id="HelveticaNeue-6d" d="M 410 3309 
L 410 0 
L 954 0 
L 954 2061 
Q 954 2157 1002 2301 
Q 1050 2445 1155 2579 
Q 1261 2714 1430 2810 
Q 1600 2906 1837 2906 
Q 2022 2906 2140 2851 
Q 2259 2797 2329 2697 
Q 2400 2598 2429 2464 
Q 2458 2330 2458 2170 
L 2458 0 
L 3002 0 
L 3002 2061 
Q 3002 2445 3232 2675 
Q 3462 2906 3866 2906 
Q 4064 2906 4189 2848 
Q 4314 2790 4384 2691 
Q 4454 2592 4480 2457 
Q 4506 2323 4506 2170 
L 4506 0 
L 5050 0 
L 5050 2426 
Q 5050 2682 4970 2864 
Q 4890 3046 4746 3161 
Q 4602 3277 4400 3331 
Q 4198 3386 3949 3386 
Q 3622 3386 3350 3238 
Q 3078 3091 2912 2822 
Q 2810 3130 2560 3258 
Q 2310 3386 2003 3386 
Q 1306 3386 934 2822 
L 922 2822 
L 922 3309 
L 410 3309 
z
" transform="scale(0.015625)"/>
        <path id="HelveticaNeue-7a" d="M 141 416 
L 141 0 
L 2931 0 
L 2931 480 
L 819 480 
L 2842 2938 
L 2842 3309 
L 269 3309 
L 269 2829 
L 2138 2829 
L 141 416 
z
" transform="scale(0.015625)"/>
       </defs>
       <use xlink:href="#HelveticaNeue-20"/>
       <use xlink:href="#HelveticaNeue-20" x="27.799988"/>
       <use xlink:href="#HelveticaNeue-20" x="55.599976"/>
       <use xlink:href="#HelveticaNeue-52" x="83.399963"/>
       <use xlink:href="#HelveticaNeue-61" x="151.899948"/>
       <use xlink:href="#HelveticaNeue-6e" x="205.599945"/>
       <use xlink:href="#HelveticaNeue-64" x="261.199936"/>
       <use xlink:href="#HelveticaNeue-6f" x="320.499924"/>
       <use xlink:href="#HelveticaNeue-6d" x="377.899918"/>
       <use xlink:href="#HelveticaNeue-69" x="463.199905"/>
       <use xlink:href="#HelveticaNeue-7a" x="485.399902"/>
       <use xlink:href="#HelveticaNeue-65" x="533.399887"/>
       <use xlink:href="#HelveticaNeue-64" x="587.099884"/>
      </g>
     </g>
    </g>
   </g>
   <g id="line2d_19">
    <path d="M 623.517453 352.52 
L 623.517453 313.32 
" clip-path="url(#peb1715e4f0)" style="fill: none; stroke: #000000; stroke-width: 1.5; stroke-linecap: square"/>
   </g>
   <g id="line2d_20">
    <path d="M 531.027219 391.72 
L 531.027219 332.92 
" clip-path="url(#peb1715e4f0)" style="fill: none; stroke: #000000; stroke-width: 1.5; stroke-linecap: square"/>
   </g>
   <g id="line2d_21">
    <path d="M 531.027219 332.92 
L 623.517453 332.92 
" clip-path="url(#peb1715e4f0)" style="fill: none; stroke: #000000; stroke-width: 1.5; stroke-linecap: square"/>
   </g>
   <g id="line2d_22">
    <path d="M 405.974544 430.92 
L 405.974544 362.32 
" clip-path="url(#peb1715e4f0)" style="fill: none; stroke: #000000; stroke-width: 1.5; stroke-linecap: square"/>
   </g>
   <g id="line2d_23">
    <path d="M 405.974544 362.32 
L 531.027219 362.32 
" clip-path="url(#peb1715e4f0)" style="fill: none; stroke: #000000; stroke-width: 1.5; stroke-linecap: square"/>
   </g>
   <g id="line2d_24">
    <path d="M 468.785249 274.12 
L 468.785249 234.92 
" clip-path="url(#peb1715e4f0)" style="fill: none; stroke: #000000; stroke-width: 1.5; stroke-linecap: square"/>
   </g>
   <g id="line2d_25">
    <path d="M 536.360426 117.32 
L 536.360426 78.12 
" clip-path="url(#peb1715e4f0)" style="fill: none; stroke: #000000; stroke-width: 1.5; stroke-linecap: square"/>
   </g>
   <g id="line2d_26">
    <path d="M 479.970585 156.52 
L 479.970585 97.72 
" clip-path="url(#peb1715e4f0)" style="fill: none; stroke: #000000; stroke-width: 1.5; stroke-linecap: square"/>
   </g>
   <g id="line2d_27">
    <path d="M 479.970585 97.72 
L 536.360426 97.72 
" clip-path="url(#peb1715e4f0)" style="fill: none; stroke: #000000; stroke-width: 1.5; stroke-linecap: square"/>
   </g>
   <g id="line2d_28">
    <path d="M 342.48378 195.72 
L 342.48378 127.12 
" clip-path="url(#peb1715e4f0)" style="fill: none; stroke: #000000; stroke-width: 1.5; stroke-linecap: square"/>
   </g>
   <g id="line2d_29">
    <path d="M 342.48378 127.12 
L 479.970585 127.12 
" clip-path="url(#peb1715e4f0)" style="fill: none; stroke: #000000; stroke-width: 1.5; stroke-linecap: square"/>
   </g>
   <g id="line2d_30">
    <path d="M 468.785249 254.52 
L 219.279554 254.52 
" clip-path="url(#peb1715e4f0)" style="fill: none; stroke: #000000; stroke-width: 1.5; stroke-linecap: square"/>
   </g>
   <g id="line2d_31">
    <path d="M 219.279554 254.52 
L 219.279554 161.42 
" clip-path="url(#peb1715e4f0)" style="fill: none; stroke: #000000; stroke-width: 1.5; stroke-linecap: square"/>
   </g>
   <g id="line2d_32">
    <path d="M 219.279554 161.42 
L 342.48378 161.42 
" clip-path="url(#peb1715e4f0)" style="fill: none; stroke: #000000; stroke-width: 1.5; stroke-linecap: square"/>
   </g>
   <g id="line2d_33">
    <path d="M 405.974544 396.62 
L 90 396.62 
" clip-path="url(#peb1715e4f0)" style="fill: none; stroke: #000000; stroke-width: 1.5; stroke-linecap: square"/>
   </g>
   <g id="line2d_34">
    <path d="M 90 396.62 
L 90 207.97 
" clip-path="url(#peb1715e4f0)" style="fill: none; stroke: #000000; stroke-width: 1.5; stroke-linecap: square"/>
   </g>
   <g id="line2d_35">
    <path d="M 90 207.97 
L 219.279554 207.97 
" clip-path="url(#peb1715e4f0)" style="fill: none; stroke: #000000; stroke-width: 1.5; stroke-linecap: square"/>
   </g>
   <g id="line2d_36">
    <path d="M 648 430.92 
L 405.974544 430.92 
" clip-path="url(#peb1715e4f0)" style="fill: none; stroke: #ed5153; stroke-width: 5; stroke-linecap: square"/>
   </g>
   <g id="line2d_37">
    <path d="M 648 391.72 
L 531.027219 391.72 
" clip-path="url(#peb1715e4f0)" style="fill: none; stroke: #e3bc59; stroke-width: 5; stroke-linecap: square"/>
   </g>
   <g id="line2d_38">
    <path d="M 648 352.52 
L 623.517453 352.52 
" clip-path="url(#peb1715e4f0)" style="fill: none; stroke: #e03639; stroke-width: 5; stroke-linecap: square"/>
   </g>
   <g id="line2d_39">
    <path d="M 623.517453 313.32 
L 648 313.32 
" clip-path="url(#peb1715e4f0)" style="fill: none; stroke: #52bfb6; stroke-width: 5; stroke-linecap: square"/>
   </g>
   <g id="line2d_40">
    <path d="M 648 274.12 
L 468.785249 274.12 
" clip-path="url(#peb1715e4f0)" style="fill: none; stroke: #e03639; stroke-width: 5; stroke-linecap: square"/>
   </g>
   <g id="line2d_41">
    <path d="M 468.785249 234.92 
L 648 234.92 
" clip-path="url(#peb1715e4f0)" style="fill: none; stroke: #52bfb6; stroke-width: 5; stroke-linecap: square"/>
   </g>
   <g id="line2d_42">
    <path d="M 648 195.72 
L 342.48378 195.72 
" clip-path="url(#peb1715e4f0)" style="fill: none; stroke: #292f36; stroke-width: 5; stroke-linecap: square"/>
   </g>
   <g id="line2d_43">
    <path d="M 648 156.52 
L 479.970585 156.52 
" clip-path="url(#peb1715e4f0)" style="fill: none; stroke: #292f36; stroke-width: 5; stroke-linecap: square"/>
   </g>
   <g id="line2d_44">
    <path d="M 648 117.32 
L 536.360426 117.32 
" clip-path="url(#peb1715e4f0)" style="fill: none; stroke: #e3bc59; stroke-width: 5; stroke-linecap: square"/>
   </g>
   <g id="line2d_45">
    <path d="M 536.360426 78.12 
L 648 78.12 
" clip-path="url(#peb1715e4f0)" style="fill: none; stroke: #4a5666; stroke-width: 5; stroke-linecap: square"/>
   </g>
   <g id="patch_3">
    <path d="M 90 448.56 
L 648 448.56 
" style="fill: none; stroke: #000000; stroke-width: 0.8; stroke-linejoin: miter; stroke-linecap: square"/>
   </g>
  </g>
 </g>
 <defs>
  <clipPath id="peb1715e4f0">
   <rect x="90" y="60.48" width="558" height="388.08"/>
  </clipPath>
 </defs>
</svg>
