<?xml version="1.0" encoding="utf-8" standalone="no"?>
<!DOCTYPE svg PUBLIC "-//W3C//DTD SVG 1.1//EN"
  "http://www.w3.org/Graphics/SVG/1.1/DTD/svg11.dtd">
<svg xmlns:xlink="http://www.w3.org/1999/xlink" width="324pt" height="383.76pt" viewBox="0 0 324 383.76" xmlns="http://www.w3.org/2000/svg" version="1.1">
 <metadata>
  <rdf:RDF xmlns:dc="http://purl.org/dc/elements/1.1/" xmlns:cc="http://creativecommons.org/ns#" xmlns:rdf="http://www.w3.org/1999/02/22-rdf-syntax-ns#">
   <cc:Work>
    <dc:type rdf:resource="http://purl.org/dc/dcmitype/StillImage"/>
    <dc:date>2023-07-28T04:21:30.564153</dc:date>
    <dc:format>image/svg+xml</dc:format>
    <dc:creator>
     <cc:Agent>
      <dc:title>Matplotlib v3.5.1, https://matplotlib.org/</dc:title>
     </cc:Agent>
    </dc:creator>
   </cc:Work>
  </rdf:RDF>
 </metadata>
 <defs>
  <style type="text/css">*{stroke-linejoin: round; stroke-linecap: butt}</style>
 </defs>
 <g id="figure_1">
  <g id="patch_1">
   <path d="M 0 383.76 
L 324 383.76 
L 324 0 
L 0 0 
z
" style="fill: #ffffff"/>
  </g>
  <g id="axes_1">
   <g id="patch_2">
    <path d="M 40.5 341.5464 
L 291.6 341.5464 
L 291.6 46.0512 
L 40.5 46.0512 
z
" style="fill: #ffffff"/>
   </g>
   <g id="matplotlib.axis_1">
    <g id="xtick_1">
     <g id="line2d_1">
      <defs>
       <path id="m0f6aecae83" d="M 0 0 
L 0 3.5 
" style="stroke: #000000; stroke-width: 0.8"/>
      </defs>
      <g>
       <use xlink:href="#m0f6aecae83" x="291.6" y="341.5464" style="stroke: #000000; stroke-width: 0.8"/>
      </g>
     </g>
     <g id="text_1">
      <!-- 0.0 -->
      <g transform="translate(281.871094 358.543275)scale(0.14 -0.14)">
       <defs>
        <path id="HelveticaNeue-30" d="M 845 2234 
Q 845 2400 848 2601 
Q 851 2803 880 3004 
Q 909 3206 963 3398 
Q 1018 3590 1123 3734 
Q 1229 3878 1389 3968 
Q 1549 4058 1779 4058 
Q 2010 4058 2170 3968 
Q 2330 3878 2435 3734 
Q 2541 3590 2595 3398 
Q 2650 3206 2678 3004 
Q 2707 2803 2710 2601 
Q 2714 2400 2714 2234 
Q 2714 1978 2698 1661 
Q 2682 1344 2595 1065 
Q 2509 787 2317 595 
Q 2125 403 1779 403 
Q 1434 403 1242 595 
Q 1050 787 963 1065 
Q 877 1344 861 1661 
Q 845 1978 845 2234 
z
M 269 2227 
Q 269 1978 281 1709 
Q 294 1440 345 1184 
Q 397 928 493 701 
Q 589 474 755 301 
Q 922 128 1174 29 
Q 1427 -70 1779 -70 
Q 2138 -70 2387 29 
Q 2637 128 2803 301 
Q 2970 474 3066 701 
Q 3162 928 3213 1184 
Q 3264 1440 3277 1709 
Q 3290 1978 3290 2227 
Q 3290 2477 3277 2745 
Q 3264 3014 3213 3270 
Q 3162 3526 3066 3756 
Q 2970 3987 2803 4160 
Q 2637 4333 2384 4435 
Q 2131 4538 1779 4538 
Q 1427 4538 1174 4435 
Q 922 4333 755 4160 
Q 589 3987 493 3756 
Q 397 3526 345 3270 
Q 294 3014 281 2745 
Q 269 2477 269 2227 
z
" transform="scale(0.015625)"/>
        <path id="HelveticaNeue-2e" d="M 531 710 
L 531 0 
L 1242 0 
L 1242 710 
L 531 710 
z
" transform="scale(0.015625)"/>
       </defs>
       <use xlink:href="#HelveticaNeue-30"/>
       <use xlink:href="#HelveticaNeue-2e" x="55.599991"/>
       <use xlink:href="#HelveticaNeue-30" x="83.399979"/>
      </g>
     </g>
    </g>
    <g id="xtick_2">
     <g id="line2d_2">
      <g>
       <use xlink:href="#m0f6aecae83" x="202.973523" y="341.5464" style="stroke: #000000; stroke-width: 0.8"/>
      </g>
     </g>
     <g id="text_2">
      <!-- 0.5 -->
      <g transform="translate(193.244616 358.543275)scale(0.14 -0.14)">
       <defs>
        <path id="HelveticaNeue-35" d="M 3008 3981 
L 3008 4461 
L 768 4461 
L 346 2106 
L 813 2080 
Q 973 2272 1181 2390 
Q 1389 2509 1658 2509 
Q 1888 2509 2077 2432 
Q 2266 2355 2400 2217 
Q 2534 2080 2608 1891 
Q 2682 1702 2682 1478 
Q 2682 1210 2605 1008 
Q 2528 806 2397 672 
Q 2266 538 2090 470 
Q 1914 403 1722 403 
Q 1517 403 1347 464 
Q 1178 525 1053 637 
Q 928 749 854 899 
Q 781 1050 768 1222 
L 224 1222 
Q 230 915 345 672 
Q 461 429 659 265 
Q 858 102 1117 16 
Q 1376 -70 1670 -70 
Q 2067 -70 2364 54 
Q 2662 179 2860 390 
Q 3059 602 3158 874 
Q 3258 1146 3258 1434 
Q 3258 1824 3142 2115 
Q 3027 2406 2828 2601 
Q 2630 2797 2361 2893 
Q 2093 2989 1792 2989 
Q 1562 2989 1328 2909 
Q 1094 2829 947 2662 
L 934 2675 
L 1178 3981 
L 3008 3981 
z
" transform="scale(0.015625)"/>
       </defs>
       <use xlink:href="#HelveticaNeue-30"/>
       <use xlink:href="#HelveticaNeue-2e" x="55.599991"/>
       <use xlink:href="#HelveticaNeue-35" x="83.399979"/>
      </g>
     </g>
    </g>
    <g id="xtick_3">
     <g id="line2d_3">
      <g>
       <use xlink:href="#m0f6aecae83" x="114.347045" y="341.5464" style="stroke: #000000; stroke-width: 0.8"/>
      </g>
     </g>
     <g id="text_3">
      <!-- 1.0 -->
      <g transform="translate(104.618139 358.543275)scale(0.14 -0.14)">
       <defs>
        <path id="HelveticaNeue-31" d="M 2278 0 
L 2278 4538 
L 1862 4538 
Q 1818 4282 1696 4115 
Q 1574 3949 1398 3853 
Q 1222 3757 1004 3721 
Q 787 3686 557 3686 
L 557 3251 
L 1734 3251 
L 1734 0 
L 2278 0 
z
" transform="scale(0.015625)"/>
       </defs>
       <use xlink:href="#HelveticaNeue-31"/>
       <use xlink:href="#HelveticaNeue-2e" x="55.599991"/>
       <use xlink:href="#HelveticaNeue-30" x="83.399979"/>
      </g>
     </g>
    </g>
    <g id="text_4">
     <!-- Cosine distance -->
     <g transform="translate(112.154297 376.01265)scale(0.15 -0.15)">
      <defs>
       <path id="HelveticaNeue-43" d="M 3712 3194 
L 4320 3194 
Q 4269 3558 4102 3836 
Q 3936 4115 3686 4300 
Q 3437 4486 3117 4582 
Q 2797 4678 2438 4678 
Q 1914 4678 1507 4489 
Q 1101 4301 829 3974 
Q 557 3648 416 3209 
Q 275 2771 275 2272 
Q 275 1773 406 1337 
Q 538 902 800 582 
Q 1062 262 1459 80 
Q 1856 -102 2387 -102 
Q 3264 -102 3769 378 
Q 4275 858 4365 1722 
L 3757 1722 
Q 3738 1440 3642 1197 
Q 3546 954 3376 778 
Q 3206 602 2972 502 
Q 2739 403 2438 403 
Q 2029 403 1734 556 
Q 1440 710 1251 969 
Q 1062 1229 972 1577 
Q 883 1926 883 2317 
Q 883 2675 972 3008 
Q 1062 3341 1251 3600 
Q 1440 3859 1731 4012 
Q 2022 4166 2432 4166 
Q 2912 4166 3261 3923 
Q 3610 3680 3712 3194 
z
" transform="scale(0.015625)"/>
       <path id="HelveticaNeue-6f" d="M 806 1651 
Q 806 1952 886 2185 
Q 966 2419 1107 2579 
Q 1248 2739 1437 2822 
Q 1626 2906 1837 2906 
Q 2048 2906 2237 2822 
Q 2426 2739 2566 2579 
Q 2707 2419 2787 2185 
Q 2867 1952 2867 1651 
Q 2867 1350 2787 1116 
Q 2707 883 2566 726 
Q 2426 570 2237 486 
Q 2048 403 1837 403 
Q 1626 403 1437 486 
Q 1248 570 1107 726 
Q 966 883 886 1116 
Q 806 1350 806 1651 
z
M 230 1651 
Q 230 1286 332 972 
Q 435 659 640 425 
Q 845 192 1145 61 
Q 1446 -70 1837 -70 
Q 2234 -70 2531 61 
Q 2829 192 3033 425 
Q 3238 659 3340 972 
Q 3443 1286 3443 1651 
Q 3443 2016 3340 2333 
Q 3238 2650 3033 2883 
Q 2829 3117 2531 3251 
Q 2234 3386 1837 3386 
Q 1446 3386 1145 3251 
Q 845 3117 640 2883 
Q 435 2650 332 2333 
Q 230 2016 230 1651 
z
" transform="scale(0.015625)"/>
       <path id="HelveticaNeue-73" d="M 742 1043 
L 198 1043 
Q 211 736 326 521 
Q 442 307 634 176 
Q 826 45 1075 -12 
Q 1325 -70 1600 -70 
Q 1850 -70 2102 -22 
Q 2355 26 2556 147 
Q 2758 269 2883 467 
Q 3008 666 3008 966 
Q 3008 1203 2915 1363 
Q 2822 1523 2672 1628 
Q 2522 1734 2326 1798 
Q 2131 1862 1926 1907 
Q 1734 1952 1542 1993 
Q 1350 2035 1196 2096 
Q 1043 2157 944 2249 
Q 845 2342 845 2483 
Q 845 2611 909 2691 
Q 973 2771 1075 2819 
Q 1178 2867 1302 2886 
Q 1427 2906 1549 2906 
Q 1683 2906 1814 2877 
Q 1946 2848 2054 2784 
Q 2163 2720 2233 2614 
Q 2304 2509 2317 2349 
L 2861 2349 
Q 2842 2650 2733 2851 
Q 2624 3053 2441 3171 
Q 2259 3290 2022 3338 
Q 1786 3386 1504 3386 
Q 1286 3386 1065 3331 
Q 845 3277 669 3165 
Q 493 3053 381 2873 
Q 269 2694 269 2445 
Q 269 2125 429 1945 
Q 589 1766 829 1667 
Q 1069 1568 1350 1513 
Q 1632 1459 1872 1392 
Q 2112 1325 2272 1216 
Q 2432 1107 2432 896 
Q 2432 742 2355 643 
Q 2278 544 2160 493 
Q 2042 442 1901 422 
Q 1760 403 1632 403 
Q 1466 403 1309 435 
Q 1152 467 1027 540 
Q 902 614 825 739 
Q 749 864 742 1043 
z
" transform="scale(0.015625)"/>
       <path id="HelveticaNeue-69" d="M 986 3904 
L 986 4570 
L 442 4570 
L 442 3904 
L 986 3904 
z
M 442 3309 
L 442 0 
L 986 0 
L 986 3309 
L 442 3309 
z
" transform="scale(0.015625)"/>
       <path id="HelveticaNeue-6e" d="M 410 3309 
L 410 0 
L 954 0 
L 954 1869 
Q 954 2093 1014 2281 
Q 1075 2470 1196 2611 
Q 1318 2752 1500 2829 
Q 1683 2906 1933 2906 
Q 2246 2906 2425 2726 
Q 2605 2547 2605 2240 
L 2605 0 
L 3149 0 
L 3149 2176 
Q 3149 2445 3094 2665 
Q 3040 2886 2905 3046 
Q 2771 3206 2553 3296 
Q 2336 3386 2010 3386 
Q 1274 3386 934 2784 
L 922 2784 
L 922 3309 
L 410 3309 
z
" transform="scale(0.015625)"/>
       <path id="HelveticaNeue-65" d="M 2707 1971 
L 806 1971 
Q 819 2163 889 2332 
Q 960 2502 1081 2630 
Q 1203 2758 1372 2832 
Q 1542 2906 1754 2906 
Q 1958 2906 2128 2832 
Q 2298 2758 2422 2633 
Q 2547 2509 2620 2336 
Q 2694 2163 2707 1971 
z
M 3232 1050 
L 2694 1050 
Q 2624 723 2403 563 
Q 2182 403 1837 403 
Q 1568 403 1369 492 
Q 1171 582 1043 732 
Q 915 883 857 1078 
Q 800 1274 806 1491 
L 3283 1491 
Q 3296 1792 3229 2125 
Q 3162 2458 2986 2739 
Q 2810 3021 2518 3203 
Q 2227 3386 1786 3386 
Q 1446 3386 1161 3258 
Q 877 3130 669 2899 
Q 461 2669 345 2355 
Q 230 2042 230 1664 
Q 243 1286 342 966 
Q 442 646 640 416 
Q 838 186 1129 58 
Q 1421 -70 1818 -70 
Q 2381 -70 2752 211 
Q 3123 493 3232 1050 
z
" transform="scale(0.015625)"/>
       <path id="HelveticaNeue-20" transform="scale(0.015625)"/>
       <path id="HelveticaNeue-64" d="M 806 1626 
Q 806 1869 857 2099 
Q 909 2330 1024 2509 
Q 1139 2688 1331 2797 
Q 1523 2906 1798 2906 
Q 2080 2906 2278 2800 
Q 2477 2694 2601 2521 
Q 2726 2349 2784 2121 
Q 2842 1894 2842 1651 
Q 2842 1421 2787 1197 
Q 2733 973 2611 797 
Q 2490 621 2298 512 
Q 2106 403 1830 403 
Q 1568 403 1373 505 
Q 1178 608 1053 781 
Q 928 954 867 1174 
Q 806 1395 806 1626 
z
M 3366 0 
L 3366 4570 
L 2822 4570 
L 2822 2867 
L 2810 2867 
Q 2720 3014 2589 3113 
Q 2458 3213 2310 3273 
Q 2163 3334 2016 3360 
Q 1869 3386 1741 3386 
Q 1363 3386 1078 3248 
Q 794 3110 605 2876 
Q 416 2643 323 2329 
Q 230 2016 230 1664 
Q 230 1312 326 998 
Q 422 685 611 448 
Q 800 211 1085 70 
Q 1370 -70 1754 -70 
Q 2099 -70 2387 51 
Q 2675 173 2810 448 
L 2822 448 
L 2822 0 
L 3366 0 
z
" transform="scale(0.015625)"/>
       <path id="HelveticaNeue-74" d="M 1165 3309 
L 1165 4301 
L 621 4301 
L 621 3309 
L 58 3309 
L 58 2829 
L 621 2829 
L 621 723 
Q 621 493 665 352 
Q 710 211 803 134 
Q 896 58 1046 29 
Q 1197 0 1408 0 
L 1824 0 
L 1824 480 
L 1574 480 
Q 1446 480 1366 489 
Q 1286 499 1241 531 
Q 1197 563 1181 620 
Q 1165 678 1165 774 
L 1165 2829 
L 1824 2829 
L 1824 3309 
L 1165 3309 
z
" transform="scale(0.015625)"/>
       <path id="HelveticaNeue-61" d="M 3341 13 
Q 3200 -70 2950 -70 
Q 2739 -70 2614 48 
Q 2490 166 2490 435 
Q 2266 166 1968 48 
Q 1670 -70 1325 -70 
Q 1101 -70 899 -19 
Q 698 32 550 141 
Q 403 250 316 426 
Q 230 602 230 851 
Q 230 1133 326 1312 
Q 422 1491 579 1603 
Q 736 1715 937 1772 
Q 1139 1830 1350 1869 
Q 1574 1914 1776 1936 
Q 1978 1958 2131 2000 
Q 2285 2042 2374 2122 
Q 2464 2202 2464 2355 
Q 2464 2534 2397 2643 
Q 2330 2752 2224 2809 
Q 2118 2867 1987 2886 
Q 1856 2906 1728 2906 
Q 1382 2906 1152 2774 
Q 922 2643 902 2278 
L 358 2278 
Q 371 2586 486 2797 
Q 602 3008 794 3139 
Q 986 3270 1232 3328 
Q 1478 3386 1760 3386 
Q 1984 3386 2205 3354 
Q 2426 3322 2605 3222 
Q 2784 3123 2893 2944 
Q 3002 2765 3002 2477 
L 3002 774 
Q 3002 582 3024 492 
Q 3046 403 3174 403 
Q 3245 403 3341 435 
L 3341 13 
z
M 2458 1709 
Q 2355 1632 2188 1597 
Q 2022 1562 1840 1539 
Q 1658 1517 1472 1488 
Q 1286 1459 1139 1395 
Q 992 1331 899 1212 
Q 806 1094 806 890 
Q 806 755 860 662 
Q 915 570 1001 512 
Q 1088 454 1203 428 
Q 1318 403 1446 403 
Q 1715 403 1907 476 
Q 2099 550 2220 662 
Q 2342 774 2400 905 
Q 2458 1037 2458 1152 
L 2458 1709 
z
" transform="scale(0.015625)"/>
       <path id="HelveticaNeue-63" d="M 2656 2246 
L 3219 2246 
Q 3187 2541 3065 2755 
Q 2944 2970 2755 3110 
Q 2566 3251 2320 3318 
Q 2074 3386 1792 3386 
Q 1402 3386 1107 3248 
Q 813 3110 617 2870 
Q 422 2630 326 2307 
Q 230 1984 230 1613 
Q 230 1242 329 931 
Q 429 621 624 397 
Q 819 173 1110 51 
Q 1402 -70 1779 -70 
Q 2413 -70 2781 262 
Q 3149 595 3238 1210 
L 2682 1210 
Q 2630 826 2403 614 
Q 2176 403 1773 403 
Q 1517 403 1331 505 
Q 1146 608 1030 777 
Q 915 947 860 1164 
Q 806 1382 806 1613 
Q 806 1862 857 2096 
Q 909 2330 1027 2509 
Q 1146 2688 1344 2797 
Q 1542 2906 1837 2906 
Q 2182 2906 2387 2733 
Q 2592 2560 2656 2246 
z
" transform="scale(0.015625)"/>
      </defs>
      <use xlink:href="#HelveticaNeue-43"/>
      <use xlink:href="#HelveticaNeue-6f" x="72.199982"/>
      <use xlink:href="#HelveticaNeue-73" x="129.599976"/>
      <use xlink:href="#HelveticaNeue-69" x="179.59996"/>
      <use xlink:href="#HelveticaNeue-6e" x="201.799957"/>
      <use xlink:href="#HelveticaNeue-65" x="257.399948"/>
      <use xlink:href="#HelveticaNeue-20" x="311.099945"/>
      <use xlink:href="#HelveticaNeue-64" x="338.899933"/>
      <use xlink:href="#HelveticaNeue-69" x="398.199921"/>
      <use xlink:href="#HelveticaNeue-73" x="420.399918"/>
      <use xlink:href="#HelveticaNeue-74" x="470.399902"/>
      <use xlink:href="#HelveticaNeue-61" x="501.899887"/>
      <use xlink:href="#HelveticaNeue-6e" x="555.599884"/>
      <use xlink:href="#HelveticaNeue-63" x="611.199875"/>
      <use xlink:href="#HelveticaNeue-65" x="664.899872"/>
     </g>
    </g>
   </g>
   <g id="matplotlib.axis_2">
    <g id="ytick_1">
     <g id="line2d_4"/>
     <g id="text_5">
      <!--    Randomized -->
      <g transform="translate(295.1 333.113238)scale(0.14 -0.14)">
       <defs>
        <path id="HelveticaNeue-52" d="M 499 4570 
L 499 0 
L 1107 0 
L 1107 1952 
L 2592 1952 
Q 2816 1952 2950 1885 
Q 3085 1818 3168 1706 
Q 3251 1594 3289 1443 
Q 3328 1293 3354 1126 
Q 3386 960 3392 787 
Q 3398 614 3404 464 
Q 3411 314 3433 192 
Q 3456 70 3520 0 
L 4198 0 
Q 4102 115 4054 265 
Q 4006 416 3980 582 
Q 3955 749 3948 921 
Q 3942 1094 3930 1261 
Q 3910 1427 3875 1580 
Q 3840 1734 3766 1859 
Q 3693 1984 3568 2073 
Q 3443 2163 3245 2202 
L 3245 2214 
Q 3661 2330 3849 2643 
Q 4038 2957 4038 3373 
Q 4038 3930 3670 4250 
Q 3302 4570 2650 4570 
L 499 4570 
z
M 2374 2464 
L 1107 2464 
L 1107 4058 
L 2618 4058 
Q 3046 4058 3238 3840 
Q 3430 3622 3430 3277 
Q 3430 3027 3344 2870 
Q 3258 2714 3114 2621 
Q 2970 2528 2778 2496 
Q 2586 2464 2374 2464 
z
" transform="scale(0.015625)"/>
        <path id="HelveticaNeue-6d" d="M 410 3309 
L 410 0 
L 954 0 
L 954 2061 
Q 954 2157 1002 2301 
Q 1050 2445 1155 2579 
Q 1261 2714 1430 2810 
Q 1600 2906 1837 2906 
Q 2022 2906 2140 2851 
Q 2259 2797 2329 2697 
Q 2400 2598 2429 2464 
Q 2458 2330 2458 2170 
L 2458 0 
L 3002 0 
L 3002 2061 
Q 3002 2445 3232 2675 
Q 3462 2906 3866 2906 
Q 4064 2906 4189 2848 
Q 4314 2790 4384 2691 
Q 4454 2592 4480 2457 
Q 4506 2323 4506 2170 
L 4506 0 
L 5050 0 
L 5050 2426 
Q 5050 2682 4970 2864 
Q 4890 3046 4746 3161 
Q 4602 3277 4400 3331 
Q 4198 3386 3949 3386 
Q 3622 3386 3350 3238 
Q 3078 3091 2912 2822 
Q 2810 3130 2560 3258 
Q 2310 3386 2003 3386 
Q 1306 3386 934 2822 
L 922 2822 
L 922 3309 
L 410 3309 
z
" transform="scale(0.015625)"/>
        <path id="HelveticaNeue-7a" d="M 141 416 
L 141 0 
L 2931 0 
L 2931 480 
L 819 480 
L 2842 2938 
L 2842 3309 
L 269 3309 
L 269 2829 
L 2138 2829 
L 141 416 
z
" transform="scale(0.015625)"/>
       </defs>
       <use xlink:href="#HelveticaNeue-20"/>
       <use xlink:href="#HelveticaNeue-20" x="27.799988"/>
       <use xlink:href="#HelveticaNeue-20" x="55.599976"/>
       <use xlink:href="#HelveticaNeue-52" x="83.399963"/>
       <use xlink:href="#HelveticaNeue-61" x="151.899948"/>
       <use xlink:href="#HelveticaNeue-6e" x="205.599945"/>
       <use xlink:href="#HelveticaNeue-64" x="261.199936"/>
       <use xlink:href="#HelveticaNeue-6f" x="320.499924"/>
       <use xlink:href="#HelveticaNeue-6d" x="377.899918"/>
       <use xlink:href="#HelveticaNeue-69" x="463.199905"/>
       <use xlink:href="#HelveticaNeue-7a" x="485.399902"/>
       <use xlink:href="#HelveticaNeue-65" x="533.399887"/>
       <use xlink:href="#HelveticaNeue-64" x="587.099884"/>
      </g>
     </g>
    </g>
    <g id="ytick_2">
     <g id="line2d_5"/>
     <g id="text_6">
      <!--    F    |   Continuous -->
      <g transform="translate(295.1 303.768362)scale(0.14 -0.14)">
       <defs>
        <path id="HelveticaNeue-46" d="M 499 4570 
L 499 0 
L 1107 0 
L 1107 2093 
L 3206 2093 
L 3206 2605 
L 1107 2605 
L 1107 4058 
L 3501 4058 
L 3501 4570 
L 499 4570 
z
" transform="scale(0.015625)"/>
        <path id="HelveticaNeue-7c" d="M 493 5030 
L 493 -1363 
L 928 -1363 
L 928 5030 
L 493 5030 
z
" transform="scale(0.015625)"/>
        <path id="HelveticaNeue-75" d="M 3149 0 
L 3149 3309 
L 2605 3309 
L 2605 1440 
Q 2605 1216 2544 1027 
Q 2483 838 2361 697 
Q 2240 557 2057 480 
Q 1875 403 1626 403 
Q 1312 403 1133 582 
Q 954 762 954 1069 
L 954 3309 
L 410 3309 
L 410 1133 
Q 410 864 464 643 
Q 518 422 652 262 
Q 787 102 1004 16 
Q 1222 -70 1549 -70 
Q 1914 -70 2182 74 
Q 2451 218 2624 525 
L 2637 525 
L 2637 0 
L 3149 0 
z
" transform="scale(0.015625)"/>
       </defs>
       <use xlink:href="#HelveticaNeue-20"/>
       <use xlink:href="#HelveticaNeue-20" x="27.799988"/>
       <use xlink:href="#HelveticaNeue-20" x="55.599976"/>
       <use xlink:href="#HelveticaNeue-46" x="83.399963"/>
       <use xlink:href="#HelveticaNeue-20" x="140.799957"/>
       <use xlink:href="#HelveticaNeue-20" x="168.599945"/>
       <use xlink:href="#HelveticaNeue-20" x="196.399933"/>
       <use xlink:href="#HelveticaNeue-20" x="224.199921"/>
       <use xlink:href="#HelveticaNeue-7c" x="251.999908"/>
       <use xlink:href="#HelveticaNeue-20" x="274.199905"/>
       <use xlink:href="#HelveticaNeue-20" x="301.999893"/>
       <use xlink:href="#HelveticaNeue-20" x="329.799881"/>
       <use xlink:href="#HelveticaNeue-43" x="357.599869"/>
       <use xlink:href="#HelveticaNeue-6f" x="429.79985"/>
       <use xlink:href="#HelveticaNeue-6e" x="487.199844"/>
       <use xlink:href="#HelveticaNeue-74" x="542.799835"/>
       <use xlink:href="#HelveticaNeue-69" x="574.29982"/>
       <use xlink:href="#HelveticaNeue-6e" x="596.499817"/>
       <use xlink:href="#HelveticaNeue-75" x="652.099808"/>
       <use xlink:href="#HelveticaNeue-6f" x="707.699799"/>
       <use xlink:href="#HelveticaNeue-75" x="765.099792"/>
       <use xlink:href="#HelveticaNeue-73" x="820.699783"/>
      </g>
     </g>
    </g>
    <g id="ytick_3">
     <g id="line2d_6"/>
     <g id="text_7">
      <!--    R    |   Continuous -->
      <g transform="translate(295.1 273.920363)scale(0.14 -0.14)">
       <use xlink:href="#HelveticaNeue-20"/>
       <use xlink:href="#HelveticaNeue-20" x="27.799988"/>
       <use xlink:href="#HelveticaNeue-20" x="55.599976"/>
       <use xlink:href="#HelveticaNeue-52" x="83.399963"/>
       <use xlink:href="#HelveticaNeue-20" x="151.899948"/>
       <use xlink:href="#HelveticaNeue-20" x="179.699936"/>
       <use xlink:href="#HelveticaNeue-20" x="207.499924"/>
       <use xlink:href="#HelveticaNeue-20" x="235.299911"/>
       <use xlink:href="#HelveticaNeue-7c" x="263.099899"/>
       <use xlink:href="#HelveticaNeue-20" x="285.299896"/>
       <use xlink:href="#HelveticaNeue-20" x="313.099884"/>
       <use xlink:href="#HelveticaNeue-20" x="340.899872"/>
       <use xlink:href="#HelveticaNeue-43" x="368.69986"/>
       <use xlink:href="#HelveticaNeue-6f" x="440.899841"/>
       <use xlink:href="#HelveticaNeue-6e" x="498.299835"/>
       <use xlink:href="#HelveticaNeue-74" x="553.899826"/>
       <use xlink:href="#HelveticaNeue-69" x="585.399811"/>
       <use xlink:href="#HelveticaNeue-6e" x="607.599808"/>
       <use xlink:href="#HelveticaNeue-75" x="663.199799"/>
       <use xlink:href="#HelveticaNeue-6f" x="718.799789"/>
       <use xlink:href="#HelveticaNeue-75" x="776.199783"/>
       <use xlink:href="#HelveticaNeue-73" x="831.799774"/>
      </g>
     </g>
    </g>
    <g id="ytick_4">
     <g id="line2d_7"/>
     <g id="text_8">
      <!--    FT   |   Continuous -->
      <g transform="translate(295.1 244.072362)scale(0.14 -0.14)">
       <defs>
        <path id="HelveticaNeue-54" d="M 1536 4058 
L 1536 0 
L 2144 0 
L 2144 4058 
L 3667 4058 
L 3667 4570 
L 13 4570 
L 13 4058 
L 1536 4058 
z
" transform="scale(0.015625)"/>
       </defs>
       <use xlink:href="#HelveticaNeue-20"/>
       <use xlink:href="#HelveticaNeue-20" x="27.799988"/>
       <use xlink:href="#HelveticaNeue-20" x="55.599976"/>
       <use xlink:href="#HelveticaNeue-46" x="83.399963"/>
       <use xlink:href="#HelveticaNeue-54" x="140.799957"/>
       <use xlink:href="#HelveticaNeue-20" x="198.199951"/>
       <use xlink:href="#HelveticaNeue-20" x="225.999939"/>
       <use xlink:href="#HelveticaNeue-20" x="253.799927"/>
       <use xlink:href="#HelveticaNeue-7c" x="281.599915"/>
       <use xlink:href="#HelveticaNeue-20" x="303.799911"/>
       <use xlink:href="#HelveticaNeue-20" x="331.599899"/>
       <use xlink:href="#HelveticaNeue-20" x="359.399887"/>
       <use xlink:href="#HelveticaNeue-43" x="387.199875"/>
       <use xlink:href="#HelveticaNeue-6f" x="459.399857"/>
       <use xlink:href="#HelveticaNeue-6e" x="516.79985"/>
       <use xlink:href="#HelveticaNeue-74" x="572.399841"/>
       <use xlink:href="#HelveticaNeue-69" x="603.899826"/>
       <use xlink:href="#HelveticaNeue-6e" x="626.099823"/>
       <use xlink:href="#HelveticaNeue-75" x="681.699814"/>
       <use xlink:href="#HelveticaNeue-6f" x="737.299805"/>
       <use xlink:href="#HelveticaNeue-75" x="794.699799"/>
       <use xlink:href="#HelveticaNeue-73" x="850.299789"/>
      </g>
     </g>
    </g>
    <g id="ytick_5">
     <g id="line2d_8"/>
     <g id="text_9">
      <!--    T    |   Continuous -->
      <g transform="translate(295.1 214.224363)scale(0.14 -0.14)">
       <use xlink:href="#HelveticaNeue-20"/>
       <use xlink:href="#HelveticaNeue-20" x="27.799988"/>
       <use xlink:href="#HelveticaNeue-20" x="55.599976"/>
       <use xlink:href="#HelveticaNeue-54" x="83.399963"/>
       <use xlink:href="#HelveticaNeue-20" x="140.799957"/>
       <use xlink:href="#HelveticaNeue-20" x="168.599945"/>
       <use xlink:href="#HelveticaNeue-20" x="196.399933"/>
       <use xlink:href="#HelveticaNeue-20" x="224.199921"/>
       <use xlink:href="#HelveticaNeue-7c" x="251.999908"/>
       <use xlink:href="#HelveticaNeue-20" x="274.199905"/>
       <use xlink:href="#HelveticaNeue-20" x="301.999893"/>
       <use xlink:href="#HelveticaNeue-20" x="329.799881"/>
       <use xlink:href="#HelveticaNeue-43" x="357.599869"/>
       <use xlink:href="#HelveticaNeue-6f" x="429.79985"/>
       <use xlink:href="#HelveticaNeue-6e" x="487.199844"/>
       <use xlink:href="#HelveticaNeue-74" x="542.799835"/>
       <use xlink:href="#HelveticaNeue-69" x="574.29982"/>
       <use xlink:href="#HelveticaNeue-6e" x="596.499817"/>
       <use xlink:href="#HelveticaNeue-75" x="652.099808"/>
       <use xlink:href="#HelveticaNeue-6f" x="707.699799"/>
       <use xlink:href="#HelveticaNeue-75" x="765.099792"/>
       <use xlink:href="#HelveticaNeue-73" x="820.699783"/>
      </g>
     </g>
    </g>
    <g id="ytick_6">
     <g id="line2d_9"/>
     <g id="text_10">
      <!--    R    |   Cluster -->
      <g transform="translate(295.1 184.376362)scale(0.14 -0.14)">
       <defs>
        <path id="HelveticaNeue-6c" d="M 442 4570 
L 442 0 
L 986 0 
L 986 4570 
L 442 4570 
z
" transform="scale(0.015625)"/>
        <path id="HelveticaNeue-72" d="M 390 3309 
L 390 0 
L 934 0 
L 934 1472 
Q 934 1792 998 2038 
Q 1062 2285 1203 2457 
Q 1344 2630 1574 2720 
Q 1805 2810 2131 2810 
L 2131 3386 
Q 1690 3398 1402 3206 
Q 1114 3014 915 2611 
L 902 2611 
L 902 3309 
L 390 3309 
z
" transform="scale(0.015625)"/>
       </defs>
       <use xlink:href="#HelveticaNeue-20"/>
       <use xlink:href="#HelveticaNeue-20" x="27.799988"/>
       <use xlink:href="#HelveticaNeue-20" x="55.599976"/>
       <use xlink:href="#HelveticaNeue-52" x="83.399963"/>
       <use xlink:href="#HelveticaNeue-20" x="151.899948"/>
       <use xlink:href="#HelveticaNeue-20" x="179.699936"/>
       <use xlink:href="#HelveticaNeue-20" x="207.499924"/>
       <use xlink:href="#HelveticaNeue-20" x="235.299911"/>
       <use xlink:href="#HelveticaNeue-7c" x="263.099899"/>
       <use xlink:href="#HelveticaNeue-20" x="285.299896"/>
       <use xlink:href="#HelveticaNeue-20" x="313.099884"/>
       <use xlink:href="#HelveticaNeue-20" x="340.899872"/>
       <use xlink:href="#HelveticaNeue-43" x="368.69986"/>
       <use xlink:href="#HelveticaNeue-6c" x="440.899841"/>
       <use xlink:href="#HelveticaNeue-75" x="463.099838"/>
       <use xlink:href="#HelveticaNeue-73" x="518.699829"/>
       <use xlink:href="#HelveticaNeue-74" x="568.699814"/>
       <use xlink:href="#HelveticaNeue-65" x="600.199799"/>
       <use xlink:href="#HelveticaNeue-72" x="653.899796"/>
      </g>
     </g>
    </g>
    <g id="ytick_7">
     <g id="line2d_10"/>
     <g id="text_11">
      <!--    3AFC -->
      <g transform="translate(295.1 154.025237)scale(0.14 -0.14)">
       <defs>
        <path id="HelveticaNeue-33" d="M 1395 2592 
L 1395 2131 
Q 1549 2150 1722 2150 
Q 1926 2150 2102 2096 
Q 2278 2042 2406 1930 
Q 2534 1818 2611 1654 
Q 2688 1491 2688 1280 
Q 2688 1075 2608 912 
Q 2528 749 2393 637 
Q 2259 525 2080 464 
Q 1901 403 1702 403 
Q 1235 403 992 681 
Q 749 960 736 1402 
L 192 1402 
Q 186 1050 291 774 
Q 397 499 595 310 
Q 794 122 1075 26 
Q 1357 -70 1702 -70 
Q 2022 -70 2307 16 
Q 2592 102 2803 275 
Q 3014 448 3139 707 
Q 3264 966 3264 1306 
Q 3264 1715 3062 2016 
Q 2861 2317 2445 2406 
L 2445 2419 
Q 2714 2541 2893 2777 
Q 3072 3014 3072 3322 
Q 3072 3635 2966 3865 
Q 2861 4096 2675 4243 
Q 2490 4390 2237 4464 
Q 1984 4538 1690 4538 
Q 1350 4538 1091 4429 
Q 832 4320 659 4128 
Q 486 3936 393 3667 
Q 301 3398 288 3072 
L 832 3072 
Q 832 3270 883 3449 
Q 934 3629 1040 3763 
Q 1146 3898 1309 3978 
Q 1472 4058 1690 4058 
Q 2035 4058 2265 3875 
Q 2496 3693 2496 3328 
Q 2496 3149 2425 3008 
Q 2355 2867 2236 2774 
Q 2118 2682 1961 2634 
Q 1805 2586 1632 2586 
L 1517 2586 
Q 1485 2586 1453 2586 
Q 1427 2586 1395 2592 
z
" transform="scale(0.015625)"/>
        <path id="HelveticaNeue-41" d="M 1286 1888 
L 2061 4019 
L 2074 4019 
L 2835 1888 
L 1286 1888 
z
M 1741 4570 
L -38 0 
L 582 0 
L 1094 1376 
L 3027 1376 
L 3526 0 
L 4198 0 
L 2413 4570 
L 1741 4570 
z
" transform="scale(0.015625)"/>
       </defs>
       <use xlink:href="#HelveticaNeue-20"/>
       <use xlink:href="#HelveticaNeue-20" x="27.799988"/>
       <use xlink:href="#HelveticaNeue-20" x="55.599976"/>
       <use xlink:href="#HelveticaNeue-33" x="83.399963"/>
       <use xlink:href="#HelveticaNeue-41" x="138.999954"/>
       <use xlink:href="#HelveticaNeue-46" x="203.799942"/>
       <use xlink:href="#HelveticaNeue-43" x="261.199936"/>
      </g>
     </g>
    </g>
    <g id="ytick_8">
     <g id="line2d_11"/>
     <g id="text_12">
      <!--    F    |   Cluster -->
      <g transform="translate(295.1 124.680362)scale(0.14 -0.14)">
       <use xlink:href="#HelveticaNeue-20"/>
       <use xlink:href="#HelveticaNeue-20" x="27.799988"/>
       <use xlink:href="#HelveticaNeue-20" x="55.599976"/>
       <use xlink:href="#HelveticaNeue-46" x="83.399963"/>
       <use xlink:href="#HelveticaNeue-20" x="140.799957"/>
       <use xlink:href="#HelveticaNeue-20" x="168.599945"/>
       <use xlink:href="#HelveticaNeue-20" x="196.399933"/>
       <use xlink:href="#HelveticaNeue-20" x="224.199921"/>
       <use xlink:href="#HelveticaNeue-7c" x="251.999908"/>
       <use xlink:href="#HelveticaNeue-20" x="274.199905"/>
       <use xlink:href="#HelveticaNeue-20" x="301.999893"/>
       <use xlink:href="#HelveticaNeue-20" x="329.799881"/>
       <use xlink:href="#HelveticaNeue-43" x="357.599869"/>
       <use xlink:href="#HelveticaNeue-6c" x="429.79985"/>
       <use xlink:href="#HelveticaNeue-75" x="451.999847"/>
       <use xlink:href="#HelveticaNeue-73" x="507.599838"/>
       <use xlink:href="#HelveticaNeue-74" x="557.599823"/>
       <use xlink:href="#HelveticaNeue-65" x="589.099808"/>
       <use xlink:href="#HelveticaNeue-72" x="642.799805"/>
      </g>
     </g>
    </g>
    <g id="ytick_9">
     <g id="line2d_12"/>
     <g id="text_13">
      <!--    FT   |   Cluster -->
      <g transform="translate(295.1 94.832362)scale(0.14 -0.14)">
       <use xlink:href="#HelveticaNeue-20"/>
       <use xlink:href="#HelveticaNeue-20" x="27.799988"/>
       <use xlink:href="#HelveticaNeue-20" x="55.599976"/>
       <use xlink:href="#HelveticaNeue-46" x="83.399963"/>
       <use xlink:href="#HelveticaNeue-54" x="140.799957"/>
       <use xlink:href="#HelveticaNeue-20" x="198.199951"/>
       <use xlink:href="#HelveticaNeue-20" x="225.999939"/>
       <use xlink:href="#HelveticaNeue-20" x="253.799927"/>
       <use xlink:href="#HelveticaNeue-7c" x="281.599915"/>
       <use xlink:href="#HelveticaNeue-20" x="303.799911"/>
       <use xlink:href="#HelveticaNeue-20" x="331.599899"/>
       <use xlink:href="#HelveticaNeue-20" x="359.399887"/>
       <use xlink:href="#HelveticaNeue-43" x="387.199875"/>
       <use xlink:href="#HelveticaNeue-6c" x="459.399857"/>
       <use xlink:href="#HelveticaNeue-75" x="481.599854"/>
       <use xlink:href="#HelveticaNeue-73" x="537.199844"/>
       <use xlink:href="#HelveticaNeue-74" x="587.199829"/>
       <use xlink:href="#HelveticaNeue-65" x="618.699814"/>
       <use xlink:href="#HelveticaNeue-72" x="672.399811"/>
      </g>
     </g>
    </g>
    <g id="ytick_10">
     <g id="line2d_13"/>
     <g id="text_14">
      <!--    T    |   Cluster -->
      <g transform="translate(295.1 64.984362)scale(0.14 -0.14)">
       <use xlink:href="#HelveticaNeue-20"/>
       <use xlink:href="#HelveticaNeue-20" x="27.799988"/>
       <use xlink:href="#HelveticaNeue-20" x="55.599976"/>
       <use xlink:href="#HelveticaNeue-54" x="83.399963"/>
       <use xlink:href="#HelveticaNeue-20" x="140.799957"/>
       <use xlink:href="#HelveticaNeue-20" x="168.599945"/>
       <use xlink:href="#HelveticaNeue-20" x="196.399933"/>
       <use xlink:href="#HelveticaNeue-20" x="224.199921"/>
       <use xlink:href="#HelveticaNeue-7c" x="251.999908"/>
       <use xlink:href="#HelveticaNeue-20" x="274.199905"/>
       <use xlink:href="#HelveticaNeue-20" x="301.999893"/>
       <use xlink:href="#HelveticaNeue-20" x="329.799881"/>
       <use xlink:href="#HelveticaNeue-43" x="357.599869"/>
       <use xlink:href="#HelveticaNeue-6c" x="429.79985"/>
       <use xlink:href="#HelveticaNeue-75" x="451.999847"/>
       <use xlink:href="#HelveticaNeue-73" x="507.599838"/>
       <use xlink:href="#HelveticaNeue-74" x="557.599823"/>
       <use xlink:href="#HelveticaNeue-65" x="589.099808"/>
       <use xlink:href="#HelveticaNeue-72" x="642.799805"/>
      </g>
     </g>
    </g>
   </g>
   <g id="line2d_14">
    <path d="M 251.429184 298.2668 
L 251.429184 268.4188 
" clip-path="url(#pf902d08fae)" style="fill: none; stroke: #b4b8bf; stroke-width: 2; stroke-linecap: square"/>
   </g>
   <g id="line2d_15">
    <path d="M 226.050181 328.1148 
L 226.050181 283.3428 
" clip-path="url(#pf902d08fae)" style="fill: none; stroke: #b4b8bf; stroke-width: 2; stroke-linecap: square"/>
   </g>
   <g id="line2d_16">
    <path d="M 226.050181 283.3428 
L 251.429184 283.3428 
" clip-path="url(#pf902d08fae)" style="fill: none; stroke: #b4b8bf; stroke-width: 2; stroke-linecap: square"/>
   </g>
   <g id="line2d_17">
    <path d="M 192.327338 238.5708 
L 192.327338 208.7228 
" clip-path="url(#pf902d08fae)" style="fill: none; stroke: #b4b8bf; stroke-width: 2; stroke-linecap: square"/>
   </g>
   <g id="line2d_18">
    <path d="M 226.050181 305.7288 
L 147.793118 305.7288 
" clip-path="url(#pf902d08fae)" style="fill: none; stroke: #b4b8bf; stroke-width: 2; stroke-linecap: square"/>
   </g>
   <g id="line2d_19">
    <path d="M 147.793118 305.7288 
L 147.793118 223.6468 
" clip-path="url(#pf902d08fae)" style="fill: none; stroke: #b4b8bf; stroke-width: 2; stroke-linecap: square"/>
   </g>
   <g id="line2d_20">
    <path d="M 147.793118 223.6468 
L 192.327338 223.6468 
" clip-path="url(#pf902d08fae)" style="fill: none; stroke: #b4b8bf; stroke-width: 2; stroke-linecap: square"/>
   </g>
   <g id="line2d_21">
    <path d="M 234.699969 89.3308 
L 234.699969 59.4828 
" clip-path="url(#pf902d08fae)" style="fill: none; stroke: #b4b8bf; stroke-width: 2; stroke-linecap: square"/>
   </g>
   <g id="line2d_22">
    <path d="M 202.587555 119.1788 
L 202.587555 74.4068 
" clip-path="url(#pf902d08fae)" style="fill: none; stroke: #b4b8bf; stroke-width: 2; stroke-linecap: square"/>
   </g>
   <g id="line2d_23">
    <path d="M 202.587555 74.4068 
L 234.699969 74.4068 
" clip-path="url(#pf902d08fae)" style="fill: none; stroke: #b4b8bf; stroke-width: 2; stroke-linecap: square"/>
   </g>
   <g id="line2d_24">
    <path d="M 167.43306 149.0268 
L 167.43306 96.7928 
" clip-path="url(#pf902d08fae)" style="fill: none; stroke: #b4b8bf; stroke-width: 2; stroke-linecap: square"/>
   </g>
   <g id="line2d_25">
    <path d="M 167.43306 96.7928 
L 202.587555 96.7928 
" clip-path="url(#pf902d08fae)" style="fill: none; stroke: #b4b8bf; stroke-width: 2; stroke-linecap: square"/>
   </g>
   <g id="line2d_26">
    <path d="M 118.465604 178.8748 
L 118.465604 122.9098 
" clip-path="url(#pf902d08fae)" style="fill: none; stroke: #b4b8bf; stroke-width: 2; stroke-linecap: square"/>
   </g>
   <g id="line2d_27">
    <path d="M 118.465604 122.9098 
L 167.43306 122.9098 
" clip-path="url(#pf902d08fae)" style="fill: none; stroke: #b4b8bf; stroke-width: 2; stroke-linecap: square"/>
   </g>
   <g id="line2d_28">
    <path d="M 147.793118 264.6878 
L 40.5 264.6878 
" clip-path="url(#pf902d08fae)" style="fill: none; stroke: #b4b8bf; stroke-width: 2; stroke-linecap: square"/>
   </g>
   <g id="line2d_29">
    <path d="M 40.5 264.6878 
L 40.5 150.8923 
" clip-path="url(#pf902d08fae)" style="fill: none; stroke: #b4b8bf; stroke-width: 2; stroke-linecap: square"/>
   </g>
   <g id="line2d_30">
    <path d="M 40.5 150.8923 
L 118.465604 150.8923 
" clip-path="url(#pf902d08fae)" style="fill: none; stroke: #b4b8bf; stroke-width: 2; stroke-linecap: square"/>
   </g>
   <g id="line2d_31">
    <path d="M 291.6 328.1148 
L 226.050181 328.1148 
" clip-path="url(#pf902d08fae)" style="fill: none; stroke: #4a5666; stroke-width: 5; stroke-linecap: square"/>
   </g>
   <g id="line2d_32">
    <path d="M 291.6 298.2668 
L 251.429184 298.2668 
" clip-path="url(#pf902d08fae)" style="fill: none; stroke: #e3bc59; stroke-width: 5; stroke-linecap: square"/>
   </g>
   <g id="line2d_33">
    <path d="M 251.429184 268.4188 
L 291.6 268.4188 
" clip-path="url(#pf902d08fae)" style="fill: none; stroke: #292f36; stroke-width: 5; stroke-linecap: square"/>
   </g>
   <g id="line2d_34">
    <path d="M 291.6 238.5708 
L 192.327338 238.5708 
" clip-path="url(#pf902d08fae)" style="fill: none; stroke: #e03639; stroke-width: 5; stroke-linecap: square"/>
   </g>
   <g id="line2d_35">
    <path d="M 192.327338 208.7228 
L 291.6 208.7228 
" clip-path="url(#pf902d08fae)" style="fill: none; stroke: #52bfb6; stroke-width: 5; stroke-linecap: square"/>
   </g>
   <g id="line2d_36">
    <path d="M 291.6 178.8748 
L 118.465604 178.8748 
" clip-path="url(#pf902d08fae)" style="fill: none; stroke: #292f36; stroke-width: 5; stroke-linecap: square"/>
   </g>
   <g id="line2d_37">
    <path d="M 291.6 149.0268 
L 167.43306 149.0268 
" clip-path="url(#pf902d08fae)" style="fill: none; stroke: #ed5153; stroke-width: 5; stroke-linecap: square"/>
   </g>
   <g id="line2d_38">
    <path d="M 291.6 119.1788 
L 202.587555 119.1788 
" clip-path="url(#pf902d08fae)" style="fill: none; stroke: #e3bc59; stroke-width: 5; stroke-linecap: square"/>
   </g>
   <g id="line2d_39">
    <path d="M 291.6 89.3308 
L 234.699969 89.3308 
" clip-path="url(#pf902d08fae)" style="fill: none; stroke: #e03639; stroke-width: 5; stroke-linecap: square"/>
   </g>
   <g id="line2d_40">
    <path d="M 234.699969 59.4828 
L 291.6 59.4828 
" clip-path="url(#pf902d08fae)" style="fill: none; stroke: #52bfb6; stroke-width: 5; stroke-linecap: square"/>
   </g>
   <g id="patch_3">
    <path d="M 40.5 341.5464 
L 291.6 341.5464 
" style="fill: none; stroke: #000000; stroke-width: 0.8; stroke-linejoin: miter; stroke-linecap: square"/>
   </g>
  </g>
 </g>
 <defs>
  <clipPath id="pf902d08fae">
   <rect x="40.5" y="46.0512" width="251.1" height="295.4952"/>
  </clipPath>
 </defs>
</svg>
