<?xml version="1.0" encoding="utf-8" standalone="no"?>
<!DOCTYPE svg PUBLIC "-//W3C//DTD SVG 1.1//EN"
  "http://www.w3.org/Graphics/SVG/1.1/DTD/svg11.dtd">
<svg xmlns:xlink="http://www.w3.org/1999/xlink" width="720pt" height="383.76pt" viewBox="0 0 720 383.76" xmlns="http://www.w3.org/2000/svg" version="1.1">
 <metadata>
  <rdf:RDF xmlns:dc="http://purl.org/dc/elements/1.1/" xmlns:cc="http://creativecommons.org/ns#" xmlns:rdf="http://www.w3.org/1999/02/22-rdf-syntax-ns#">
   <cc:Work>
    <dc:type rdf:resource="http://purl.org/dc/dcmitype/StillImage"/>
    <dc:date>2023-07-30T21:48:57.907425</dc:date>
    <dc:format>image/svg+xml</dc:format>
    <dc:creator>
     <cc:Agent>
      <dc:title>Matplotlib v3.5.1, https://matplotlib.org/</dc:title>
     </cc:Agent>
    </dc:creator>
   </cc:Work>
  </rdf:RDF>
 </metadata>
 <defs>
  <style type="text/css">*{stroke-linejoin: round; stroke-linecap: butt}</style>
 </defs>
 <g id="figure_1">
  <g id="patch_1">
   <path d="M 0 383.76 
L 720 383.76 
L 720 0 
L 0 0 
z
" style="fill: #ffffff"/>
  </g>
  <g id="axes_1">
   <g id="patch_2">
    <path d="M 65.99 328.84 
L 351.36 328.84 
L 351.36 34.8 
L 65.99 34.8 
z
" style="fill: #ffffff"/>
   </g>
   <g id="PathCollection_1">
    <defs>
     <path id="C0_0_4aaa6d923f" d="M 0 2.738613 
C 0.726289 2.738613 1.422928 2.450055 1.936492 1.936492 
C 2.450055 1.422928 2.738613 0.726289 2.738613 -0 
C 2.738613 -0.726289 2.450055 -1.422928 1.936492 -1.936492 
C 1.422928 -2.450055 0.726289 -2.738613 0 -2.738613 
C -0.726289 -2.738613 -1.422928 -2.450055 -1.936492 -1.936492 
C -2.450055 -1.422928 -2.738613 -0.726289 -2.738613 0 
C -2.738613 0.726289 -2.450055 1.422928 -1.936492 1.936492 
C -1.422928 2.450055 -0.726289 2.738613 0 2.738613 
z
"/>
    </defs>
    <g clip-path="url(#pe48f5b3781)">
     <use xlink:href="#C0_0_4aaa6d923f" x="335.104747" y="187.230224" style="fill: #292f36; fill-opacity: 0.65"/>
    </g>
    <g clip-path="url(#pe48f5b3781)">
     <use xlink:href="#C0_0_4aaa6d923f" x="115.084148" y="169.475299" style="fill: #292f36; fill-opacity: 0.65"/>
    </g>
    <g clip-path="url(#pe48f5b3781)">
     <use xlink:href="#C0_0_4aaa6d923f" x="124.935817" y="174.86589" style="fill: #292f36; fill-opacity: 0.65"/>
    </g>
    <g clip-path="url(#pe48f5b3781)">
     <use xlink:href="#C0_0_4aaa6d923f" x="216.884724" y="172.074144" style="fill: #292f36; fill-opacity: 0.65"/>
    </g>
    <g clip-path="url(#pe48f5b3781)">
     <use xlink:href="#C0_0_4aaa6d923f" x="203.749166" y="166.117314" style="fill: #292f36; fill-opacity: 0.65"/>
    </g>
    <g clip-path="url(#pe48f5b3781)">
     <use xlink:href="#C0_0_4aaa6d923f" x="101.94859" y="150.447332" style="fill: #292f36; fill-opacity: 0.65"/>
    </g>
    <g clip-path="url(#pe48f5b3781)">
     <use xlink:href="#C0_0_4aaa6d923f" x="223.452503" y="308.743602" style="fill: #292f36; fill-opacity: 0.65"/>
    </g>
    <g clip-path="url(#pe48f5b3781)">
     <use xlink:href="#C0_0_4aaa6d923f" x="253.007509" y="172.953456" style="fill: #292f36; fill-opacity: 0.65"/>
    </g>
    <g clip-path="url(#pe48f5b3781)">
     <use xlink:href="#C0_0_4aaa6d923f" x="167.626381" y="170.758075" style="fill: #292f36; fill-opacity: 0.65"/>
    </g>
    <g clip-path="url(#pe48f5b3781)">
     <use xlink:href="#C0_0_4aaa6d923f" x="108.516369" y="178.172777" style="fill: #292f36; fill-opacity: 0.65"/>
    </g>
    <g clip-path="url(#pe48f5b3781)">
     <use xlink:href="#C0_0_4aaa6d923f" x="289.130293" y="147.89986" style="fill: #292f36; fill-opacity: 0.65"/>
    </g>
    <g clip-path="url(#pe48f5b3781)">
     <use xlink:href="#C0_0_4aaa6d923f" x="338.388636" y="168.426133" style="fill: #292f36; fill-opacity: 0.65"/>
    </g>
    <g clip-path="url(#pe48f5b3781)">
     <use xlink:href="#C0_0_4aaa6d923f" x="170.91027" y="154.350038" style="fill: #292f36; fill-opacity: 0.65"/>
    </g>
    <g clip-path="url(#pe48f5b3781)">
     <use xlink:href="#C0_0_4aaa6d923f" x="207.033055" y="129.020905" style="fill: #292f36; fill-opacity: 0.65"/>
    </g>
    <g clip-path="url(#pe48f5b3781)">
     <use xlink:href="#C0_0_4aaa6d923f" x="128.219707" y="168.871066" style="fill: #292f36; fill-opacity: 0.65"/>
    </g>
    <g clip-path="url(#pe48f5b3781)">
     <use xlink:href="#C0_0_4aaa6d923f" x="197.181387" y="171.531186" style="fill: #292f36; fill-opacity: 0.65"/>
    </g>
    <g clip-path="url(#pe48f5b3781)">
     <use xlink:href="#C0_0_4aaa6d923f" x="101.94859" y="166.81607" style="fill: #292f36; fill-opacity: 0.65"/>
    </g>
    <g clip-path="url(#pe48f5b3781)">
     <use xlink:href="#C0_0_4aaa6d923f" x="121.651928" y="153.34052" style="fill: #292f36; fill-opacity: 0.65"/>
    </g>
    <g clip-path="url(#pe48f5b3781)">
     <use xlink:href="#C0_0_4aaa6d923f" x="256.291398" y="187.045224" style="fill: #292f36; fill-opacity: 0.65"/>
    </g>
    <g clip-path="url(#pe48f5b3781)">
     <use xlink:href="#C0_0_4aaa6d923f" x="236.588061" y="163.556858" style="fill: #292f36; fill-opacity: 0.65"/>
    </g>
    <g clip-path="url(#pe48f5b3781)">
     <use xlink:href="#C0_0_4aaa6d923f" x="223.452503" y="177.227197" style="fill: #292f36; fill-opacity: 0.65"/>
    </g>
   </g>
   <g id="PathCollection_2">
    <defs>
     <path id="C1_0_2b7b2800b0" d="M 0 2.738613 
C 0.726289 2.738613 1.422928 2.450055 1.936492 1.936492 
C 2.450055 1.422928 2.738613 0.726289 2.738613 -0 
C 2.738613 -0.726289 2.450055 -1.422928 1.936492 -1.936492 
C 1.422928 -2.450055 0.726289 -2.738613 0 -2.738613 
C -0.726289 -2.738613 -1.422928 -2.450055 -1.936492 -1.936492 
C -2.450055 -1.422928 -2.738613 -0.726289 -2.738613 0 
C -2.738613 0.726289 -2.450055 1.422928 -1.936492 1.936492 
C -1.422928 2.450055 -0.726289 2.738613 0 2.738613 
z
"/>
    </defs>
    <g clip-path="url(#pe48f5b3781)">
     <use xlink:href="#C1_0_2b7b2800b0" x="335.104747" y="118.722556" style="fill: #52bfb6; fill-opacity: 0.65"/>
    </g>
    <g clip-path="url(#pe48f5b3781)">
     <use xlink:href="#C1_0_2b7b2800b0" x="115.084148" y="160.265046" style="fill: #52bfb6; fill-opacity: 0.65"/>
    </g>
    <g clip-path="url(#pe48f5b3781)">
     <use xlink:href="#C1_0_2b7b2800b0" x="124.935817" y="163.308433" style="fill: #52bfb6; fill-opacity: 0.65"/>
    </g>
    <g clip-path="url(#pe48f5b3781)">
     <use xlink:href="#C1_0_2b7b2800b0" x="216.884724" y="156.022458" style="fill: #52bfb6; fill-opacity: 0.65"/>
    </g>
    <g clip-path="url(#pe48f5b3781)">
     <use xlink:href="#C1_0_2b7b2800b0" x="203.749166" y="166.03322" style="fill: #52bfb6; fill-opacity: 0.65"/>
    </g>
    <g clip-path="url(#pe48f5b3781)">
     <use xlink:href="#C1_0_2b7b2800b0" x="101.94859" y="104.366973" style="fill: #52bfb6; fill-opacity: 0.65"/>
    </g>
    <g clip-path="url(#pe48f5b3781)">
     <use xlink:href="#C1_0_2b7b2800b0" x="223.452503" y="167.952557" style="fill: #52bfb6; fill-opacity: 0.65"/>
    </g>
    <g clip-path="url(#pe48f5b3781)">
     <use xlink:href="#C1_0_2b7b2800b0" x="253.007509" y="161.148001" style="fill: #52bfb6; fill-opacity: 0.65"/>
    </g>
    <g clip-path="url(#pe48f5b3781)">
     <use xlink:href="#C1_0_2b7b2800b0" x="167.626381" y="164.729988" style="fill: #52bfb6; fill-opacity: 0.65"/>
    </g>
    <g clip-path="url(#pe48f5b3781)">
     <use xlink:href="#C1_0_2b7b2800b0" x="108.516369" y="175.798412" style="fill: #52bfb6; fill-opacity: 0.65"/>
    </g>
    <g clip-path="url(#pe48f5b3781)">
     <use xlink:href="#C1_0_2b7b2800b0" x="289.130293" y="131.097123" style="fill: #52bfb6; fill-opacity: 0.65"/>
    </g>
    <g clip-path="url(#pe48f5b3781)">
     <use xlink:href="#C1_0_2b7b2800b0" x="338.388636" y="175.205422" style="fill: #52bfb6; fill-opacity: 0.65"/>
    </g>
    <g clip-path="url(#pe48f5b3781)">
     <use xlink:href="#C1_0_2b7b2800b0" x="170.91027" y="164.426465" style="fill: #52bfb6; fill-opacity: 0.65"/>
    </g>
    <g clip-path="url(#pe48f5b3781)">
     <use xlink:href="#C1_0_2b7b2800b0" x="207.033055" y="168.72495" style="fill: #52bfb6; fill-opacity: 0.65"/>
    </g>
    <g clip-path="url(#pe48f5b3781)">
     <use xlink:href="#C1_0_2b7b2800b0" x="128.219707" y="152.195092" style="fill: #52bfb6; fill-opacity: 0.65"/>
    </g>
    <g clip-path="url(#pe48f5b3781)">
     <use xlink:href="#C1_0_2b7b2800b0" x="197.181387" y="165.052069" style="fill: #52bfb6; fill-opacity: 0.65"/>
    </g>
    <g clip-path="url(#pe48f5b3781)">
     <use xlink:href="#C1_0_2b7b2800b0" x="101.94859" y="138.04011" style="fill: #52bfb6; fill-opacity: 0.65"/>
    </g>
    <g clip-path="url(#pe48f5b3781)">
     <use xlink:href="#C1_0_2b7b2800b0" x="121.651928" y="135.176409" style="fill: #52bfb6; fill-opacity: 0.65"/>
    </g>
    <g clip-path="url(#pe48f5b3781)">
     <use xlink:href="#C1_0_2b7b2800b0" x="256.291398" y="156.237134" style="fill: #52bfb6; fill-opacity: 0.65"/>
    </g>
    <g clip-path="url(#pe48f5b3781)">
     <use xlink:href="#C1_0_2b7b2800b0" x="236.588061" y="164.074215" style="fill: #52bfb6; fill-opacity: 0.65"/>
    </g>
    <g clip-path="url(#pe48f5b3781)">
     <use xlink:href="#C1_0_2b7b2800b0" x="223.452503" y="151.950648" style="fill: #52bfb6; fill-opacity: 0.65"/>
    </g>
   </g>
   <g id="PathCollection_3">
    <defs>
     <path id="C2_0_0dc276b4d8" d="M 0 2.738613 
C 0.726289 2.738613 1.422928 2.450055 1.936492 1.936492 
C 2.450055 1.422928 2.738613 0.726289 2.738613 -0 
C 2.738613 -0.726289 2.450055 -1.422928 1.936492 -1.936492 
C 1.422928 -2.450055 0.726289 -2.738613 0 -2.738613 
C -0.726289 -2.738613 -1.422928 -2.450055 -1.936492 -1.936492 
C -2.450055 -1.422928 -2.738613 -0.726289 -2.738613 0 
C -2.738613 0.726289 -2.450055 1.422928 -1.936492 1.936492 
C -1.422928 2.450055 -0.726289 2.738613 0 2.738613 
z
"/>
    </defs>
    <g clip-path="url(#pe48f5b3781)">
     <use xlink:href="#C2_0_0dc276b4d8" x="335.104747" y="175.181757" style="fill: #e3bc59; fill-opacity: 0.65"/>
    </g>
    <g clip-path="url(#pe48f5b3781)">
     <use xlink:href="#C2_0_0dc276b4d8" x="115.084148" y="175.445454" style="fill: #e3bc59; fill-opacity: 0.65"/>
    </g>
    <g clip-path="url(#pe48f5b3781)">
     <use xlink:href="#C2_0_0dc276b4d8" x="124.935817" y="183.22667" style="fill: #e3bc59; fill-opacity: 0.65"/>
    </g>
    <g clip-path="url(#pe48f5b3781)">
     <use xlink:href="#C2_0_0dc276b4d8" x="216.884724" y="159.276179" style="fill: #e3bc59; fill-opacity: 0.65"/>
    </g>
    <g clip-path="url(#pe48f5b3781)">
     <use xlink:href="#C2_0_0dc276b4d8" x="203.749166" y="164.238739" style="fill: #e3bc59; fill-opacity: 0.65"/>
    </g>
    <g clip-path="url(#pe48f5b3781)">
     <use xlink:href="#C2_0_0dc276b4d8" x="101.94859" y="147.789133" style="fill: #e3bc59; fill-opacity: 0.65"/>
    </g>
    <g clip-path="url(#pe48f5b3781)">
     <use xlink:href="#C2_0_0dc276b4d8" x="223.452503" y="169.044178" style="fill: #e3bc59; fill-opacity: 0.65"/>
    </g>
    <g clip-path="url(#pe48f5b3781)">
     <use xlink:href="#C2_0_0dc276b4d8" x="253.007509" y="167.600692" style="fill: #e3bc59; fill-opacity: 0.65"/>
    </g>
    <g clip-path="url(#pe48f5b3781)">
     <use xlink:href="#C2_0_0dc276b4d8" x="167.626381" y="164.45708" style="fill: #e3bc59; fill-opacity: 0.65"/>
    </g>
    <g clip-path="url(#pe48f5b3781)">
     <use xlink:href="#C2_0_0dc276b4d8" x="108.516369" y="178.481912" style="fill: #e3bc59; fill-opacity: 0.65"/>
    </g>
    <g clip-path="url(#pe48f5b3781)">
     <use xlink:href="#C2_0_0dc276b4d8" x="289.130293" y="133.115638" style="fill: #e3bc59; fill-opacity: 0.65"/>
    </g>
    <g clip-path="url(#pe48f5b3781)">
     <use xlink:href="#C2_0_0dc276b4d8" x="338.388636" y="169.930126" style="fill: #e3bc59; fill-opacity: 0.65"/>
    </g>
    <g clip-path="url(#pe48f5b3781)">
     <use xlink:href="#C2_0_0dc276b4d8" x="170.91027" y="155.320412" style="fill: #e3bc59; fill-opacity: 0.65"/>
    </g>
    <g clip-path="url(#pe48f5b3781)">
     <use xlink:href="#C2_0_0dc276b4d8" x="207.033055" y="151.750393" style="fill: #e3bc59; fill-opacity: 0.65"/>
    </g>
    <g clip-path="url(#pe48f5b3781)">
     <use xlink:href="#C2_0_0dc276b4d8" x="128.219707" y="146.215616" style="fill: #e3bc59; fill-opacity: 0.65"/>
    </g>
    <g clip-path="url(#pe48f5b3781)">
     <use xlink:href="#C2_0_0dc276b4d8" x="197.181387" y="146.610053" style="fill: #e3bc59; fill-opacity: 0.65"/>
    </g>
    <g clip-path="url(#pe48f5b3781)">
     <use xlink:href="#C2_0_0dc276b4d8" x="101.94859" y="155.308452" style="fill: #e3bc59; fill-opacity: 0.65"/>
    </g>
    <g clip-path="url(#pe48f5b3781)">
     <use xlink:href="#C2_0_0dc276b4d8" x="121.651928" y="112.371076" style="fill: #e3bc59; fill-opacity: 0.65"/>
    </g>
    <g clip-path="url(#pe48f5b3781)">
     <use xlink:href="#C2_0_0dc276b4d8" x="256.291398" y="169.872824" style="fill: #e3bc59; fill-opacity: 0.65"/>
    </g>
    <g clip-path="url(#pe48f5b3781)">
     <use xlink:href="#C2_0_0dc276b4d8" x="236.588061" y="165.114909" style="fill: #e3bc59; fill-opacity: 0.65"/>
    </g>
    <g clip-path="url(#pe48f5b3781)">
     <use xlink:href="#C2_0_0dc276b4d8" x="223.452503" y="165.527221" style="fill: #e3bc59; fill-opacity: 0.65"/>
    </g>
   </g>
   <g id="PathCollection_4">
    <defs>
     <path id="C3_0_e753618d9e" d="M 0 2.738613 
C 0.726289 2.738613 1.422928 2.450055 1.936492 1.936492 
C 2.450055 1.422928 2.738613 0.726289 2.738613 -0 
C 2.738613 -0.726289 2.450055 -1.422928 1.936492 -1.936492 
C 1.422928 -2.450055 0.726289 -2.738613 0 -2.738613 
C -0.726289 -2.738613 -1.422928 -2.450055 -1.936492 -1.936492 
C -2.450055 -1.422928 -2.738613 -0.726289 -2.738613 0 
C -2.738613 0.726289 -2.450055 1.422928 -1.936492 1.936492 
C -1.422928 2.450055 -0.726289 2.738613 0 2.738613 
z
"/>
    </defs>
    <g clip-path="url(#pe48f5b3781)">
     <use xlink:href="#C3_0_e753618d9e" x="335.104747" y="85.620143" style="fill: #e03639; fill-opacity: 0.65"/>
    </g>
    <g clip-path="url(#pe48f5b3781)">
     <use xlink:href="#C3_0_e753618d9e" x="115.084148" y="145.309072" style="fill: #e03639; fill-opacity: 0.65"/>
    </g>
    <g clip-path="url(#pe48f5b3781)">
     <use xlink:href="#C3_0_e753618d9e" x="124.935817" y="187.72195" style="fill: #e03639; fill-opacity: 0.65"/>
    </g>
    <g clip-path="url(#pe48f5b3781)">
     <use xlink:href="#C3_0_e753618d9e" x="216.884724" y="141.587334" style="fill: #e03639; fill-opacity: 0.65"/>
    </g>
    <g clip-path="url(#pe48f5b3781)">
     <use xlink:href="#C3_0_e753618d9e" x="203.749166" y="158.231427" style="fill: #e03639; fill-opacity: 0.65"/>
    </g>
    <g clip-path="url(#pe48f5b3781)">
     <use xlink:href="#C3_0_e753618d9e" x="101.94859" y="109.546473" style="fill: #e03639; fill-opacity: 0.65"/>
    </g>
    <g clip-path="url(#pe48f5b3781)">
     <use xlink:href="#C3_0_e753618d9e" x="223.452503" y="171.531304" style="fill: #e03639; fill-opacity: 0.65"/>
    </g>
    <g clip-path="url(#pe48f5b3781)">
     <use xlink:href="#C3_0_e753618d9e" x="253.007509" y="179.885212" style="fill: #e03639; fill-opacity: 0.65"/>
    </g>
    <g clip-path="url(#pe48f5b3781)">
     <use xlink:href="#C3_0_e753618d9e" x="167.626381" y="165.235844" style="fill: #e03639; fill-opacity: 0.65"/>
    </g>
    <g clip-path="url(#pe48f5b3781)">
     <use xlink:href="#C3_0_e753618d9e" x="108.516369" y="190.935168" style="fill: #e03639; fill-opacity: 0.65"/>
    </g>
    <g clip-path="url(#pe48f5b3781)">
     <use xlink:href="#C3_0_e753618d9e" x="289.130293" y="156.554253" style="fill: #e03639; fill-opacity: 0.65"/>
    </g>
    <g clip-path="url(#pe48f5b3781)">
     <use xlink:href="#C3_0_e753618d9e" x="338.388636" y="175.876967" style="fill: #e03639; fill-opacity: 0.65"/>
    </g>
    <g clip-path="url(#pe48f5b3781)">
     <use xlink:href="#C3_0_e753618d9e" x="170.91027" y="154.879397" style="fill: #e03639; fill-opacity: 0.65"/>
    </g>
    <g clip-path="url(#pe48f5b3781)">
     <use xlink:href="#C3_0_e753618d9e" x="207.033055" y="135.708864" style="fill: #e03639; fill-opacity: 0.65"/>
    </g>
    <g clip-path="url(#pe48f5b3781)">
     <use xlink:href="#C3_0_e753618d9e" x="128.219707" y="157.850864" style="fill: #e03639; fill-opacity: 0.65"/>
    </g>
    <g clip-path="url(#pe48f5b3781)">
     <use xlink:href="#C3_0_e753618d9e" x="197.181387" y="132.325966" style="fill: #e03639; fill-opacity: 0.65"/>
    </g>
    <g clip-path="url(#pe48f5b3781)">
     <use xlink:href="#C3_0_e753618d9e" x="101.94859" y="126.268767" style="fill: #e03639; fill-opacity: 0.65"/>
    </g>
    <g clip-path="url(#pe48f5b3781)">
     <use xlink:href="#C3_0_e753618d9e" x="121.651928" y="46.003945" style="fill: #e03639; fill-opacity: 0.65"/>
    </g>
    <g clip-path="url(#pe48f5b3781)">
     <use xlink:href="#C3_0_e753618d9e" x="256.291398" y="143.372572" style="fill: #e03639; fill-opacity: 0.65"/>
    </g>
    <g clip-path="url(#pe48f5b3781)">
     <use xlink:href="#C3_0_e753618d9e" x="236.588061" y="159.040384" style="fill: #e03639; fill-opacity: 0.65"/>
    </g>
    <g clip-path="url(#pe48f5b3781)">
     <use xlink:href="#C3_0_e753618d9e" x="223.452503" y="164.845315" style="fill: #e03639; fill-opacity: 0.65"/>
    </g>
   </g>
   <g id="matplotlib.axis_1">
    <g id="xtick_1">
     <g id="line2d_1">
      <defs>
       <path id="m415346a2ba" d="M 0 0 
L 0 3.5 
" style="stroke: #000000; stroke-width: 0.8"/>
      </defs>
      <g>
       <use xlink:href="#m415346a2ba" x="95.380811" y="328.84" style="stroke: #000000; stroke-width: 0.8"/>
      </g>
     </g>
     <g id="text_1">
      <!-- 40 -->
      <g transform="translate(87.597686 345.836875)scale(0.14 -0.14)">
       <defs>
        <path id="HelveticaNeue-34" d="M 2170 1542 
L 646 1542 
L 2157 3763 
L 2170 3763 
L 2170 1542 
z
M 2682 1542 
L 2682 4538 
L 2246 4538 
L 179 1587 
L 179 1062 
L 2170 1062 
L 2170 0 
L 2682 0 
L 2682 1062 
L 3296 1062 
L 3296 1542 
L 2682 1542 
z
" transform="scale(0.015625)"/>
        <path id="HelveticaNeue-30" d="M 845 2234 
Q 845 2400 848 2601 
Q 851 2803 880 3004 
Q 909 3206 963 3398 
Q 1018 3590 1123 3734 
Q 1229 3878 1389 3968 
Q 1549 4058 1779 4058 
Q 2010 4058 2170 3968 
Q 2330 3878 2435 3734 
Q 2541 3590 2595 3398 
Q 2650 3206 2678 3004 
Q 2707 2803 2710 2601 
Q 2714 2400 2714 2234 
Q 2714 1978 2698 1661 
Q 2682 1344 2595 1065 
Q 2509 787 2317 595 
Q 2125 403 1779 403 
Q 1434 403 1242 595 
Q 1050 787 963 1065 
Q 877 1344 861 1661 
Q 845 1978 845 2234 
z
M 269 2227 
Q 269 1978 281 1709 
Q 294 1440 345 1184 
Q 397 928 493 701 
Q 589 474 755 301 
Q 922 128 1174 29 
Q 1427 -70 1779 -70 
Q 2138 -70 2387 29 
Q 2637 128 2803 301 
Q 2970 474 3066 701 
Q 3162 928 3213 1184 
Q 3264 1440 3277 1709 
Q 3290 1978 3290 2227 
Q 3290 2477 3277 2745 
Q 3264 3014 3213 3270 
Q 3162 3526 3066 3756 
Q 2970 3987 2803 4160 
Q 2637 4333 2384 4435 
Q 2131 4538 1779 4538 
Q 1427 4538 1174 4435 
Q 922 4333 755 4160 
Q 589 3987 493 3756 
Q 397 3526 345 3270 
Q 294 3014 281 2745 
Q 269 2477 269 2227 
z
" transform="scale(0.015625)"/>
       </defs>
       <use xlink:href="#HelveticaNeue-34"/>
       <use xlink:href="#HelveticaNeue-30" x="55.599991"/>
      </g>
     </g>
    </g>
    <g id="xtick_2">
     <g id="line2d_2">
      <g>
       <use xlink:href="#m415346a2ba" x="161.058602" y="328.84" style="stroke: #000000; stroke-width: 0.8"/>
      </g>
     </g>
     <g id="text_2">
      <!-- 60 -->
      <g transform="translate(153.275477 345.836875)scale(0.14 -0.14)">
       <defs>
        <path id="HelveticaNeue-36" d="M 2650 3379 
L 3194 3379 
Q 3142 3942 2809 4240 
Q 2477 4538 1914 4538 
Q 1427 4538 1107 4333 
Q 787 4128 595 3789 
Q 403 3450 323 3011 
Q 243 2573 243 2106 
Q 243 1747 297 1363 
Q 352 979 518 659 
Q 685 339 992 134 
Q 1299 -70 1805 -70 
Q 2234 -70 2525 74 
Q 2816 218 2992 438 
Q 3168 659 3245 928 
Q 3322 1197 3322 1446 
Q 3322 1760 3226 2029 
Q 3130 2298 2954 2496 
Q 2778 2694 2518 2806 
Q 2259 2918 1933 2918 
Q 1562 2918 1277 2777 
Q 992 2637 800 2323 
L 787 2336 
Q 794 2598 838 2899 
Q 883 3200 1001 3459 
Q 1120 3718 1331 3888 
Q 1542 4058 1888 4058 
Q 2214 4058 2412 3872 
Q 2611 3686 2650 3379 
z
M 1830 2438 
Q 2061 2438 2233 2355 
Q 2406 2272 2521 2134 
Q 2637 1997 2691 1808 
Q 2746 1619 2746 1408 
Q 2746 1210 2685 1027 
Q 2624 845 2509 704 
Q 2394 563 2224 483 
Q 2054 403 1830 403 
Q 1606 403 1430 483 
Q 1254 563 1136 697 
Q 1018 832 954 1017 
Q 890 1203 890 1414 
Q 890 1626 950 1814 
Q 1011 2003 1132 2140 
Q 1254 2278 1427 2358 
Q 1600 2438 1830 2438 
z
" transform="scale(0.015625)"/>
       </defs>
       <use xlink:href="#HelveticaNeue-36"/>
       <use xlink:href="#HelveticaNeue-30" x="55.599991"/>
      </g>
     </g>
    </g>
    <g id="xtick_3">
     <g id="line2d_3">
      <g>
       <use xlink:href="#m415346a2ba" x="226.736392" y="328.84" style="stroke: #000000; stroke-width: 0.8"/>
      </g>
     </g>
     <g id="text_3">
      <!-- 80 -->
      <g transform="translate(218.953267 345.836875)scale(0.14 -0.14)">
       <defs>
        <path id="HelveticaNeue-38" d="M 992 3360 
Q 992 3533 1056 3661 
Q 1120 3789 1225 3878 
Q 1331 3968 1478 4013 
Q 1626 4058 1786 4058 
Q 2118 4058 2332 3882 
Q 2547 3706 2547 3360 
Q 2547 3014 2336 2822 
Q 2125 2630 1798 2630 
Q 1632 2630 1485 2675 
Q 1338 2720 1229 2809 
Q 1120 2899 1056 3036 
Q 992 3174 992 3360 
z
M 416 3379 
Q 416 3072 589 2813 
Q 762 2554 1050 2438 
Q 666 2304 461 2006 
Q 256 1709 256 1306 
Q 256 960 374 701 
Q 493 442 701 269 
Q 909 96 1190 13 
Q 1472 -70 1798 -70 
Q 2112 -70 2387 19 
Q 2662 109 2864 285 
Q 3066 461 3184 717 
Q 3302 973 3302 1306 
Q 3302 1728 3104 2019 
Q 2906 2310 2496 2438 
Q 2784 2566 2953 2819 
Q 3123 3072 3123 3379 
Q 3123 3597 3046 3805 
Q 2970 4013 2806 4176 
Q 2643 4339 2380 4438 
Q 2118 4538 1747 4538 
Q 1485 4538 1245 4461 
Q 1005 4384 819 4237 
Q 634 4090 525 3875 
Q 416 3661 416 3379 
z
M 832 1280 
Q 832 1478 905 1638 
Q 979 1798 1110 1913 
Q 1242 2029 1418 2089 
Q 1594 2150 1792 2150 
Q 1984 2150 2153 2083 
Q 2323 2016 2451 1901 
Q 2579 1786 2652 1629 
Q 2726 1472 2726 1286 
Q 2726 1094 2659 934 
Q 2592 774 2467 656 
Q 2342 538 2172 470 
Q 2003 403 1798 403 
Q 1376 403 1104 636 
Q 832 870 832 1280 
z
" transform="scale(0.015625)"/>
       </defs>
       <use xlink:href="#HelveticaNeue-38"/>
       <use xlink:href="#HelveticaNeue-30" x="55.599991"/>
      </g>
     </g>
    </g>
    <g id="xtick_4">
     <g id="line2d_4">
      <g>
       <use xlink:href="#m415346a2ba" x="292.414183" y="328.84" style="stroke: #000000; stroke-width: 0.8"/>
      </g>
     </g>
     <g id="text_4">
      <!-- 100 -->
      <g transform="translate(280.739495 345.836875)scale(0.14 -0.14)">
       <defs>
        <path id="HelveticaNeue-31" d="M 2278 0 
L 2278 4538 
L 1862 4538 
Q 1818 4282 1696 4115 
Q 1574 3949 1398 3853 
Q 1222 3757 1004 3721 
Q 787 3686 557 3686 
L 557 3251 
L 1734 3251 
L 1734 0 
L 2278 0 
z
" transform="scale(0.015625)"/>
       </defs>
       <use xlink:href="#HelveticaNeue-31"/>
       <use xlink:href="#HelveticaNeue-30" x="55.599991"/>
       <use xlink:href="#HelveticaNeue-30" x="111.199982"/>
      </g>
     </g>
    </g>
    <g id="text_5">
     <!-- GMSI score -->
     <g transform="translate(169.085547 363.30625)scale(0.15 -0.15)">
      <defs>
       <path id="HelveticaNeue-47" d="M 3917 570 
L 4077 0 
L 4461 0 
L 4461 2406 
L 2458 2406 
L 2458 1894 
L 3917 1894 
Q 3930 1581 3834 1309 
Q 3738 1037 3549 835 
Q 3360 634 3085 518 
Q 2810 403 2451 403 
Q 2067 403 1776 553 
Q 1485 704 1286 957 
Q 1088 1210 985 1539 
Q 883 1869 883 2227 
Q 883 2592 972 2941 
Q 1062 3290 1251 3562 
Q 1440 3834 1737 4000 
Q 2035 4166 2451 4166 
Q 2707 4166 2934 4105 
Q 3162 4045 3341 3923 
Q 3520 3802 3641 3613 
Q 3763 3424 3808 3162 
L 4416 3162 
Q 4352 3565 4176 3849 
Q 4000 4134 3741 4320 
Q 3482 4506 3152 4592 
Q 2822 4678 2451 4678 
Q 1907 4678 1500 4476 
Q 1094 4275 822 3936 
Q 550 3597 412 3145 
Q 275 2694 275 2195 
Q 275 1747 422 1331 
Q 570 915 851 595 
Q 1133 275 1536 86 
Q 1939 -102 2451 -102 
Q 2854 -102 3251 54 
Q 3648 211 3917 570 
z
" transform="scale(0.015625)"/>
       <path id="HelveticaNeue-4d" d="M 512 4570 
L 512 0 
L 1088 0 
L 1088 3802 
L 1101 3802 
L 2528 0 
L 3046 0 
L 4474 3802 
L 4486 3802 
L 4486 0 
L 5062 0 
L 5062 4570 
L 4230 4570 
L 2784 730 
L 1344 4570 
L 512 4570 
z
" transform="scale(0.015625)"/>
       <path id="HelveticaNeue-53" d="M 3142 3232 
L 3718 3232 
Q 3706 3610 3574 3882 
Q 3443 4154 3216 4333 
Q 2989 4512 2688 4595 
Q 2387 4678 2035 4678 
Q 1722 4678 1424 4598 
Q 1126 4518 892 4355 
Q 659 4192 518 3939 
Q 378 3686 378 3341 
Q 378 3027 502 2819 
Q 627 2611 835 2480 
Q 1043 2349 1305 2269 
Q 1568 2189 1840 2128 
Q 2112 2067 2374 2009 
Q 2637 1952 2845 1859 
Q 3053 1766 3177 1619 
Q 3302 1472 3302 1235 
Q 3302 986 3200 826 
Q 3098 666 2931 573 
Q 2765 480 2557 441 
Q 2349 403 2144 403 
Q 1888 403 1645 467 
Q 1402 531 1219 665 
Q 1037 800 925 1008 
Q 813 1216 813 1504 
L 237 1504 
Q 237 1088 387 784 
Q 538 480 797 285 
Q 1056 90 1398 -6 
Q 1741 -102 2125 -102 
Q 2438 -102 2755 -28 
Q 3072 45 3328 208 
Q 3584 371 3747 630 
Q 3910 890 3910 1254 
Q 3910 1594 3785 1818 
Q 3661 2042 3453 2189 
Q 3245 2336 2982 2422 
Q 2720 2509 2448 2573 
Q 2176 2637 1913 2691 
Q 1651 2746 1443 2829 
Q 1235 2912 1110 3043 
Q 986 3174 986 3386 
Q 986 3610 1072 3760 
Q 1158 3910 1302 4000 
Q 1446 4090 1632 4128 
Q 1818 4166 2010 4166 
Q 2483 4166 2787 3945 
Q 3091 3725 3142 3232 
z
" transform="scale(0.015625)"/>
       <path id="HelveticaNeue-49" d="M 525 4570 
L 525 0 
L 1133 0 
L 1133 4570 
L 525 4570 
z
" transform="scale(0.015625)"/>
       <path id="HelveticaNeue-20" transform="scale(0.015625)"/>
       <path id="HelveticaNeue-73" d="M 742 1043 
L 198 1043 
Q 211 736 326 521 
Q 442 307 634 176 
Q 826 45 1075 -12 
Q 1325 -70 1600 -70 
Q 1850 -70 2102 -22 
Q 2355 26 2556 147 
Q 2758 269 2883 467 
Q 3008 666 3008 966 
Q 3008 1203 2915 1363 
Q 2822 1523 2672 1628 
Q 2522 1734 2326 1798 
Q 2131 1862 1926 1907 
Q 1734 1952 1542 1993 
Q 1350 2035 1196 2096 
Q 1043 2157 944 2249 
Q 845 2342 845 2483 
Q 845 2611 909 2691 
Q 973 2771 1075 2819 
Q 1178 2867 1302 2886 
Q 1427 2906 1549 2906 
Q 1683 2906 1814 2877 
Q 1946 2848 2054 2784 
Q 2163 2720 2233 2614 
Q 2304 2509 2317 2349 
L 2861 2349 
Q 2842 2650 2733 2851 
Q 2624 3053 2441 3171 
Q 2259 3290 2022 3338 
Q 1786 3386 1504 3386 
Q 1286 3386 1065 3331 
Q 845 3277 669 3165 
Q 493 3053 381 2873 
Q 269 2694 269 2445 
Q 269 2125 429 1945 
Q 589 1766 829 1667 
Q 1069 1568 1350 1513 
Q 1632 1459 1872 1392 
Q 2112 1325 2272 1216 
Q 2432 1107 2432 896 
Q 2432 742 2355 643 
Q 2278 544 2160 493 
Q 2042 442 1901 422 
Q 1760 403 1632 403 
Q 1466 403 1309 435 
Q 1152 467 1027 540 
Q 902 614 825 739 
Q 749 864 742 1043 
z
" transform="scale(0.015625)"/>
       <path id="HelveticaNeue-63" d="M 2656 2246 
L 3219 2246 
Q 3187 2541 3065 2755 
Q 2944 2970 2755 3110 
Q 2566 3251 2320 3318 
Q 2074 3386 1792 3386 
Q 1402 3386 1107 3248 
Q 813 3110 617 2870 
Q 422 2630 326 2307 
Q 230 1984 230 1613 
Q 230 1242 329 931 
Q 429 621 624 397 
Q 819 173 1110 51 
Q 1402 -70 1779 -70 
Q 2413 -70 2781 262 
Q 3149 595 3238 1210 
L 2682 1210 
Q 2630 826 2403 614 
Q 2176 403 1773 403 
Q 1517 403 1331 505 
Q 1146 608 1030 777 
Q 915 947 860 1164 
Q 806 1382 806 1613 
Q 806 1862 857 2096 
Q 909 2330 1027 2509 
Q 1146 2688 1344 2797 
Q 1542 2906 1837 2906 
Q 2182 2906 2387 2733 
Q 2592 2560 2656 2246 
z
" transform="scale(0.015625)"/>
       <path id="HelveticaNeue-6f" d="M 806 1651 
Q 806 1952 886 2185 
Q 966 2419 1107 2579 
Q 1248 2739 1437 2822 
Q 1626 2906 1837 2906 
Q 2048 2906 2237 2822 
Q 2426 2739 2566 2579 
Q 2707 2419 2787 2185 
Q 2867 1952 2867 1651 
Q 2867 1350 2787 1116 
Q 2707 883 2566 726 
Q 2426 570 2237 486 
Q 2048 403 1837 403 
Q 1626 403 1437 486 
Q 1248 570 1107 726 
Q 966 883 886 1116 
Q 806 1350 806 1651 
z
M 230 1651 
Q 230 1286 332 972 
Q 435 659 640 425 
Q 845 192 1145 61 
Q 1446 -70 1837 -70 
Q 2234 -70 2531 61 
Q 2829 192 3033 425 
Q 3238 659 3340 972 
Q 3443 1286 3443 1651 
Q 3443 2016 3340 2333 
Q 3238 2650 3033 2883 
Q 2829 3117 2531 3251 
Q 2234 3386 1837 3386 
Q 1446 3386 1145 3251 
Q 845 3117 640 2883 
Q 435 2650 332 2333 
Q 230 2016 230 1651 
z
" transform="scale(0.015625)"/>
       <path id="HelveticaNeue-72" d="M 390 3309 
L 390 0 
L 934 0 
L 934 1472 
Q 934 1792 998 2038 
Q 1062 2285 1203 2457 
Q 1344 2630 1574 2720 
Q 1805 2810 2131 2810 
L 2131 3386 
Q 1690 3398 1402 3206 
Q 1114 3014 915 2611 
L 902 2611 
L 902 3309 
L 390 3309 
z
" transform="scale(0.015625)"/>
       <path id="HelveticaNeue-65" d="M 2707 1971 
L 806 1971 
Q 819 2163 889 2332 
Q 960 2502 1081 2630 
Q 1203 2758 1372 2832 
Q 1542 2906 1754 2906 
Q 1958 2906 2128 2832 
Q 2298 2758 2422 2633 
Q 2547 2509 2620 2336 
Q 2694 2163 2707 1971 
z
M 3232 1050 
L 2694 1050 
Q 2624 723 2403 563 
Q 2182 403 1837 403 
Q 1568 403 1369 492 
Q 1171 582 1043 732 
Q 915 883 857 1078 
Q 800 1274 806 1491 
L 3283 1491 
Q 3296 1792 3229 2125 
Q 3162 2458 2986 2739 
Q 2810 3021 2518 3203 
Q 2227 3386 1786 3386 
Q 1446 3386 1161 3258 
Q 877 3130 669 2899 
Q 461 2669 345 2355 
Q 230 2042 230 1664 
Q 243 1286 342 966 
Q 442 646 640 416 
Q 838 186 1129 58 
Q 1421 -70 1818 -70 
Q 2381 -70 2752 211 
Q 3123 493 3232 1050 
z
" transform="scale(0.015625)"/>
      </defs>
      <use xlink:href="#HelveticaNeue-47"/>
      <use xlink:href="#HelveticaNeue-4d" x="75.899994"/>
      <use xlink:href="#HelveticaNeue-53" x="162.999985"/>
      <use xlink:href="#HelveticaNeue-49" x="227.799973"/>
      <use xlink:href="#HelveticaNeue-20" x="253.699966"/>
      <use xlink:href="#HelveticaNeue-73" x="281.499954"/>
      <use xlink:href="#HelveticaNeue-63" x="331.499939"/>
      <use xlink:href="#HelveticaNeue-6f" x="385.199936"/>
      <use xlink:href="#HelveticaNeue-72" x="442.59993"/>
      <use xlink:href="#HelveticaNeue-65" x="474.149918"/>
     </g>
    </g>
   </g>
   <g id="matplotlib.axis_2">
    <g id="ytick_1">
     <g id="line2d_5">
      <defs>
       <path id="m42cd9a468c" d="M 0 0 
L -3.5 0 
" style="stroke: #000000; stroke-width: 0.8"/>
      </defs>
      <g>
       <use xlink:href="#m42cd9a468c" x="65.99" y="48.079883" style="stroke: #000000; stroke-width: 0.8"/>
      </g>
     </g>
     <g id="text_6">
      <!-- −15 -->
      <g transform="translate(35.02375 53.07832)scale(0.14 -0.14)">
       <defs>
        <path id="HelveticaNeue-2212" d="M 307 1837 
L 307 1402 
L 3533 1402 
L 3533 1837 
L 307 1837 
z
" transform="scale(0.015625)"/>
        <path id="HelveticaNeue-35" d="M 3008 3981 
L 3008 4461 
L 768 4461 
L 346 2106 
L 813 2080 
Q 973 2272 1181 2390 
Q 1389 2509 1658 2509 
Q 1888 2509 2077 2432 
Q 2266 2355 2400 2217 
Q 2534 2080 2608 1891 
Q 2682 1702 2682 1478 
Q 2682 1210 2605 1008 
Q 2528 806 2397 672 
Q 2266 538 2090 470 
Q 1914 403 1722 403 
Q 1517 403 1347 464 
Q 1178 525 1053 637 
Q 928 749 854 899 
Q 781 1050 768 1222 
L 224 1222 
Q 230 915 345 672 
Q 461 429 659 265 
Q 858 102 1117 16 
Q 1376 -70 1670 -70 
Q 2067 -70 2364 54 
Q 2662 179 2860 390 
Q 3059 602 3158 874 
Q 3258 1146 3258 1434 
Q 3258 1824 3142 2115 
Q 3027 2406 2828 2601 
Q 2630 2797 2361 2893 
Q 2093 2989 1792 2989 
Q 1562 2989 1328 2909 
Q 1094 2829 947 2662 
L 934 2675 
L 1178 3981 
L 3008 3981 
z
" transform="scale(0.015625)"/>
       </defs>
       <use xlink:href="#HelveticaNeue-2212"/>
       <use xlink:href="#HelveticaNeue-31" x="59.999985"/>
       <use xlink:href="#HelveticaNeue-35" x="115.599976"/>
      </g>
     </g>
    </g>
    <g id="ytick_2">
     <g id="line2d_6">
      <g>
       <use xlink:href="#m42cd9a468c" x="65.99" y="88.188471" style="stroke: #000000; stroke-width: 0.8"/>
      </g>
     </g>
     <g id="text_7">
      <!-- −10 -->
      <g transform="translate(35.02375 93.186909)scale(0.14 -0.14)">
       <use xlink:href="#HelveticaNeue-2212"/>
       <use xlink:href="#HelveticaNeue-31" x="59.999985"/>
       <use xlink:href="#HelveticaNeue-30" x="115.599976"/>
      </g>
     </g>
    </g>
    <g id="ytick_3">
     <g id="line2d_7">
      <g>
       <use xlink:href="#m42cd9a468c" x="65.99" y="128.297059" style="stroke: #000000; stroke-width: 0.8"/>
      </g>
     </g>
     <g id="text_8">
      <!-- −5 -->
      <g transform="translate(42.806875 133.295497)scale(0.14 -0.14)">
       <use xlink:href="#HelveticaNeue-2212"/>
       <use xlink:href="#HelveticaNeue-35" x="59.999985"/>
      </g>
     </g>
    </g>
    <g id="ytick_4">
     <g id="line2d_8">
      <g>
       <use xlink:href="#m42cd9a468c" x="65.99" y="168.405647" style="stroke: #000000; stroke-width: 0.8"/>
      </g>
     </g>
     <g id="text_9">
      <!-- 0 -->
      <g transform="translate(51.206875 173.404085)scale(0.14 -0.14)">
       <use xlink:href="#HelveticaNeue-30"/>
      </g>
     </g>
    </g>
    <g id="ytick_5">
     <g id="line2d_9">
      <g>
       <use xlink:href="#m42cd9a468c" x="65.99" y="208.514236" style="stroke: #000000; stroke-width: 0.8"/>
      </g>
     </g>
     <g id="text_10">
      <!-- 5 -->
      <g transform="translate(51.206875 213.512673)scale(0.14 -0.14)">
       <use xlink:href="#HelveticaNeue-35"/>
      </g>
     </g>
    </g>
    <g id="ytick_6">
     <g id="line2d_10">
      <g>
       <use xlink:href="#m42cd9a468c" x="65.99" y="248.622824" style="stroke: #000000; stroke-width: 0.8"/>
      </g>
     </g>
     <g id="text_11">
      <!-- 10 -->
      <g transform="translate(43.42375 253.621261)scale(0.14 -0.14)">
       <use xlink:href="#HelveticaNeue-31"/>
       <use xlink:href="#HelveticaNeue-30" x="55.599991"/>
      </g>
     </g>
    </g>
    <g id="ytick_7">
     <g id="line2d_11">
      <g>
       <use xlink:href="#m42cd9a468c" x="65.99" y="288.731412" style="stroke: #000000; stroke-width: 0.8"/>
      </g>
     </g>
     <g id="text_12">
      <!-- 15 -->
      <g transform="translate(43.42375 293.729849)scale(0.14 -0.14)">
       <use xlink:href="#HelveticaNeue-31"/>
       <use xlink:href="#HelveticaNeue-35" x="55.599991"/>
      </g>
     </g>
    </g>
    <g id="ytick_8">
     <g id="line2d_12">
      <g>
       <use xlink:href="#m42cd9a468c" x="65.99" y="328.84" style="stroke: #000000; stroke-width: 0.8"/>
      </g>
     </g>
     <g id="text_13">
      <!-- 20 -->
      <g transform="translate(43.42375 333.838437)scale(0.14 -0.14)">
       <defs>
        <path id="HelveticaNeue-32" d="M 282 2931 
L 826 2931 
Q 819 3136 867 3337 
Q 915 3539 1024 3699 
Q 1133 3859 1302 3958 
Q 1472 4058 1709 4058 
Q 1888 4058 2048 4000 
Q 2208 3942 2326 3833 
Q 2445 3725 2515 3574 
Q 2586 3424 2586 3238 
Q 2586 3002 2512 2822 
Q 2438 2643 2294 2489 
Q 2150 2336 1932 2185 
Q 1715 2035 1427 1856 
Q 1190 1715 972 1555 
Q 755 1395 582 1184 
Q 410 973 298 688 
Q 186 403 154 0 
L 3117 0 
L 3117 480 
L 787 480 
Q 826 691 950 854 
Q 1075 1018 1251 1158 
Q 1427 1299 1638 1424 
Q 1850 1549 2061 1677 
Q 2272 1811 2470 1958 
Q 2669 2106 2822 2288 
Q 2976 2470 3069 2700 
Q 3162 2931 3162 3232 
Q 3162 3552 3050 3795 
Q 2938 4038 2746 4201 
Q 2554 4365 2294 4451 
Q 2035 4538 1741 4538 
Q 1382 4538 1100 4416 
Q 819 4294 630 4080 
Q 442 3866 352 3571 
Q 262 3277 282 2931 
z
" transform="scale(0.015625)"/>
       </defs>
       <use xlink:href="#HelveticaNeue-32"/>
       <use xlink:href="#HelveticaNeue-30" x="55.599991"/>
      </g>
     </g>
    </g>
    <g id="text_14">
     <!-- p50 threshold distance (dB HL) -->
     <g transform="translate(28.068281 285.741875)rotate(-90)scale(0.15 -0.15)">
      <defs>
       <path id="HelveticaNeue-70" d="M 429 3309 
L 429 -1261 
L 973 -1261 
L 973 442 
L 986 442 
Q 1075 294 1206 195 
Q 1338 96 1485 38 
Q 1632 -19 1782 -44 
Q 1933 -70 2054 -70 
Q 2432 -70 2717 64 
Q 3002 198 3190 432 
Q 3379 666 3472 979 
Q 3565 1293 3565 1645 
Q 3565 1997 3469 2310 
Q 3373 2624 3184 2864 
Q 2995 3104 2710 3245 
Q 2426 3386 2042 3386 
Q 1696 3386 1408 3261 
Q 1120 3136 986 2861 
L 973 2861 
L 973 3309 
L 429 3309 
z
M 2989 1683 
Q 2989 1440 2937 1209 
Q 2886 979 2771 800 
Q 2656 621 2467 512 
Q 2278 403 1997 403 
Q 1715 403 1516 508 
Q 1318 614 1193 787 
Q 1069 960 1011 1187 
Q 954 1414 954 1658 
Q 954 1888 1008 2112 
Q 1062 2336 1184 2512 
Q 1306 2688 1498 2797 
Q 1690 2906 1965 2906 
Q 2227 2906 2422 2803 
Q 2618 2701 2742 2528 
Q 2867 2355 2928 2134 
Q 2989 1914 2989 1683 
z
" transform="scale(0.015625)"/>
       <path id="HelveticaNeue-74" d="M 1165 3309 
L 1165 4301 
L 621 4301 
L 621 3309 
L 58 3309 
L 58 2829 
L 621 2829 
L 621 723 
Q 621 493 665 352 
Q 710 211 803 134 
Q 896 58 1046 29 
Q 1197 0 1408 0 
L 1824 0 
L 1824 480 
L 1574 480 
Q 1446 480 1366 489 
Q 1286 499 1241 531 
Q 1197 563 1181 620 
Q 1165 678 1165 774 
L 1165 2829 
L 1824 2829 
L 1824 3309 
L 1165 3309 
z
" transform="scale(0.015625)"/>
       <path id="HelveticaNeue-68" d="M 410 4570 
L 410 0 
L 954 0 
L 954 1869 
Q 954 2093 1014 2281 
Q 1075 2470 1196 2611 
Q 1318 2752 1500 2829 
Q 1683 2906 1933 2906 
Q 2246 2906 2425 2726 
Q 2605 2547 2605 2240 
L 2605 0 
L 3149 0 
L 3149 2176 
Q 3149 2445 3094 2665 
Q 3040 2886 2905 3046 
Q 2771 3206 2553 3296 
Q 2336 3386 2010 3386 
Q 1862 3386 1705 3354 
Q 1549 3322 1405 3254 
Q 1261 3187 1145 3081 
Q 1030 2976 966 2822 
L 954 2822 
L 954 4570 
L 410 4570 
z
" transform="scale(0.015625)"/>
       <path id="HelveticaNeue-6c" d="M 442 4570 
L 442 0 
L 986 0 
L 986 4570 
L 442 4570 
z
" transform="scale(0.015625)"/>
       <path id="HelveticaNeue-64" d="M 806 1626 
Q 806 1869 857 2099 
Q 909 2330 1024 2509 
Q 1139 2688 1331 2797 
Q 1523 2906 1798 2906 
Q 2080 2906 2278 2800 
Q 2477 2694 2601 2521 
Q 2726 2349 2784 2121 
Q 2842 1894 2842 1651 
Q 2842 1421 2787 1197 
Q 2733 973 2611 797 
Q 2490 621 2298 512 
Q 2106 403 1830 403 
Q 1568 403 1373 505 
Q 1178 608 1053 781 
Q 928 954 867 1174 
Q 806 1395 806 1626 
z
M 3366 0 
L 3366 4570 
L 2822 4570 
L 2822 2867 
L 2810 2867 
Q 2720 3014 2589 3113 
Q 2458 3213 2310 3273 
Q 2163 3334 2016 3360 
Q 1869 3386 1741 3386 
Q 1363 3386 1078 3248 
Q 794 3110 605 2876 
Q 416 2643 323 2329 
Q 230 2016 230 1664 
Q 230 1312 326 998 
Q 422 685 611 448 
Q 800 211 1085 70 
Q 1370 -70 1754 -70 
Q 2099 -70 2387 51 
Q 2675 173 2810 448 
L 2822 448 
L 2822 0 
L 3366 0 
z
" transform="scale(0.015625)"/>
       <path id="HelveticaNeue-69" d="M 986 3904 
L 986 4570 
L 442 4570 
L 442 3904 
L 986 3904 
z
M 442 3309 
L 442 0 
L 986 0 
L 986 3309 
L 442 3309 
z
" transform="scale(0.015625)"/>
       <path id="HelveticaNeue-61" d="M 3341 13 
Q 3200 -70 2950 -70 
Q 2739 -70 2614 48 
Q 2490 166 2490 435 
Q 2266 166 1968 48 
Q 1670 -70 1325 -70 
Q 1101 -70 899 -19 
Q 698 32 550 141 
Q 403 250 316 426 
Q 230 602 230 851 
Q 230 1133 326 1312 
Q 422 1491 579 1603 
Q 736 1715 937 1772 
Q 1139 1830 1350 1869 
Q 1574 1914 1776 1936 
Q 1978 1958 2131 2000 
Q 2285 2042 2374 2122 
Q 2464 2202 2464 2355 
Q 2464 2534 2397 2643 
Q 2330 2752 2224 2809 
Q 2118 2867 1987 2886 
Q 1856 2906 1728 2906 
Q 1382 2906 1152 2774 
Q 922 2643 902 2278 
L 358 2278 
Q 371 2586 486 2797 
Q 602 3008 794 3139 
Q 986 3270 1232 3328 
Q 1478 3386 1760 3386 
Q 1984 3386 2205 3354 
Q 2426 3322 2605 3222 
Q 2784 3123 2893 2944 
Q 3002 2765 3002 2477 
L 3002 774 
Q 3002 582 3024 492 
Q 3046 403 3174 403 
Q 3245 403 3341 435 
L 3341 13 
z
M 2458 1709 
Q 2355 1632 2188 1597 
Q 2022 1562 1840 1539 
Q 1658 1517 1472 1488 
Q 1286 1459 1139 1395 
Q 992 1331 899 1212 
Q 806 1094 806 890 
Q 806 755 860 662 
Q 915 570 1001 512 
Q 1088 454 1203 428 
Q 1318 403 1446 403 
Q 1715 403 1907 476 
Q 2099 550 2220 662 
Q 2342 774 2400 905 
Q 2458 1037 2458 1152 
L 2458 1709 
z
" transform="scale(0.015625)"/>
       <path id="HelveticaNeue-6e" d="M 410 3309 
L 410 0 
L 954 0 
L 954 1869 
Q 954 2093 1014 2281 
Q 1075 2470 1196 2611 
Q 1318 2752 1500 2829 
Q 1683 2906 1933 2906 
Q 2246 2906 2425 2726 
Q 2605 2547 2605 2240 
L 2605 0 
L 3149 0 
L 3149 2176 
Q 3149 2445 3094 2665 
Q 3040 2886 2905 3046 
Q 2771 3206 2553 3296 
Q 2336 3386 2010 3386 
Q 1274 3386 934 2784 
L 922 2784 
L 922 3309 
L 410 3309 
z
" transform="scale(0.015625)"/>
       <path id="HelveticaNeue-28" d="M 1306 -1261 
L 1722 -1261 
Q 1267 -525 1072 198 
Q 877 922 877 1728 
Q 877 2515 1069 3232 
Q 1261 3949 1722 4678 
L 1306 4678 
Q 806 4019 553 3251 
Q 301 2483 301 1728 
Q 301 1306 371 922 
Q 442 538 573 173 
Q 704 -192 889 -547 
Q 1075 -902 1306 -1261 
z
" transform="scale(0.015625)"/>
       <path id="HelveticaNeue-42" d="M 1107 2605 
L 1107 4058 
L 2323 4058 
Q 2522 4058 2698 4035 
Q 2874 4013 3008 3936 
Q 3142 3859 3219 3718 
Q 3296 3578 3296 3334 
Q 3296 2970 3069 2787 
Q 2842 2605 2323 2605 
L 1107 2605 
z
M 499 4570 
L 499 0 
L 2707 0 
Q 3046 0 3305 112 
Q 3565 224 3741 406 
Q 3917 589 4006 825 
Q 4096 1062 4096 1312 
Q 4096 1734 3872 2028 
Q 3648 2323 3226 2413 
L 3226 2426 
Q 3552 2554 3728 2819 
Q 3904 3085 3904 3450 
Q 3904 3795 3747 4032 
Q 3590 4269 3366 4403 
Q 3264 4467 3120 4499 
Q 2976 4531 2809 4547 
Q 2643 4563 2473 4566 
Q 2304 4570 2157 4570 
L 499 4570 
z
M 1107 512 
L 1107 2093 
L 2496 2093 
Q 2688 2093 2867 2057 
Q 3046 2022 3184 1936 
Q 3322 1850 3405 1702 
Q 3488 1555 3488 1331 
Q 3488 947 3261 729 
Q 3034 512 2630 512 
L 1107 512 
z
" transform="scale(0.015625)"/>
       <path id="HelveticaNeue-48" d="M 499 4570 
L 499 0 
L 1107 0 
L 1107 2093 
L 3514 2093 
L 3514 0 
L 4122 0 
L 4122 4570 
L 3514 4570 
L 3514 2605 
L 1107 2605 
L 1107 4570 
L 499 4570 
z
" transform="scale(0.015625)"/>
       <path id="HelveticaNeue-4c" d="M 499 4570 
L 499 0 
L 3526 0 
L 3526 512 
L 1107 512 
L 1107 4570 
L 499 4570 
z
" transform="scale(0.015625)"/>
       <path id="HelveticaNeue-29" d="M -58 -1261 
L 352 -1261 
Q 851 -602 1104 163 
Q 1357 928 1357 1683 
Q 1357 2106 1286 2490 
Q 1216 2874 1085 3242 
Q 954 3610 768 3965 
Q 582 4320 352 4678 
L -58 4678 
Q 390 3942 585 3216 
Q 781 2490 781 1683 
Q 781 902 589 182 
Q 397 -538 -58 -1261 
z
" transform="scale(0.015625)"/>
      </defs>
      <use xlink:href="#HelveticaNeue-70"/>
      <use xlink:href="#HelveticaNeue-35" x="59.299988"/>
      <use xlink:href="#HelveticaNeue-30" x="114.899979"/>
      <use xlink:href="#HelveticaNeue-20" x="170.499969"/>
      <use xlink:href="#HelveticaNeue-74" x="198.299957"/>
      <use xlink:href="#HelveticaNeue-68" x="229.799942"/>
      <use xlink:href="#HelveticaNeue-72" x="285.399933"/>
      <use xlink:href="#HelveticaNeue-65" x="316.949921"/>
      <use xlink:href="#HelveticaNeue-73" x="370.649918"/>
      <use xlink:href="#HelveticaNeue-68" x="420.649902"/>
      <use xlink:href="#HelveticaNeue-6f" x="476.249893"/>
      <use xlink:href="#HelveticaNeue-6c" x="533.649887"/>
      <use xlink:href="#HelveticaNeue-64" x="555.849884"/>
      <use xlink:href="#HelveticaNeue-20" x="615.149872"/>
      <use xlink:href="#HelveticaNeue-64" x="642.94986"/>
      <use xlink:href="#HelveticaNeue-69" x="702.249847"/>
      <use xlink:href="#HelveticaNeue-73" x="724.449844"/>
      <use xlink:href="#HelveticaNeue-74" x="774.449829"/>
      <use xlink:href="#HelveticaNeue-61" x="805.949814"/>
      <use xlink:href="#HelveticaNeue-6e" x="859.649811"/>
      <use xlink:href="#HelveticaNeue-63" x="915.249802"/>
      <use xlink:href="#HelveticaNeue-65" x="968.949799"/>
      <use xlink:href="#HelveticaNeue-20" x="1022.649796"/>
      <use xlink:href="#HelveticaNeue-28" x="1050.449783"/>
      <use xlink:href="#HelveticaNeue-64" x="1076.349777"/>
      <use xlink:href="#HelveticaNeue-42" x="1135.649765"/>
      <use xlink:href="#HelveticaNeue-20" x="1204.14975"/>
      <use xlink:href="#HelveticaNeue-48" x="1231.949738"/>
      <use xlink:href="#HelveticaNeue-4c" x="1304.149719"/>
      <use xlink:href="#HelveticaNeue-29" x="1359.74971"/>
     </g>
    </g>
   </g>
   <g id="patch_3">
    <path d="M 65.99 328.84 
L 65.99 34.8 
" style="fill: none; stroke: #000000; stroke-width: 0.8; stroke-linejoin: miter; stroke-linecap: square"/>
   </g>
   <g id="patch_4">
    <path d="M 351.36 328.84 
L 351.36 34.8 
" style="fill: none; stroke: #000000; stroke-width: 0.8; stroke-linejoin: miter; stroke-linecap: square"/>
   </g>
   <g id="patch_5">
    <path d="M 65.99 328.84 
L 351.36 328.84 
" style="fill: none; stroke: #000000; stroke-width: 0.8; stroke-linejoin: miter; stroke-linecap: square"/>
   </g>
   <g id="patch_6">
    <path d="M 65.99 34.8 
L 351.36 34.8 
" style="fill: none; stroke: #000000; stroke-width: 0.8; stroke-linejoin: miter; stroke-linecap: square"/>
   </g>
   <g id="text_15">
    <!-- Continuous -->
    <g transform="translate(167.6275 28.8)scale(0.16 -0.16)">
     <defs>
      <path id="HelveticaNeue-43" d="M 3712 3194 
L 4320 3194 
Q 4269 3558 4102 3836 
Q 3936 4115 3686 4300 
Q 3437 4486 3117 4582 
Q 2797 4678 2438 4678 
Q 1914 4678 1507 4489 
Q 1101 4301 829 3974 
Q 557 3648 416 3209 
Q 275 2771 275 2272 
Q 275 1773 406 1337 
Q 538 902 800 582 
Q 1062 262 1459 80 
Q 1856 -102 2387 -102 
Q 3264 -102 3769 378 
Q 4275 858 4365 1722 
L 3757 1722 
Q 3738 1440 3642 1197 
Q 3546 954 3376 778 
Q 3206 602 2972 502 
Q 2739 403 2438 403 
Q 2029 403 1734 556 
Q 1440 710 1251 969 
Q 1062 1229 972 1577 
Q 883 1926 883 2317 
Q 883 2675 972 3008 
Q 1062 3341 1251 3600 
Q 1440 3859 1731 4012 
Q 2022 4166 2432 4166 
Q 2912 4166 3261 3923 
Q 3610 3680 3712 3194 
z
" transform="scale(0.015625)"/>
      <path id="HelveticaNeue-75" d="M 3149 0 
L 3149 3309 
L 2605 3309 
L 2605 1440 
Q 2605 1216 2544 1027 
Q 2483 838 2361 697 
Q 2240 557 2057 480 
Q 1875 403 1626 403 
Q 1312 403 1133 582 
Q 954 762 954 1069 
L 954 3309 
L 410 3309 
L 410 1133 
Q 410 864 464 643 
Q 518 422 652 262 
Q 787 102 1004 16 
Q 1222 -70 1549 -70 
Q 1914 -70 2182 74 
Q 2451 218 2624 525 
L 2637 525 
L 2637 0 
L 3149 0 
z
" transform="scale(0.015625)"/>
     </defs>
     <use xlink:href="#HelveticaNeue-43"/>
     <use xlink:href="#HelveticaNeue-6f" x="72.199982"/>
     <use xlink:href="#HelveticaNeue-6e" x="129.599976"/>
     <use xlink:href="#HelveticaNeue-74" x="185.199966"/>
     <use xlink:href="#HelveticaNeue-69" x="216.699951"/>
     <use xlink:href="#HelveticaNeue-6e" x="238.899948"/>
     <use xlink:href="#HelveticaNeue-75" x="294.499939"/>
     <use xlink:href="#HelveticaNeue-6f" x="350.09993"/>
     <use xlink:href="#HelveticaNeue-75" x="407.499924"/>
     <use xlink:href="#HelveticaNeue-73" x="463.099915"/>
    </g>
   </g>
   <g id="line2d_13">
    <path d="M 335.104747 182.856381 
L 115.084148 167.68625 
L 124.935817 168.36551 
L 216.884724 174.705266 
L 203.749166 173.799587 
L 101.94859 166.780571 
L 223.452503 175.158106 
L 253.007509 177.195885 
L 167.626381 171.308968 
L 108.516369 167.233411 
L 289.130293 179.686503 
L 338.388636 183.082801 
L 170.91027 171.535388 
L 207.033055 174.026007 
L 128.219707 168.59193 
L 197.181387 173.346747 
L 101.94859 166.780571 
L 121.651928 168.13909 
L 256.291398 177.422304 
L 236.588061 176.063785 
L 223.452503 175.158106 
" clip-path="url(#pe48f5b3781)" style="fill: none; stroke: #292f36; stroke-width: 1.5; stroke-linecap: square"/>
   </g>
   <g id="line2d_14">
    <path d="M 335.104747 156.399295 
L 115.084148 153.090196 
L 124.935817 153.238364 
L 216.884724 154.621271 
L 203.749166 154.423713 
L 101.94859 152.892638 
L 223.452503 154.72005 
L 253.007509 155.164556 
L 167.626381 153.880428 
L 108.516369 152.991417 
L 289.130293 155.707841 
L 338.388636 156.448684 
L 170.91027 153.929818 
L 207.033055 154.473103 
L 128.219707 153.287754 
L 197.181387 154.324934 
L 101.94859 152.892638 
L 121.651928 153.188975 
L 256.291398 155.213946 
L 236.588061 154.917609 
L 223.452503 154.72005 
" clip-path="url(#pe48f5b3781)" style="fill: none; stroke: #52bfb6; stroke-width: 1.5; stroke-linecap: square"/>
   </g>
   <g id="line2d_15">
    <path d="M 335.104747 165.113676 
L 115.084148 156.700296 
L 124.935817 157.077014 
L 216.884724 160.593054 
L 203.749166 160.090762 
L 101.94859 156.198005 
L 223.452503 160.844199 
L 253.007509 161.974355 
L 167.626381 158.709461 
L 108.516369 156.44915 
L 289.130293 163.355656 
L 338.388636 165.239249 
L 170.91027 158.835034 
L 207.033055 160.216335 
L 128.219707 157.202587 
L 197.181387 159.839617 
L 101.94859 156.198005 
L 121.651928 156.951442 
L 256.291398 162.099928 
L 236.588061 161.346491 
L 223.452503 160.844199 
" clip-path="url(#pe48f5b3781)" style="fill: none; stroke: #e3bc59; stroke-width: 1.5; stroke-linecap: square"/>
   </g>
   <g id="line2d_16">
    <path d="M 335.104747 152.921446 
L 115.084148 143.639596 
L 124.935817 144.055201 
L 216.884724 147.934183 
L 203.749166 147.380043 
L 101.94859 143.085456 
L 223.452503 148.211254 
L 253.007509 149.458069 
L 167.626381 145.856157 
L 108.516369 143.362526 
L 289.130293 150.981955 
L 338.388636 153.059981 
L 170.91027 145.994692 
L 207.033055 147.518578 
L 128.219707 144.193736 
L 197.181387 147.102973 
L 101.94859 143.085456 
L 121.651928 143.916666 
L 256.291398 149.596604 
L 236.588061 148.765394 
L 223.452503 148.211254 
" clip-path="url(#pe48f5b3781)" style="fill: none; stroke: #e03639; stroke-width: 1.5; stroke-linecap: square"/>
   </g>
   <g id="axes_2">
    <g id="patch_7">
     <path d="M 265.749 295.0254 
L 337.0915 295.0254 
L 337.0915 221.5154 
L 265.749 221.5154 
z
" style="fill: #ffffff; opacity: 0.2"/>
    </g>
    <g id="patch_8">
     <path d="M 268.991841 295.0254 
L 282.645908 295.0254 
L 282.645908 293.386539 
L 268.991841 293.386539 
z
" clip-path="url(#p6cb591ed8d)" style="fill: #292f36"/>
    </g>
    <g id="patch_9">
     <path d="M 286.059425 295.0254 
L 299.713492 295.0254 
L 299.713492 294.768745 
L 286.059425 294.768745 
z
" clip-path="url(#p6cb591ed8d)" style="fill: #52bfb6"/>
    </g>
    <g id="patch_10">
     <path d="M 303.127008 295.0254 
L 316.781075 295.0254 
L 316.781075 292.887162 
L 303.127008 292.887162 
z
" clip-path="url(#p6cb591ed8d)" style="fill: #e3bc59"/>
    </g>
    <g id="patch_11">
     <path d="M 320.194592 295.0254 
L 333.848659 295.0254 
L 333.848659 294.426877 
L 320.194592 294.426877 
z
" clip-path="url(#p6cb591ed8d)" style="fill: #e03639"/>
    </g>
    <g id="matplotlib.axis_3">
     <g id="xtick_5">
      <g id="line2d_17">
       <g>
        <use xlink:href="#m415346a2ba" x="275.818874" y="295.0254" style="stroke: #000000; stroke-width: 0.8"/>
       </g>
      </g>
      <g id="text_16">
       <!-- R -->
       <g transform="translate(271.254034 311.542425)scale(0.13328 -0.13328)">
        <defs>
         <path id="HelveticaNeue-52" d="M 499 4570 
L 499 0 
L 1107 0 
L 1107 1952 
L 2592 1952 
Q 2816 1952 2950 1885 
Q 3085 1818 3168 1706 
Q 3251 1594 3289 1443 
Q 3328 1293 3354 1126 
Q 3386 960 3392 787 
Q 3398 614 3404 464 
Q 3411 314 3433 192 
Q 3456 70 3520 0 
L 4198 0 
Q 4102 115 4054 265 
Q 4006 416 3980 582 
Q 3955 749 3948 921 
Q 3942 1094 3930 1261 
Q 3910 1427 3875 1580 
Q 3840 1734 3766 1859 
Q 3693 1984 3568 2073 
Q 3443 2163 3245 2202 
L 3245 2214 
Q 3661 2330 3849 2643 
Q 4038 2957 4038 3373 
Q 4038 3930 3670 4250 
Q 3302 4570 2650 4570 
L 499 4570 
z
M 2374 2464 
L 1107 2464 
L 1107 4058 
L 2618 4058 
Q 3046 4058 3238 3840 
Q 3430 3622 3430 3277 
Q 3430 3027 3344 2870 
Q 3258 2714 3114 2621 
Q 2970 2528 2778 2496 
Q 2586 2464 2374 2464 
z
" transform="scale(0.015625)"/>
        </defs>
        <use xlink:href="#HelveticaNeue-52"/>
       </g>
      </g>
     </g>
     <g id="xtick_6">
      <g id="line2d_18">
       <g>
        <use xlink:href="#m415346a2ba" x="292.886458" y="295.0254" style="stroke: #000000; stroke-width: 0.8"/>
       </g>
      </g>
      <g id="text_17">
       <!-- T -->
       <g transform="translate(289.060906 311.542425)scale(0.13328 -0.13328)">
        <defs>
         <path id="HelveticaNeue-54" d="M 1536 4058 
L 1536 0 
L 2144 0 
L 2144 4058 
L 3667 4058 
L 3667 4570 
L 13 4570 
L 13 4058 
L 1536 4058 
z
" transform="scale(0.015625)"/>
        </defs>
        <use xlink:href="#HelveticaNeue-54"/>
       </g>
      </g>
     </g>
     <g id="xtick_7">
      <g id="line2d_19">
       <g>
        <use xlink:href="#m415346a2ba" x="309.954042" y="295.0254" style="stroke: #000000; stroke-width: 0.8"/>
       </g>
      </g>
      <g id="text_18">
       <!-- F -->
       <g transform="translate(306.128489 311.542425)scale(0.13328 -0.13328)">
        <defs>
         <path id="HelveticaNeue-46" d="M 499 4570 
L 499 0 
L 1107 0 
L 1107 2093 
L 3206 2093 
L 3206 2605 
L 1107 2605 
L 1107 4058 
L 3501 4058 
L 3501 4570 
L 499 4570 
z
" transform="scale(0.015625)"/>
        </defs>
        <use xlink:href="#HelveticaNeue-46"/>
       </g>
      </g>
     </g>
     <g id="xtick_8">
      <g id="line2d_20">
       <g>
        <use xlink:href="#m415346a2ba" x="327.021626" y="295.0254" style="stroke: #000000; stroke-width: 0.8"/>
       </g>
      </g>
      <g id="text_19">
       <!-- FT -->
       <g transform="translate(319.370521 311.542425)scale(0.13328 -0.13328)">
        <use xlink:href="#HelveticaNeue-46"/>
        <use xlink:href="#HelveticaNeue-54" x="57.399994"/>
       </g>
      </g>
     </g>
    </g>
    <g id="matplotlib.axis_4">
     <g id="ytick_9">
      <g id="line2d_21">
       <g>
        <use xlink:href="#m42cd9a468c" x="265.749" y="295.0254" style="stroke: #000000; stroke-width: 0.8"/>
       </g>
      </g>
      <g id="text_20">
       <!-- 0 -->
       <g transform="translate(251.339465 299.783912)scale(0.13328 -0.13328)">
        <use xlink:href="#HelveticaNeue-30"/>
       </g>
      </g>
     </g>
     <g id="ytick_10">
      <g id="line2d_22">
       <g>
        <use xlink:href="#m42cd9a468c" x="265.749" y="258.2704" style="stroke: #000000; stroke-width: 0.8"/>
       </g>
      </g>
      <g id="text_21">
       <!-- 0.5 -->
       <g transform="translate(240.225162 263.028912)scale(0.13328 -0.13328)">
        <defs>
         <path id="HelveticaNeue-2e" d="M 531 710 
L 531 0 
L 1242 0 
L 1242 710 
L 531 710 
z
" transform="scale(0.015625)"/>
        </defs>
        <use xlink:href="#HelveticaNeue-30"/>
        <use xlink:href="#HelveticaNeue-2e" x="55.599991"/>
        <use xlink:href="#HelveticaNeue-35" x="83.399979"/>
       </g>
      </g>
     </g>
     <g id="ytick_11">
      <g id="line2d_23">
       <g>
        <use xlink:href="#m42cd9a468c" x="265.749" y="221.5154" style="stroke: #000000; stroke-width: 0.8"/>
       </g>
      </g>
      <g id="text_22">
       <!-- 1 -->
       <g transform="translate(251.339465 226.273912)scale(0.13328 -0.13328)">
        <use xlink:href="#HelveticaNeue-31"/>
       </g>
      </g>
     </g>
    </g>
    <g id="patch_12">
     <path d="M 265.749 295.0254 
L 265.749 221.5154 
" style="fill: none; stroke: #000000; stroke-width: 0.8; stroke-linejoin: miter; stroke-linecap: square"/>
    </g>
    <g id="patch_13">
     <path d="M 337.0915 295.0254 
L 337.0915 221.5154 
" style="fill: none; stroke: #000000; stroke-width: 0.8; stroke-linejoin: miter; stroke-linecap: square"/>
    </g>
    <g id="patch_14">
     <path d="M 265.749 295.0254 
L 337.0915 295.0254 
" style="fill: none; stroke: #000000; stroke-width: 0.8; stroke-linejoin: miter; stroke-linecap: square"/>
    </g>
    <g id="patch_15">
     <path d="M 265.749 221.5154 
L 337.0915 221.5154 
" style="fill: none; stroke: #000000; stroke-width: 0.8; stroke-linejoin: miter; stroke-linecap: square"/>
    </g>
    <g id="text_23">
     <!-- R$^2$ -->
     <g transform="translate(292.06025 215.5154)scale(0.16 -0.16)">
      <defs>
       <path id="DejaVuSans-32" d="M 1228 531 
L 3431 531 
L 3431 0 
L 469 0 
L 469 531 
Q 828 903 1448 1529 
Q 2069 2156 2228 2338 
Q 2531 2678 2651 2914 
Q 2772 3150 2772 3378 
Q 2772 3750 2511 3984 
Q 2250 4219 1831 4219 
Q 1534 4219 1204 4116 
Q 875 4013 500 3803 
L 500 4441 
Q 881 4594 1212 4672 
Q 1544 4750 1819 4750 
Q 2544 4750 2975 4387 
Q 3406 4025 3406 3419 
Q 3406 3131 3298 2873 
Q 3191 2616 2906 2266 
Q 2828 2175 2409 1742 
Q 1991 1309 1228 531 
z
" transform="scale(0.015625)"/>
      </defs>
      <use xlink:href="#HelveticaNeue-52" transform="translate(0 0.765625)"/>
      <use xlink:href="#DejaVuSans-32" transform="translate(69.457016 39.046875)scale(0.7)"/>
     </g>
    </g>
   </g>
  </g>
  <g id="axes_3">
   <g id="patch_16">
    <path d="M 417.35 328.84 
L 702.72 328.84 
L 702.72 34.8 
L 417.35 34.8 
z
" style="fill: #ffffff"/>
   </g>
   <g id="PathCollection_5">
    <defs>
     <path id="C4_0_9b46fba9e0" d="M 0 2.738613 
C 0.726289 2.738613 1.422928 2.450055 1.936492 1.936492 
C 2.450055 1.422928 2.738613 0.726289 2.738613 -0 
C 2.738613 -0.726289 2.450055 -1.422928 1.936492 -1.936492 
C 1.422928 -2.450055 0.726289 -2.738613 0 -2.738613 
C -0.726289 -2.738613 -1.422928 -2.450055 -1.936492 -1.936492 
C -2.450055 -1.422928 -2.738613 -0.726289 -2.738613 0 
C -2.738613 0.726289 -2.450055 1.422928 -1.936492 1.936492 
C -1.422928 2.450055 -0.726289 2.738613 0 2.738613 
z
"/>
    </defs>
    <g clip-path="url(#p032b0619e9)">
     <use xlink:href="#C4_0_9b46fba9e0" x="686.464747" y="162.791895" style="fill: #292f36; fill-opacity: 0.65"/>
    </g>
    <g clip-path="url(#p032b0619e9)">
     <use xlink:href="#C4_0_9b46fba9e0" x="499.283044" y="144.573553" style="fill: #292f36; fill-opacity: 0.65"/>
    </g>
    <g clip-path="url(#p032b0619e9)">
     <use xlink:href="#C4_0_9b46fba9e0" x="486.147486" y="135.196041" style="fill: #292f36; fill-opacity: 0.65"/>
    </g>
    <g clip-path="url(#p032b0619e9)">
     <use xlink:href="#C4_0_9b46fba9e0" x="466.444148" y="156.610317" style="fill: #292f36; fill-opacity: 0.65"/>
    </g>
    <g clip-path="url(#p032b0619e9)">
     <use xlink:href="#C4_0_9b46fba9e0" x="476.295817" y="152.83032" style="fill: #292f36; fill-opacity: 0.65"/>
    </g>
    <g clip-path="url(#p032b0619e9)">
     <use xlink:href="#C4_0_9b46fba9e0" x="568.244724" y="146.905509" style="fill: #292f36; fill-opacity: 0.65"/>
    </g>
    <g clip-path="url(#p032b0619e9)">
     <use xlink:href="#C4_0_9b46fba9e0" x="555.109166" y="165.002732" style="fill: #292f36; fill-opacity: 0.65"/>
    </g>
    <g clip-path="url(#p032b0619e9)">
     <use xlink:href="#C4_0_9b46fba9e0" x="453.30859" y="176.649268" style="fill: #292f36; fill-opacity: 0.65"/>
    </g>
    <g clip-path="url(#p032b0619e9)">
     <use xlink:href="#C4_0_9b46fba9e0" x="538.689718" y="175.015496" style="fill: #292f36; fill-opacity: 0.65"/>
    </g>
    <g clip-path="url(#p032b0619e9)">
     <use xlink:href="#C4_0_9b46fba9e0" x="574.812503" y="159.661923" style="fill: #292f36; fill-opacity: 0.65"/>
    </g>
    <g clip-path="url(#p032b0619e9)">
     <use xlink:href="#C4_0_9b46fba9e0" x="604.367509" y="150.63325" style="fill: #292f36; fill-opacity: 0.65"/>
    </g>
    <g clip-path="url(#p032b0619e9)">
     <use xlink:href="#C4_0_9b46fba9e0" x="518.986381" y="165.251104" style="fill: #292f36; fill-opacity: 0.65"/>
    </g>
    <g clip-path="url(#p032b0619e9)">
     <use xlink:href="#C4_0_9b46fba9e0" x="459.876369" y="159.550937" style="fill: #292f36; fill-opacity: 0.65"/>
    </g>
    <g clip-path="url(#p032b0619e9)">
     <use xlink:href="#C4_0_9b46fba9e0" x="515.702491" y="154.84144" style="fill: #292f36; fill-opacity: 0.65"/>
    </g>
    <g clip-path="url(#p032b0619e9)">
     <use xlink:href="#C4_0_9b46fba9e0" x="640.490293" y="177.907093" style="fill: #292f36; fill-opacity: 0.65"/>
    </g>
    <g clip-path="url(#p032b0619e9)">
     <use xlink:href="#C4_0_9b46fba9e0" x="689.748636" y="155.51885" style="fill: #292f36; fill-opacity: 0.65"/>
    </g>
    <g clip-path="url(#p032b0619e9)">
     <use xlink:href="#C4_0_9b46fba9e0" x="604.367509" y="164.662371" style="fill: #292f36; fill-opacity: 0.65"/>
    </g>
    <g clip-path="url(#p032b0619e9)">
     <use xlink:href="#C4_0_9b46fba9e0" x="522.27027" y="173.344984" style="fill: #292f36; fill-opacity: 0.65"/>
    </g>
    <g clip-path="url(#p032b0619e9)">
     <use xlink:href="#C4_0_9b46fba9e0" x="479.579707" y="168.360331" style="fill: #292f36; fill-opacity: 0.65"/>
    </g>
    <g clip-path="url(#p032b0619e9)">
     <use xlink:href="#C4_0_9b46fba9e0" x="548.541387" y="153.242161" style="fill: #292f36; fill-opacity: 0.65"/>
    </g>
    <g clip-path="url(#p032b0619e9)">
     <use xlink:href="#C4_0_9b46fba9e0" x="473.011928" y="188.326414" style="fill: #292f36; fill-opacity: 0.65"/>
    </g>
    <g clip-path="url(#p032b0619e9)">
     <use xlink:href="#C4_0_9b46fba9e0" x="607.651398" y="146.451026" style="fill: #292f36; fill-opacity: 0.65"/>
    </g>
    <g clip-path="url(#p032b0619e9)">
     <use xlink:href="#C4_0_9b46fba9e0" x="430.321364" y="159.648342" style="fill: #292f36; fill-opacity: 0.65"/>
    </g>
    <g clip-path="url(#p032b0619e9)">
     <use xlink:href="#C4_0_9b46fba9e0" x="587.948061" y="165.318389" style="fill: #292f36; fill-opacity: 0.65"/>
    </g>
    <g clip-path="url(#p032b0619e9)">
     <use xlink:href="#C4_0_9b46fba9e0" x="574.812503" y="129.513065" style="fill: #292f36; fill-opacity: 0.65"/>
    </g>
   </g>
   <g id="PathCollection_6">
    <defs>
     <path id="C5_0_51bda979f0" d="M 0 2.738613 
C 0.726289 2.738613 1.422928 2.450055 1.936492 1.936492 
C 2.450055 1.422928 2.738613 0.726289 2.738613 -0 
C 2.738613 -0.726289 2.450055 -1.422928 1.936492 -1.936492 
C 1.422928 -2.450055 0.726289 -2.738613 0 -2.738613 
C -0.726289 -2.738613 -1.422928 -2.450055 -1.936492 -1.936492 
C -2.450055 -1.422928 -2.738613 -0.726289 -2.738613 0 
C -2.738613 0.726289 -2.450055 1.422928 -1.936492 1.936492 
C -1.422928 2.450055 -0.726289 2.738613 0 2.738613 
z
"/>
    </defs>
    <g clip-path="url(#p032b0619e9)">
     <use xlink:href="#C5_0_51bda979f0" x="686.464747" y="146.286604" style="fill: #52bfb6; fill-opacity: 0.65"/>
    </g>
    <g clip-path="url(#p032b0619e9)">
     <use xlink:href="#C5_0_51bda979f0" x="499.283044" y="111.591846" style="fill: #52bfb6; fill-opacity: 0.65"/>
    </g>
    <g clip-path="url(#p032b0619e9)">
     <use xlink:href="#C5_0_51bda979f0" x="486.147486" y="145.665225" style="fill: #52bfb6; fill-opacity: 0.65"/>
    </g>
    <g clip-path="url(#p032b0619e9)">
     <use xlink:href="#C5_0_51bda979f0" x="466.444148" y="152.170285" style="fill: #52bfb6; fill-opacity: 0.65"/>
    </g>
    <g clip-path="url(#p032b0619e9)">
     <use xlink:href="#C5_0_51bda979f0" x="476.295817" y="140.914774" style="fill: #52bfb6; fill-opacity: 0.65"/>
    </g>
    <g clip-path="url(#p032b0619e9)">
     <use xlink:href="#C5_0_51bda979f0" x="568.244724" y="128.464019" style="fill: #52bfb6; fill-opacity: 0.65"/>
    </g>
    <g clip-path="url(#p032b0619e9)">
     <use xlink:href="#C5_0_51bda979f0" x="555.109166" y="149.966299" style="fill: #52bfb6; fill-opacity: 0.65"/>
    </g>
    <g clip-path="url(#p032b0619e9)">
     <use xlink:href="#C5_0_51bda979f0" x="453.30859" y="140.553977" style="fill: #52bfb6; fill-opacity: 0.65"/>
    </g>
    <g clip-path="url(#p032b0619e9)">
     <use xlink:href="#C5_0_51bda979f0" x="538.689718" y="153.692884" style="fill: #52bfb6; fill-opacity: 0.65"/>
    </g>
    <g clip-path="url(#p032b0619e9)">
     <use xlink:href="#C5_0_51bda979f0" x="574.812503" y="126.379393" style="fill: #52bfb6; fill-opacity: 0.65"/>
    </g>
    <g clip-path="url(#p032b0619e9)">
     <use xlink:href="#C5_0_51bda979f0" x="604.367509" y="147.435721" style="fill: #52bfb6; fill-opacity: 0.65"/>
    </g>
    <g clip-path="url(#p032b0619e9)">
     <use xlink:href="#C5_0_51bda979f0" x="518.986381" y="178.690378" style="fill: #52bfb6; fill-opacity: 0.65"/>
    </g>
    <g clip-path="url(#p032b0619e9)">
     <use xlink:href="#C5_0_51bda979f0" x="459.876369" y="161.785029" style="fill: #52bfb6; fill-opacity: 0.65"/>
    </g>
    <g clip-path="url(#p032b0619e9)">
     <use xlink:href="#C5_0_51bda979f0" x="515.702491" y="146.463271" style="fill: #52bfb6; fill-opacity: 0.65"/>
    </g>
    <g clip-path="url(#p032b0619e9)">
     <use xlink:href="#C5_0_51bda979f0" x="640.490293" y="152.245851" style="fill: #52bfb6; fill-opacity: 0.65"/>
    </g>
    <g clip-path="url(#p032b0619e9)">
     <use xlink:href="#C5_0_51bda979f0" x="689.748636" y="147.883707" style="fill: #52bfb6; fill-opacity: 0.65"/>
    </g>
    <g clip-path="url(#p032b0619e9)">
     <use xlink:href="#C5_0_51bda979f0" x="604.367509" y="143.025554" style="fill: #52bfb6; fill-opacity: 0.65"/>
    </g>
    <g clip-path="url(#p032b0619e9)">
     <use xlink:href="#C5_0_51bda979f0" x="522.27027" y="149.470706" style="fill: #52bfb6; fill-opacity: 0.65"/>
    </g>
    <g clip-path="url(#p032b0619e9)">
     <use xlink:href="#C5_0_51bda979f0" x="479.579707" y="155.464137" style="fill: #52bfb6; fill-opacity: 0.65"/>
    </g>
    <g clip-path="url(#p032b0619e9)">
     <use xlink:href="#C5_0_51bda979f0" x="548.541387" y="148.640269" style="fill: #52bfb6; fill-opacity: 0.65"/>
    </g>
    <g clip-path="url(#p032b0619e9)">
     <use xlink:href="#C5_0_51bda979f0" x="473.011928" y="146.382188" style="fill: #52bfb6; fill-opacity: 0.65"/>
    </g>
    <g clip-path="url(#p032b0619e9)">
     <use xlink:href="#C5_0_51bda979f0" x="607.651398" y="131.197636" style="fill: #52bfb6; fill-opacity: 0.65"/>
    </g>
    <g clip-path="url(#p032b0619e9)">
     <use xlink:href="#C5_0_51bda979f0" x="430.321364" y="115.272964" style="fill: #52bfb6; fill-opacity: 0.65"/>
    </g>
    <g clip-path="url(#p032b0619e9)">
     <use xlink:href="#C5_0_51bda979f0" x="587.948061" y="152.735892" style="fill: #52bfb6; fill-opacity: 0.65"/>
    </g>
    <g clip-path="url(#p032b0619e9)">
     <use xlink:href="#C5_0_51bda979f0" x="574.812503" y="129.368393" style="fill: #52bfb6; fill-opacity: 0.65"/>
    </g>
   </g>
   <g id="PathCollection_7">
    <defs>
     <path id="C6_0_87da491522" d="M 0 2.738613 
C 0.726289 2.738613 1.422928 2.450055 1.936492 1.936492 
C 2.450055 1.422928 2.738613 0.726289 2.738613 -0 
C 2.738613 -0.726289 2.450055 -1.422928 1.936492 -1.936492 
C 1.422928 -2.450055 0.726289 -2.738613 0 -2.738613 
C -0.726289 -2.738613 -1.422928 -2.450055 -1.936492 -1.936492 
C -2.450055 -1.422928 -2.738613 -0.726289 -2.738613 0 
C -2.738613 0.726289 -2.450055 1.422928 -1.936492 1.936492 
C -1.422928 2.450055 -0.726289 2.738613 0 2.738613 
z
"/>
    </defs>
    <g clip-path="url(#p032b0619e9)">
     <use xlink:href="#C6_0_87da491522" x="686.464747" y="135.477606" style="fill: #e3bc59; fill-opacity: 0.65"/>
    </g>
    <g clip-path="url(#p032b0619e9)">
     <use xlink:href="#C6_0_87da491522" x="499.283044" y="146.267413" style="fill: #e3bc59; fill-opacity: 0.65"/>
    </g>
    <g clip-path="url(#p032b0619e9)">
     <use xlink:href="#C6_0_87da491522" x="486.147486" y="104.82439" style="fill: #e3bc59; fill-opacity: 0.65"/>
    </g>
    <g clip-path="url(#p032b0619e9)">
     <use xlink:href="#C6_0_87da491522" x="466.444148" y="148.536373" style="fill: #e3bc59; fill-opacity: 0.65"/>
    </g>
    <g clip-path="url(#p032b0619e9)">
     <use xlink:href="#C6_0_87da491522" x="476.295817" y="153.032784" style="fill: #e3bc59; fill-opacity: 0.65"/>
    </g>
    <g clip-path="url(#p032b0619e9)">
     <use xlink:href="#C6_0_87da491522" x="568.244724" y="133.271436" style="fill: #e3bc59; fill-opacity: 0.65"/>
    </g>
    <g clip-path="url(#p032b0619e9)">
     <use xlink:href="#C6_0_87da491522" x="555.109166" y="164.843907" style="fill: #e3bc59; fill-opacity: 0.65"/>
    </g>
    <g clip-path="url(#p032b0619e9)">
     <use xlink:href="#C6_0_87da491522" x="453.30859" y="170.026204" style="fill: #e3bc59; fill-opacity: 0.65"/>
    </g>
    <g clip-path="url(#p032b0619e9)">
     <use xlink:href="#C6_0_87da491522" x="538.689718" y="152.018611" style="fill: #e3bc59; fill-opacity: 0.65"/>
    </g>
    <g clip-path="url(#p032b0619e9)">
     <use xlink:href="#C6_0_87da491522" x="574.812503" y="104.480077" style="fill: #e3bc59; fill-opacity: 0.65"/>
    </g>
    <g clip-path="url(#p032b0619e9)">
     <use xlink:href="#C6_0_87da491522" x="604.367509" y="128.5738" style="fill: #e3bc59; fill-opacity: 0.65"/>
    </g>
    <g clip-path="url(#p032b0619e9)">
     <use xlink:href="#C6_0_87da491522" x="518.986381" y="156.72392" style="fill: #e3bc59; fill-opacity: 0.65"/>
    </g>
    <g clip-path="url(#p032b0619e9)">
     <use xlink:href="#C6_0_87da491522" x="459.876369" y="153.351832" style="fill: #e3bc59; fill-opacity: 0.65"/>
    </g>
    <g clip-path="url(#p032b0619e9)">
     <use xlink:href="#C6_0_87da491522" x="515.702491" y="76.319868" style="fill: #e3bc59; fill-opacity: 0.65"/>
    </g>
    <g clip-path="url(#p032b0619e9)">
     <use xlink:href="#C6_0_87da491522" x="640.490293" y="145.866079" style="fill: #e3bc59; fill-opacity: 0.65"/>
    </g>
    <g clip-path="url(#p032b0619e9)">
     <use xlink:href="#C6_0_87da491522" x="689.748636" y="152.654634" style="fill: #e3bc59; fill-opacity: 0.65"/>
    </g>
    <g clip-path="url(#p032b0619e9)">
     <use xlink:href="#C6_0_87da491522" x="604.367509" y="149.756564" style="fill: #e3bc59; fill-opacity: 0.65"/>
    </g>
    <g clip-path="url(#p032b0619e9)">
     <use xlink:href="#C6_0_87da491522" x="522.27027" y="160.987455" style="fill: #e3bc59; fill-opacity: 0.65"/>
    </g>
    <g clip-path="url(#p032b0619e9)">
     <use xlink:href="#C6_0_87da491522" x="479.579707" y="160.57108" style="fill: #e3bc59; fill-opacity: 0.65"/>
    </g>
    <g clip-path="url(#p032b0619e9)">
     <use xlink:href="#C6_0_87da491522" x="548.541387" y="158.745075" style="fill: #e3bc59; fill-opacity: 0.65"/>
    </g>
    <g clip-path="url(#p032b0619e9)">
     <use xlink:href="#C6_0_87da491522" x="473.011928" y="136.135135" style="fill: #e3bc59; fill-opacity: 0.65"/>
    </g>
    <g clip-path="url(#p032b0619e9)">
     <use xlink:href="#C6_0_87da491522" x="607.651398" y="127.180868" style="fill: #e3bc59; fill-opacity: 0.65"/>
    </g>
    <g clip-path="url(#p032b0619e9)">
     <use xlink:href="#C6_0_87da491522" x="430.321364" y="135.961916" style="fill: #e3bc59; fill-opacity: 0.65"/>
    </g>
    <g clip-path="url(#p032b0619e9)">
     <use xlink:href="#C6_0_87da491522" x="587.948061" y="154.743946" style="fill: #e3bc59; fill-opacity: 0.65"/>
    </g>
    <g clip-path="url(#p032b0619e9)">
     <use xlink:href="#C6_0_87da491522" x="574.812503" y="42.821718" style="fill: #e3bc59; fill-opacity: 0.65"/>
    </g>
   </g>
   <g id="PathCollection_8">
    <defs>
     <path id="C7_0_3a7c7a8524" d="M 0 2.738613 
C 0.726289 2.738613 1.422928 2.450055 1.936492 1.936492 
C 2.450055 1.422928 2.738613 0.726289 2.738613 -0 
C 2.738613 -0.726289 2.450055 -1.422928 1.936492 -1.936492 
C 1.422928 -2.450055 0.726289 -2.738613 0 -2.738613 
C -0.726289 -2.738613 -1.422928 -2.450055 -1.936492 -1.936492 
C -2.450055 -1.422928 -2.738613 -0.726289 -2.738613 0 
C -2.738613 0.726289 -2.450055 1.422928 -1.936492 1.936492 
C -1.422928 2.450055 -0.726289 2.738613 0 2.738613 
z
"/>
    </defs>
    <g clip-path="url(#p032b0619e9)">
     <use xlink:href="#C7_0_3a7c7a8524" x="686.464747" y="137.190897" style="fill: #e03639; fill-opacity: 0.65"/>
    </g>
    <g clip-path="url(#p032b0619e9)">
     <use xlink:href="#C7_0_3a7c7a8524" x="499.283044" y="120.796713" style="fill: #e03639; fill-opacity: 0.65"/>
    </g>
    <g clip-path="url(#p032b0619e9)">
     <use xlink:href="#C7_0_3a7c7a8524" x="486.147486" y="122.424721" style="fill: #e03639; fill-opacity: 0.65"/>
    </g>
    <g clip-path="url(#p032b0619e9)">
     <use xlink:href="#C7_0_3a7c7a8524" x="466.444148" y="140.647059" style="fill: #e03639; fill-opacity: 0.65"/>
    </g>
    <g clip-path="url(#p032b0619e9)">
     <use xlink:href="#C7_0_3a7c7a8524" x="476.295817" y="141.737748" style="fill: #e03639; fill-opacity: 0.65"/>
    </g>
    <g clip-path="url(#p032b0619e9)">
     <use xlink:href="#C7_0_3a7c7a8524" x="568.244724" y="115.297181" style="fill: #e03639; fill-opacity: 0.65"/>
    </g>
    <g clip-path="url(#p032b0619e9)">
     <use xlink:href="#C7_0_3a7c7a8524" x="555.109166" y="158.030913" style="fill: #e03639; fill-opacity: 0.65"/>
    </g>
    <g clip-path="url(#p032b0619e9)">
     <use xlink:href="#C7_0_3a7c7a8524" x="453.30859" y="149.084937" style="fill: #e03639; fill-opacity: 0.65"/>
    </g>
    <g clip-path="url(#p032b0619e9)">
     <use xlink:href="#C7_0_3a7c7a8524" x="538.689718" y="135.832077" style="fill: #e03639; fill-opacity: 0.65"/>
    </g>
    <g clip-path="url(#p032b0619e9)">
     <use xlink:href="#C7_0_3a7c7a8524" x="574.812503" y="122.889122" style="fill: #e03639; fill-opacity: 0.65"/>
    </g>
    <g clip-path="url(#p032b0619e9)">
     <use xlink:href="#C7_0_3a7c7a8524" x="604.367509" y="120.511805" style="fill: #e03639; fill-opacity: 0.65"/>
    </g>
    <g clip-path="url(#p032b0619e9)">
     <use xlink:href="#C7_0_3a7c7a8524" x="518.986381" y="165.587097" style="fill: #e03639; fill-opacity: 0.65"/>
    </g>
    <g clip-path="url(#p032b0619e9)">
     <use xlink:href="#C7_0_3a7c7a8524" x="459.876369" y="142.513843" style="fill: #e03639; fill-opacity: 0.65"/>
    </g>
    <g clip-path="url(#p032b0619e9)">
     <use xlink:href="#C7_0_3a7c7a8524" x="515.702491" y="131.169174" style="fill: #e03639; fill-opacity: 0.65"/>
    </g>
    <g clip-path="url(#p032b0619e9)">
     <use xlink:href="#C7_0_3a7c7a8524" x="640.490293" y="122.150481" style="fill: #e03639; fill-opacity: 0.65"/>
    </g>
    <g clip-path="url(#p032b0619e9)">
     <use xlink:href="#C7_0_3a7c7a8524" x="689.748636" y="155.609119" style="fill: #e03639; fill-opacity: 0.65"/>
    </g>
    <g clip-path="url(#p032b0619e9)">
     <use xlink:href="#C7_0_3a7c7a8524" x="604.367509" y="160.591637" style="fill: #e03639; fill-opacity: 0.65"/>
    </g>
    <g clip-path="url(#p032b0619e9)">
     <use xlink:href="#C7_0_3a7c7a8524" x="522.27027" y="158.670726" style="fill: #e03639; fill-opacity: 0.65"/>
    </g>
    <g clip-path="url(#p032b0619e9)">
     <use xlink:href="#C7_0_3a7c7a8524" x="479.579707" y="147.607106" style="fill: #e03639; fill-opacity: 0.65"/>
    </g>
    <g clip-path="url(#p032b0619e9)">
     <use xlink:href="#C7_0_3a7c7a8524" x="548.541387" y="146.912634" style="fill: #e03639; fill-opacity: 0.65"/>
    </g>
    <g clip-path="url(#p032b0619e9)">
     <use xlink:href="#C7_0_3a7c7a8524" x="473.011928" y="141.915383" style="fill: #e03639; fill-opacity: 0.65"/>
    </g>
    <g clip-path="url(#p032b0619e9)">
     <use xlink:href="#C7_0_3a7c7a8524" x="607.651398" y="135.820136" style="fill: #e03639; fill-opacity: 0.65"/>
    </g>
    <g clip-path="url(#p032b0619e9)">
     <use xlink:href="#C7_0_3a7c7a8524" x="430.321364" y="78.547575" style="fill: #e03639; fill-opacity: 0.65"/>
    </g>
    <g clip-path="url(#p032b0619e9)">
     <use xlink:href="#C7_0_3a7c7a8524" x="587.948061" y="152.491122" style="fill: #e03639; fill-opacity: 0.65"/>
    </g>
    <g clip-path="url(#p032b0619e9)">
     <use xlink:href="#C7_0_3a7c7a8524" x="574.812503" y="121.764371" style="fill: #e03639; fill-opacity: 0.65"/>
    </g>
   </g>
   <g id="matplotlib.axis_5">
    <g id="xtick_9">
     <g id="line2d_24">
      <g>
       <use xlink:href="#m415346a2ba" x="446.740811" y="328.84" style="stroke: #000000; stroke-width: 0.8"/>
      </g>
     </g>
     <g id="text_24">
      <!-- 40 -->
      <g transform="translate(438.957686 345.836875)scale(0.14 -0.14)">
       <use xlink:href="#HelveticaNeue-34"/>
       <use xlink:href="#HelveticaNeue-30" x="55.599991"/>
      </g>
     </g>
    </g>
    <g id="xtick_10">
     <g id="line2d_25">
      <g>
       <use xlink:href="#m415346a2ba" x="512.418602" y="328.84" style="stroke: #000000; stroke-width: 0.8"/>
      </g>
     </g>
     <g id="text_25">
      <!-- 60 -->
      <g transform="translate(504.635477 345.836875)scale(0.14 -0.14)">
       <use xlink:href="#HelveticaNeue-36"/>
       <use xlink:href="#HelveticaNeue-30" x="55.599991"/>
      </g>
     </g>
    </g>
    <g id="xtick_11">
     <g id="line2d_26">
      <g>
       <use xlink:href="#m415346a2ba" x="578.096392" y="328.84" style="stroke: #000000; stroke-width: 0.8"/>
      </g>
     </g>
     <g id="text_26">
      <!-- 80 -->
      <g transform="translate(570.313267 345.836875)scale(0.14 -0.14)">
       <use xlink:href="#HelveticaNeue-38"/>
       <use xlink:href="#HelveticaNeue-30" x="55.599991"/>
      </g>
     </g>
    </g>
    <g id="xtick_12">
     <g id="line2d_27">
      <g>
       <use xlink:href="#m415346a2ba" x="643.774183" y="328.84" style="stroke: #000000; stroke-width: 0.8"/>
      </g>
     </g>
     <g id="text_27">
      <!-- 100 -->
      <g transform="translate(632.099495 345.836875)scale(0.14 -0.14)">
       <use xlink:href="#HelveticaNeue-31"/>
       <use xlink:href="#HelveticaNeue-30" x="55.599991"/>
       <use xlink:href="#HelveticaNeue-30" x="111.199982"/>
      </g>
     </g>
    </g>
    <g id="text_28">
     <!-- GMSI score -->
     <g transform="translate(520.445547 363.30625)scale(0.15 -0.15)">
      <use xlink:href="#HelveticaNeue-47"/>
      <use xlink:href="#HelveticaNeue-4d" x="75.899994"/>
      <use xlink:href="#HelveticaNeue-53" x="162.999985"/>
      <use xlink:href="#HelveticaNeue-49" x="227.799973"/>
      <use xlink:href="#HelveticaNeue-20" x="253.699966"/>
      <use xlink:href="#HelveticaNeue-73" x="281.499954"/>
      <use xlink:href="#HelveticaNeue-63" x="331.499939"/>
      <use xlink:href="#HelveticaNeue-6f" x="385.199936"/>
      <use xlink:href="#HelveticaNeue-72" x="442.59993"/>
      <use xlink:href="#HelveticaNeue-65" x="474.149918"/>
     </g>
    </g>
   </g>
   <g id="matplotlib.axis_6">
    <g id="ytick_12">
     <g id="line2d_28">
      <g>
       <use xlink:href="#m42cd9a468c" x="417.35" y="48.079883" style="stroke: #000000; stroke-width: 0.8"/>
      </g>
     </g>
     <g id="text_29">
      <!-- −15 -->
      <g transform="translate(386.38375 53.07832)scale(0.14 -0.14)">
       <use xlink:href="#HelveticaNeue-2212"/>
       <use xlink:href="#HelveticaNeue-31" x="59.999985"/>
       <use xlink:href="#HelveticaNeue-35" x="115.599976"/>
      </g>
     </g>
    </g>
    <g id="ytick_13">
     <g id="line2d_29">
      <g>
       <use xlink:href="#m42cd9a468c" x="417.35" y="88.188471" style="stroke: #000000; stroke-width: 0.8"/>
      </g>
     </g>
     <g id="text_30">
      <!-- −10 -->
      <g transform="translate(386.38375 93.186909)scale(0.14 -0.14)">
       <use xlink:href="#HelveticaNeue-2212"/>
       <use xlink:href="#HelveticaNeue-31" x="59.999985"/>
       <use xlink:href="#HelveticaNeue-30" x="115.599976"/>
      </g>
     </g>
    </g>
    <g id="ytick_14">
     <g id="line2d_30">
      <g>
       <use xlink:href="#m42cd9a468c" x="417.35" y="128.297059" style="stroke: #000000; stroke-width: 0.8"/>
      </g>
     </g>
     <g id="text_31">
      <!-- −5 -->
      <g transform="translate(394.166875 133.295497)scale(0.14 -0.14)">
       <use xlink:href="#HelveticaNeue-2212"/>
       <use xlink:href="#HelveticaNeue-35" x="59.999985"/>
      </g>
     </g>
    </g>
    <g id="ytick_15">
     <g id="line2d_31">
      <g>
       <use xlink:href="#m42cd9a468c" x="417.35" y="168.405647" style="stroke: #000000; stroke-width: 0.8"/>
      </g>
     </g>
     <g id="text_32">
      <!-- 0 -->
      <g transform="translate(402.566875 173.404085)scale(0.14 -0.14)">
       <use xlink:href="#HelveticaNeue-30"/>
      </g>
     </g>
    </g>
    <g id="ytick_16">
     <g id="line2d_32">
      <g>
       <use xlink:href="#m42cd9a468c" x="417.35" y="208.514236" style="stroke: #000000; stroke-width: 0.8"/>
      </g>
     </g>
     <g id="text_33">
      <!-- 5 -->
      <g transform="translate(402.566875 213.512673)scale(0.14 -0.14)">
       <use xlink:href="#HelveticaNeue-35"/>
      </g>
     </g>
    </g>
    <g id="ytick_17">
     <g id="line2d_33">
      <g>
       <use xlink:href="#m42cd9a468c" x="417.35" y="248.622824" style="stroke: #000000; stroke-width: 0.8"/>
      </g>
     </g>
     <g id="text_34">
      <!-- 10 -->
      <g transform="translate(394.78375 253.621261)scale(0.14 -0.14)">
       <use xlink:href="#HelveticaNeue-31"/>
       <use xlink:href="#HelveticaNeue-30" x="55.599991"/>
      </g>
     </g>
    </g>
    <g id="ytick_18">
     <g id="line2d_34">
      <g>
       <use xlink:href="#m42cd9a468c" x="417.35" y="288.731412" style="stroke: #000000; stroke-width: 0.8"/>
      </g>
     </g>
     <g id="text_35">
      <!-- 15 -->
      <g transform="translate(394.78375 293.729849)scale(0.14 -0.14)">
       <use xlink:href="#HelveticaNeue-31"/>
       <use xlink:href="#HelveticaNeue-35" x="55.599991"/>
      </g>
     </g>
    </g>
    <g id="ytick_19">
     <g id="line2d_35">
      <g>
       <use xlink:href="#m42cd9a468c" x="417.35" y="328.84" style="stroke: #000000; stroke-width: 0.8"/>
      </g>
     </g>
     <g id="text_36">
      <!-- 20 -->
      <g transform="translate(394.78375 333.838437)scale(0.14 -0.14)">
       <use xlink:href="#HelveticaNeue-32"/>
       <use xlink:href="#HelveticaNeue-30" x="55.599991"/>
      </g>
     </g>
    </g>
    <g id="text_37">
     <!-- p50 threshold distance (dB HL) -->
     <g transform="translate(379.428281 285.741875)rotate(-90)scale(0.15 -0.15)">
      <use xlink:href="#HelveticaNeue-70"/>
      <use xlink:href="#HelveticaNeue-35" x="59.299988"/>
      <use xlink:href="#HelveticaNeue-30" x="114.899979"/>
      <use xlink:href="#HelveticaNeue-20" x="170.499969"/>
      <use xlink:href="#HelveticaNeue-74" x="198.299957"/>
      <use xlink:href="#HelveticaNeue-68" x="229.799942"/>
      <use xlink:href="#HelveticaNeue-72" x="285.399933"/>
      <use xlink:href="#HelveticaNeue-65" x="316.949921"/>
      <use xlink:href="#HelveticaNeue-73" x="370.649918"/>
      <use xlink:href="#HelveticaNeue-68" x="420.649902"/>
      <use xlink:href="#HelveticaNeue-6f" x="476.249893"/>
      <use xlink:href="#HelveticaNeue-6c" x="533.649887"/>
      <use xlink:href="#HelveticaNeue-64" x="555.849884"/>
      <use xlink:href="#HelveticaNeue-20" x="615.149872"/>
      <use xlink:href="#HelveticaNeue-64" x="642.94986"/>
      <use xlink:href="#HelveticaNeue-69" x="702.249847"/>
      <use xlink:href="#HelveticaNeue-73" x="724.449844"/>
      <use xlink:href="#HelveticaNeue-74" x="774.449829"/>
      <use xlink:href="#HelveticaNeue-61" x="805.949814"/>
      <use xlink:href="#HelveticaNeue-6e" x="859.649811"/>
      <use xlink:href="#HelveticaNeue-63" x="915.249802"/>
      <use xlink:href="#HelveticaNeue-65" x="968.949799"/>
      <use xlink:href="#HelveticaNeue-20" x="1022.649796"/>
      <use xlink:href="#HelveticaNeue-28" x="1050.449783"/>
      <use xlink:href="#HelveticaNeue-64" x="1076.349777"/>
      <use xlink:href="#HelveticaNeue-42" x="1135.649765"/>
      <use xlink:href="#HelveticaNeue-20" x="1204.14975"/>
      <use xlink:href="#HelveticaNeue-48" x="1231.949738"/>
      <use xlink:href="#HelveticaNeue-4c" x="1304.149719"/>
      <use xlink:href="#HelveticaNeue-29" x="1359.74971"/>
     </g>
    </g>
   </g>
   <g id="patch_17">
    <path d="M 417.35 328.84 
L 417.35 34.8 
" style="fill: none; stroke: #000000; stroke-width: 0.8; stroke-linejoin: miter; stroke-linecap: square"/>
   </g>
   <g id="patch_18">
    <path d="M 702.72 328.84 
L 702.72 34.8 
" style="fill: none; stroke: #000000; stroke-width: 0.8; stroke-linejoin: miter; stroke-linecap: square"/>
   </g>
   <g id="patch_19">
    <path d="M 417.35 328.84 
L 702.72 328.84 
" style="fill: none; stroke: #000000; stroke-width: 0.8; stroke-linejoin: miter; stroke-linecap: square"/>
   </g>
   <g id="patch_20">
    <path d="M 417.35 34.8 
L 702.72 34.8 
" style="fill: none; stroke: #000000; stroke-width: 0.8; stroke-linejoin: miter; stroke-linecap: square"/>
   </g>
   <g id="text_38">
    <!-- Cluster -->
    <g transform="translate(534.555 28.8)scale(0.16 -0.16)">
     <use xlink:href="#HelveticaNeue-43"/>
     <use xlink:href="#HelveticaNeue-6c" x="72.199982"/>
     <use xlink:href="#HelveticaNeue-75" x="94.399979"/>
     <use xlink:href="#HelveticaNeue-73" x="149.999969"/>
     <use xlink:href="#HelveticaNeue-74" x="199.999954"/>
     <use xlink:href="#HelveticaNeue-65" x="231.499939"/>
     <use xlink:href="#HelveticaNeue-72" x="285.199936"/>
    </g>
   </g>
   <g id="line2d_36">
    <path d="M 686.464747 156.957703 
L 499.283044 160.279109 
L 486.147486 160.512191 
L 466.444148 160.861812 
L 476.295817 160.687001 
L 568.244724 159.055433 
L 555.109166 159.288515 
L 453.30859 161.094893 
L 538.689718 159.579866 
L 574.812503 158.938893 
L 604.367509 158.41446 
L 518.986381 159.929488 
L 459.876369 160.978353 
L 515.702491 159.987758 
L 640.490293 157.773487 
L 689.748636 156.899433 
L 604.367509 158.41446 
L 522.27027 159.871217 
L 479.579707 160.628731 
L 548.541387 159.405055 
L 473.011928 160.745272 
L 607.651398 158.35619 
L 430.321364 161.502785 
L 587.948061 158.705812 
L 574.812503 158.938893 
" clip-path="url(#p032b0619e9)" style="fill: none; stroke: #292f36; stroke-width: 1.5; stroke-linecap: square"/>
   </g>
   <g id="line2d_37">
    <path d="M 686.464747 145.390927 
L 499.283044 143.673325 
L 486.147486 143.552791 
L 466.444148 143.371991 
L 476.295817 143.462391 
L 568.244724 144.306126 
L 555.109166 144.185592 
L 453.30859 143.251458 
L 538.689718 144.034925 
L 574.812503 144.366392 
L 604.367509 144.637593 
L 518.986381 143.854125 
L 459.876369 143.311724 
L 515.702491 143.823992 
L 640.490293 144.96906 
L 689.748636 145.42106 
L 604.367509 144.637593 
L 522.27027 143.884258 
L 479.579707 143.492525 
L 548.541387 144.125325 
L 473.011928 143.432258 
L 607.651398 144.667726 
L 430.321364 143.040524 
L 587.948061 144.486926 
L 574.812503 144.366392 
" clip-path="url(#p032b0619e9)" style="fill: none; stroke: #52bfb6; stroke-width: 1.5; stroke-linecap: square"/>
   </g>
   <g id="line2d_38">
    <path d="M 686.464747 131.248858 
L 499.283044 140.191577 
L 486.147486 140.819137 
L 466.444148 141.760476 
L 476.295817 141.289806 
L 568.244724 136.896891 
L 555.109166 137.524451 
L 453.30859 142.388035 
L 538.689718 138.3089 
L 574.812503 136.583112 
L 604.367509 135.171104 
L 518.986381 139.250239 
L 459.876369 142.074255 
L 515.702491 139.407128 
L 640.490293 133.445316 
L 689.748636 131.091968 
L 604.367509 135.171104 
L 522.27027 139.093349 
L 479.579707 141.132916 
L 548.541387 137.83823 
L 473.011928 141.446696 
L 607.651398 135.014214 
L 430.321364 143.486264 
L 587.948061 135.955553 
L 574.812503 136.583112 
" clip-path="url(#p032b0619e9)" style="fill: none; stroke: #e3bc59; stroke-width: 1.5; stroke-linecap: square"/>
   </g>
   <g id="line2d_39">
    <path d="M 686.464747 143.160284 
L 499.283044 135.192062 
L 486.147486 134.632889 
L 466.444148 133.794129 
L 476.295817 134.213509 
L 568.244724 138.127723 
L 555.109166 137.56855 
L 453.30859 133.234955 
L 538.689718 136.869583 
L 574.812503 138.40731 
L 604.367509 139.66545 
L 518.986381 136.030823 
L 459.876369 133.514542 
L 515.702491 135.891029 
L 640.490293 141.203177 
L 689.748636 143.300077 
L 604.367509 139.66545 
L 522.27027 136.170616 
L 479.579707 134.353302 
L 548.541387 137.288963 
L 473.011928 134.073716 
L 607.651398 139.805243 
L 430.321364 132.256402 
L 587.948061 138.966483 
L 574.812503 138.40731 
" clip-path="url(#p032b0619e9)" style="fill: none; stroke: #e03639; stroke-width: 1.5; stroke-linecap: square"/>
   </g>
   <g id="axes_4">
    <g id="patch_21">
     <path d="M 617.109 295.0254 
L 688.4515 295.0254 
L 688.4515 221.5154 
L 617.109 221.5154 
z
" style="fill: #ffffff; opacity: 0.2"/>
    </g>
    <g id="patch_22">
     <path d="M 620.351841 295.0254 
L 634.005908 295.0254 
L 634.005908 294.377753 
L 620.351841 294.377753 
z
" clip-path="url(#p37b9510081)" style="fill: #292f36"/>
    </g>
    <g id="patch_23">
     <path d="M 637.419425 295.0254 
L 651.073492 295.0254 
L 651.073492 294.871862 
L 637.419425 294.871862 
z
" clip-path="url(#p37b9510081)" style="fill: #52bfb6"/>
    </g>
    <g id="patch_24">
     <path d="M 654.487008 295.0254 
L 668.141075 295.0254 
L 668.141075 294.023463 
L 654.487008 294.023463 
z
" clip-path="url(#p37b9510081)" style="fill: #e3bc59"/>
    </g>
    <g id="patch_25">
     <path d="M 671.554592 295.0254 
L 685.208659 295.0254 
L 685.208659 293.145167 
L 671.554592 293.145167 
z
" clip-path="url(#p37b9510081)" style="fill: #e03639"/>
    </g>
    <g id="matplotlib.axis_7">
     <g id="xtick_13">
      <g id="line2d_40">
       <g>
        <use xlink:href="#m415346a2ba" x="627.178874" y="295.0254" style="stroke: #000000; stroke-width: 0.8"/>
       </g>
      </g>
      <g id="text_39">
       <!-- R -->
       <g transform="translate(622.614034 311.542425)scale(0.13328 -0.13328)">
        <use xlink:href="#HelveticaNeue-52"/>
       </g>
      </g>
     </g>
     <g id="xtick_14">
      <g id="line2d_41">
       <g>
        <use xlink:href="#m415346a2ba" x="644.246458" y="295.0254" style="stroke: #000000; stroke-width: 0.8"/>
       </g>
      </g>
      <g id="text_40">
       <!-- T -->
       <g transform="translate(640.420906 311.542425)scale(0.13328 -0.13328)">
        <use xlink:href="#HelveticaNeue-54"/>
       </g>
      </g>
     </g>
     <g id="xtick_15">
      <g id="line2d_42">
       <g>
        <use xlink:href="#m415346a2ba" x="661.314042" y="295.0254" style="stroke: #000000; stroke-width: 0.8"/>
       </g>
      </g>
      <g id="text_41">
       <!-- F -->
       <g transform="translate(657.488489 311.542425)scale(0.13328 -0.13328)">
        <use xlink:href="#HelveticaNeue-46"/>
       </g>
      </g>
     </g>
     <g id="xtick_16">
      <g id="line2d_43">
       <g>
        <use xlink:href="#m415346a2ba" x="678.381626" y="295.0254" style="stroke: #000000; stroke-width: 0.8"/>
       </g>
      </g>
      <g id="text_42">
       <!-- FT -->
       <g transform="translate(670.730521 311.542425)scale(0.13328 -0.13328)">
        <use xlink:href="#HelveticaNeue-46"/>
        <use xlink:href="#HelveticaNeue-54" x="57.399994"/>
       </g>
      </g>
     </g>
    </g>
    <g id="matplotlib.axis_8">
     <g id="ytick_20">
      <g id="line2d_44">
       <g>
        <use xlink:href="#m42cd9a468c" x="617.109" y="295.0254" style="stroke: #000000; stroke-width: 0.8"/>
       </g>
      </g>
      <g id="text_43">
       <!-- 0 -->
       <g transform="translate(602.699465 299.783912)scale(0.13328 -0.13328)">
        <use xlink:href="#HelveticaNeue-30"/>
       </g>
      </g>
     </g>
     <g id="ytick_21">
      <g id="line2d_45">
       <g>
        <use xlink:href="#m42cd9a468c" x="617.109" y="258.2704" style="stroke: #000000; stroke-width: 0.8"/>
       </g>
      </g>
      <g id="text_44">
       <!-- 0.5 -->
       <g transform="translate(591.585163 263.028912)scale(0.13328 -0.13328)">
        <use xlink:href="#HelveticaNeue-30"/>
        <use xlink:href="#HelveticaNeue-2e" x="55.599991"/>
        <use xlink:href="#HelveticaNeue-35" x="83.399979"/>
       </g>
      </g>
     </g>
     <g id="ytick_22">
      <g id="line2d_46">
       <g>
        <use xlink:href="#m42cd9a468c" x="617.109" y="221.5154" style="stroke: #000000; stroke-width: 0.8"/>
       </g>
      </g>
      <g id="text_45">
       <!-- 1 -->
       <g transform="translate(602.699465 226.273912)scale(0.13328 -0.13328)">
        <use xlink:href="#HelveticaNeue-31"/>
       </g>
      </g>
     </g>
    </g>
    <g id="patch_26">
     <path d="M 617.109 295.0254 
L 617.109 221.5154 
" style="fill: none; stroke: #000000; stroke-width: 0.8; stroke-linejoin: miter; stroke-linecap: square"/>
    </g>
    <g id="patch_27">
     <path d="M 688.4515 295.0254 
L 688.4515 221.5154 
" style="fill: none; stroke: #000000; stroke-width: 0.8; stroke-linejoin: miter; stroke-linecap: square"/>
    </g>
    <g id="patch_28">
     <path d="M 617.109 295.0254 
L 688.4515 295.0254 
" style="fill: none; stroke: #000000; stroke-width: 0.8; stroke-linejoin: miter; stroke-linecap: square"/>
    </g>
    <g id="patch_29">
     <path d="M 617.109 221.5154 
L 688.4515 221.5154 
" style="fill: none; stroke: #000000; stroke-width: 0.8; stroke-linejoin: miter; stroke-linecap: square"/>
    </g>
    <g id="text_46">
     <!-- R$^2$ -->
     <g transform="translate(643.42025 215.5154)scale(0.16 -0.16)">
      <use xlink:href="#HelveticaNeue-52" transform="translate(0 0.765625)"/>
      <use xlink:href="#DejaVuSans-32" transform="translate(69.457016 39.046875)scale(0.7)"/>
     </g>
    </g>
   </g>
  </g>
 </g>
 <defs>
  <clipPath id="pe48f5b3781">
   <rect x="65.99" y="34.8" width="285.37" height="294.04"/>
  </clipPath>
  <clipPath id="p6cb591ed8d">
   <rect x="265.749" y="221.5154" width="71.3425" height="73.51"/>
  </clipPath>
  <clipPath id="p032b0619e9">
   <rect x="417.35" y="34.8" width="285.37" height="294.04"/>
  </clipPath>
  <clipPath id="p37b9510081">
   <rect x="617.109" y="221.5154" width="71.3425" height="73.51"/>
  </clipPath>
 </defs>
</svg>
