<?xml version="1.0" encoding="utf-8" standalone="no"?>
<!DOCTYPE svg PUBLIC "-//W3C//DTD SVG 1.1//EN"
  "http://www.w3.org/Graphics/SVG/1.1/DTD/svg11.dtd">
<svg xmlns:xlink="http://www.w3.org/1999/xlink" width="720pt" height="383.76pt" viewBox="0 0 720 383.76" xmlns="http://www.w3.org/2000/svg" version="1.1">
 <metadata>
  <rdf:RDF xmlns:dc="http://purl.org/dc/elements/1.1/" xmlns:cc="http://creativecommons.org/ns#" xmlns:rdf="http://www.w3.org/1999/02/22-rdf-syntax-ns#">
   <cc:Work>
    <dc:type rdf:resource="http://purl.org/dc/dcmitype/StillImage"/>
    <dc:date>2023-07-31T06:43:49.109552</dc:date>
    <dc:format>image/svg+xml</dc:format>
    <dc:creator>
     <cc:Agent>
      <dc:title>Matplotlib v3.5.1, https://matplotlib.org/</dc:title>
     </cc:Agent>
    </dc:creator>
   </cc:Work>
  </rdf:RDF>
 </metadata>
 <defs>
  <style type="text/css">*{stroke-linejoin: round; stroke-linecap: butt}</style>
 </defs>
 <g id="figure_1">
  <g id="patch_1">
   <path d="M 0 383.76 
L 720 383.76 
L 720 0 
L 0 0 
z
" style="fill: #ffffff"/>
  </g>
  <g id="axes_1">
   <g id="patch_2">
    <path d="M 58.16 328.84 
L 351.36 328.84 
L 351.36 34.8 
L 58.16 34.8 
z
" style="fill: #ffffff"/>
   </g>
   <g id="PathCollection_1">
    <defs>
     <path id="C0_0_ab0f69cf41" d="M 0 2.738613 
C 0.726289 2.738613 1.422928 2.450055 1.936492 1.936492 
C 2.450055 1.422928 2.738613 0.726289 2.738613 -0 
C 2.738613 -0.726289 2.450055 -1.422928 1.936492 -1.936492 
C 1.422928 -2.450055 0.726289 -2.738613 0 -2.738613 
C -0.726289 -2.738613 -1.422928 -2.450055 -1.936492 -1.936492 
C -2.450055 -1.422928 -2.738613 -0.726289 -2.738613 0 
C -2.738613 0.726289 -2.450055 1.422928 -1.936492 1.936492 
C -1.422928 2.450055 -0.726289 2.738613 0 2.738613 
z
"/>
    </defs>
    <g clip-path="url(#p90855ef69d)">
     <use xlink:href="#C0_0_ab0f69cf41" x="334.658734" y="144.830336" style="fill: #292f36; fill-opacity: 0.65"/>
    </g>
    <g clip-path="url(#p90855ef69d)">
     <use xlink:href="#C0_0_ab0f69cf41" x="142.341128" y="125.301454" style="fill: #292f36; fill-opacity: 0.65"/>
    </g>
    <g clip-path="url(#p90855ef69d)">
     <use xlink:href="#C0_0_ab0f69cf41" x="128.845155" y="133.035583" style="fill: #292f36; fill-opacity: 0.65"/>
    </g>
    <g clip-path="url(#p90855ef69d)">
     <use xlink:href="#C0_0_ab0f69cf41" x="108.601197" y="127.369894" style="fill: #292f36; fill-opacity: 0.65"/>
    </g>
    <g clip-path="url(#p90855ef69d)">
     <use xlink:href="#C0_0_ab0f69cf41" x="118.723176" y="127.209406" style="fill: #292f36; fill-opacity: 0.65"/>
    </g>
    <g clip-path="url(#p90855ef69d)">
     <use xlink:href="#C0_0_ab0f69cf41" x="213.194983" y="124.968779" style="fill: #292f36; fill-opacity: 0.65"/>
    </g>
    <g clip-path="url(#p90855ef69d)">
     <use xlink:href="#C0_0_ab0f69cf41" x="199.69901" y="119.15764" style="fill: #292f36; fill-opacity: 0.65"/>
    </g>
    <g clip-path="url(#p90855ef69d)">
     <use xlink:href="#C0_0_ab0f69cf41" x="95.105224" y="102.37254" style="fill: #292f36; fill-opacity: 0.65"/>
    </g>
    <g clip-path="url(#p90855ef69d)">
     <use xlink:href="#C0_0_ab0f69cf41" x="182.829045" y="114.334406" style="fill: #292f36; fill-opacity: 0.65"/>
    </g>
    <g clip-path="url(#p90855ef69d)">
     <use xlink:href="#C0_0_ab0f69cf41" x="219.942969" y="127.395789" style="fill: #292f36; fill-opacity: 0.65"/>
    </g>
    <g clip-path="url(#p90855ef69d)">
     <use xlink:href="#C0_0_ab0f69cf41" x="250.308907" y="129.088149" style="fill: #292f36; fill-opacity: 0.65"/>
    </g>
    <g clip-path="url(#p90855ef69d)">
     <use xlink:href="#C0_0_ab0f69cf41" x="162.585086" y="124.326928" style="fill: #292f36; fill-opacity: 0.65"/>
    </g>
    <g clip-path="url(#p90855ef69d)">
     <use xlink:href="#C0_0_ab0f69cf41" x="101.853211" y="133.100739" style="fill: #292f36; fill-opacity: 0.65"/>
    </g>
    <g clip-path="url(#p90855ef69d)">
     <use xlink:href="#C0_0_ab0f69cf41" x="159.211093" y="128.394424" style="fill: #292f36; fill-opacity: 0.65"/>
    </g>
    <g clip-path="url(#p90855ef69d)">
     <use xlink:href="#C0_0_ab0f69cf41" x="165.959079" y="120.608558" style="fill: #292f36; fill-opacity: 0.65"/>
    </g>
    <g clip-path="url(#p90855ef69d)">
     <use xlink:href="#C0_0_ab0f69cf41" x="287.422831" y="111.529747" style="fill: #292f36; fill-opacity: 0.65"/>
    </g>
    <g clip-path="url(#p90855ef69d)">
     <use xlink:href="#C0_0_ab0f69cf41" x="338.032727" y="124.280163" style="fill: #292f36; fill-opacity: 0.65"/>
    </g>
    <g clip-path="url(#p90855ef69d)">
     <use xlink:href="#C0_0_ab0f69cf41" x="250.308907" y="121.478482" style="fill: #292f36; fill-opacity: 0.65"/>
    </g>
    <g clip-path="url(#p90855ef69d)">
     <use xlink:href="#C0_0_ab0f69cf41" x="165.959079" y="104.925575" style="fill: #292f36; fill-opacity: 0.65"/>
    </g>
    <g clip-path="url(#p90855ef69d)">
     <use xlink:href="#C0_0_ab0f69cf41" x="203.073003" y="119.017822" style="fill: #292f36; fill-opacity: 0.65"/>
    </g>
    <g clip-path="url(#p90855ef69d)">
     <use xlink:href="#C0_0_ab0f69cf41" x="122.097169" y="121.861242" style="fill: #292f36; fill-opacity: 0.65"/>
    </g>
    <g clip-path="url(#p90855ef69d)">
     <use xlink:href="#C0_0_ab0f69cf41" x="192.951024" y="124.135682" style="fill: #292f36; fill-opacity: 0.65"/>
    </g>
    <g clip-path="url(#p90855ef69d)">
     <use xlink:href="#C0_0_ab0f69cf41" x="95.105224" y="122.460839" style="fill: #292f36; fill-opacity: 0.65"/>
    </g>
    <g clip-path="url(#p90855ef69d)">
     <use xlink:href="#C0_0_ab0f69cf41" x="115.349183" y="109.710914" style="fill: #292f36; fill-opacity: 0.65"/>
    </g>
    <g clip-path="url(#p90855ef69d)">
     <use xlink:href="#C0_0_ab0f69cf41" x="253.6829" y="131.972028" style="fill: #292f36; fill-opacity: 0.65"/>
    </g>
    <g clip-path="url(#p90855ef69d)">
     <use xlink:href="#C0_0_ab0f69cf41" x="71.487273" y="135.738535" style="fill: #292f36; fill-opacity: 0.65"/>
    </g>
    <g clip-path="url(#p90855ef69d)">
     <use xlink:href="#C0_0_ab0f69cf41" x="233.438941" y="117.295589" style="fill: #292f36; fill-opacity: 0.65"/>
    </g>
    <g clip-path="url(#p90855ef69d)">
     <use xlink:href="#C0_0_ab0f69cf41" x="219.942969" y="129.800426" style="fill: #292f36; fill-opacity: 0.65"/>
    </g>
   </g>
   <g id="PathCollection_2">
    <defs>
     <path id="C1_0_4d3284c582" d="M 0 2.738613 
C 0.726289 2.738613 1.422928 2.450055 1.936492 1.936492 
C 2.450055 1.422928 2.738613 0.726289 2.738613 -0 
C 2.738613 -0.726289 2.450055 -1.422928 1.936492 -1.936492 
C 1.422928 -2.450055 0.726289 -2.738613 0 -2.738613 
C -0.726289 -2.738613 -1.422928 -2.450055 -1.936492 -1.936492 
C -2.450055 -1.422928 -2.738613 -0.726289 -2.738613 0 
C -2.738613 0.726289 -2.450055 1.422928 -1.936492 1.936492 
C -1.422928 2.450055 -0.726289 2.738613 0 2.738613 
z
"/>
    </defs>
    <g clip-path="url(#p90855ef69d)">
     <use xlink:href="#C1_0_4d3284c582" x="334.658734" y="84.152568" style="fill: #52bfb6; fill-opacity: 0.65"/>
    </g>
    <g clip-path="url(#p90855ef69d)">
     <use xlink:href="#C1_0_4d3284c582" x="142.341128" y="125.278661" style="fill: #52bfb6; fill-opacity: 0.65"/>
    </g>
    <g clip-path="url(#p90855ef69d)">
     <use xlink:href="#C1_0_4d3284c582" x="128.845155" y="128.685672" style="fill: #52bfb6; fill-opacity: 0.65"/>
    </g>
    <g clip-path="url(#p90855ef69d)">
     <use xlink:href="#C1_0_4d3284c582" x="108.601197" y="116.099546" style="fill: #52bfb6; fill-opacity: 0.65"/>
    </g>
    <g clip-path="url(#p90855ef69d)">
     <use xlink:href="#C1_0_4d3284c582" x="118.723176" y="113.122184" style="fill: #52bfb6; fill-opacity: 0.65"/>
    </g>
    <g clip-path="url(#p90855ef69d)">
     <use xlink:href="#C1_0_4d3284c582" x="213.194983" y="111.779859" style="fill: #52bfb6; fill-opacity: 0.65"/>
    </g>
    <g clip-path="url(#p90855ef69d)">
     <use xlink:href="#C1_0_4d3284c582" x="199.69901" y="120.930676" style="fill: #52bfb6; fill-opacity: 0.65"/>
    </g>
    <g clip-path="url(#p90855ef69d)">
     <use xlink:href="#C1_0_4d3284c582" x="95.105224" y="65.293025" style="fill: #52bfb6; fill-opacity: 0.65"/>
    </g>
    <g clip-path="url(#p90855ef69d)">
     <use xlink:href="#C1_0_4d3284c582" x="182.829045" y="108.452409" style="fill: #52bfb6; fill-opacity: 0.65"/>
    </g>
    <g clip-path="url(#p90855ef69d)">
     <use xlink:href="#C1_0_4d3284c582" x="219.942969" y="130.184514" style="fill: #52bfb6; fill-opacity: 0.65"/>
    </g>
    <g clip-path="url(#p90855ef69d)">
     <use xlink:href="#C1_0_4d3284c582" x="250.308907" y="119.416236" style="fill: #52bfb6; fill-opacity: 0.65"/>
    </g>
    <g clip-path="url(#p90855ef69d)">
     <use xlink:href="#C1_0_4d3284c582" x="162.585086" y="120.706516" style="fill: #52bfb6; fill-opacity: 0.65"/>
    </g>
    <g clip-path="url(#p90855ef69d)">
     <use xlink:href="#C1_0_4d3284c582" x="101.853211" y="124.559749" style="fill: #52bfb6; fill-opacity: 0.65"/>
    </g>
    <g clip-path="url(#p90855ef69d)">
     <use xlink:href="#C1_0_4d3284c582" x="159.211093" y="125.10754" style="fill: #52bfb6; fill-opacity: 0.65"/>
    </g>
    <g clip-path="url(#p90855ef69d)">
     <use xlink:href="#C1_0_4d3284c582" x="165.959079" y="125.906405" style="fill: #52bfb6; fill-opacity: 0.65"/>
    </g>
    <g clip-path="url(#p90855ef69d)">
     <use xlink:href="#C1_0_4d3284c582" x="287.422831" y="118.559136" style="fill: #52bfb6; fill-opacity: 0.65"/>
    </g>
    <g clip-path="url(#p90855ef69d)">
     <use xlink:href="#C1_0_4d3284c582" x="338.032727" y="130.950669" style="fill: #52bfb6; fill-opacity: 0.65"/>
    </g>
    <g clip-path="url(#p90855ef69d)">
     <use xlink:href="#C1_0_4d3284c582" x="250.308907" y="135.159809" style="fill: #52bfb6; fill-opacity: 0.65"/>
    </g>
    <g clip-path="url(#p90855ef69d)">
     <use xlink:href="#C1_0_4d3284c582" x="165.959079" y="112.08142" style="fill: #52bfb6; fill-opacity: 0.65"/>
    </g>
    <g clip-path="url(#p90855ef69d)">
     <use xlink:href="#C1_0_4d3284c582" x="203.073003" y="127.849015" style="fill: #52bfb6; fill-opacity: 0.65"/>
    </g>
    <g clip-path="url(#p90855ef69d)">
     <use xlink:href="#C1_0_4d3284c582" x="122.097169" y="104.564307" style="fill: #52bfb6; fill-opacity: 0.65"/>
    </g>
    <g clip-path="url(#p90855ef69d)">
     <use xlink:href="#C1_0_4d3284c582" x="192.951024" y="122.414777" style="fill: #52bfb6; fill-opacity: 0.65"/>
    </g>
    <g clip-path="url(#p90855ef69d)">
     <use xlink:href="#C1_0_4d3284c582" x="95.105224" y="108.862516" style="fill: #52bfb6; fill-opacity: 0.65"/>
    </g>
    <g clip-path="url(#p90855ef69d)">
     <use xlink:href="#C1_0_4d3284c582" x="115.349183" y="103.655494" style="fill: #52bfb6; fill-opacity: 0.65"/>
    </g>
    <g clip-path="url(#p90855ef69d)">
     <use xlink:href="#C1_0_4d3284c582" x="253.6829" y="96.615453" style="fill: #52bfb6; fill-opacity: 0.65"/>
    </g>
    <g clip-path="url(#p90855ef69d)">
     <use xlink:href="#C1_0_4d3284c582" x="71.487273" y="130.829326" style="fill: #52bfb6; fill-opacity: 0.65"/>
    </g>
    <g clip-path="url(#p90855ef69d)">
     <use xlink:href="#C1_0_4d3284c582" x="233.438941" y="117.38645" style="fill: #52bfb6; fill-opacity: 0.65"/>
    </g>
    <g clip-path="url(#p90855ef69d)">
     <use xlink:href="#C1_0_4d3284c582" x="219.942969" y="103.764457" style="fill: #52bfb6; fill-opacity: 0.65"/>
    </g>
   </g>
   <g id="PathCollection_3">
    <defs>
     <path id="C2_0_52d4c28966" d="M 0 2.738613 
C 0.726289 2.738613 1.422928 2.450055 1.936492 1.936492 
C 2.450055 1.422928 2.738613 0.726289 2.738613 -0 
C 2.738613 -0.726289 2.450055 -1.422928 1.936492 -1.936492 
C 1.422928 -2.450055 0.726289 -2.738613 0 -2.738613 
C -0.726289 -2.738613 -1.422928 -2.450055 -1.936492 -1.936492 
C -2.450055 -1.422928 -2.738613 -0.726289 -2.738613 0 
C -2.738613 0.726289 -2.450055 1.422928 -1.936492 1.936492 
C -1.422928 2.450055 -0.726289 2.738613 0 2.738613 
z
"/>
    </defs>
    <g clip-path="url(#p90855ef69d)">
     <use xlink:href="#C2_0_52d4c28966" x="334.658734" y="131.934115" style="fill: #e3bc59; fill-opacity: 0.65"/>
    </g>
    <g clip-path="url(#p90855ef69d)">
     <use xlink:href="#C2_0_52d4c28966" x="142.341128" y="109.901815" style="fill: #e3bc59; fill-opacity: 0.65"/>
    </g>
    <g clip-path="url(#p90855ef69d)">
     <use xlink:href="#C2_0_52d4c28966" x="128.845155" y="124.415371" style="fill: #e3bc59; fill-opacity: 0.65"/>
    </g>
    <g clip-path="url(#p90855ef69d)">
     <use xlink:href="#C2_0_52d4c28966" x="108.601197" y="134.35552" style="fill: #e3bc59; fill-opacity: 0.65"/>
    </g>
    <g clip-path="url(#p90855ef69d)">
     <use xlink:href="#C2_0_52d4c28966" x="118.723176" y="135.466932" style="fill: #e3bc59; fill-opacity: 0.65"/>
    </g>
    <g clip-path="url(#p90855ef69d)">
     <use xlink:href="#C2_0_52d4c28966" x="213.194983" y="109.411237" style="fill: #e3bc59; fill-opacity: 0.65"/>
    </g>
    <g clip-path="url(#p90855ef69d)">
     <use xlink:href="#C2_0_52d4c28966" x="199.69901" y="115.7142" style="fill: #e3bc59; fill-opacity: 0.65"/>
    </g>
    <g clip-path="url(#p90855ef69d)">
     <use xlink:href="#C2_0_52d4c28966" x="95.105224" y="113.052325" style="fill: #e3bc59; fill-opacity: 0.65"/>
    </g>
    <g clip-path="url(#p90855ef69d)">
     <use xlink:href="#C2_0_52d4c28966" x="182.829045" y="104.21254" style="fill: #e3bc59; fill-opacity: 0.65"/>
    </g>
    <g clip-path="url(#p90855ef69d)">
     <use xlink:href="#C2_0_52d4c28966" x="219.942969" y="131.155907" style="fill: #e3bc59; fill-opacity: 0.65"/>
    </g>
    <g clip-path="url(#p90855ef69d)">
     <use xlink:href="#C2_0_52d4c28966" x="250.308907" y="123.79127" style="fill: #e3bc59; fill-opacity: 0.65"/>
    </g>
    <g clip-path="url(#p90855ef69d)">
     <use xlink:href="#C2_0_52d4c28966" x="162.585086" y="118.34875" style="fill: #e3bc59; fill-opacity: 0.65"/>
    </g>
    <g clip-path="url(#p90855ef69d)">
     <use xlink:href="#C2_0_52d4c28966" x="101.853211" y="134.909576" style="fill: #e3bc59; fill-opacity: 0.65"/>
    </g>
    <g clip-path="url(#p90855ef69d)">
     <use xlink:href="#C2_0_52d4c28966" x="159.211093" y="121.203343" style="fill: #e3bc59; fill-opacity: 0.65"/>
    </g>
    <g clip-path="url(#p90855ef69d)">
     <use xlink:href="#C2_0_52d4c28966" x="165.959079" y="99.561794" style="fill: #e3bc59; fill-opacity: 0.65"/>
    </g>
    <g clip-path="url(#p90855ef69d)">
     <use xlink:href="#C2_0_52d4c28966" x="287.422831" y="105.842075" style="fill: #e3bc59; fill-opacity: 0.65"/>
    </g>
    <g clip-path="url(#p90855ef69d)">
     <use xlink:href="#C2_0_52d4c28966" x="338.032727" y="126.015907" style="fill: #e3bc59; fill-opacity: 0.65"/>
    </g>
    <g clip-path="url(#p90855ef69d)">
     <use xlink:href="#C2_0_52d4c28966" x="250.308907" y="137.707456" style="fill: #e3bc59; fill-opacity: 0.65"/>
    </g>
    <g clip-path="url(#p90855ef69d)">
     <use xlink:href="#C2_0_52d4c28966" x="165.959079" y="100.945225" style="fill: #e3bc59; fill-opacity: 0.65"/>
    </g>
    <g clip-path="url(#p90855ef69d)">
     <use xlink:href="#C2_0_52d4c28966" x="203.073003" y="108.42245" style="fill: #e3bc59; fill-opacity: 0.65"/>
    </g>
    <g clip-path="url(#p90855ef69d)">
     <use xlink:href="#C2_0_52d4c28966" x="122.097169" y="93.938946" style="fill: #e3bc59; fill-opacity: 0.65"/>
    </g>
    <g clip-path="url(#p90855ef69d)">
     <use xlink:href="#C2_0_52d4c28966" x="192.951024" y="110.183761" style="fill: #e3bc59; fill-opacity: 0.65"/>
    </g>
    <g clip-path="url(#p90855ef69d)">
     <use xlink:href="#C2_0_52d4c28966" x="95.105224" y="110.580691" style="fill: #e3bc59; fill-opacity: 0.65"/>
    </g>
    <g clip-path="url(#p90855ef69d)">
     <use xlink:href="#C2_0_52d4c28966" x="115.349183" y="69.126122" style="fill: #e3bc59; fill-opacity: 0.65"/>
    </g>
    <g clip-path="url(#p90855ef69d)">
     <use xlink:href="#C2_0_52d4c28966" x="253.6829" y="114.035014" style="fill: #e3bc59; fill-opacity: 0.65"/>
    </g>
    <g clip-path="url(#p90855ef69d)">
     <use xlink:href="#C2_0_52d4c28966" x="71.487273" y="132.537468" style="fill: #e3bc59; fill-opacity: 0.65"/>
    </g>
    <g clip-path="url(#p90855ef69d)">
     <use xlink:href="#C2_0_52d4c28966" x="233.438941" y="118.833111" style="fill: #e3bc59; fill-opacity: 0.65"/>
    </g>
    <g clip-path="url(#p90855ef69d)">
     <use xlink:href="#C2_0_52d4c28966" x="219.942969" y="116.399223" style="fill: #e3bc59; fill-opacity: 0.65"/>
    </g>
   </g>
   <g id="PathCollection_4">
    <defs>
     <path id="C3_0_b44c0c3555" d="M 0 2.738613 
C 0.726289 2.738613 1.422928 2.450055 1.936492 1.936492 
C 2.450055 1.422928 2.738613 0.726289 2.738613 -0 
C 2.738613 -0.726289 2.450055 -1.422928 1.936492 -1.936492 
C 1.422928 -2.450055 0.726289 -2.738613 0 -2.738613 
C -0.726289 -2.738613 -1.422928 -2.450055 -1.936492 -1.936492 
C -2.450055 -1.422928 -2.738613 -0.726289 -2.738613 0 
C -2.738613 0.726289 -2.450055 1.422928 -1.936492 1.936492 
C -1.422928 2.450055 -0.726289 2.738613 0 2.738613 
z
"/>
    </defs>
    <g clip-path="url(#p90855ef69d)">
     <use xlink:href="#C3_0_b44c0c3555" x="334.658734" y="53.882792" style="fill: #e03639; fill-opacity: 0.65"/>
    </g>
    <g clip-path="url(#p90855ef69d)">
     <use xlink:href="#C3_0_b44c0c3555" x="142.341128" y="112.814804" style="fill: #e03639; fill-opacity: 0.65"/>
    </g>
    <g clip-path="url(#p90855ef69d)">
     <use xlink:href="#C3_0_b44c0c3555" x="128.845155" y="124.80343" style="fill: #e03639; fill-opacity: 0.65"/>
    </g>
    <g clip-path="url(#p90855ef69d)">
     <use xlink:href="#C3_0_b44c0c3555" x="108.601197" y="101.191633" style="fill: #e03639; fill-opacity: 0.65"/>
    </g>
    <g clip-path="url(#p90855ef69d)">
     <use xlink:href="#C3_0_b44c0c3555" x="118.723176" y="142.21091" style="fill: #e03639; fill-opacity: 0.65"/>
    </g>
    <g clip-path="url(#p90855ef69d)">
     <use xlink:href="#C3_0_b44c0c3555" x="213.194983" y="104.691307" style="fill: #e03639; fill-opacity: 0.65"/>
    </g>
    <g clip-path="url(#p90855ef69d)">
     <use xlink:href="#C3_0_b44c0c3555" x="199.69901" y="114.866389" style="fill: #e03639; fill-opacity: 0.65"/>
    </g>
    <g clip-path="url(#p90855ef69d)">
     <use xlink:href="#C3_0_b44c0c3555" x="95.105224" y="59.348533" style="fill: #e03639; fill-opacity: 0.65"/>
    </g>
    <g clip-path="url(#p90855ef69d)">
     <use xlink:href="#C3_0_b44c0c3555" x="182.829045" y="100.727704" style="fill: #e03639; fill-opacity: 0.65"/>
    </g>
    <g clip-path="url(#p90855ef69d)">
     <use xlink:href="#C3_0_b44c0c3555" x="219.942969" y="133.327369" style="fill: #e03639; fill-opacity: 0.65"/>
    </g>
    <g clip-path="url(#p90855ef69d)">
     <use xlink:href="#C3_0_b44c0c3555" x="250.308907" y="136.198006" style="fill: #e03639; fill-opacity: 0.65"/>
    </g>
    <g clip-path="url(#p90855ef69d)">
     <use xlink:href="#C3_0_b44c0c3555" x="162.585086" y="101.962939" style="fill: #e03639; fill-opacity: 0.65"/>
    </g>
    <g clip-path="url(#p90855ef69d)">
     <use xlink:href="#C3_0_b44c0c3555" x="101.853211" y="147.396382" style="fill: #e03639; fill-opacity: 0.65"/>
    </g>
    <g clip-path="url(#p90855ef69d)">
     <use xlink:href="#C3_0_b44c0c3555" x="159.211093" y="89.364656" style="fill: #e03639; fill-opacity: 0.65"/>
    </g>
    <g clip-path="url(#p90855ef69d)">
     <use xlink:href="#C3_0_b44c0c3555" x="165.959079" y="114.265752" style="fill: #e03639; fill-opacity: 0.65"/>
    </g>
    <g clip-path="url(#p90855ef69d)">
     <use xlink:href="#C3_0_b44c0c3555" x="287.422831" y="117.417542" style="fill: #e03639; fill-opacity: 0.65"/>
    </g>
    <g clip-path="url(#p90855ef69d)">
     <use xlink:href="#C3_0_b44c0c3555" x="338.032727" y="132.901543" style="fill: #e03639; fill-opacity: 0.65"/>
    </g>
    <g clip-path="url(#p90855ef69d)">
     <use xlink:href="#C3_0_b44c0c3555" x="250.308907" y="93.785446" style="fill: #e03639; fill-opacity: 0.65"/>
    </g>
    <g clip-path="url(#p90855ef69d)">
     <use xlink:href="#C3_0_b44c0c3555" x="165.959079" y="106.542818" style="fill: #e03639; fill-opacity: 0.65"/>
    </g>
    <g clip-path="url(#p90855ef69d)">
     <use xlink:href="#C3_0_b44c0c3555" x="203.073003" y="104.67914" style="fill: #e03639; fill-opacity: 0.65"/>
    </g>
    <g clip-path="url(#p90855ef69d)">
     <use xlink:href="#C3_0_b44c0c3555" x="122.097169" y="110.937996" style="fill: #e03639; fill-opacity: 0.65"/>
    </g>
    <g clip-path="url(#p90855ef69d)">
     <use xlink:href="#C3_0_b44c0c3555" x="192.951024" y="101.523696" style="fill: #e03639; fill-opacity: 0.65"/>
    </g>
    <g clip-path="url(#p90855ef69d)">
     <use xlink:href="#C3_0_b44c0c3555" x="95.105224" y="94.88239" style="fill: #e03639; fill-opacity: 0.65"/>
    </g>
    <g clip-path="url(#p90855ef69d)">
     <use xlink:href="#C3_0_b44c0c3555" x="115.349183" y="48.842895" style="fill: #e03639; fill-opacity: 0.65"/>
    </g>
    <g clip-path="url(#p90855ef69d)">
     <use xlink:href="#C3_0_b44c0c3555" x="253.6829" y="81.487294" style="fill: #e03639; fill-opacity: 0.65"/>
    </g>
    <g clip-path="url(#p90855ef69d)">
     <use xlink:href="#C3_0_b44c0c3555" x="71.487273" y="139.169193" style="fill: #e03639; fill-opacity: 0.65"/>
    </g>
    <g clip-path="url(#p90855ef69d)">
     <use xlink:href="#C3_0_b44c0c3555" x="233.438941" y="113.178281" style="fill: #e03639; fill-opacity: 0.65"/>
    </g>
    <g clip-path="url(#p90855ef69d)">
     <use xlink:href="#C3_0_b44c0c3555" x="219.942969" y="114.433764" style="fill: #e03639; fill-opacity: 0.65"/>
    </g>
   </g>
   <g id="matplotlib.axis_1">
    <g id="xtick_1">
     <g id="line2d_1">
      <defs>
       <path id="mbbfd85cf6b" d="M 0 0 
L 0 3.5 
" style="stroke: #000000; stroke-width: 0.8"/>
      </defs>
      <g>
       <use xlink:href="#mbbfd85cf6b" x="88.357238" y="328.84" style="stroke: #000000; stroke-width: 0.8"/>
      </g>
     </g>
     <g id="text_1">
      <!-- 40 -->
      <g transform="translate(80.574113 345.836875)scale(0.14 -0.14)">
       <defs>
        <path id="HelveticaNeue-34" d="M 2170 1542 
L 646 1542 
L 2157 3763 
L 2170 3763 
L 2170 1542 
z
M 2682 1542 
L 2682 4538 
L 2246 4538 
L 179 1587 
L 179 1062 
L 2170 1062 
L 2170 0 
L 2682 0 
L 2682 1062 
L 3296 1062 
L 3296 1542 
L 2682 1542 
z
" transform="scale(0.015625)"/>
        <path id="HelveticaNeue-30" d="M 845 2234 
Q 845 2400 848 2601 
Q 851 2803 880 3004 
Q 909 3206 963 3398 
Q 1018 3590 1123 3734 
Q 1229 3878 1389 3968 
Q 1549 4058 1779 4058 
Q 2010 4058 2170 3968 
Q 2330 3878 2435 3734 
Q 2541 3590 2595 3398 
Q 2650 3206 2678 3004 
Q 2707 2803 2710 2601 
Q 2714 2400 2714 2234 
Q 2714 1978 2698 1661 
Q 2682 1344 2595 1065 
Q 2509 787 2317 595 
Q 2125 403 1779 403 
Q 1434 403 1242 595 
Q 1050 787 963 1065 
Q 877 1344 861 1661 
Q 845 1978 845 2234 
z
M 269 2227 
Q 269 1978 281 1709 
Q 294 1440 345 1184 
Q 397 928 493 701 
Q 589 474 755 301 
Q 922 128 1174 29 
Q 1427 -70 1779 -70 
Q 2138 -70 2387 29 
Q 2637 128 2803 301 
Q 2970 474 3066 701 
Q 3162 928 3213 1184 
Q 3264 1440 3277 1709 
Q 3290 1978 3290 2227 
Q 3290 2477 3277 2745 
Q 3264 3014 3213 3270 
Q 3162 3526 3066 3756 
Q 2970 3987 2803 4160 
Q 2637 4333 2384 4435 
Q 2131 4538 1779 4538 
Q 1427 4538 1174 4435 
Q 922 4333 755 4160 
Q 589 3987 493 3756 
Q 397 3526 345 3270 
Q 294 3014 281 2745 
Q 269 2477 269 2227 
z
" transform="scale(0.015625)"/>
       </defs>
       <use xlink:href="#HelveticaNeue-34"/>
       <use xlink:href="#HelveticaNeue-30" x="55.599991"/>
      </g>
     </g>
    </g>
    <g id="xtick_2">
     <g id="line2d_2">
      <g>
       <use xlink:href="#mbbfd85cf6b" x="155.8371" y="328.84" style="stroke: #000000; stroke-width: 0.8"/>
      </g>
     </g>
     <g id="text_2">
      <!-- 60 -->
      <g transform="translate(148.053975 345.836875)scale(0.14 -0.14)">
       <defs>
        <path id="HelveticaNeue-36" d="M 2650 3379 
L 3194 3379 
Q 3142 3942 2809 4240 
Q 2477 4538 1914 4538 
Q 1427 4538 1107 4333 
Q 787 4128 595 3789 
Q 403 3450 323 3011 
Q 243 2573 243 2106 
Q 243 1747 297 1363 
Q 352 979 518 659 
Q 685 339 992 134 
Q 1299 -70 1805 -70 
Q 2234 -70 2525 74 
Q 2816 218 2992 438 
Q 3168 659 3245 928 
Q 3322 1197 3322 1446 
Q 3322 1760 3226 2029 
Q 3130 2298 2954 2496 
Q 2778 2694 2518 2806 
Q 2259 2918 1933 2918 
Q 1562 2918 1277 2777 
Q 992 2637 800 2323 
L 787 2336 
Q 794 2598 838 2899 
Q 883 3200 1001 3459 
Q 1120 3718 1331 3888 
Q 1542 4058 1888 4058 
Q 2214 4058 2412 3872 
Q 2611 3686 2650 3379 
z
M 1830 2438 
Q 2061 2438 2233 2355 
Q 2406 2272 2521 2134 
Q 2637 1997 2691 1808 
Q 2746 1619 2746 1408 
Q 2746 1210 2685 1027 
Q 2624 845 2509 704 
Q 2394 563 2224 483 
Q 2054 403 1830 403 
Q 1606 403 1430 483 
Q 1254 563 1136 697 
Q 1018 832 954 1017 
Q 890 1203 890 1414 
Q 890 1626 950 1814 
Q 1011 2003 1132 2140 
Q 1254 2278 1427 2358 
Q 1600 2438 1830 2438 
z
" transform="scale(0.015625)"/>
       </defs>
       <use xlink:href="#HelveticaNeue-36"/>
       <use xlink:href="#HelveticaNeue-30" x="55.599991"/>
      </g>
     </g>
    </g>
    <g id="xtick_3">
     <g id="line2d_3">
      <g>
       <use xlink:href="#mbbfd85cf6b" x="223.316962" y="328.84" style="stroke: #000000; stroke-width: 0.8"/>
      </g>
     </g>
     <g id="text_3">
      <!-- 80 -->
      <g transform="translate(215.533837 345.836875)scale(0.14 -0.14)">
       <defs>
        <path id="HelveticaNeue-38" d="M 992 3360 
Q 992 3533 1056 3661 
Q 1120 3789 1225 3878 
Q 1331 3968 1478 4013 
Q 1626 4058 1786 4058 
Q 2118 4058 2332 3882 
Q 2547 3706 2547 3360 
Q 2547 3014 2336 2822 
Q 2125 2630 1798 2630 
Q 1632 2630 1485 2675 
Q 1338 2720 1229 2809 
Q 1120 2899 1056 3036 
Q 992 3174 992 3360 
z
M 416 3379 
Q 416 3072 589 2813 
Q 762 2554 1050 2438 
Q 666 2304 461 2006 
Q 256 1709 256 1306 
Q 256 960 374 701 
Q 493 442 701 269 
Q 909 96 1190 13 
Q 1472 -70 1798 -70 
Q 2112 -70 2387 19 
Q 2662 109 2864 285 
Q 3066 461 3184 717 
Q 3302 973 3302 1306 
Q 3302 1728 3104 2019 
Q 2906 2310 2496 2438 
Q 2784 2566 2953 2819 
Q 3123 3072 3123 3379 
Q 3123 3597 3046 3805 
Q 2970 4013 2806 4176 
Q 2643 4339 2380 4438 
Q 2118 4538 1747 4538 
Q 1485 4538 1245 4461 
Q 1005 4384 819 4237 
Q 634 4090 525 3875 
Q 416 3661 416 3379 
z
M 832 1280 
Q 832 1478 905 1638 
Q 979 1798 1110 1913 
Q 1242 2029 1418 2089 
Q 1594 2150 1792 2150 
Q 1984 2150 2153 2083 
Q 2323 2016 2451 1901 
Q 2579 1786 2652 1629 
Q 2726 1472 2726 1286 
Q 2726 1094 2659 934 
Q 2592 774 2467 656 
Q 2342 538 2172 470 
Q 2003 403 1798 403 
Q 1376 403 1104 636 
Q 832 870 832 1280 
z
" transform="scale(0.015625)"/>
       </defs>
       <use xlink:href="#HelveticaNeue-38"/>
       <use xlink:href="#HelveticaNeue-30" x="55.599991"/>
      </g>
     </g>
    </g>
    <g id="xtick_4">
     <g id="line2d_4">
      <g>
       <use xlink:href="#mbbfd85cf6b" x="290.796824" y="328.84" style="stroke: #000000; stroke-width: 0.8"/>
      </g>
     </g>
     <g id="text_4">
      <!-- 100 -->
      <g transform="translate(279.122136 345.836875)scale(0.14 -0.14)">
       <defs>
        <path id="HelveticaNeue-31" d="M 2278 0 
L 2278 4538 
L 1862 4538 
Q 1818 4282 1696 4115 
Q 1574 3949 1398 3853 
Q 1222 3757 1004 3721 
Q 787 3686 557 3686 
L 557 3251 
L 1734 3251 
L 1734 0 
L 2278 0 
z
" transform="scale(0.015625)"/>
       </defs>
       <use xlink:href="#HelveticaNeue-31"/>
       <use xlink:href="#HelveticaNeue-30" x="55.599991"/>
       <use xlink:href="#HelveticaNeue-30" x="111.199982"/>
      </g>
     </g>
    </g>
    <g id="text_5">
     <!-- GMSI score -->
     <g transform="translate(165.170547 363.30625)scale(0.15 -0.15)">
      <defs>
       <path id="HelveticaNeue-47" d="M 3917 570 
L 4077 0 
L 4461 0 
L 4461 2406 
L 2458 2406 
L 2458 1894 
L 3917 1894 
Q 3930 1581 3834 1309 
Q 3738 1037 3549 835 
Q 3360 634 3085 518 
Q 2810 403 2451 403 
Q 2067 403 1776 553 
Q 1485 704 1286 957 
Q 1088 1210 985 1539 
Q 883 1869 883 2227 
Q 883 2592 972 2941 
Q 1062 3290 1251 3562 
Q 1440 3834 1737 4000 
Q 2035 4166 2451 4166 
Q 2707 4166 2934 4105 
Q 3162 4045 3341 3923 
Q 3520 3802 3641 3613 
Q 3763 3424 3808 3162 
L 4416 3162 
Q 4352 3565 4176 3849 
Q 4000 4134 3741 4320 
Q 3482 4506 3152 4592 
Q 2822 4678 2451 4678 
Q 1907 4678 1500 4476 
Q 1094 4275 822 3936 
Q 550 3597 412 3145 
Q 275 2694 275 2195 
Q 275 1747 422 1331 
Q 570 915 851 595 
Q 1133 275 1536 86 
Q 1939 -102 2451 -102 
Q 2854 -102 3251 54 
Q 3648 211 3917 570 
z
" transform="scale(0.015625)"/>
       <path id="HelveticaNeue-4d" d="M 512 4570 
L 512 0 
L 1088 0 
L 1088 3802 
L 1101 3802 
L 2528 0 
L 3046 0 
L 4474 3802 
L 4486 3802 
L 4486 0 
L 5062 0 
L 5062 4570 
L 4230 4570 
L 2784 730 
L 1344 4570 
L 512 4570 
z
" transform="scale(0.015625)"/>
       <path id="HelveticaNeue-53" d="M 3142 3232 
L 3718 3232 
Q 3706 3610 3574 3882 
Q 3443 4154 3216 4333 
Q 2989 4512 2688 4595 
Q 2387 4678 2035 4678 
Q 1722 4678 1424 4598 
Q 1126 4518 892 4355 
Q 659 4192 518 3939 
Q 378 3686 378 3341 
Q 378 3027 502 2819 
Q 627 2611 835 2480 
Q 1043 2349 1305 2269 
Q 1568 2189 1840 2128 
Q 2112 2067 2374 2009 
Q 2637 1952 2845 1859 
Q 3053 1766 3177 1619 
Q 3302 1472 3302 1235 
Q 3302 986 3200 826 
Q 3098 666 2931 573 
Q 2765 480 2557 441 
Q 2349 403 2144 403 
Q 1888 403 1645 467 
Q 1402 531 1219 665 
Q 1037 800 925 1008 
Q 813 1216 813 1504 
L 237 1504 
Q 237 1088 387 784 
Q 538 480 797 285 
Q 1056 90 1398 -6 
Q 1741 -102 2125 -102 
Q 2438 -102 2755 -28 
Q 3072 45 3328 208 
Q 3584 371 3747 630 
Q 3910 890 3910 1254 
Q 3910 1594 3785 1818 
Q 3661 2042 3453 2189 
Q 3245 2336 2982 2422 
Q 2720 2509 2448 2573 
Q 2176 2637 1913 2691 
Q 1651 2746 1443 2829 
Q 1235 2912 1110 3043 
Q 986 3174 986 3386 
Q 986 3610 1072 3760 
Q 1158 3910 1302 4000 
Q 1446 4090 1632 4128 
Q 1818 4166 2010 4166 
Q 2483 4166 2787 3945 
Q 3091 3725 3142 3232 
z
" transform="scale(0.015625)"/>
       <path id="HelveticaNeue-49" d="M 525 4570 
L 525 0 
L 1133 0 
L 1133 4570 
L 525 4570 
z
" transform="scale(0.015625)"/>
       <path id="HelveticaNeue-20" transform="scale(0.015625)"/>
       <path id="HelveticaNeue-73" d="M 742 1043 
L 198 1043 
Q 211 736 326 521 
Q 442 307 634 176 
Q 826 45 1075 -12 
Q 1325 -70 1600 -70 
Q 1850 -70 2102 -22 
Q 2355 26 2556 147 
Q 2758 269 2883 467 
Q 3008 666 3008 966 
Q 3008 1203 2915 1363 
Q 2822 1523 2672 1628 
Q 2522 1734 2326 1798 
Q 2131 1862 1926 1907 
Q 1734 1952 1542 1993 
Q 1350 2035 1196 2096 
Q 1043 2157 944 2249 
Q 845 2342 845 2483 
Q 845 2611 909 2691 
Q 973 2771 1075 2819 
Q 1178 2867 1302 2886 
Q 1427 2906 1549 2906 
Q 1683 2906 1814 2877 
Q 1946 2848 2054 2784 
Q 2163 2720 2233 2614 
Q 2304 2509 2317 2349 
L 2861 2349 
Q 2842 2650 2733 2851 
Q 2624 3053 2441 3171 
Q 2259 3290 2022 3338 
Q 1786 3386 1504 3386 
Q 1286 3386 1065 3331 
Q 845 3277 669 3165 
Q 493 3053 381 2873 
Q 269 2694 269 2445 
Q 269 2125 429 1945 
Q 589 1766 829 1667 
Q 1069 1568 1350 1513 
Q 1632 1459 1872 1392 
Q 2112 1325 2272 1216 
Q 2432 1107 2432 896 
Q 2432 742 2355 643 
Q 2278 544 2160 493 
Q 2042 442 1901 422 
Q 1760 403 1632 403 
Q 1466 403 1309 435 
Q 1152 467 1027 540 
Q 902 614 825 739 
Q 749 864 742 1043 
z
" transform="scale(0.015625)"/>
       <path id="HelveticaNeue-63" d="M 2656 2246 
L 3219 2246 
Q 3187 2541 3065 2755 
Q 2944 2970 2755 3110 
Q 2566 3251 2320 3318 
Q 2074 3386 1792 3386 
Q 1402 3386 1107 3248 
Q 813 3110 617 2870 
Q 422 2630 326 2307 
Q 230 1984 230 1613 
Q 230 1242 329 931 
Q 429 621 624 397 
Q 819 173 1110 51 
Q 1402 -70 1779 -70 
Q 2413 -70 2781 262 
Q 3149 595 3238 1210 
L 2682 1210 
Q 2630 826 2403 614 
Q 2176 403 1773 403 
Q 1517 403 1331 505 
Q 1146 608 1030 777 
Q 915 947 860 1164 
Q 806 1382 806 1613 
Q 806 1862 857 2096 
Q 909 2330 1027 2509 
Q 1146 2688 1344 2797 
Q 1542 2906 1837 2906 
Q 2182 2906 2387 2733 
Q 2592 2560 2656 2246 
z
" transform="scale(0.015625)"/>
       <path id="HelveticaNeue-6f" d="M 806 1651 
Q 806 1952 886 2185 
Q 966 2419 1107 2579 
Q 1248 2739 1437 2822 
Q 1626 2906 1837 2906 
Q 2048 2906 2237 2822 
Q 2426 2739 2566 2579 
Q 2707 2419 2787 2185 
Q 2867 1952 2867 1651 
Q 2867 1350 2787 1116 
Q 2707 883 2566 726 
Q 2426 570 2237 486 
Q 2048 403 1837 403 
Q 1626 403 1437 486 
Q 1248 570 1107 726 
Q 966 883 886 1116 
Q 806 1350 806 1651 
z
M 230 1651 
Q 230 1286 332 972 
Q 435 659 640 425 
Q 845 192 1145 61 
Q 1446 -70 1837 -70 
Q 2234 -70 2531 61 
Q 2829 192 3033 425 
Q 3238 659 3340 972 
Q 3443 1286 3443 1651 
Q 3443 2016 3340 2333 
Q 3238 2650 3033 2883 
Q 2829 3117 2531 3251 
Q 2234 3386 1837 3386 
Q 1446 3386 1145 3251 
Q 845 3117 640 2883 
Q 435 2650 332 2333 
Q 230 2016 230 1651 
z
" transform="scale(0.015625)"/>
       <path id="HelveticaNeue-72" d="M 390 3309 
L 390 0 
L 934 0 
L 934 1472 
Q 934 1792 998 2038 
Q 1062 2285 1203 2457 
Q 1344 2630 1574 2720 
Q 1805 2810 2131 2810 
L 2131 3386 
Q 1690 3398 1402 3206 
Q 1114 3014 915 2611 
L 902 2611 
L 902 3309 
L 390 3309 
z
" transform="scale(0.015625)"/>
       <path id="HelveticaNeue-65" d="M 2707 1971 
L 806 1971 
Q 819 2163 889 2332 
Q 960 2502 1081 2630 
Q 1203 2758 1372 2832 
Q 1542 2906 1754 2906 
Q 1958 2906 2128 2832 
Q 2298 2758 2422 2633 
Q 2547 2509 2620 2336 
Q 2694 2163 2707 1971 
z
M 3232 1050 
L 2694 1050 
Q 2624 723 2403 563 
Q 2182 403 1837 403 
Q 1568 403 1369 492 
Q 1171 582 1043 732 
Q 915 883 857 1078 
Q 800 1274 806 1491 
L 3283 1491 
Q 3296 1792 3229 2125 
Q 3162 2458 2986 2739 
Q 2810 3021 2518 3203 
Q 2227 3386 1786 3386 
Q 1446 3386 1161 3258 
Q 877 3130 669 2899 
Q 461 2669 345 2355 
Q 230 2042 230 1664 
Q 243 1286 342 966 
Q 442 646 640 416 
Q 838 186 1129 58 
Q 1421 -70 1818 -70 
Q 2381 -70 2752 211 
Q 3123 493 3232 1050 
z
" transform="scale(0.015625)"/>
      </defs>
      <use xlink:href="#HelveticaNeue-47"/>
      <use xlink:href="#HelveticaNeue-4d" x="75.899994"/>
      <use xlink:href="#HelveticaNeue-53" x="162.999985"/>
      <use xlink:href="#HelveticaNeue-49" x="227.799973"/>
      <use xlink:href="#HelveticaNeue-20" x="253.699966"/>
      <use xlink:href="#HelveticaNeue-73" x="281.499954"/>
      <use xlink:href="#HelveticaNeue-63" x="331.499939"/>
      <use xlink:href="#HelveticaNeue-6f" x="385.199936"/>
      <use xlink:href="#HelveticaNeue-72" x="442.59993"/>
      <use xlink:href="#HelveticaNeue-65" x="474.149918"/>
     </g>
    </g>
   </g>
   <g id="matplotlib.axis_2">
    <g id="ytick_1">
     <g id="line2d_5">
      <defs>
       <path id="ma48ed02561" d="M 0 0 
L -3.5 0 
" style="stroke: #000000; stroke-width: 0.8"/>
      </defs>
      <g>
       <use xlink:href="#ma48ed02561" x="58.16" y="68.739489" style="stroke: #000000; stroke-width: 0.8"/>
      </g>
     </g>
     <g id="text_6">
      <!-- −5 -->
      <g transform="translate(34.976875 73.737927)scale(0.14 -0.14)">
       <defs>
        <path id="HelveticaNeue-2212" d="M 307 1837 
L 307 1402 
L 3533 1402 
L 3533 1837 
L 307 1837 
z
" transform="scale(0.015625)"/>
        <path id="HelveticaNeue-35" d="M 3008 3981 
L 3008 4461 
L 768 4461 
L 346 2106 
L 813 2080 
Q 973 2272 1181 2390 
Q 1389 2509 1658 2509 
Q 1888 2509 2077 2432 
Q 2266 2355 2400 2217 
Q 2534 2080 2608 1891 
Q 2682 1702 2682 1478 
Q 2682 1210 2605 1008 
Q 2528 806 2397 672 
Q 2266 538 2090 470 
Q 1914 403 1722 403 
Q 1517 403 1347 464 
Q 1178 525 1053 637 
Q 928 749 854 899 
Q 781 1050 768 1222 
L 224 1222 
Q 230 915 345 672 
Q 461 429 659 265 
Q 858 102 1117 16 
Q 1376 -70 1670 -70 
Q 2067 -70 2364 54 
Q 2662 179 2860 390 
Q 3059 602 3158 874 
Q 3258 1146 3258 1434 
Q 3258 1824 3142 2115 
Q 3027 2406 2828 2601 
Q 2630 2797 2361 2893 
Q 2093 2989 1792 2989 
Q 1562 2989 1328 2909 
Q 1094 2829 947 2662 
L 934 2675 
L 1178 3981 
L 3008 3981 
z
" transform="scale(0.015625)"/>
       </defs>
       <use xlink:href="#HelveticaNeue-2212"/>
       <use xlink:href="#HelveticaNeue-35" x="59.999985"/>
      </g>
     </g>
    </g>
    <g id="ytick_2">
     <g id="line2d_6">
      <g>
       <use xlink:href="#ma48ed02561" x="58.16" y="120.759592" style="stroke: #000000; stroke-width: 0.8"/>
      </g>
     </g>
     <g id="text_7">
      <!-- 0 -->
      <g transform="translate(43.376875 125.758029)scale(0.14 -0.14)">
       <use xlink:href="#HelveticaNeue-30"/>
      </g>
     </g>
    </g>
    <g id="ytick_3">
     <g id="line2d_7">
      <g>
       <use xlink:href="#ma48ed02561" x="58.16" y="172.779694" style="stroke: #000000; stroke-width: 0.8"/>
      </g>
     </g>
     <g id="text_8">
      <!-- 5 -->
      <g transform="translate(43.376875 177.778131)scale(0.14 -0.14)">
       <use xlink:href="#HelveticaNeue-35"/>
      </g>
     </g>
    </g>
    <g id="ytick_4">
     <g id="line2d_8">
      <g>
       <use xlink:href="#ma48ed02561" x="58.16" y="224.799796" style="stroke: #000000; stroke-width: 0.8"/>
      </g>
     </g>
     <g id="text_9">
      <!-- 10 -->
      <g transform="translate(35.59375 229.798233)scale(0.14 -0.14)">
       <use xlink:href="#HelveticaNeue-31"/>
       <use xlink:href="#HelveticaNeue-30" x="55.599991"/>
      </g>
     </g>
    </g>
    <g id="ytick_5">
     <g id="line2d_9">
      <g>
       <use xlink:href="#ma48ed02561" x="58.16" y="276.819898" style="stroke: #000000; stroke-width: 0.8"/>
      </g>
     </g>
     <g id="text_10">
      <!-- 15 -->
      <g transform="translate(35.59375 281.818335)scale(0.14 -0.14)">
       <use xlink:href="#HelveticaNeue-31"/>
       <use xlink:href="#HelveticaNeue-35" x="55.599991"/>
      </g>
     </g>
    </g>
    <g id="ytick_6">
     <g id="line2d_10">
      <g>
       <use xlink:href="#ma48ed02561" x="58.16" y="328.84" style="stroke: #000000; stroke-width: 0.8"/>
      </g>
     </g>
     <g id="text_11">
      <!-- 20 -->
      <g transform="translate(35.59375 333.838437)scale(0.14 -0.14)">
       <defs>
        <path id="HelveticaNeue-32" d="M 282 2931 
L 826 2931 
Q 819 3136 867 3337 
Q 915 3539 1024 3699 
Q 1133 3859 1302 3958 
Q 1472 4058 1709 4058 
Q 1888 4058 2048 4000 
Q 2208 3942 2326 3833 
Q 2445 3725 2515 3574 
Q 2586 3424 2586 3238 
Q 2586 3002 2512 2822 
Q 2438 2643 2294 2489 
Q 2150 2336 1932 2185 
Q 1715 2035 1427 1856 
Q 1190 1715 972 1555 
Q 755 1395 582 1184 
Q 410 973 298 688 
Q 186 403 154 0 
L 3117 0 
L 3117 480 
L 787 480 
Q 826 691 950 854 
Q 1075 1018 1251 1158 
Q 1427 1299 1638 1424 
Q 1850 1549 2061 1677 
Q 2272 1811 2470 1958 
Q 2669 2106 2822 2288 
Q 2976 2470 3069 2700 
Q 3162 2931 3162 3232 
Q 3162 3552 3050 3795 
Q 2938 4038 2746 4201 
Q 2554 4365 2294 4451 
Q 2035 4538 1741 4538 
Q 1382 4538 1100 4416 
Q 819 4294 630 4080 
Q 442 3866 352 3571 
Q 262 3277 282 2931 
z
" transform="scale(0.015625)"/>
       </defs>
       <use xlink:href="#HelveticaNeue-32"/>
       <use xlink:href="#HelveticaNeue-30" x="55.599991"/>
      </g>
     </g>
    </g>
    <g id="text_12">
     <!-- p50 threshold distance (dB HL) -->
     <g transform="translate(28.021406 285.741875)rotate(-90)scale(0.15 -0.15)">
      <defs>
       <path id="HelveticaNeue-70" d="M 429 3309 
L 429 -1261 
L 973 -1261 
L 973 442 
L 986 442 
Q 1075 294 1206 195 
Q 1338 96 1485 38 
Q 1632 -19 1782 -44 
Q 1933 -70 2054 -70 
Q 2432 -70 2717 64 
Q 3002 198 3190 432 
Q 3379 666 3472 979 
Q 3565 1293 3565 1645 
Q 3565 1997 3469 2310 
Q 3373 2624 3184 2864 
Q 2995 3104 2710 3245 
Q 2426 3386 2042 3386 
Q 1696 3386 1408 3261 
Q 1120 3136 986 2861 
L 973 2861 
L 973 3309 
L 429 3309 
z
M 2989 1683 
Q 2989 1440 2937 1209 
Q 2886 979 2771 800 
Q 2656 621 2467 512 
Q 2278 403 1997 403 
Q 1715 403 1516 508 
Q 1318 614 1193 787 
Q 1069 960 1011 1187 
Q 954 1414 954 1658 
Q 954 1888 1008 2112 
Q 1062 2336 1184 2512 
Q 1306 2688 1498 2797 
Q 1690 2906 1965 2906 
Q 2227 2906 2422 2803 
Q 2618 2701 2742 2528 
Q 2867 2355 2928 2134 
Q 2989 1914 2989 1683 
z
" transform="scale(0.015625)"/>
       <path id="HelveticaNeue-74" d="M 1165 3309 
L 1165 4301 
L 621 4301 
L 621 3309 
L 58 3309 
L 58 2829 
L 621 2829 
L 621 723 
Q 621 493 665 352 
Q 710 211 803 134 
Q 896 58 1046 29 
Q 1197 0 1408 0 
L 1824 0 
L 1824 480 
L 1574 480 
Q 1446 480 1366 489 
Q 1286 499 1241 531 
Q 1197 563 1181 620 
Q 1165 678 1165 774 
L 1165 2829 
L 1824 2829 
L 1824 3309 
L 1165 3309 
z
" transform="scale(0.015625)"/>
       <path id="HelveticaNeue-68" d="M 410 4570 
L 410 0 
L 954 0 
L 954 1869 
Q 954 2093 1014 2281 
Q 1075 2470 1196 2611 
Q 1318 2752 1500 2829 
Q 1683 2906 1933 2906 
Q 2246 2906 2425 2726 
Q 2605 2547 2605 2240 
L 2605 0 
L 3149 0 
L 3149 2176 
Q 3149 2445 3094 2665 
Q 3040 2886 2905 3046 
Q 2771 3206 2553 3296 
Q 2336 3386 2010 3386 
Q 1862 3386 1705 3354 
Q 1549 3322 1405 3254 
Q 1261 3187 1145 3081 
Q 1030 2976 966 2822 
L 954 2822 
L 954 4570 
L 410 4570 
z
" transform="scale(0.015625)"/>
       <path id="HelveticaNeue-6c" d="M 442 4570 
L 442 0 
L 986 0 
L 986 4570 
L 442 4570 
z
" transform="scale(0.015625)"/>
       <path id="HelveticaNeue-64" d="M 806 1626 
Q 806 1869 857 2099 
Q 909 2330 1024 2509 
Q 1139 2688 1331 2797 
Q 1523 2906 1798 2906 
Q 2080 2906 2278 2800 
Q 2477 2694 2601 2521 
Q 2726 2349 2784 2121 
Q 2842 1894 2842 1651 
Q 2842 1421 2787 1197 
Q 2733 973 2611 797 
Q 2490 621 2298 512 
Q 2106 403 1830 403 
Q 1568 403 1373 505 
Q 1178 608 1053 781 
Q 928 954 867 1174 
Q 806 1395 806 1626 
z
M 3366 0 
L 3366 4570 
L 2822 4570 
L 2822 2867 
L 2810 2867 
Q 2720 3014 2589 3113 
Q 2458 3213 2310 3273 
Q 2163 3334 2016 3360 
Q 1869 3386 1741 3386 
Q 1363 3386 1078 3248 
Q 794 3110 605 2876 
Q 416 2643 323 2329 
Q 230 2016 230 1664 
Q 230 1312 326 998 
Q 422 685 611 448 
Q 800 211 1085 70 
Q 1370 -70 1754 -70 
Q 2099 -70 2387 51 
Q 2675 173 2810 448 
L 2822 448 
L 2822 0 
L 3366 0 
z
" transform="scale(0.015625)"/>
       <path id="HelveticaNeue-69" d="M 986 3904 
L 986 4570 
L 442 4570 
L 442 3904 
L 986 3904 
z
M 442 3309 
L 442 0 
L 986 0 
L 986 3309 
L 442 3309 
z
" transform="scale(0.015625)"/>
       <path id="HelveticaNeue-61" d="M 3341 13 
Q 3200 -70 2950 -70 
Q 2739 -70 2614 48 
Q 2490 166 2490 435 
Q 2266 166 1968 48 
Q 1670 -70 1325 -70 
Q 1101 -70 899 -19 
Q 698 32 550 141 
Q 403 250 316 426 
Q 230 602 230 851 
Q 230 1133 326 1312 
Q 422 1491 579 1603 
Q 736 1715 937 1772 
Q 1139 1830 1350 1869 
Q 1574 1914 1776 1936 
Q 1978 1958 2131 2000 
Q 2285 2042 2374 2122 
Q 2464 2202 2464 2355 
Q 2464 2534 2397 2643 
Q 2330 2752 2224 2809 
Q 2118 2867 1987 2886 
Q 1856 2906 1728 2906 
Q 1382 2906 1152 2774 
Q 922 2643 902 2278 
L 358 2278 
Q 371 2586 486 2797 
Q 602 3008 794 3139 
Q 986 3270 1232 3328 
Q 1478 3386 1760 3386 
Q 1984 3386 2205 3354 
Q 2426 3322 2605 3222 
Q 2784 3123 2893 2944 
Q 3002 2765 3002 2477 
L 3002 774 
Q 3002 582 3024 492 
Q 3046 403 3174 403 
Q 3245 403 3341 435 
L 3341 13 
z
M 2458 1709 
Q 2355 1632 2188 1597 
Q 2022 1562 1840 1539 
Q 1658 1517 1472 1488 
Q 1286 1459 1139 1395 
Q 992 1331 899 1212 
Q 806 1094 806 890 
Q 806 755 860 662 
Q 915 570 1001 512 
Q 1088 454 1203 428 
Q 1318 403 1446 403 
Q 1715 403 1907 476 
Q 2099 550 2220 662 
Q 2342 774 2400 905 
Q 2458 1037 2458 1152 
L 2458 1709 
z
" transform="scale(0.015625)"/>
       <path id="HelveticaNeue-6e" d="M 410 3309 
L 410 0 
L 954 0 
L 954 1869 
Q 954 2093 1014 2281 
Q 1075 2470 1196 2611 
Q 1318 2752 1500 2829 
Q 1683 2906 1933 2906 
Q 2246 2906 2425 2726 
Q 2605 2547 2605 2240 
L 2605 0 
L 3149 0 
L 3149 2176 
Q 3149 2445 3094 2665 
Q 3040 2886 2905 3046 
Q 2771 3206 2553 3296 
Q 2336 3386 2010 3386 
Q 1274 3386 934 2784 
L 922 2784 
L 922 3309 
L 410 3309 
z
" transform="scale(0.015625)"/>
       <path id="HelveticaNeue-28" d="M 1306 -1261 
L 1722 -1261 
Q 1267 -525 1072 198 
Q 877 922 877 1728 
Q 877 2515 1069 3232 
Q 1261 3949 1722 4678 
L 1306 4678 
Q 806 4019 553 3251 
Q 301 2483 301 1728 
Q 301 1306 371 922 
Q 442 538 573 173 
Q 704 -192 889 -547 
Q 1075 -902 1306 -1261 
z
" transform="scale(0.015625)"/>
       <path id="HelveticaNeue-42" d="M 1107 2605 
L 1107 4058 
L 2323 4058 
Q 2522 4058 2698 4035 
Q 2874 4013 3008 3936 
Q 3142 3859 3219 3718 
Q 3296 3578 3296 3334 
Q 3296 2970 3069 2787 
Q 2842 2605 2323 2605 
L 1107 2605 
z
M 499 4570 
L 499 0 
L 2707 0 
Q 3046 0 3305 112 
Q 3565 224 3741 406 
Q 3917 589 4006 825 
Q 4096 1062 4096 1312 
Q 4096 1734 3872 2028 
Q 3648 2323 3226 2413 
L 3226 2426 
Q 3552 2554 3728 2819 
Q 3904 3085 3904 3450 
Q 3904 3795 3747 4032 
Q 3590 4269 3366 4403 
Q 3264 4467 3120 4499 
Q 2976 4531 2809 4547 
Q 2643 4563 2473 4566 
Q 2304 4570 2157 4570 
L 499 4570 
z
M 1107 512 
L 1107 2093 
L 2496 2093 
Q 2688 2093 2867 2057 
Q 3046 2022 3184 1936 
Q 3322 1850 3405 1702 
Q 3488 1555 3488 1331 
Q 3488 947 3261 729 
Q 3034 512 2630 512 
L 1107 512 
z
" transform="scale(0.015625)"/>
       <path id="HelveticaNeue-48" d="M 499 4570 
L 499 0 
L 1107 0 
L 1107 2093 
L 3514 2093 
L 3514 0 
L 4122 0 
L 4122 4570 
L 3514 4570 
L 3514 2605 
L 1107 2605 
L 1107 4570 
L 499 4570 
z
" transform="scale(0.015625)"/>
       <path id="HelveticaNeue-4c" d="M 499 4570 
L 499 0 
L 3526 0 
L 3526 512 
L 1107 512 
L 1107 4570 
L 499 4570 
z
" transform="scale(0.015625)"/>
       <path id="HelveticaNeue-29" d="M -58 -1261 
L 352 -1261 
Q 851 -602 1104 163 
Q 1357 928 1357 1683 
Q 1357 2106 1286 2490 
Q 1216 2874 1085 3242 
Q 954 3610 768 3965 
Q 582 4320 352 4678 
L -58 4678 
Q 390 3942 585 3216 
Q 781 2490 781 1683 
Q 781 902 589 182 
Q 397 -538 -58 -1261 
z
" transform="scale(0.015625)"/>
      </defs>
      <use xlink:href="#HelveticaNeue-70"/>
      <use xlink:href="#HelveticaNeue-35" x="59.299988"/>
      <use xlink:href="#HelveticaNeue-30" x="114.899979"/>
      <use xlink:href="#HelveticaNeue-20" x="170.499969"/>
      <use xlink:href="#HelveticaNeue-74" x="198.299957"/>
      <use xlink:href="#HelveticaNeue-68" x="229.799942"/>
      <use xlink:href="#HelveticaNeue-72" x="285.399933"/>
      <use xlink:href="#HelveticaNeue-65" x="316.949921"/>
      <use xlink:href="#HelveticaNeue-73" x="370.649918"/>
      <use xlink:href="#HelveticaNeue-68" x="420.649902"/>
      <use xlink:href="#HelveticaNeue-6f" x="476.249893"/>
      <use xlink:href="#HelveticaNeue-6c" x="533.649887"/>
      <use xlink:href="#HelveticaNeue-64" x="555.849884"/>
      <use xlink:href="#HelveticaNeue-20" x="615.149872"/>
      <use xlink:href="#HelveticaNeue-64" x="642.94986"/>
      <use xlink:href="#HelveticaNeue-69" x="702.249847"/>
      <use xlink:href="#HelveticaNeue-73" x="724.449844"/>
      <use xlink:href="#HelveticaNeue-74" x="774.449829"/>
      <use xlink:href="#HelveticaNeue-61" x="805.949814"/>
      <use xlink:href="#HelveticaNeue-6e" x="859.649811"/>
      <use xlink:href="#HelveticaNeue-63" x="915.249802"/>
      <use xlink:href="#HelveticaNeue-65" x="968.949799"/>
      <use xlink:href="#HelveticaNeue-20" x="1022.649796"/>
      <use xlink:href="#HelveticaNeue-28" x="1050.449783"/>
      <use xlink:href="#HelveticaNeue-64" x="1076.349777"/>
      <use xlink:href="#HelveticaNeue-42" x="1135.649765"/>
      <use xlink:href="#HelveticaNeue-20" x="1204.14975"/>
      <use xlink:href="#HelveticaNeue-48" x="1231.949738"/>
      <use xlink:href="#HelveticaNeue-4c" x="1304.149719"/>
      <use xlink:href="#HelveticaNeue-29" x="1359.74971"/>
     </g>
    </g>
   </g>
   <g id="patch_3">
    <path d="M 58.16 328.84 
L 58.16 34.8 
" style="fill: none; stroke: #000000; stroke-width: 0.8; stroke-linejoin: miter; stroke-linecap: square"/>
   </g>
   <g id="patch_4">
    <path d="M 351.36 328.84 
L 351.36 34.8 
" style="fill: none; stroke: #000000; stroke-width: 0.8; stroke-linejoin: miter; stroke-linecap: square"/>
   </g>
   <g id="patch_5">
    <path d="M 58.16 328.84 
L 351.36 328.84 
" style="fill: none; stroke: #000000; stroke-width: 0.8; stroke-linejoin: miter; stroke-linecap: square"/>
   </g>
   <g id="patch_6">
    <path d="M 58.16 34.8 
L 351.36 34.8 
" style="fill: none; stroke: #000000; stroke-width: 0.8; stroke-linejoin: miter; stroke-linecap: square"/>
   </g>
   <g id="text_13">
    <!-- Continuous -->
    <g transform="translate(163.7125 28.8)scale(0.16 -0.16)">
     <defs>
      <path id="HelveticaNeue-43" d="M 3712 3194 
L 4320 3194 
Q 4269 3558 4102 3836 
Q 3936 4115 3686 4300 
Q 3437 4486 3117 4582 
Q 2797 4678 2438 4678 
Q 1914 4678 1507 4489 
Q 1101 4301 829 3974 
Q 557 3648 416 3209 
Q 275 2771 275 2272 
Q 275 1773 406 1337 
Q 538 902 800 582 
Q 1062 262 1459 80 
Q 1856 -102 2387 -102 
Q 3264 -102 3769 378 
Q 4275 858 4365 1722 
L 3757 1722 
Q 3738 1440 3642 1197 
Q 3546 954 3376 778 
Q 3206 602 2972 502 
Q 2739 403 2438 403 
Q 2029 403 1734 556 
Q 1440 710 1251 969 
Q 1062 1229 972 1577 
Q 883 1926 883 2317 
Q 883 2675 972 3008 
Q 1062 3341 1251 3600 
Q 1440 3859 1731 4012 
Q 2022 4166 2432 4166 
Q 2912 4166 3261 3923 
Q 3610 3680 3712 3194 
z
" transform="scale(0.015625)"/>
      <path id="HelveticaNeue-75" d="M 3149 0 
L 3149 3309 
L 2605 3309 
L 2605 1440 
Q 2605 1216 2544 1027 
Q 2483 838 2361 697 
Q 2240 557 2057 480 
Q 1875 403 1626 403 
Q 1312 403 1133 582 
Q 954 762 954 1069 
L 954 3309 
L 410 3309 
L 410 1133 
Q 410 864 464 643 
Q 518 422 652 262 
Q 787 102 1004 16 
Q 1222 -70 1549 -70 
Q 1914 -70 2182 74 
Q 2451 218 2624 525 
L 2637 525 
L 2637 0 
L 3149 0 
z
" transform="scale(0.015625)"/>
     </defs>
     <use xlink:href="#HelveticaNeue-43"/>
     <use xlink:href="#HelveticaNeue-6f" x="72.199982"/>
     <use xlink:href="#HelveticaNeue-6e" x="129.599976"/>
     <use xlink:href="#HelveticaNeue-74" x="185.199966"/>
     <use xlink:href="#HelveticaNeue-69" x="216.699951"/>
     <use xlink:href="#HelveticaNeue-6e" x="238.899948"/>
     <use xlink:href="#HelveticaNeue-75" x="294.499939"/>
     <use xlink:href="#HelveticaNeue-6f" x="350.09993"/>
     <use xlink:href="#HelveticaNeue-75" x="407.499924"/>
     <use xlink:href="#HelveticaNeue-73" x="463.099915"/>
    </g>
   </g>
   <g id="line2d_11">
    <path d="M 334.658734 126.557128 
L 142.341128 122.56813 
L 128.845155 122.288201 
L 108.601197 121.868306 
L 118.723176 122.078253 
L 213.194983 124.037761 
L 199.69901 123.757831 
L 95.105224 121.588377 
L 182.829045 123.407919 
L 219.942969 124.177726 
L 250.308907 124.807567 
L 162.585086 122.988025 
L 101.853211 121.728341 
L 159.211093 122.918042 
L 165.959079 123.058007 
L 287.422831 125.577374 
L 338.032727 126.62711 
L 250.308907 124.807567 
L 165.959079 123.058007 
L 203.073003 123.827814 
L 122.097169 122.148236 
L 192.951024 123.617866 
L 95.105224 121.588377 
L 115.349183 122.008271 
L 253.6829 124.87755 
L 71.487273 121.0985 
L 233.438941 124.457655 
L 219.942969 124.177726 
" clip-path="url(#p90855ef69d)" style="fill: none; stroke: #292f36; stroke-width: 1.5; stroke-linecap: square"/>
   </g>
   <g id="line2d_12">
    <path d="M 334.658734 116.845144 
L 142.341128 115.061823 
L 128.845155 114.936677 
L 108.601197 114.748959 
L 118.723176 114.842818 
L 213.194983 115.718836 
L 199.69901 115.59369 
L 95.105224 114.623814 
L 182.829045 115.437259 
L 219.942969 115.781408 
L 250.308907 116.062985 
L 162.585086 115.249541 
L 101.853211 114.686387 
L 159.211093 115.218254 
L 165.959079 115.280827 
L 287.422831 116.407135 
L 338.032727 116.87643 
L 250.308907 116.062985 
L 165.959079 115.280827 
L 203.073003 115.624977 
L 122.097169 114.874105 
L 192.951024 115.531118 
L 95.105224 114.623814 
L 115.349183 114.811532 
L 253.6829 116.094272 
L 71.487273 114.40481 
L 233.438941 115.906554 
L 219.942969 115.781408 
" clip-path="url(#p90855ef69d)" style="fill: none; stroke: #52bfb6; stroke-width: 1.5; stroke-linecap: square"/>
   </g>
   <g id="line2d_13">
    <path d="M 334.658734 121.06368 
L 142.341128 114.810885 
L 128.845155 114.372092 
L 108.601197 113.713903 
L 118.723176 114.042997 
L 213.194983 117.114546 
L 199.69901 116.675753 
L 95.105224 113.27511 
L 182.829045 116.127262 
L 219.942969 117.333942 
L 250.308907 118.321226 
L 162.585086 115.469074 
L 101.853211 113.494507 
L 159.211093 115.359375 
L 165.959079 115.578772 
L 287.422831 119.527906 
L 338.032727 121.173378 
L 250.308907 118.321226 
L 165.959079 115.578772 
L 203.073003 116.785451 
L 122.097169 114.152696 
L 192.951024 116.456357 
L 95.105224 113.27511 
L 115.349183 113.933299 
L 253.6829 118.430924 
L 71.487273 112.507223 
L 233.438941 117.772735 
L 219.942969 117.333942 
" clip-path="url(#p90855ef69d)" style="fill: none; stroke: #e3bc59; stroke-width: 1.5; stroke-linecap: square"/>
   </g>
   <g id="line2d_14">
    <path d="M 334.658734 104.05614 
L 142.341128 107.834781 
L 128.845155 108.099949 
L 108.601197 108.497701 
L 118.723176 108.298825 
L 213.194983 106.44265 
L 199.69901 106.707818 
L 95.105224 108.762868 
L 182.829045 107.039278 
L 219.942969 106.310066 
L 250.308907 105.713439 
L 162.585086 107.437029 
L 101.853211 108.630284 
L 159.211093 107.503321 
L 165.959079 107.370737 
L 287.422831 104.984227 
L 338.032727 103.989848 
L 250.308907 105.713439 
L 165.959079 107.370737 
L 203.073003 106.641526 
L 122.097169 108.232533 
L 192.951024 106.840402 
L 95.105224 108.762868 
L 115.349183 108.365117 
L 253.6829 105.647147 
L 71.487273 109.226912 
L 233.438941 106.044898 
L 219.942969 106.310066 
" clip-path="url(#p90855ef69d)" style="fill: none; stroke: #e03639; stroke-width: 1.5; stroke-linecap: square"/>
   </g>
   <g id="axes_2">
    <g id="patch_7">
     <path d="M 263.4 295.0254 
L 336.7 295.0254 
L 336.7 221.5154 
L 263.4 221.5154 
z
" style="fill: #ffffff; opacity: 0.2"/>
    </g>
    <g id="patch_8">
     <path d="M 266.731818 295.0254 
L 280.760526 295.0254 
L 280.760526 293.140698 
L 266.731818 293.140698 
z
" clip-path="url(#p8d59799348)" style="fill: #292f36"/>
    </g>
    <g id="patch_9">
     <path d="M 284.267703 295.0254 
L 298.296411 295.0254 
L 298.296411 294.887326 
L 284.267703 294.887326 
z
" clip-path="url(#p8d59799348)" style="fill: #52bfb6"/>
    </g>
    <g id="patch_10">
     <path d="M 301.803589 295.0254 
L 315.832297 295.0254 
L 315.832297 293.304572 
L 301.803589 293.304572 
z
" clip-path="url(#p8d59799348)" style="fill: #e3bc59"/>
    </g>
    <g id="patch_11">
     <path d="M 319.339474 295.0254 
L 333.368182 295.0254 
L 333.368182 294.791737 
L 319.339474 294.791737 
z
" clip-path="url(#p8d59799348)" style="fill: #e03639"/>
    </g>
    <g id="matplotlib.axis_3">
     <g id="xtick_5">
      <g id="line2d_15">
       <g>
        <use xlink:href="#mbbfd85cf6b" x="273.746172" y="295.0254" style="stroke: #000000; stroke-width: 0.8"/>
       </g>
      </g>
      <g id="text_14">
       <!-- R -->
       <g transform="translate(269.181332 311.542425)scale(0.13328 -0.13328)">
        <defs>
         <path id="HelveticaNeue-52" d="M 499 4570 
L 499 0 
L 1107 0 
L 1107 1952 
L 2592 1952 
Q 2816 1952 2950 1885 
Q 3085 1818 3168 1706 
Q 3251 1594 3289 1443 
Q 3328 1293 3354 1126 
Q 3386 960 3392 787 
Q 3398 614 3404 464 
Q 3411 314 3433 192 
Q 3456 70 3520 0 
L 4198 0 
Q 4102 115 4054 265 
Q 4006 416 3980 582 
Q 3955 749 3948 921 
Q 3942 1094 3930 1261 
Q 3910 1427 3875 1580 
Q 3840 1734 3766 1859 
Q 3693 1984 3568 2073 
Q 3443 2163 3245 2202 
L 3245 2214 
Q 3661 2330 3849 2643 
Q 4038 2957 4038 3373 
Q 4038 3930 3670 4250 
Q 3302 4570 2650 4570 
L 499 4570 
z
M 2374 2464 
L 1107 2464 
L 1107 4058 
L 2618 4058 
Q 3046 4058 3238 3840 
Q 3430 3622 3430 3277 
Q 3430 3027 3344 2870 
Q 3258 2714 3114 2621 
Q 2970 2528 2778 2496 
Q 2586 2464 2374 2464 
z
" transform="scale(0.015625)"/>
        </defs>
        <use xlink:href="#HelveticaNeue-52"/>
       </g>
      </g>
     </g>
     <g id="xtick_6">
      <g id="line2d_16">
       <g>
        <use xlink:href="#mbbfd85cf6b" x="291.282057" y="295.0254" style="stroke: #000000; stroke-width: 0.8"/>
       </g>
      </g>
      <g id="text_15">
       <!-- T -->
       <g transform="translate(287.456505 311.542425)scale(0.13328 -0.13328)">
        <defs>
         <path id="HelveticaNeue-54" d="M 1536 4058 
L 1536 0 
L 2144 0 
L 2144 4058 
L 3667 4058 
L 3667 4570 
L 13 4570 
L 13 4058 
L 1536 4058 
z
" transform="scale(0.015625)"/>
        </defs>
        <use xlink:href="#HelveticaNeue-54"/>
       </g>
      </g>
     </g>
     <g id="xtick_7">
      <g id="line2d_17">
       <g>
        <use xlink:href="#mbbfd85cf6b" x="308.817943" y="295.0254" style="stroke: #000000; stroke-width: 0.8"/>
       </g>
      </g>
      <g id="text_16">
       <!-- F -->
       <g transform="translate(304.99239 311.542425)scale(0.13328 -0.13328)">
        <defs>
         <path id="HelveticaNeue-46" d="M 499 4570 
L 499 0 
L 1107 0 
L 1107 2093 
L 3206 2093 
L 3206 2605 
L 1107 2605 
L 1107 4058 
L 3501 4058 
L 3501 4570 
L 499 4570 
z
" transform="scale(0.015625)"/>
        </defs>
        <use xlink:href="#HelveticaNeue-46"/>
       </g>
      </g>
     </g>
     <g id="xtick_8">
      <g id="line2d_18">
       <g>
        <use xlink:href="#mbbfd85cf6b" x="326.353828" y="295.0254" style="stroke: #000000; stroke-width: 0.8"/>
       </g>
      </g>
      <g id="text_17">
       <!-- FT -->
       <g transform="translate(318.702723 311.542425)scale(0.13328 -0.13328)">
        <use xlink:href="#HelveticaNeue-46"/>
        <use xlink:href="#HelveticaNeue-54" x="57.399994"/>
       </g>
      </g>
     </g>
    </g>
    <g id="matplotlib.axis_4">
     <g id="ytick_7">
      <g id="line2d_19">
       <g>
        <use xlink:href="#ma48ed02561" x="263.4" y="295.0254" style="stroke: #000000; stroke-width: 0.8"/>
       </g>
      </g>
      <g id="text_18">
       <!-- 0 -->
       <g transform="translate(248.990465 299.783912)scale(0.13328 -0.13328)">
        <use xlink:href="#HelveticaNeue-30"/>
       </g>
      </g>
     </g>
     <g id="ytick_8">
      <g id="line2d_20">
       <g>
        <use xlink:href="#ma48ed02561" x="263.4" y="258.2704" style="stroke: #000000; stroke-width: 0.8"/>
       </g>
      </g>
      <g id="text_19">
       <!-- 0.5 -->
       <g transform="translate(237.876163 263.028912)scale(0.13328 -0.13328)">
        <defs>
         <path id="HelveticaNeue-2e" d="M 531 710 
L 531 0 
L 1242 0 
L 1242 710 
L 531 710 
z
" transform="scale(0.015625)"/>
        </defs>
        <use xlink:href="#HelveticaNeue-30"/>
        <use xlink:href="#HelveticaNeue-2e" x="55.599991"/>
        <use xlink:href="#HelveticaNeue-35" x="83.399979"/>
       </g>
      </g>
     </g>
     <g id="ytick_9">
      <g id="line2d_21">
       <g>
        <use xlink:href="#ma48ed02561" x="263.4" y="221.5154" style="stroke: #000000; stroke-width: 0.8"/>
       </g>
      </g>
      <g id="text_20">
       <!-- 1 -->
       <g transform="translate(248.990465 226.273912)scale(0.13328 -0.13328)">
        <use xlink:href="#HelveticaNeue-31"/>
       </g>
      </g>
     </g>
    </g>
    <g id="patch_12">
     <path d="M 263.4 295.0254 
L 263.4 221.5154 
" style="fill: none; stroke: #000000; stroke-width: 0.8; stroke-linejoin: miter; stroke-linecap: square"/>
    </g>
    <g id="patch_13">
     <path d="M 336.7 295.0254 
L 336.7 221.5154 
" style="fill: none; stroke: #000000; stroke-width: 0.8; stroke-linejoin: miter; stroke-linecap: square"/>
    </g>
    <g id="patch_14">
     <path d="M 263.4 295.0254 
L 336.7 295.0254 
" style="fill: none; stroke: #000000; stroke-width: 0.8; stroke-linejoin: miter; stroke-linecap: square"/>
    </g>
    <g id="patch_15">
     <path d="M 263.4 221.5154 
L 336.7 221.5154 
" style="fill: none; stroke: #000000; stroke-width: 0.8; stroke-linejoin: miter; stroke-linecap: square"/>
    </g>
    <g id="text_21">
     <!-- R$^2$ -->
     <g transform="translate(290.69 215.5154)scale(0.16 -0.16)">
      <defs>
       <path id="DejaVuSans-32" d="M 1228 531 
L 3431 531 
L 3431 0 
L 469 0 
L 469 531 
Q 828 903 1448 1529 
Q 2069 2156 2228 2338 
Q 2531 2678 2651 2914 
Q 2772 3150 2772 3378 
Q 2772 3750 2511 3984 
Q 2250 4219 1831 4219 
Q 1534 4219 1204 4116 
Q 875 4013 500 3803 
L 500 4441 
Q 881 4594 1212 4672 
Q 1544 4750 1819 4750 
Q 2544 4750 2975 4387 
Q 3406 4025 3406 3419 
Q 3406 3131 3298 2873 
Q 3191 2616 2906 2266 
Q 2828 2175 2409 1742 
Q 1991 1309 1228 531 
z
" transform="scale(0.015625)"/>
      </defs>
      <use xlink:href="#HelveticaNeue-52" transform="translate(0 0.765625)"/>
      <use xlink:href="#DejaVuSans-32" transform="translate(69.457016 39.046875)scale(0.7)"/>
     </g>
    </g>
   </g>
  </g>
  <g id="axes_3">
   <g id="patch_16">
    <path d="M 409.52 328.84 
L 702.72 328.84 
L 702.72 34.8 
L 409.52 34.8 
z
" style="fill: #ffffff"/>
   </g>
   <g id="PathCollection_5">
    <defs>
     <path id="C4_0_083084153f" d="M 0 2.738613 
C 0.726289 2.738613 1.422928 2.450055 1.936492 1.936492 
C 2.450055 1.422928 2.738613 0.726289 2.738613 -0 
C 2.738613 -0.726289 2.450055 -1.422928 1.936492 -1.936492 
C 1.422928 -2.450055 0.726289 -2.738613 0 -2.738613 
C -0.726289 -2.738613 -1.422928 -2.450055 -1.936492 -1.936492 
C -2.450055 -1.422928 -2.738613 -0.726289 -2.738613 0 
C -2.738613 0.726289 -2.450055 1.422928 -1.936492 1.936492 
C -1.422928 2.450055 -0.726289 2.738613 0 2.738613 
z
"/>
    </defs>
    <g clip-path="url(#p224244318d)">
     <use xlink:href="#C4_0_083084153f" x="686.018734" y="108.691395" style="fill: #292f36; fill-opacity: 0.65"/>
    </g>
    <g clip-path="url(#p224244318d)">
     <use xlink:href="#C4_0_083084153f" x="493.701128" y="97.99591" style="fill: #292f36; fill-opacity: 0.65"/>
    </g>
    <g clip-path="url(#p224244318d)">
     <use xlink:href="#C4_0_083084153f" x="480.205155" y="92.661619" style="fill: #292f36; fill-opacity: 0.65"/>
    </g>
    <g clip-path="url(#p224244318d)">
     <use xlink:href="#C4_0_083084153f" x="459.961197" y="109.767102" style="fill: #292f36; fill-opacity: 0.65"/>
    </g>
    <g clip-path="url(#p224244318d)">
     <use xlink:href="#C4_0_083084153f" x="470.083176" y="102.351974" style="fill: #292f36; fill-opacity: 0.65"/>
    </g>
    <g clip-path="url(#p224244318d)">
     <use xlink:href="#C4_0_083084153f" x="564.554983" y="100.613251" style="fill: #292f36; fill-opacity: 0.65"/>
    </g>
    <g clip-path="url(#p224244318d)">
     <use xlink:href="#C4_0_083084153f" x="551.05901" y="115.596392" style="fill: #292f36; fill-opacity: 0.65"/>
    </g>
    <g clip-path="url(#p224244318d)">
     <use xlink:href="#C4_0_083084153f" x="446.465224" y="130.905883" style="fill: #292f36; fill-opacity: 0.65"/>
    </g>
    <g clip-path="url(#p224244318d)">
     <use xlink:href="#C4_0_083084153f" x="534.189045" y="130.764192" style="fill: #292f36; fill-opacity: 0.65"/>
    </g>
    <g clip-path="url(#p224244318d)">
     <use xlink:href="#C4_0_083084153f" x="571.302969" y="112.005858" style="fill: #292f36; fill-opacity: 0.65"/>
    </g>
    <g clip-path="url(#p224244318d)">
     <use xlink:href="#C4_0_083084153f" x="601.668907" y="104.658998" style="fill: #292f36; fill-opacity: 0.65"/>
    </g>
    <g clip-path="url(#p224244318d)">
     <use xlink:href="#C4_0_083084153f" x="513.945086" y="117.677009" style="fill: #292f36; fill-opacity: 0.65"/>
    </g>
    <g clip-path="url(#p224244318d)">
     <use xlink:href="#C4_0_083084153f" x="453.213211" y="112.989834" style="fill: #292f36; fill-opacity: 0.65"/>
    </g>
    <g clip-path="url(#p224244318d)">
     <use xlink:href="#C4_0_083084153f" x="510.571093" y="111.367008" style="fill: #292f36; fill-opacity: 0.65"/>
    </g>
    <g clip-path="url(#p224244318d)">
     <use xlink:href="#C4_0_083084153f" x="517.319079" y="110.096108" style="fill: #292f36; fill-opacity: 0.65"/>
    </g>
    <g clip-path="url(#p224244318d)">
     <use xlink:href="#C4_0_083084153f" x="638.782831" y="135.189351" style="fill: #292f36; fill-opacity: 0.65"/>
    </g>
    <g clip-path="url(#p224244318d)">
     <use xlink:href="#C4_0_083084153f" x="689.392727" y="107.107021" style="fill: #292f36; fill-opacity: 0.65"/>
    </g>
    <g clip-path="url(#p224244318d)">
     <use xlink:href="#C4_0_083084153f" x="601.668907" y="117.301137" style="fill: #292f36; fill-opacity: 0.65"/>
    </g>
    <g clip-path="url(#p224244318d)">
     <use xlink:href="#C4_0_083084153f" x="517.319079" y="123.50524" style="fill: #292f36; fill-opacity: 0.65"/>
    </g>
    <g clip-path="url(#p224244318d)">
     <use xlink:href="#C4_0_083084153f" x="554.433003" y="110.959098" style="fill: #292f36; fill-opacity: 0.65"/>
    </g>
    <g clip-path="url(#p224244318d)">
     <use xlink:href="#C4_0_083084153f" x="473.457169" y="121.07716" style="fill: #292f36; fill-opacity: 0.65"/>
    </g>
    <g clip-path="url(#p224244318d)">
     <use xlink:href="#C4_0_083084153f" x="544.311024" y="103.838214" style="fill: #292f36; fill-opacity: 0.65"/>
    </g>
    <g clip-path="url(#p224244318d)">
     <use xlink:href="#C4_0_083084153f" x="446.465224" y="107.234776" style="fill: #292f36; fill-opacity: 0.65"/>
    </g>
    <g clip-path="url(#p224244318d)">
     <use xlink:href="#C4_0_083084153f" x="466.709183" y="138.158819" style="fill: #292f36; fill-opacity: 0.65"/>
    </g>
    <g clip-path="url(#p224244318d)">
     <use xlink:href="#C4_0_083084153f" x="605.0429" y="84.745492" style="fill: #292f36; fill-opacity: 0.65"/>
    </g>
    <g clip-path="url(#p224244318d)">
     <use xlink:href="#C4_0_083084153f" x="422.847273" y="110.779411" style="fill: #292f36; fill-opacity: 0.65"/>
    </g>
    <g clip-path="url(#p224244318d)">
     <use xlink:href="#C4_0_083084153f" x="584.798941" y="120.78852" style="fill: #292f36; fill-opacity: 0.65"/>
    </g>
    <g clip-path="url(#p224244318d)">
     <use xlink:href="#C4_0_083084153f" x="571.302969" y="76.995764" style="fill: #292f36; fill-opacity: 0.65"/>
    </g>
   </g>
   <g id="PathCollection_6">
    <defs>
     <path id="C5_0_4d29eff3ea" d="M 0 2.738613 
C 0.726289 2.738613 1.422928 2.450055 1.936492 1.936492 
C 2.450055 1.422928 2.738613 0.726289 2.738613 -0 
C 2.738613 -0.726289 2.450055 -1.422928 1.936492 -1.936492 
C 1.422928 -2.450055 0.726289 -2.738613 0 -2.738613 
C -0.726289 -2.738613 -1.422928 -2.450055 -1.936492 -1.936492 
C -2.450055 -1.422928 -2.738613 -0.726289 -2.738613 0 
C -2.738613 0.726289 -2.450055 1.422928 -1.936492 1.936492 
C -1.422928 2.450055 -0.726289 2.738613 0 2.738613 
z
"/>
    </defs>
    <g clip-path="url(#p224244318d)">
     <use xlink:href="#C5_0_4d29eff3ea" x="686.018734" y="94.050193" style="fill: #52bfb6; fill-opacity: 0.65"/>
    </g>
    <g clip-path="url(#p224244318d)">
     <use xlink:href="#C5_0_4d29eff3ea" x="493.701128" y="61.685207" style="fill: #52bfb6; fill-opacity: 0.65"/>
    </g>
    <g clip-path="url(#p224244318d)">
     <use xlink:href="#C5_0_4d29eff3ea" x="480.205155" y="108.939599" style="fill: #52bfb6; fill-opacity: 0.65"/>
    </g>
    <g clip-path="url(#p224244318d)">
     <use xlink:href="#C5_0_4d29eff3ea" x="459.961197" y="109.32741" style="fill: #52bfb6; fill-opacity: 0.65"/>
    </g>
    <g clip-path="url(#p224244318d)">
     <use xlink:href="#C5_0_4d29eff3ea" x="470.083176" y="98.397127" style="fill: #52bfb6; fill-opacity: 0.65"/>
    </g>
    <g clip-path="url(#p224244318d)">
     <use xlink:href="#C5_0_4d29eff3ea" x="564.554983" y="90.682197" style="fill: #52bfb6; fill-opacity: 0.65"/>
    </g>
    <g clip-path="url(#p224244318d)">
     <use xlink:href="#C5_0_4d29eff3ea" x="551.05901" y="102.243771" style="fill: #52bfb6; fill-opacity: 0.65"/>
    </g>
    <g clip-path="url(#p224244318d)">
     <use xlink:href="#C5_0_4d29eff3ea" x="446.465224" y="85.785024" style="fill: #52bfb6; fill-opacity: 0.65"/>
    </g>
    <g clip-path="url(#p224244318d)">
     <use xlink:href="#C5_0_4d29eff3ea" x="534.189045" y="108.131172" style="fill: #52bfb6; fill-opacity: 0.65"/>
    </g>
    <g clip-path="url(#p224244318d)">
     <use xlink:href="#C5_0_4d29eff3ea" x="571.302969" y="86.935749" style="fill: #52bfb6; fill-opacity: 0.65"/>
    </g>
    <g clip-path="url(#p224244318d)">
     <use xlink:href="#C5_0_4d29eff3ea" x="601.668907" y="104.700962" style="fill: #52bfb6; fill-opacity: 0.65"/>
    </g>
    <g clip-path="url(#p224244318d)">
     <use xlink:href="#C5_0_4d29eff3ea" x="513.945086" y="134.247227" style="fill: #52bfb6; fill-opacity: 0.65"/>
    </g>
    <g clip-path="url(#p224244318d)">
     <use xlink:href="#C5_0_4d29eff3ea" x="453.213211" y="114.141067" style="fill: #52bfb6; fill-opacity: 0.65"/>
    </g>
    <g clip-path="url(#p224244318d)">
     <use xlink:href="#C5_0_4d29eff3ea" x="510.571093" y="102.934949" style="fill: #52bfb6; fill-opacity: 0.65"/>
    </g>
    <g clip-path="url(#p224244318d)">
     <use xlink:href="#C5_0_4d29eff3ea" x="517.319079" y="95.669342" style="fill: #52bfb6; fill-opacity: 0.65"/>
    </g>
    <g clip-path="url(#p224244318d)">
     <use xlink:href="#C5_0_4d29eff3ea" x="638.782831" y="107.114666" style="fill: #52bfb6; fill-opacity: 0.65"/>
    </g>
    <g clip-path="url(#p224244318d)">
     <use xlink:href="#C5_0_4d29eff3ea" x="689.392727" y="104.634807" style="fill: #52bfb6; fill-opacity: 0.65"/>
    </g>
    <g clip-path="url(#p224244318d)">
     <use xlink:href="#C5_0_4d29eff3ea" x="601.668907" y="97.465967" style="fill: #52bfb6; fill-opacity: 0.65"/>
    </g>
    <g clip-path="url(#p224244318d)">
     <use xlink:href="#C5_0_4d29eff3ea" x="517.319079" y="95.991537" style="fill: #52bfb6; fill-opacity: 0.65"/>
    </g>
    <g clip-path="url(#p224244318d)">
     <use xlink:href="#C5_0_4d29eff3ea" x="554.433003" y="109.206239" style="fill: #52bfb6; fill-opacity: 0.65"/>
    </g>
    <g clip-path="url(#p224244318d)">
     <use xlink:href="#C5_0_4d29eff3ea" x="473.457169" y="106.378175" style="fill: #52bfb6; fill-opacity: 0.65"/>
    </g>
    <g clip-path="url(#p224244318d)">
     <use xlink:href="#C5_0_4d29eff3ea" x="544.311024" y="108.740346" style="fill: #52bfb6; fill-opacity: 0.65"/>
    </g>
    <g clip-path="url(#p224244318d)">
     <use xlink:href="#C5_0_4d29eff3ea" x="446.465224" y="102.248025" style="fill: #52bfb6; fill-opacity: 0.65"/>
    </g>
    <g clip-path="url(#p224244318d)">
     <use xlink:href="#C5_0_4d29eff3ea" x="466.709183" y="105.475652" style="fill: #52bfb6; fill-opacity: 0.65"/>
    </g>
    <g clip-path="url(#p224244318d)">
     <use xlink:href="#C5_0_4d29eff3ea" x="605.0429" y="70.059019" style="fill: #52bfb6; fill-opacity: 0.65"/>
    </g>
    <g clip-path="url(#p224244318d)">
     <use xlink:href="#C5_0_4d29eff3ea" x="422.847273" y="84.865855" style="fill: #52bfb6; fill-opacity: 0.65"/>
    </g>
    <g clip-path="url(#p224244318d)">
     <use xlink:href="#C5_0_4d29eff3ea" x="584.798941" y="108.683829" style="fill: #52bfb6; fill-opacity: 0.65"/>
    </g>
    <g clip-path="url(#p224244318d)">
     <use xlink:href="#C5_0_4d29eff3ea" x="571.302969" y="94.852158" style="fill: #52bfb6; fill-opacity: 0.65"/>
    </g>
   </g>
   <g id="PathCollection_7">
    <defs>
     <path id="C6_0_e1d935b756" d="M 0 2.738613 
C 0.726289 2.738613 1.422928 2.450055 1.936492 1.936492 
C 2.450055 1.422928 2.738613 0.726289 2.738613 -0 
C 2.738613 -0.726289 2.450055 -1.422928 1.936492 -1.936492 
C 1.422928 -2.450055 0.726289 -2.738613 0 -2.738613 
C -0.726289 -2.738613 -1.422928 -2.450055 -1.936492 -1.936492 
C -2.450055 -1.422928 -2.738613 -0.726289 -2.738613 0 
C -2.738613 0.726289 -2.450055 1.422928 -1.936492 1.936492 
C -1.422928 2.450055 -0.726289 2.738613 0 2.738613 
z
"/>
    </defs>
    <g clip-path="url(#p224244318d)">
     <use xlink:href="#C6_0_e1d935b756" x="686.018734" y="77.957644" style="fill: #e3bc59; fill-opacity: 0.65"/>
    </g>
    <g clip-path="url(#p224244318d)">
     <use xlink:href="#C6_0_e1d935b756" x="493.701128" y="97.846405" style="fill: #e3bc59; fill-opacity: 0.65"/>
    </g>
    <g clip-path="url(#p224244318d)">
     <use xlink:href="#C6_0_e1d935b756" x="480.205155" y="73.190247" style="fill: #e3bc59; fill-opacity: 0.65"/>
    </g>
    <g clip-path="url(#p224244318d)">
     <use xlink:href="#C6_0_e1d935b756" x="459.961197" y="106.739296" style="fill: #e3bc59; fill-opacity: 0.65"/>
    </g>
    <g clip-path="url(#p224244318d)">
     <use xlink:href="#C6_0_e1d935b756" x="470.083176" y="105.416869" style="fill: #e3bc59; fill-opacity: 0.65"/>
    </g>
    <g clip-path="url(#p224244318d)">
     <use xlink:href="#C6_0_e1d935b756" x="564.554983" y="95.407564" style="fill: #e3bc59; fill-opacity: 0.65"/>
    </g>
    <g clip-path="url(#p224244318d)">
     <use xlink:href="#C6_0_e1d935b756" x="551.05901" y="115.541079" style="fill: #e3bc59; fill-opacity: 0.65"/>
    </g>
    <g clip-path="url(#p224244318d)">
     <use xlink:href="#C6_0_e1d935b756" x="446.465224" y="122.198055" style="fill: #e3bc59; fill-opacity: 0.65"/>
    </g>
    <g clip-path="url(#p224244318d)">
     <use xlink:href="#C6_0_e1d935b756" x="534.189045" y="115.30428" style="fill: #e3bc59; fill-opacity: 0.65"/>
    </g>
    <g clip-path="url(#p224244318d)">
     <use xlink:href="#C6_0_e1d935b756" x="571.302969" y="70.746638" style="fill: #e3bc59; fill-opacity: 0.65"/>
    </g>
    <g clip-path="url(#p224244318d)">
     <use xlink:href="#C6_0_e1d935b756" x="601.668907" y="78.778059" style="fill: #e3bc59; fill-opacity: 0.65"/>
    </g>
    <g clip-path="url(#p224244318d)">
     <use xlink:href="#C6_0_e1d935b756" x="513.945086" y="108.71982" style="fill: #e3bc59; fill-opacity: 0.65"/>
    </g>
    <g clip-path="url(#p224244318d)">
     <use xlink:href="#C6_0_e1d935b756" x="453.213211" y="106.509933" style="fill: #e3bc59; fill-opacity: 0.65"/>
    </g>
    <g clip-path="url(#p224244318d)">
     <use xlink:href="#C6_0_e1d935b756" x="510.571093" y="76.016487" style="fill: #e3bc59; fill-opacity: 0.65"/>
    </g>
    <g clip-path="url(#p224244318d)">
     <use xlink:href="#C6_0_e1d935b756" x="517.319079" y="93.586901" style="fill: #e3bc59; fill-opacity: 0.65"/>
    </g>
    <g clip-path="url(#p224244318d)">
     <use xlink:href="#C6_0_e1d935b756" x="638.782831" y="103.570964" style="fill: #e3bc59; fill-opacity: 0.65"/>
    </g>
    <g clip-path="url(#p224244318d)">
     <use xlink:href="#C6_0_e1d935b756" x="689.392727" y="105.851111" style="fill: #e3bc59; fill-opacity: 0.65"/>
    </g>
    <g clip-path="url(#p224244318d)">
     <use xlink:href="#C6_0_e1d935b756" x="601.668907" y="103.872457" style="fill: #e3bc59; fill-opacity: 0.65"/>
    </g>
    <g clip-path="url(#p224244318d)">
     <use xlink:href="#C6_0_e1d935b756" x="517.319079" y="103.218039" style="fill: #e3bc59; fill-opacity: 0.65"/>
    </g>
    <g clip-path="url(#p224244318d)">
     <use xlink:href="#C6_0_e1d935b756" x="554.433003" y="111.702" style="fill: #e3bc59; fill-opacity: 0.65"/>
    </g>
    <g clip-path="url(#p224244318d)">
     <use xlink:href="#C6_0_e1d935b756" x="473.457169" y="111.231275" style="fill: #e3bc59; fill-opacity: 0.65"/>
    </g>
    <g clip-path="url(#p224244318d)">
     <use xlink:href="#C6_0_e1d935b756" x="544.311024" y="113.927405" style="fill: #e3bc59; fill-opacity: 0.65"/>
    </g>
    <g clip-path="url(#p224244318d)">
     <use xlink:href="#C6_0_e1d935b756" x="446.465224" y="107.115166" style="fill: #e3bc59; fill-opacity: 0.65"/>
    </g>
    <g clip-path="url(#p224244318d)">
     <use xlink:href="#C6_0_e1d935b756" x="466.709183" y="90.874993" style="fill: #e3bc59; fill-opacity: 0.65"/>
    </g>
    <g clip-path="url(#p224244318d)">
     <use xlink:href="#C6_0_e1d935b756" x="605.0429" y="66.932161" style="fill: #e3bc59; fill-opacity: 0.65"/>
    </g>
    <g clip-path="url(#p224244318d)">
     <use xlink:href="#C6_0_e1d935b756" x="422.847273" y="92.132268" style="fill: #e3bc59; fill-opacity: 0.65"/>
    </g>
    <g clip-path="url(#p224244318d)">
     <use xlink:href="#C6_0_e1d935b756" x="584.798941" y="111.775819" style="fill: #e3bc59; fill-opacity: 0.65"/>
    </g>
    <g clip-path="url(#p224244318d)">
     <use xlink:href="#C6_0_e1d935b756" x="571.302969" y="45.20402" style="fill: #e3bc59; fill-opacity: 0.65"/>
    </g>
   </g>
   <g id="PathCollection_8">
    <defs>
     <path id="C7_0_a30c4676fe" d="M 0 2.738613 
C 0.726289 2.738613 1.422928 2.450055 1.936492 1.936492 
C 2.450055 1.422928 2.738613 0.726289 2.738613 -0 
C 2.738613 -0.726289 2.450055 -1.422928 1.936492 -1.936492 
C 1.422928 -2.450055 0.726289 -2.738613 0 -2.738613 
C -0.726289 -2.738613 -1.422928 -2.450055 -1.936492 -1.936492 
C -2.450055 -1.422928 -2.738613 -0.726289 -2.738613 0 
C -2.738613 0.726289 -2.450055 1.422928 -1.936492 1.936492 
C -1.422928 2.450055 -0.726289 2.738613 0 2.738613 
z
"/>
    </defs>
    <g clip-path="url(#p224244318d)">
     <use xlink:href="#C7_0_a30c4676fe" x="686.018734" y="81.178488" style="fill: #e03639; fill-opacity: 0.65"/>
    </g>
    <g clip-path="url(#p224244318d)">
     <use xlink:href="#C7_0_a30c4676fe" x="493.701128" y="73.232978" style="fill: #e03639; fill-opacity: 0.65"/>
    </g>
    <g clip-path="url(#p224244318d)">
     <use xlink:href="#C7_0_a30c4676fe" x="480.205155" y="93.121472" style="fill: #e03639; fill-opacity: 0.65"/>
    </g>
    <g clip-path="url(#p224244318d)">
     <use xlink:href="#C7_0_a30c4676fe" x="459.961197" y="95.732659" style="fill: #e03639; fill-opacity: 0.65"/>
    </g>
    <g clip-path="url(#p224244318d)">
     <use xlink:href="#C7_0_a30c4676fe" x="470.083176" y="99.710964" style="fill: #e03639; fill-opacity: 0.65"/>
    </g>
    <g clip-path="url(#p224244318d)">
     <use xlink:href="#C7_0_a30c4676fe" x="564.554983" y="71.754872" style="fill: #e03639; fill-opacity: 0.65"/>
    </g>
    <g clip-path="url(#p224244318d)">
     <use xlink:href="#C7_0_a30c4676fe" x="551.05901" y="112.450324" style="fill: #e03639; fill-opacity: 0.65"/>
    </g>
    <g clip-path="url(#p224244318d)">
     <use xlink:href="#C7_0_a30c4676fe" x="446.465224" y="100.871669" style="fill: #e03639; fill-opacity: 0.65"/>
    </g>
    <g clip-path="url(#p224244318d)">
     <use xlink:href="#C7_0_a30c4676fe" x="534.189045" y="99.369975" style="fill: #e03639; fill-opacity: 0.65"/>
    </g>
    <g clip-path="url(#p224244318d)">
     <use xlink:href="#C7_0_a30c4676fe" x="571.302969" y="76.725685" style="fill: #e03639; fill-opacity: 0.65"/>
    </g>
    <g clip-path="url(#p224244318d)">
     <use xlink:href="#C7_0_a30c4676fe" x="601.668907" y="73.549346" style="fill: #e03639; fill-opacity: 0.65"/>
    </g>
    <g clip-path="url(#p224244318d)">
     <use xlink:href="#C7_0_a30c4676fe" x="513.945086" y="118.841753" style="fill: #e03639; fill-opacity: 0.65"/>
    </g>
    <g clip-path="url(#p224244318d)">
     <use xlink:href="#C7_0_a30c4676fe" x="453.213211" y="105.92678" style="fill: #e03639; fill-opacity: 0.65"/>
    </g>
    <g clip-path="url(#p224244318d)">
     <use xlink:href="#C7_0_a30c4676fe" x="510.571093" y="87.421107" style="fill: #e03639; fill-opacity: 0.65"/>
    </g>
    <g clip-path="url(#p224244318d)">
     <use xlink:href="#C7_0_a30c4676fe" x="517.319079" y="81.924673" style="fill: #e03639; fill-opacity: 0.65"/>
    </g>
    <g clip-path="url(#p224244318d)">
     <use xlink:href="#C7_0_a30c4676fe" x="638.782831" y="81.718807" style="fill: #e03639; fill-opacity: 0.65"/>
    </g>
    <g clip-path="url(#p224244318d)">
     <use xlink:href="#C7_0_a30c4676fe" x="689.392727" y="105.937045" style="fill: #e03639; fill-opacity: 0.65"/>
    </g>
    <g clip-path="url(#p224244318d)">
     <use xlink:href="#C7_0_a30c4676fe" x="601.668907" y="113.367442" style="fill: #e03639; fill-opacity: 0.65"/>
    </g>
    <g clip-path="url(#p224244318d)">
     <use xlink:href="#C7_0_a30c4676fe" x="517.319079" y="99.574193" style="fill: #e03639; fill-opacity: 0.65"/>
    </g>
    <g clip-path="url(#p224244318d)">
     <use xlink:href="#C7_0_a30c4676fe" x="554.433003" y="95.125794" style="fill: #e03639; fill-opacity: 0.65"/>
    </g>
    <g clip-path="url(#p224244318d)">
     <use xlink:href="#C7_0_a30c4676fe" x="473.457169" y="99.207954" style="fill: #e03639; fill-opacity: 0.65"/>
    </g>
    <g clip-path="url(#p224244318d)">
     <use xlink:href="#C7_0_a30c4676fe" x="544.311024" y="98.955621" style="fill: #e03639; fill-opacity: 0.65"/>
    </g>
    <g clip-path="url(#p224244318d)">
     <use xlink:href="#C7_0_a30c4676fe" x="446.465224" y="86.837985" style="fill: #e03639; fill-opacity: 0.65"/>
    </g>
    <g clip-path="url(#p224244318d)">
     <use xlink:href="#C7_0_a30c4676fe" x="466.709183" y="99.441126" style="fill: #e03639; fill-opacity: 0.65"/>
    </g>
    <g clip-path="url(#p224244318d)">
     <use xlink:href="#C7_0_a30c4676fe" x="605.0429" y="75.543717" style="fill: #e03639; fill-opacity: 0.65"/>
    </g>
    <g clip-path="url(#p224244318d)">
     <use xlink:href="#C7_0_a30c4676fe" x="422.847273" y="73.266738" style="fill: #e03639; fill-opacity: 0.65"/>
    </g>
    <g clip-path="url(#p224244318d)">
     <use xlink:href="#C7_0_a30c4676fe" x="584.798941" y="104.909827" style="fill: #e03639; fill-opacity: 0.65"/>
    </g>
    <g clip-path="url(#p224244318d)">
     <use xlink:href="#C7_0_a30c4676fe" x="571.302969" y="93.18458" style="fill: #e03639; fill-opacity: 0.65"/>
    </g>
   </g>
   <g id="matplotlib.axis_5">
    <g id="xtick_9">
     <g id="line2d_22">
      <g>
       <use xlink:href="#mbbfd85cf6b" x="439.717238" y="328.84" style="stroke: #000000; stroke-width: 0.8"/>
      </g>
     </g>
     <g id="text_22">
      <!-- 40 -->
      <g transform="translate(431.934113 345.836875)scale(0.14 -0.14)">
       <use xlink:href="#HelveticaNeue-34"/>
       <use xlink:href="#HelveticaNeue-30" x="55.599991"/>
      </g>
     </g>
    </g>
    <g id="xtick_10">
     <g id="line2d_23">
      <g>
       <use xlink:href="#mbbfd85cf6b" x="507.1971" y="328.84" style="stroke: #000000; stroke-width: 0.8"/>
      </g>
     </g>
     <g id="text_23">
      <!-- 60 -->
      <g transform="translate(499.413975 345.836875)scale(0.14 -0.14)">
       <use xlink:href="#HelveticaNeue-36"/>
       <use xlink:href="#HelveticaNeue-30" x="55.599991"/>
      </g>
     </g>
    </g>
    <g id="xtick_11">
     <g id="line2d_24">
      <g>
       <use xlink:href="#mbbfd85cf6b" x="574.676962" y="328.84" style="stroke: #000000; stroke-width: 0.8"/>
      </g>
     </g>
     <g id="text_24">
      <!-- 80 -->
      <g transform="translate(566.893837 345.836875)scale(0.14 -0.14)">
       <use xlink:href="#HelveticaNeue-38"/>
       <use xlink:href="#HelveticaNeue-30" x="55.599991"/>
      </g>
     </g>
    </g>
    <g id="xtick_12">
     <g id="line2d_25">
      <g>
       <use xlink:href="#mbbfd85cf6b" x="642.156824" y="328.84" style="stroke: #000000; stroke-width: 0.8"/>
      </g>
     </g>
     <g id="text_25">
      <!-- 100 -->
      <g transform="translate(630.482136 345.836875)scale(0.14 -0.14)">
       <use xlink:href="#HelveticaNeue-31"/>
       <use xlink:href="#HelveticaNeue-30" x="55.599991"/>
       <use xlink:href="#HelveticaNeue-30" x="111.199982"/>
      </g>
     </g>
    </g>
    <g id="text_26">
     <!-- GMSI score -->
     <g transform="translate(516.530547 363.30625)scale(0.15 -0.15)">
      <use xlink:href="#HelveticaNeue-47"/>
      <use xlink:href="#HelveticaNeue-4d" x="75.899994"/>
      <use xlink:href="#HelveticaNeue-53" x="162.999985"/>
      <use xlink:href="#HelveticaNeue-49" x="227.799973"/>
      <use xlink:href="#HelveticaNeue-20" x="253.699966"/>
      <use xlink:href="#HelveticaNeue-73" x="281.499954"/>
      <use xlink:href="#HelveticaNeue-63" x="331.499939"/>
      <use xlink:href="#HelveticaNeue-6f" x="385.199936"/>
      <use xlink:href="#HelveticaNeue-72" x="442.59993"/>
      <use xlink:href="#HelveticaNeue-65" x="474.149918"/>
     </g>
    </g>
   </g>
   <g id="matplotlib.axis_6">
    <g id="ytick_10">
     <g id="line2d_26">
      <g>
       <use xlink:href="#ma48ed02561" x="409.52" y="68.739489" style="stroke: #000000; stroke-width: 0.8"/>
      </g>
     </g>
     <g id="text_27">
      <!-- −5 -->
      <g transform="translate(386.336875 73.737927)scale(0.14 -0.14)">
       <use xlink:href="#HelveticaNeue-2212"/>
       <use xlink:href="#HelveticaNeue-35" x="59.999985"/>
      </g>
     </g>
    </g>
    <g id="ytick_11">
     <g id="line2d_27">
      <g>
       <use xlink:href="#ma48ed02561" x="409.52" y="120.759592" style="stroke: #000000; stroke-width: 0.8"/>
      </g>
     </g>
     <g id="text_28">
      <!-- 0 -->
      <g transform="translate(394.736875 125.758029)scale(0.14 -0.14)">
       <use xlink:href="#HelveticaNeue-30"/>
      </g>
     </g>
    </g>
    <g id="ytick_12">
     <g id="line2d_28">
      <g>
       <use xlink:href="#ma48ed02561" x="409.52" y="172.779694" style="stroke: #000000; stroke-width: 0.8"/>
      </g>
     </g>
     <g id="text_29">
      <!-- 5 -->
      <g transform="translate(394.736875 177.778131)scale(0.14 -0.14)">
       <use xlink:href="#HelveticaNeue-35"/>
      </g>
     </g>
    </g>
    <g id="ytick_13">
     <g id="line2d_29">
      <g>
       <use xlink:href="#ma48ed02561" x="409.52" y="224.799796" style="stroke: #000000; stroke-width: 0.8"/>
      </g>
     </g>
     <g id="text_30">
      <!-- 10 -->
      <g transform="translate(386.95375 229.798233)scale(0.14 -0.14)">
       <use xlink:href="#HelveticaNeue-31"/>
       <use xlink:href="#HelveticaNeue-30" x="55.599991"/>
      </g>
     </g>
    </g>
    <g id="ytick_14">
     <g id="line2d_30">
      <g>
       <use xlink:href="#ma48ed02561" x="409.52" y="276.819898" style="stroke: #000000; stroke-width: 0.8"/>
      </g>
     </g>
     <g id="text_31">
      <!-- 15 -->
      <g transform="translate(386.95375 281.818335)scale(0.14 -0.14)">
       <use xlink:href="#HelveticaNeue-31"/>
       <use xlink:href="#HelveticaNeue-35" x="55.599991"/>
      </g>
     </g>
    </g>
    <g id="ytick_15">
     <g id="line2d_31">
      <g>
       <use xlink:href="#ma48ed02561" x="409.52" y="328.84" style="stroke: #000000; stroke-width: 0.8"/>
      </g>
     </g>
     <g id="text_32">
      <!-- 20 -->
      <g transform="translate(386.95375 333.838437)scale(0.14 -0.14)">
       <use xlink:href="#HelveticaNeue-32"/>
       <use xlink:href="#HelveticaNeue-30" x="55.599991"/>
      </g>
     </g>
    </g>
    <g id="text_33">
     <!-- p50 threshold distance (dB HL) -->
     <g transform="translate(379.381406 285.741875)rotate(-90)scale(0.15 -0.15)">
      <use xlink:href="#HelveticaNeue-70"/>
      <use xlink:href="#HelveticaNeue-35" x="59.299988"/>
      <use xlink:href="#HelveticaNeue-30" x="114.899979"/>
      <use xlink:href="#HelveticaNeue-20" x="170.499969"/>
      <use xlink:href="#HelveticaNeue-74" x="198.299957"/>
      <use xlink:href="#HelveticaNeue-68" x="229.799942"/>
      <use xlink:href="#HelveticaNeue-72" x="285.399933"/>
      <use xlink:href="#HelveticaNeue-65" x="316.949921"/>
      <use xlink:href="#HelveticaNeue-73" x="370.649918"/>
      <use xlink:href="#HelveticaNeue-68" x="420.649902"/>
      <use xlink:href="#HelveticaNeue-6f" x="476.249893"/>
      <use xlink:href="#HelveticaNeue-6c" x="533.649887"/>
      <use xlink:href="#HelveticaNeue-64" x="555.849884"/>
      <use xlink:href="#HelveticaNeue-20" x="615.149872"/>
      <use xlink:href="#HelveticaNeue-64" x="642.94986"/>
      <use xlink:href="#HelveticaNeue-69" x="702.249847"/>
      <use xlink:href="#HelveticaNeue-73" x="724.449844"/>
      <use xlink:href="#HelveticaNeue-74" x="774.449829"/>
      <use xlink:href="#HelveticaNeue-61" x="805.949814"/>
      <use xlink:href="#HelveticaNeue-6e" x="859.649811"/>
      <use xlink:href="#HelveticaNeue-63" x="915.249802"/>
      <use xlink:href="#HelveticaNeue-65" x="968.949799"/>
      <use xlink:href="#HelveticaNeue-20" x="1022.649796"/>
      <use xlink:href="#HelveticaNeue-28" x="1050.449783"/>
      <use xlink:href="#HelveticaNeue-64" x="1076.349777"/>
      <use xlink:href="#HelveticaNeue-42" x="1135.649765"/>
      <use xlink:href="#HelveticaNeue-20" x="1204.14975"/>
      <use xlink:href="#HelveticaNeue-48" x="1231.949738"/>
      <use xlink:href="#HelveticaNeue-4c" x="1304.149719"/>
      <use xlink:href="#HelveticaNeue-29" x="1359.74971"/>
     </g>
    </g>
   </g>
   <g id="patch_17">
    <path d="M 409.52 328.84 
L 409.52 34.8 
" style="fill: none; stroke: #000000; stroke-width: 0.8; stroke-linejoin: miter; stroke-linecap: square"/>
   </g>
   <g id="patch_18">
    <path d="M 702.72 328.84 
L 702.72 34.8 
" style="fill: none; stroke: #000000; stroke-width: 0.8; stroke-linejoin: miter; stroke-linecap: square"/>
   </g>
   <g id="patch_19">
    <path d="M 409.52 328.84 
L 702.72 328.84 
" style="fill: none; stroke: #000000; stroke-width: 0.8; stroke-linejoin: miter; stroke-linecap: square"/>
   </g>
   <g id="patch_20">
    <path d="M 409.52 34.8 
L 702.72 34.8 
" style="fill: none; stroke: #000000; stroke-width: 0.8; stroke-linejoin: miter; stroke-linecap: square"/>
   </g>
   <g id="text_34">
    <!-- Cluster -->
    <g transform="translate(530.64 28.8)scale(0.16 -0.16)">
     <use xlink:href="#HelveticaNeue-43"/>
     <use xlink:href="#HelveticaNeue-6c" x="72.199982"/>
     <use xlink:href="#HelveticaNeue-75" x="94.399979"/>
     <use xlink:href="#HelveticaNeue-73" x="149.999969"/>
     <use xlink:href="#HelveticaNeue-74" x="199.999954"/>
     <use xlink:href="#HelveticaNeue-65" x="231.499939"/>
     <use xlink:href="#HelveticaNeue-72" x="285.199936"/>
    </g>
   </g>
   <g id="line2d_32">
    <path d="M 686.018734 107.421022 
L 493.701128 112.323835 
L 480.205155 112.667892 
L 459.961197 113.183978 
L 470.083176 112.925935 
L 564.554983 110.517536 
L 551.05901 110.861593 
L 446.465224 113.528035 
L 534.189045 111.291664 
L 571.302969 110.345507 
L 601.668907 109.571379 
L 513.945086 111.80775 
L 453.213211 113.356006 
L 510.571093 111.893764 
L 517.319079 111.721735 
L 638.782831 108.625222 
L 689.392727 107.335008 
L 601.668907 109.571379 
L 517.319079 111.721735 
L 554.433003 110.775578 
L 473.457169 112.839921 
L 544.311024 111.033621 
L 446.465224 113.528035 
L 466.709183 113.011949 
L 605.0429 109.485364 
L 422.847273 114.130135 
L 584.798941 110.00145 
L 571.302969 110.345507 
" clip-path="url(#p224244318d)" style="fill: none; stroke: #292f36; stroke-width: 1.5; stroke-linecap: square"/>
   </g>
   <g id="line2d_33">
    <path d="M 686.018734 98.74909 
L 493.701128 100.047599 
L 480.205155 100.138722 
L 459.961197 100.275407 
L 470.083176 100.207064 
L 564.554983 99.569201 
L 551.05901 99.660324 
L 446.465224 100.36653 
L 534.189045 99.774228 
L 571.302969 99.523639 
L 601.668907 99.318611 
L 513.945086 99.910913 
L 453.213211 100.320969 
L 510.571093 99.933694 
L 517.319079 99.888133 
L 638.782831 99.068022 
L 689.392727 98.72631 
L 601.668907 99.318611 
L 517.319079 99.888133 
L 554.433003 99.637543 
L 473.457169 100.184284 
L 544.311024 99.705886 
L 446.465224 100.36653 
L 466.709183 100.229845 
L 605.0429 99.295831 
L 422.847273 100.525996 
L 584.798941 99.432516 
L 571.302969 99.523639 
" clip-path="url(#p224244318d)" style="fill: none; stroke: #52bfb6; stroke-width: 1.5; stroke-linecap: square"/>
   </g>
   <g id="line2d_34">
    <path d="M 686.018734 87.241885 
L 493.701128 99.43127 
L 480.205155 100.286666 
L 459.961197 101.569759 
L 470.083176 100.928213 
L 564.554983 94.940444 
L 551.05901 95.79584 
L 446.465224 102.425155 
L 534.189045 96.865084 
L 571.302969 94.512746 
L 601.668907 92.588106 
L 513.945086 98.148177 
L 453.213211 101.997457 
L 510.571093 98.362026 
L 517.319079 97.934328 
L 638.782831 90.235769 
L 689.392727 87.028036 
L 601.668907 92.588106 
L 517.319079 97.934328 
L 554.433003 95.581991 
L 473.457169 100.714364 
L 544.311024 96.223537 
L 446.465224 102.425155 
L 466.709183 101.142061 
L 605.0429 92.374258 
L 422.847273 103.922097 
L 584.798941 93.657351 
L 571.302969 94.512746 
" clip-path="url(#p224244318d)" style="fill: none; stroke: #e3bc59; stroke-width: 1.5; stroke-linecap: square"/>
   </g>
   <g id="line2d_35">
    <path d="M 686.018734 90.271374 
L 493.701128 93.506446 
L 480.205155 93.733469 
L 459.961197 94.074003 
L 470.083176 93.903736 
L 564.554983 92.314578 
L 551.05901 92.5416 
L 446.465224 94.301025 
L 534.189045 92.825378 
L 571.302969 92.201066 
L 601.668907 91.690265 
L 513.945086 93.165912 
L 453.213211 94.187514 
L 510.571093 93.222668 
L 517.319079 93.109157 
L 638.782831 91.065953 
L 689.392727 90.214619 
L 601.668907 91.690265 
L 517.319079 93.109157 
L 554.433003 92.484845 
L 473.457169 93.84698 
L 544.311024 92.655111 
L 446.465224 94.301025 
L 466.709183 93.960491 
L 605.0429 91.63351 
L 422.847273 94.698315 
L 584.798941 91.974044 
L 571.302969 92.201066 
" clip-path="url(#p224244318d)" style="fill: none; stroke: #e03639; stroke-width: 1.5; stroke-linecap: square"/>
   </g>
   <g id="axes_4">
    <g id="patch_21">
     <path d="M 614.76 295.0254 
L 688.06 295.0254 
L 688.06 221.5154 
L 614.76 221.5154 
z
" style="fill: #ffffff; opacity: 0.2"/>
    </g>
    <g id="patch_22">
     <path d="M 618.091818 295.0254 
L 632.120526 295.0254 
L 632.120526 293.770002 
L 618.091818 293.770002 
z
" clip-path="url(#pf7ae3d9b05)" style="fill: #292f36"/>
    </g>
    <g id="patch_23">
     <path d="M 635.627703 295.0254 
L 649.656411 295.0254 
L 649.656411 294.936481 
L 635.627703 294.936481 
z
" clip-path="url(#pf7ae3d9b05)" style="fill: #52bfb6"/>
    </g>
    <g id="patch_24">
     <path d="M 653.163589 295.0254 
L 667.192297 295.0254 
L 667.192297 290.509626 
L 653.163589 290.509626 
z
" clip-path="url(#pf7ae3d9b05)" style="fill: #e3bc59"/>
    </g>
    <g id="patch_25">
     <path d="M 670.699474 295.0254 
L 684.728182 295.0254 
L 684.728182 294.440712 
L 670.699474 294.440712 
z
" clip-path="url(#pf7ae3d9b05)" style="fill: #e03639"/>
    </g>
    <g id="matplotlib.axis_7">
     <g id="xtick_13">
      <g id="line2d_36">
       <g>
        <use xlink:href="#mbbfd85cf6b" x="625.106172" y="295.0254" style="stroke: #000000; stroke-width: 0.8"/>
       </g>
      </g>
      <g id="text_35">
       <!-- R -->
       <g transform="translate(620.541332 311.542425)scale(0.13328 -0.13328)">
        <use xlink:href="#HelveticaNeue-52"/>
       </g>
      </g>
     </g>
     <g id="xtick_14">
      <g id="line2d_37">
       <g>
        <use xlink:href="#mbbfd85cf6b" x="642.642057" y="295.0254" style="stroke: #000000; stroke-width: 0.8"/>
       </g>
      </g>
      <g id="text_36">
       <!-- T -->
       <g transform="translate(638.816505 311.542425)scale(0.13328 -0.13328)">
        <use xlink:href="#HelveticaNeue-54"/>
       </g>
      </g>
     </g>
     <g id="xtick_15">
      <g id="line2d_38">
       <g>
        <use xlink:href="#mbbfd85cf6b" x="660.177943" y="295.0254" style="stroke: #000000; stroke-width: 0.8"/>
       </g>
      </g>
      <g id="text_37">
       <!-- F -->
       <g transform="translate(656.35239 311.542425)scale(0.13328 -0.13328)">
        <use xlink:href="#HelveticaNeue-46"/>
       </g>
      </g>
     </g>
     <g id="xtick_16">
      <g id="line2d_39">
       <g>
        <use xlink:href="#mbbfd85cf6b" x="677.713828" y="295.0254" style="stroke: #000000; stroke-width: 0.8"/>
       </g>
      </g>
      <g id="text_38">
       <!-- FT -->
       <g transform="translate(670.062723 311.542425)scale(0.13328 -0.13328)">
        <use xlink:href="#HelveticaNeue-46"/>
        <use xlink:href="#HelveticaNeue-54" x="57.399994"/>
       </g>
      </g>
     </g>
    </g>
    <g id="matplotlib.axis_8">
     <g id="ytick_16">
      <g id="line2d_40">
       <g>
        <use xlink:href="#ma48ed02561" x="614.76" y="295.0254" style="stroke: #000000; stroke-width: 0.8"/>
       </g>
      </g>
      <g id="text_39">
       <!-- 0 -->
       <g transform="translate(600.350465 299.783912)scale(0.13328 -0.13328)">
        <use xlink:href="#HelveticaNeue-30"/>
       </g>
      </g>
     </g>
     <g id="ytick_17">
      <g id="line2d_41">
       <g>
        <use xlink:href="#ma48ed02561" x="614.76" y="258.2704" style="stroke: #000000; stroke-width: 0.8"/>
       </g>
      </g>
      <g id="text_40">
       <!-- 0.5 -->
       <g transform="translate(589.236163 263.028912)scale(0.13328 -0.13328)">
        <use xlink:href="#HelveticaNeue-30"/>
        <use xlink:href="#HelveticaNeue-2e" x="55.599991"/>
        <use xlink:href="#HelveticaNeue-35" x="83.399979"/>
       </g>
      </g>
     </g>
     <g id="ytick_18">
      <g id="line2d_42">
       <g>
        <use xlink:href="#ma48ed02561" x="614.76" y="221.5154" style="stroke: #000000; stroke-width: 0.8"/>
       </g>
      </g>
      <g id="text_41">
       <!-- 1 -->
       <g transform="translate(600.350465 226.273912)scale(0.13328 -0.13328)">
        <use xlink:href="#HelveticaNeue-31"/>
       </g>
      </g>
     </g>
    </g>
    <g id="patch_26">
     <path d="M 614.76 295.0254 
L 614.76 221.5154 
" style="fill: none; stroke: #000000; stroke-width: 0.8; stroke-linejoin: miter; stroke-linecap: square"/>
    </g>
    <g id="patch_27">
     <path d="M 688.06 295.0254 
L 688.06 221.5154 
" style="fill: none; stroke: #000000; stroke-width: 0.8; stroke-linejoin: miter; stroke-linecap: square"/>
    </g>
    <g id="patch_28">
     <path d="M 614.76 295.0254 
L 688.06 295.0254 
" style="fill: none; stroke: #000000; stroke-width: 0.8; stroke-linejoin: miter; stroke-linecap: square"/>
    </g>
    <g id="patch_29">
     <path d="M 614.76 221.5154 
L 688.06 221.5154 
" style="fill: none; stroke: #000000; stroke-width: 0.8; stroke-linejoin: miter; stroke-linecap: square"/>
    </g>
    <g id="text_42">
     <!-- R$^2$ -->
     <g transform="translate(642.05 215.5154)scale(0.16 -0.16)">
      <use xlink:href="#HelveticaNeue-52" transform="translate(0 0.765625)"/>
      <use xlink:href="#DejaVuSans-32" transform="translate(69.457016 39.046875)scale(0.7)"/>
     </g>
    </g>
   </g>
  </g>
 </g>
 <defs>
  <clipPath id="p90855ef69d">
   <rect x="58.16" y="34.8" width="293.2" height="294.04"/>
  </clipPath>
  <clipPath id="p8d59799348">
   <rect x="263.4" y="221.5154" width="73.3" height="73.51"/>
  </clipPath>
  <clipPath id="p224244318d">
   <rect x="409.52" y="34.8" width="293.2" height="294.04"/>
  </clipPath>
  <clipPath id="pf7ae3d9b05">
   <rect x="614.76" y="221.5154" width="73.3" height="73.51"/>
  </clipPath>
 </defs>
</svg>
